# vtk DataFile Version 2.0
Nodal data
ASCII

DATASET UNSTRUCTURED_GRID
POINTS 81 double
0 0 0
0 0.03125 0
0 0.03125 0.03125
0 0 0.03125
0 0.0625 0
0 0.0625 0.03125
0 0.09375 0
0 0.09375 0.03125
0 0.125 0
0 0.125 0.03125
0 0.15625 0
0 0.15625 0.03125
0 0.1875 0
0 0.1875 0.03125
0 0.21875 0
0 0.21875 0.03125
0 0.25 0
0 0.25 0.03125
0 0.03125 0.0625
0 0 0.0625
0 0.0625 0.0625
0 0.09375 0.0625
0 0.125 0.0625
0 0.15625 0.0625
0 0.1875 0.0625
0 0.21875 0.0625
0 0.25 0.0625
0 0.03125 0.09375
0 0 0.09375
0 0.0625 0.09375
0 0.09375 0.09375
0 0.125 0.09375
0 0.15625 0.09375
0 0.1875 0.09375
0 0.21875 0.09375
0 0.25 0.09375
0 0.03125 0.125
0 0 0.125
0 0.0625 0.125
0 0.09375 0.125
0 0.125 0.125
0 0.15625 0.125
0 0.1875 0.125
0 0.21875 0.125
0 0.25 0.125
0 0.03125 0.15625
0 0 0.15625
0 0.0625 0.15625
0 0.09375 0.15625
0 0.125 0.15625
0 0.15625 0.15625
0 0.1875 0.15625
0 0.21875 0.15625
0 0.25 0.15625
0 0.03125 0.1875
0 0 0.1875
0 0.0625 0.1875
0 0.09375 0.1875
0 0.125 0.1875
0 0.15625 0.1875
0 0.1875 0.1875
0 0.21875 0.1875
0 0.25 0.1875
0 0.03125 0.21875
0 0 0.21875
0 0.0625 0.21875
0 0.09375 0.21875
0 0.125 0.21875
0 0.15625 0.21875
0 0.1875 0.21875
0 0.21875 0.21875
0 0.25 0.21875
0 0.03125 0.25
0 0 0.25
0 0.0625 0.25
0 0.09375 0.25
0 0.125 0.25
0 0.15625 0.25
0 0.1875 0.25
0 0.21875 0.25
0 0.25 0.25

CELLS 64 320
4 0 1 2 3
4 1 4 5 2
4 4 6 7 5
4 6 8 9 7
4 8 10 11 9
4 10 12 13 11
4 12 14 15 13
4 14 16 17 15
4 3 2 18 19
4 2 5 20 18
4 5 7 21 20
4 7 9 22 21
4 9 11 23 22
4 11 13 24 23
4 13 15 25 24
4 15 17 26 25
4 19 18 27 28
4 18 20 29 27
4 20 21 30 29
4 21 22 31 30
4 22 23 32 31
4 23 24 33 32
4 24 25 34 33
4 25 26 35 34
4 28 27 36 37
4 27 29 38 36
4 29 30 39 38
4 30 31 40 39
4 31 32 41 40
4 32 33 42 41
4 33 34 43 42
4 34 35 44 43
4 37 36 45 46
4 36 38 47 45
4 38 39 48 47
4 39 40 49 48
4 40 41 50 49
4 41 42 51 50
4 42 43 52 51
4 43 44 53 52
4 46 45 54 55
4 45 47 56 54
4 47 48 57 56
4 48 49 58 57
4 49 50 59 58
4 50 51 60 59
4 51 52 61 60
4 52 53 62 61
4 55 54 63 64
4 54 56 65 63
4 56 57 66 65
4 57 58 67 66
4 58 59 68 67
4 59 60 69 68
4 60 61 70 69
4 61 62 71 70
4 64 63 72 73
4 63 65 74 72
4 65 66 75 74
4 66 67 76 75
4 67 68 77 76
4 68 69 78 77
4 69 70 79 78
4 70 71 80 79

CELL_TYPES 64
9
9
9
9
9
9
9
9
9
9
9
9
9
9
9
9
9
9
9
9
9
9
9
9
9
9
9
9
9
9
9
9
9
9
9
9
9
9
9
9
9
9
9
9
9
9
9
9
9
9
9
9
9
9
9
9
9
9
9
9
9
9
9
9

POINT_DATA 81
SCALARS state_number_0 double
LOOKUP_TABLE default
1.654255301
1.717046558
1.77811017
1.715467026
1.904573545
1.965122238
2.213571468
2.272955521
2.63551715
2.692636527
3.160036003
3.215668596
3.793365878
3.848759449
4.540410963
4.595756477
5.401992661
5.457322979
1.96018728
1.898066897
2.145372799
2.44911198
2.862201504
3.382292842
4.014898917
4.761782772
5.62331043
2.25885991
2.197957707
2.439844688
2.735483049
3.141364605
3.659507172
4.291705279
5.038466974
5.899946481
2.663004868
2.604350323
2.837771078
3.126817139
3.529826366
4.047176654
4.679124222
5.425787603
6.287221646
3.165701546
3.108086149
3.338407523
3.625971468
4.028281023
4.545328253
5.177137231
5.923731669
6.78512853
3.775333735
3.71786239
3.947725511
4.234991274
4.637092963
5.154012299
5.785745207
6.532293986
7.393662685
4.494893089
4.437452852
4.667207992
4.954383851
5.356406313
5.873265148
6.50495498
7.251473939
8.112822086
5.324867965
5.267438091
5.497155536
5.784295612
6.186281971
6.703109206
7.334773558
8.081272882
8.942606231
SCALARS state_number_1 double
LOOKUP_TABLE default
1.728869943
1.786368088
1.841778766
1.784272648
1.958910629
2.014354032
2.246744652
2.302293231
2.650897207
2.706724368
3.171568625
3.227205295
3.805199851
3.860623669
4.552509637
4.607870393
5.414247946
5.469586519
2.008080372
1.950540441
2.180796278
2.469179076
2.874264856
3.393914731
4.026843771
4.773938014
5.635596956
2.285654164
2.227998146
2.458838488
2.748187826
3.152898992
3.671308806
4.303756102
5.050679232
5.912266299
2.675892544
2.617984002
2.849552176
3.13836133
3.541587655
4.059167464
4.691281626
5.4380618
6.299579948
3.177293973
3.119650168
3.350099431
3.637818652
4.040289027
4.557472535
5.189388435
5.936065335
6.797526296
3.78728224
3.729788171
3.959735167
4.247083616
4.649272234
5.166271829
5.798074098
6.544681085
7.406098194
4.507064672
4.449613275
4.679410376
4.966630109
5.368702185
5.88561068
6.517346876
7.263907465
8.125292242
5.337172966
5.279736985
5.509477782
5.796643468
6.198660392
6.71552007
7.347216498
8.093746171
8.955107471
SCALARS state_number_2 double
LOOKUP_TABLE default
1.742108433
1.799652254
1.855116818
1.797561497
1.972352468
2.027862843
2.26054003
2.316183779
2.665367248
2.721311865
3.187372841
3.243205596
3.822545614
3.878070964
4.570696339
4.626102874
5.432893942
5.488256062
2.021608227
1.964005757
2.194541972
2.483384485
2.889275866
3.410456369
4.044553772
4.792293423
5.654331738
2.299616802
2.241870141
2.473093406
2.762988155
3.168862411
3.688543791
4.321797475
5.069201438
5.931094697
2.690653697
2.632625691
2.864751367
3.15444603
3.558680543
4.077022889
4.709643417
5.456761653
6.318515284
3.193692901
3.135886274
3.366933835
3.655208994
4.05819817
4.57579551
5.208022767
5.95493237
6.816569909
3.805003896
3.747436957
3.977649449
4.265251226
4.667698324
5.184929945
5.81692783
6.563695568
7.425244058
4.525468213
4.467983973
4.697903925
4.985250284
5.387463354
5.904510685
6.53637447
7.28304799
8.14453088
5.355959826
5.298506664
5.528312964
5.815549912
6.217651102
6.734599305
7.366382348
8.112993149
8.974428477
SCALARS state_number_3 double
LOOKUP_TABLE default
1.762905074
1.820526436
1.87607913
1.818443484
1.99347471
2.049081741
2.282119449
2.337865458
2.687516343
2.74353065
3.210404883
3.266411626
3.847279309
3.902940507
4.596611338
4.652084852
5.459485334
5.514882242
2.042853706
1.985162449
2.216064697
2.505350198
2.911735508
3.434209897
4.069784808
4.818455939
5.681054239
2.321370634
2.263532521
2.495096871
2.785326278
3.19203471
3.713132017
4.347501035
5.09560996
5.957955223
2.71296994
2.654875257
2.887328635
3.177730981
3.583086661
4.102459366
4.735815326
5.483432592
6.345533081
3.217292708
3.159318819
3.391022769
3.680002048
4.083711339
4.601910307
5.234596933
5.981849778
6.84374634
3.830251269
3.772582576
4.003169978
4.29113834
4.693964985
5.211539242
5.84382566
6.59082939
7.45256963
4.551701627
4.494168998
4.724270128
5.011803533
5.414224783
5.931476577
6.563527479
7.310365794
8.171991137
5.382759141
5.325280646
5.555183482
5.842525269
6.244750113
6.761827777
7.393736987
8.140465481
9.002007766
SCALARS state_number_4 double
LOOKUP_TABLE default
1.791875622
1.849572787
1.905207992
1.847497298
2.022743886
2.078430066
2.311727542
2.367537366
2.717423032
2.773464853
3.240787992
3.296924827
3.879326362
3.93515306
4.630205965
4.685772736
5.4940324
5.549478583
2.072223079
2.014460312
2.245635555
2.535176243
2.941771933
3.46519655
4.102455811
4.852396758
5.715786961
2.351084951
2.293192716
2.524940739
2.815308227
3.22252189
3.745006388
4.38080396
5.129898024
5.992883095
2.742942828
2.684821494
2.9174248
3.208306561
3.614751891
4.135401166
4.769769368
5.518092326
6.380682526
3.248137059
3.190016508
3.4223437
3.712120922
4.116755871
4.635784086
5.269119589
6.016857898
6.879118134
3.862943558
3.805143047
4.03622441
4.324694251
4.72805254
5.246111671
5.878806171
6.626141591
7.48814914
4.58574229
4.528141498
4.758498318
5.046296558
5.449012599
5.966553007
6.598866524
7.345934515
8.207756978
5.417600532
5.360086216
5.590125456
5.877615024
6.280013555
6.797272202
7.429356814
8.176247959
9.037937231
SCALARS state_number_5 double
LOOKUP_TABLE default
1.828725219
1.886507613
1.942231953
1.884440333
2.059911034
2.115673507
2.349199507
2.405060388
2.755110559
2.811166607
3.278721707
3.334943294
3.918727818
3.974738513
4.671516654
4.727208956
5.536650435
5.592165076
2.109486266
2.051655483
2.283076797
2.572813083
2.97951784
3.50357235
4.142579483
4.89417701
5.758662916
2.388640726
2.33070652
2.562589588
2.853030993
3.260522883
3.784222196
4.42172767
5.172156707
6.03602973
2.780661791
2.722528873
2.955198143
3.246367897
3.653751978
4.175860357
4.811567717
5.560866889
6.424135291
3.286398042
3.228165633
3.461011879
3.751601521
4.157345358
4.677472691
5.311703717
6.060115596
6.922876077
3.903093158
3.845133345
4.076826539
4.365953072
4.770034284
5.288764943
5.922025681
6.669817984
7.532189807
4.627659514
4.569965138
4.800674151
5.088839534
5.491965034
6.00990508
6.642579674
7.389960567
8.252049019
5.460627301
5.403063291
5.633291625
5.920985488
6.323623077
6.841129293
7.473452064
8.220562348
9.082448126
SCALARS state_number_6 double
LOOKUP_TABLE default
1.873093926
1.931004434
1.986858779
1.928949296
2.104738494
2.160603917
2.394424758
2.450349666
2.800612783
2.856688057
3.324385959
3.38065706
3.965563146
4.021758555
4.720565588
4.776421956
5.587465986
5.643075266
2.154442924
2.096521061
2.328263326
2.618246889
3.025079932
3.549524076
4.190179051
4.943847293
5.809835222
2.433971104
2.375984252
2.608039229
2.898575951
3.306226212
3.830878631
4.470282172
5.222477212
6.087576309
2.826203154
2.768057417
3.000775959
3.292107812
3.700210421
4.223848031
4.861262333
5.611898904
6.47610348
3.332268611
3.273961273
3.507187928
3.798515416
4.205488755
4.727020169
5.362472422
6.111815421
6.975261236
3.95072202
3.892584146
4.124985187
4.414934698
4.819976747
5.3396292
5.973672847
6.722092108
7.584957214
4.677514524
4.619693803
4.850881151
5.1395514
5.54324315
6.061734887
6.694903892
7.442708317
8.305152371
5.512008235
5.454375495
5.684865181
5.972840592
6.37580595
6.893648989
7.526292738
8.273695371
9.135840697
SCALARS state_number_7 double
LOOKUP_TABLE default
1.924111227
1.98227618
2.038384606
1.980244961
2.156648177
2.212707023
2.44707426
2.50311886
2.853818535
2.909943065
3.37785765
3.434162681
4.019907375
4.076267911
4.77729872
4.833361909
5.646554042
5.70229473
2.206594994
2.148502619
2.38084104
2.671299074
3.078441387
3.603185169
4.245251212
5.0013794
5.869419622
2.486818228
2.428731735
2.661124932
2.95189521
3.359724868
3.885069925
4.526412871
5.280883138
6.147682653
2.879512596
2.821331576
3.054165889
3.345630616
3.75424086
4.279332114
4.918826527
5.671287842
6.536795924
3.3858761
3.327520171
3.561004872
3.852928998
4.261145407
4.78439115
5.421495516
6.172135206
7.036528188
4.005824352
3.947505624
4.180658953
4.47158393
4.87787075
5.398784854
6.033919323
6.783206762
7.646743904
4.735291569
4.677302984
4.909132398
5.198495788
5.602975103
6.122235394
6.756087311
7.504468476
8.36738909
5.571883602
5.514154992
5.745009118
6.033376219
6.436795022
6.955099718
7.588178149
8.335971507
9.198459244
SCALARS state_number_8 double
LOOKUP_TABLE default
1.979615466
2.038321624
2.094977893
2.036341701
2.214079577
2.270564192
2.506146421
2.562461642
2.914205606
2.970462615
3.438966047
3.495323841
4.081755264
4.138248931
4.841519236
4.897829075
5.713851113
5.769775963
2.264560241
2.206091986
2.439752046
2.731301121
3.139270917
3.664507195
4.307721272
5.066582264
5.937415498
2.546339086
2.488025211
2.721208419
3.012597968
3.420876146
3.94679837
4.589948907
5.347239109
6.216419426
2.940186538
2.881904372
3.115080624
3.406814515
3.815846954
4.342194983
4.984070419
5.739007557
6.606364501
3.447150535
3.388746035
3.622450463
3.914832252
4.324181327
4.849389741
5.488701843
6.241175315
7.106904486
4.068322182
4.009839318
4.243712299
4.535706021
4.94354251
5.466176573
6.102855287
6.853370046
7.717839094
4.800810326
4.742604587
4.97527931
5.265592427
5.671180066
6.191532047
6.826346899
7.575527296
8.439094837
5.640292124
5.582427411
5.813799322
6.102722691
6.506782021
7.025731728
7.6594083
8.407730138
9.270673199
SCALARS state_number_9 double
LOOKUP_TABLE default
2.036778602
2.096169744
2.153597055
2.094258675
2.274031017
2.331262788
2.569227776
2.626122314
2.980280072
3.036869844
3.506975081
3.56347301
4.150848867
4.207456668
4.912806794
4.969385412
5.78900472
5.84518915
2.325455929
2.266315152
2.502496704
2.796448531
3.206496906
3.733005352
4.377338803
5.138987931
6.013564201
2.610390521
2.551579018
2.786547706
3.079481272
3.488999779
4.015784975
4.66053439
5.421105531
6.293645249
3.006993555
2.948447881
3.18254365
3.475020924
3.884715095
4.412152855
5.056525463
5.814759875
6.68480889
3.515559514
3.457051693
3.691135062
3.983973788
4.394294823
4.921552643
5.563728347
6.318845391
7.186523309
4.137963283
4.079342017
4.313841678
4.606888636
5.016524446
5.541463313
6.180372718
6.932680968
7.798482726
4.873601414
4.815129428
5.048870362
5.34046607
5.74763104
6.269578198
6.905797225
7.6561197
8.520587015
5.717038835
5.658976237
5.89110333
6.180841843
6.585836985
7.105717838
7.740241384
8.489294749
9.352853852

