# vtk DataFile Version 2.0
Nodal data
ASCII

DATASET UNSTRUCTURED_GRID
POINTS 81 double
0 0 0
0 0.03125 0
0 0.03125 0.03125
0 0 0.03125
0 0.0625 0
0 0.0625 0.03125
0 0.09375 0
0 0.09375 0.03125
0 0.125 0
0 0.125 0.03125
0 0.15625 0
0 0.15625 0.03125
0 0.1875 0
0 0.1875 0.03125
0 0.21875 0
0 0.21875 0.03125
0 0.25 0
0 0.25 0.03125
0 0.03125 0.0625
0 0 0.0625
0 0.0625 0.0625
0 0.09375 0.0625
0 0.125 0.0625
0 0.15625 0.0625
0 0.1875 0.0625
0 0.21875 0.0625
0 0.25 0.0625
0 0.03125 0.09375
0 0 0.09375
0 0.0625 0.09375
0 0.09375 0.09375
0 0.125 0.09375
0 0.15625 0.09375
0 0.1875 0.09375
0 0.21875 0.09375
0 0.25 0.09375
0 0.03125 0.125
0 0 0.125
0 0.0625 0.125
0 0.09375 0.125
0 0.125 0.125
0 0.15625 0.125
0 0.1875 0.125
0 0.21875 0.125
0 0.25 0.125
0 0.03125 0.15625
0 0 0.15625
0 0.0625 0.15625
0 0.09375 0.15625
0 0.125 0.15625
0 0.15625 0.15625
0 0.1875 0.15625
0 0.21875 0.15625
0 0.25 0.15625
0 0.03125 0.1875
0 0 0.1875
0 0.0625 0.1875
0 0.09375 0.1875
0 0.125 0.1875
0 0.15625 0.1875
0 0.1875 0.1875
0 0.21875 0.1875
0 0.25 0.1875
0 0.03125 0.21875
0 0 0.21875
0 0.0625 0.21875
0 0.09375 0.21875
0 0.125 0.21875
0 0.15625 0.21875
0 0.1875 0.21875
0 0.21875 0.21875
0 0.25 0.21875
0 0.03125 0.25
0 0 0.25
0 0.0625 0.25
0 0.09375 0.25
0 0.125 0.25
0 0.15625 0.25
0 0.1875 0.25
0 0.21875 0.25
0 0.25 0.25

CELLS 64 320
4 0 1 2 3
4 1 4 5 2
4 4 6 7 5
4 6 8 9 7
4 8 10 11 9
4 10 12 13 11
4 12 14 15 13
4 14 16 17 15
4 3 2 18 19
4 2 5 20 18
4 5 7 21 20
4 7 9 22 21
4 9 11 23 22
4 11 13 24 23
4 13 15 25 24
4 15 17 26 25
4 19 18 27 28
4 18 20 29 27
4 20 21 30 29
4 21 22 31 30
4 22 23 32 31
4 23 24 33 32
4 24 25 34 33
4 25 26 35 34
4 28 27 36 37
4 27 29 38 36
4 29 30 39 38
4 30 31 40 39
4 31 32 41 40
4 32 33 42 41
4 33 34 43 42
4 34 35 44 43
4 37 36 45 46
4 36 38 47 45
4 38 39 48 47
4 39 40 49 48
4 40 41 50 49
4 41 42 51 50
4 42 43 52 51
4 43 44 53 52
4 46 45 54 55
4 45 47 56 54
4 47 48 57 56
4 48 49 58 57
4 49 50 59 58
4 50 51 60 59
4 51 52 61 60
4 52 53 62 61
4 55 54 63 64
4 54 56 65 63
4 56 57 66 65
4 57 58 67 66
4 58 59 68 67
4 59 60 69 68
4 60 61 70 69
4 61 62 71 70
4 64 63 72 73
4 63 65 74 72
4 65 66 75 74
4 66 67 76 75
4 67 68 77 76
4 68 69 78 77
4 69 70 79 78
4 70 71 80 79

CELL_TYPES 64
9
9
9
9
9
9
9
9
9
9
9
9
9
9
9
9
9
9
9
9
9
9
9
9
9
9
9
9
9
9
9
9
9
9
9
9
9
9
9
9
9
9
9
9
9
9
9
9
9
9
9
9
9
9
9
9
9
9
9
9
9
9
9
9

POINT_DATA 81
SCALARS state_number_0 double
LOOKUP_TABLE default
-0.09631219406
-0.1072859851
-0.1141010103
-0.1072859851
-0.1271556807
-0.1336193334
-0.1593613106
-0.1657821627
-0.2042331169
-0.2106305614
-0.2616970229
-0.2680654142
-0.3315360639
-0.3378589787
-0.4132616901
-0.4194940891
-0.5047922015
-0.510597713
-0.1336193332
-0.1271556805
-0.1529359313
-0.1850223024
-0.2298044361
-0.2871488681
-0.3567966009
-0.4381229888
-0.5266078921
-0.1657821627
-0.1593613106
-0.1850223023
-0.2170249429
-0.2616970227
-0.3188758576
-0.3882402113
-0.4688597229
-0.5520611155
-0.2106305613
-0.2042331169
-0.2298044361
-0.2616970228
-0.3061975967
-0.3630979999
-0.431925796
-0.5105977129
-0.5876752673
-0.268065414
-0.2616970227
-0.2871488682
-0.3188758575
-0.3630979996
-0.419494089
-0.4870094235
-0.5571489961
-0.6334639176
-0.3378589786
-0.3315360639
-0.3567966008
-0.3882402116
-0.4319257967
-0.4870094242
-0.5469727961
-0.6131134193
-0.6894279953
-0.419494089
-0.4132616902
-0.4381229888
-0.468859723
-0.5105977144
-0.557148996
-0.6131134192
-0.6792526792
-0.7555678591
-0.5105977126
-0.5047922013
-0.5266078921
-0.5520611155
-0.5876752674
-0.6334639176
-0.6894279953
-0.7555678591
-0.8318836091
SCALARS state_number_1 double
LOOKUP_TABLE default
-0.09631219409
-0.1076008553
-0.1143708903
-0.1076008553
-0.1273803722
-0.1338319053
-0.159550552
-0.165968838
-0.2044166881
-0.2108150057
-0.2618982203
-0.2682698449
-0.3317889516
-0.3381186947
-0.4136531209
-0.4199027116
-0.5055636263
-0.5112434407
-0.1338319056
-0.1273803723
-0.153128689
-0.1852053334
-0.2299932291
-0.287364584
-0.3570797113
-0.4385922199
-0.5266177338
-0.1659688381
-0.1595505521
-0.1852053336
-0.2172105601
-0.2618982204
-0.3191163471
-0.3885747051
-0.4694669292
-0.5520612856
-0.2108150058
-0.204416688
-0.2299932292
-0.2618982204
-0.3064271927
-0.3633900106
-0.4323731859
-0.5112434407
-0.5876766368
-0.2682698451
-0.2618982204
-0.287364584
-0.3191163473
-0.3633900108
-0.4199027117
-0.4877172403
-0.5571495121
-0.63346556
-0.3381186947
-0.3317889517
-0.3570797113
-0.3885747048
-0.4323731852
-0.4877172393
-0.5469731232
-0.6131149919
-0.6894296903
-0.4199027116
-0.4136531208
-0.43859222
-0.4694669289
-0.5112434401
-0.5571495122
-0.6131149919
-0.6792543721
-0.7555695399
-0.5112434407
-0.5055636265
-0.5266177337
-0.5520612856
-0.5876766368
-0.63346556
-0.6894296902
-0.7555695399
-0.8318852559
SCALARS state_number_2 double
LOOKUP_TABLE default
-0.1074151007
-0.1386588925
-0.1615026968
-0.1386588918
-0.1867559217
-0.1949482579
-0.2199405502
-0.225505624
-0.2577058072
-0.2630024675
-0.3052956598
-0.310582128
-0.3633793474
-0.3686145692
-0.4299651348
-0.435053673
-0.5063023335
-0.5114072195
-0.1949482527
-0.1867559233
-0.2142276926
-0.2417466653
-0.2788681251
-0.3264423005
-0.3841074731
-0.4503181692
-0.5277116115
-0.2255056128
-0.21994055
-0.2417466408
-0.2682937963
-0.305295668
-0.3528533981
-0.4096062927
-0.475758031
-0.5546484916
-0.263002462
-0.2577058149
-0.2788681082
-0.3052956421
-0.3422966269
-0.3892200208
-0.4452301325
-0.5114072196
-0.5907841201
-0.3105821201
-0.3052956576
-0.3264422894
-0.3528533737
-0.389220021
-0.435053673
-0.4910238045
-0.5598727547
-0.6367397376
-0.3686145646
-0.3633793449
-0.3841074743
-0.4096062932
-0.4452301326
-0.4910238046
-0.5493832185
-0.6163374669
-0.6927779301
-0.435053673
-0.4299651348
-0.4503181691
-0.4757580308
-0.5114072194
-0.5598727579
-0.6163374668
-0.6825933287
-0.758955743
-0.5114072196
-0.5063023335
-0.5277116119
-0.5546484922
-0.5907841194
-0.6367397379
-0.6927779302
-0.7589557429
-0.8352931999
SCALARS state_number_3 double
LOOKUP_TABLE default
-0.1074151012
-0.1415032621
-0.1647862111
-0.1415032612
-0.189381366
-0.1971766788
-0.2212619425
-0.2267072155
-0.2585174076
-0.2637781042
-0.3058988564
-0.31117203
-0.3636997349
-0.368840188
-0.4299732404
-0.4350610969
-0.5063104779
-0.5115445162
-0.197176683
-0.1893813668
-0.2156991918
-0.242704225
-0.2795602589
-0.3269963062
-0.3841624297
-0.4503242589
-0.5283627493
-0.2267072247
-0.2212619479
-0.2427042331
-0.2690380198
-0.3058988619
-0.3533101689
-0.4096199115
-0.4757630791
-0.5548827196
-0.2637781048
-0.2585174087
-0.2795602632
-0.3058988663
-0.3428093444
-0.389257283
-0.445236577
-0.5115445163
-0.5908320725
-0.3111720322
-0.3058988548
-0.3269963037
-0.3533101645
-0.3892572829
-0.435061097
-0.4910282072
-0.5600544548
-0.6367503833
-0.3688401876
-0.3636997351
-0.3841624289
-0.4096199117
-0.4452365771
-0.4910282072
-0.5496848581
-0.6163574421
-0.6927793914
-0.4350610969
-0.4299732403
-0.4503242589
-0.4757630791
-0.5115445153
-0.5600544527
-0.6163574416
-0.6825956572
-0.758957034
-0.5115445162
-0.5063104779
-0.5283627486
-0.5548827191
-0.5908320726
-0.636750382
-0.6927793913
-0.758957034
-0.8352954033
SCALARS state_number_4 double
LOOKUP_TABLE default
-0.1846838219
-0.1877184364
-0.1921706454
-0.1877184363
-0.2018122681
-0.2067627635
-0.2268329776
-0.2318817641
-0.2622711786
-0.2673452945
-0.3079818686
-0.3130654104
-0.3639943312
-0.3691292137
-0.4320009295
-0.437232982
-0.5097882771
-0.5149615805
-0.2067627636
-0.2018122682
-0.2217926699
-0.2470614288
-0.2825763282
-0.3283209862
-0.3847362561
-0.4528850981
-0.5304932783
-0.2318817644
-0.2268329776
-0.247061429
-0.2724209931
-0.3079818686
-0.3537766481
-0.4110161162
-0.4788147558
-0.5565619685
-0.2673452944
-0.2622711785
-0.2825763286
-0.3079818691
-0.3435870114
-0.3899858629
-0.447675535
-0.5149615805
-0.5931109115
-0.3130654103
-0.3079818688
-0.3283209856
-0.3537766485
-0.3899858571
-0.4372329795
-0.4943027851
-0.5618000769
-0.6396199941
-0.3691292128
-0.3639943316
-0.3847362525
-0.4110161123
-0.4476755333
-0.4943027861
-0.55132603
-0.6190023471
-0.6960601228
-0.4372329826
-0.4320009301
-0.4528850991
-0.4788147517
-0.5149615803
-0.5618000777
-0.6190023472
-0.6858182605
-0.7625060118
-0.5149615805
-0.509788277
-0.5304932787
-0.5565619694
-0.5931109115
-0.6396199918
-0.696060123
-0.7625060117
-0.8390183271
SCALARS state_number_5 double
LOOKUP_TABLE default
-0.1846838226
-0.1877584018
-0.1921754999
-0.1877584017
-0.2018210342
-0.2067727444
-0.226842063
-0.2318904181
-0.2622784275
-0.2673525082
-0.307991579
-0.3130761093
-0.3641994506
-0.369424208
-0.4324134773
-0.4376278377
-0.5098626385
-0.5150082829
-0.2067727443
-0.2018210343
-0.2218022086
-0.2470691149
-0.2825837889
-0.3283374491
-0.3851873274
-0.453213928
-0.530567023
-0.2318904181
-0.226842063
-0.2470691147
-0.272428228
-0.3079915794
-0.3538558575
-0.4114749763
-0.4790205718
-0.5568170029
-0.2673525086
-0.2622784278
-0.2825837892
-0.3079915799
-0.3436222997
-0.3904493381
-0.448028165
-0.5150082829
-0.5932792634
-0.3130761095
-0.3079915792
-0.3283374498
-0.3538558551
-0.390449335
-0.4376278397
-0.4944439131
-0.5620556619
-0.6396894975
-0.3694242082
-0.3641994503
-0.3851873171
-0.4114749769
-0.4480281669
-0.4944439137
-0.5515685073
-0.6191055628
-0.6960840064
-0.4376278366
-0.4324134751
-0.4532139288
-0.4790205715
-0.5150082831
-0.5620556615
-0.6191055632
-0.6858472664
-0.7625118724
-0.5150082829
-0.5098626385
-0.530567023
-0.5568170031
-0.5932792585
-0.639689495
-0.6960840048
-0.762511872
-0.8390193192
SCALARS state_number_6 double
LOOKUP_TABLE default
-0.1986220553
-0.1955712201
-0.1987512113
-0.1955712204
-0.207277518
-0.2119356653
-0.2313969592
-0.2363606616
-0.266454344
-0.2714998229
-0.3120027279
-0.31707734
-0.3679168244
-0.3730097986
-0.434338427
-0.4394790392
-0.5126846796
-0.5180639159
-0.2119356656
-0.2072775178
-0.2264602793
-0.2513588117
-0.2866643441
-0.3323121378
-0.38830044
-0.4549498957
-0.5343557118
-0.2363606615
-0.231396959
-0.2513588111
-0.2765504347
-0.3120027281
-0.3577360557
-0.4138363795
-0.4809483793
-0.5611294987
-0.2714998224
-0.2664543441
-0.2866643443
-0.3120027282
-0.3475617722
-0.3934017824
-0.4497839178
-0.5180639159
-0.597536474
-0.31707734
-0.312002728
-0.3323121387
-0.3577360556
-0.393401781
-0.4394790377
-0.4967190917
-0.5663653161
-0.6439714813
-0.373009799
-0.3679168243
-0.3883004386
-0.4138363778
-0.4497839148
-0.4967190919
-0.5558750781
-0.6233588348
-0.7005274974
-0.4394790389
-0.434338428
-0.4549498962
-0.4809483776
-0.5180639143
-0.566365317
-0.6233588341
-0.6902564732
-0.7671824666
-0.5180639156
-0.5126846798
-0.5343557121
-0.5611294993
-0.5975364753
-0.6439714791
-0.7005274972
-0.7671824667
-0.8439112011
SCALARS state_number_7 double
LOOKUP_TABLE default
-0.1986220681
-0.1957565639
-0.1987662887
-0.1957565645
-0.2073223604
-0.2119818186
-0.231429838
-0.236390713
-0.2664753634
-0.271520219
-0.3120230588
-0.3170982027
-0.3679532473
-0.3730495099
-0.4345077747
-0.4396734604
-0.5132248129
-0.5185728917
-0.2119818193
-0.2073223606
-0.2264964658
-0.2513829619
-0.2866837873
-0.332335428
-0.388353748
-0.4552359084
-0.5346395328
-0.236390713
-0.2314298383
-0.2513829622
-0.2765703695
-0.3120230586
-0.3577672292
-0.4139338933
-0.4814068685
-0.5612181911
-0.271520219
-0.2664753641
-0.2866837871
-0.3120230603
-0.3475890618
-0.393461281
-0.4500370302
-0.5185728914
-0.5976537598
-0.3170982024
-0.3120230584
-0.3323354276
-0.3577672295
-0.3934612814
-0.4396734615
-0.4972553615
-0.5664763081
-0.644043231
-0.3730495098
-0.3679532473
-0.3883537483
-0.413933893
-0.4500370324
-0.4972553634
-0.5559262003
-0.6234496007
-0.7005626693
-0.4396734605
-0.4345077752
-0.4552359099
-0.481406867
-0.5185728937
-0.5664763075
-0.6234496006
-0.6902968094
-0.7671950372
-0.5185728915
-0.513224813
-0.5346395325
-0.5612181908
-0.5976537575
-0.6440432284
-0.7005626667
-0.7671950359
-0.843911769
SCALARS state_number_8 double
LOOKUP_TABLE default
-0.2184395205
-0.2053662161
-0.2074514019
-0.2053662144
-0.2147231162
-0.2189906642
-0.237580058
-0.242416668
-0.2720584847
-0.2770590878
-0.3173444175
-0.3224032411
-0.3731497464
-0.378236858
-0.4394297987
-0.4445423364
-0.5165520806
-0.5217719015
-0.2189906644
-0.2147231158
-0.232796558
-0.2571395746
-0.2921178322
-0.3375998425
-0.3935095998
-0.4598950044
-0.537650427
-0.2424166673
-0.2375800582
-0.2571395759
-0.2820701042
-0.3173444184
-0.3629815027
-0.4190013281
-0.4855483186
-0.565385811
-0.2770590879
-0.2720584842
-0.2921178314
-0.3173444168
-0.35282173
-0.3986042303
-0.4547747628
-0.5217719024
-0.6039194552
-0.3224032403
-0.317344418
-0.3375998426
-0.3629815026
-0.3986042306
-0.4445423363
-0.5010032309
-0.5710624609
-0.6505953002
-0.3782368584
-0.3731497459
-0.3935096
-0.4190013277
-0.4547747625
-0.5010032332
-0.5597213921
-0.6299488572
-0.7071627938
-0.4445423354
-0.4394297997
-0.4598950036
-0.4855483198
-0.5217719044
-0.5710624626
-0.6299488564
-0.6968893021
-0.7738690323
-0.521771902
-0.516552081
-0.5376504268
-0.5653858118
-0.6039194569
-0.6505953022
-0.7071627932
-0.7738690311
-0.8507108045
SCALARS state_number_9 double
LOOKUP_TABLE default
-0.2184395205
-0.2058866398
-0.2075277939
-0.2058866414
-0.2147996789
-0.2190664505
-0.2376257196
-0.2424571501
-0.2720832972
-0.2770827618
-0.3173653154
-0.3224243302
-0.3731781914
-0.3782666817
-0.4394943608
-0.44461239
-0.516880835
-0.5221508333
-0.2190664518
-0.2147996794
-0.2328485757
-0.2571697758
-0.2921393818
-0.3376220756
-0.3935445301
-0.459986144
-0.5382034776
-0.242457153
-0.2376257212
-0.2571697753
-0.2820928776
-0.3173653146
-0.3630076037
-0.4190492058
-0.4857002842
-0.5658831217
-0.277082763
-0.2720832966
-0.2921393812
-0.3173653144
-0.3528459658
-0.3986412428
-0.4548579814
-0.5221508329
-0.6039616061
-0.3224243296
-0.3173653147
-0.3376220774
-0.3630076039
-0.398641242
-0.4446123894
-0.5012216413
-0.5714667469
-0.6506503404
-0.37826668
-0.3731781921
-0.3935445308
-0.419049207
-0.4548579808
-0.5012216402
-0.5602895578
-0.6300141079
-0.707192598
-0.4446123903
-0.4394943611
-0.4599861443
-0.4857002831
-0.5221508338
-0.5714667459
-0.6300141078
-0.6969228423
-0.7738809805
-0.5221508324
-0.5168808343
-0.5382034778
-0.5658831215
-0.6039616048
-0.650650341
-0.7071925978
-0.7738809809
-0.8507109472
SCALARS state_number_10 double
LOOKUP_TABLE default
-0.2194087884
-0.2150434999
-0.2174156384
-0.2150434992
-0.2240931223
-0.2279979696
-0.2457066775
-0.2504100475
-0.2795673034
-0.2845183131
-0.324552616
-0.3295917979
-0.3802106554
-0.3852893155
-0.446392701
-0.4514962989
-0.5231482192
-0.528286581
-0.2279979689
-0.2240931221
-0.2410823749
-0.2648403332
-0.29945801
-0.3447389325
-0.4005389556
-0.4668172675
-0.5437352705
-0.2504100442
-0.2457066777
-0.2648403326
-0.2894851753
-0.3245526164
-0.3700609113
-0.425995317
-0.4923880064
-0.5697374106
-0.2845183123
-0.2795673023
-0.2994580069
-0.3245526138
-0.3599223207
-0.4056263936
-0.4617085696
-0.5282865819
-0.6084179151
-0.329591796
-0.3245526151
-0.3447389316
-0.370060913
-0.405626392
-0.4514963001
-0.507755505
-0.5750296524
-0.6589923741
-0.3852893142
-0.3802106563
-0.4005389567
-0.4259953162
-0.4617085716
-0.5077555055
-0.5644894704
-0.6371693686
-0.7160291888
-0.4514962987
-0.446392702
-0.4668172681
-0.4923880081
-0.5282865837
-0.5750296569
-0.6371693689
-0.7057351884
-0.782801828
-0.5282865823
-0.5231482202
-0.5437352726
-0.5697374127
-0.6084179154
-0.6589923721
-0.7160291884
-0.7828018247
-0.859715818
SCALARS state_number_11 double
LOOKUP_TABLE default
-0.2194087894
-0.2163534022
-0.2177588384
-0.2163534019
-0.2241737436
-0.2280686105
-0.2457316609
-0.2504296902
-0.2795738458
-0.2845241257
-0.3245571589
-0.3295965016
-0.3802192917
-0.3852985811
-0.4464148452
-0.4515201817
-0.5232296447
-0.5283776674
-0.2280686114
-0.224173744
-0.2411146028
-0.2648508148
-0.2994626318
-0.3447443865
-0.4005504264
-0.4668473823
-0.5438681353
-0.2504296927
-0.2457316608
-0.2648508143
-0.2894904481
-0.3245571576
-0.3700684279
-0.4260117848
-0.4924335409
-0.5700369049
-0.2845241273
-0.2795738444
-0.299462635
-0.3245571577
-0.359928891
-0.4056387171
-0.4617364156
-0.5283776673
-0.6089570242
-0.3295965018
-0.3245571569
-0.3447443882
-0.3700684268
-0.4056387152
-0.4515201802
-0.5078154223
-0.5753879087
-0.6590533499
-0.3852985801
-0.3802192923
-0.4005504255
-0.426011786
-0.4617364136
-0.5078154205
-0.5647396575
-0.637447458
-0.7160373491
-0.4515201813
-0.4464148453
-0.4668473814
-0.4924335392
-0.5283776648
-0.5753879048
-0.6374474577
-0.7057424353
-0.7828066126
-0.5283776672
-0.5232296441
-0.5438681343
-0.5700369044
-0.6089570257
-0.6590533561
-0.7160373476
-0.7828066135
-0.8597170365
SCALARS state_number_12 double
LOOKUP_TABLE default
-0.2209129872
-0.2222670762
-0.224437135
-0.2222670775
-0.2347868573
-0.2383971037
-0.2555081365
-0.2601260915
-0.2889688165
-0.2938868063
-0.3337498411
-0.3387752506
-0.3893029328
-0.3943755258
-0.4554216029
-0.4605206186
-0.5320594681
-0.5371803565
-0.2383971075
-0.2347868563
-0.2509863459
-0.2743678237
-0.3087462473
-0.3538873773
-0.4096088331
-0.475826775
-0.5525534867
-0.2601260922
-0.2555081345
-0.2743678227
-0.2988240792
-0.3337498412
-0.3791665189
-0.4350418925
-0.5013658394
-0.5782110285
-0.2938868075
-0.2889688134
-0.3087462496
-0.3337498389
-0.3690431935
-0.4146913161
-0.4707232382
-0.5371803558
-0.6143207791
-0.3387752517
-0.333749841
-0.3538873797
-0.3791665159
-0.4146913156
-0.4605206191
-0.5167061165
-0.5833509439
-0.6631007527
-0.3943755259
-0.3893029341
-0.4096088312
-0.4350418886
-0.4707232377
-0.5167061158
-0.5730745381
-0.6407221307
-0.7260010315
-0.4605206172
-0.455421603
-0.475826773
-0.5013658397
-0.5371803556
-0.5833509533
-0.6407221303
-0.7148622396
-0.7940188679
-0.5371803554
-0.5320594686
-0.5525534855
-0.5782110289
-0.6143207771
-0.6631007573
-0.7260010329
-0.7940188693
-0.8709756767
SCALARS state_number_13 double
LOOKUP_TABLE default
-0.2209129872
-0.224395981
-0.2274670705
-0.2243959837
-0.2348383581
-0.2384741479
-0.2555736903
-0.2601871193
-0.289011294
-0.2939272522
-0.333779485
-0.3388039865
-0.3893251052
-0.3943971987
-0.455437835
-0.460536379
-0.5320657684
-0.5371855581
-0.238474148
-0.2348383603
-0.2510567944
-0.274417955
-0.3087817025
-0.3539137383
-0.4096290882
-0.4758410402
-0.5525546614
-0.2601871202
-0.2555736875
-0.2744179538
-0.29886269
-0.3337794842
-0.3791897509
-0.4350599233
-0.5013771488
-0.5782209831
-0.2939272517
-0.2890112927
-0.3087817001
-0.333779483
-0.3690675774
-0.4147111189
-0.4707380194
-0.5371855587
-0.6143808735
-0.3388039865
-0.3337794854
-0.3539137342
-0.3791897508
-0.4147111209
-0.4605363801
-0.5167151972
-0.5833643455
-0.6634723763
-0.394397196
-0.3893251057
-0.4096290885
-0.4350599247
-0.4707380198
-0.5167151971
-0.5730815764
-0.6409462651
-0.7262901192
-0.4605363801
-0.4554378355
-0.4758410412
-0.5013771478
-0.5371855626
-0.5833643418
-0.6409462651
-0.715205382
-0.7940260018
-0.5371855591
-0.5320657694
-0.5525546613
-0.5782209839
-0.6143808752
-0.6634723655
-0.72629012
-0.7940260026
-0.8710301265
SCALARS state_number_14 double
LOOKUP_TABLE default
-0.2235061843
-0.2290529305
-0.2296975952
-0.2290529303
-0.2383571418
-0.2452865672
-0.265971308
-0.2707613999
-0.2999779767
-0.3049194609
-0.3448760524
-0.3499075069
-0.4004728136
-0.4055477536
-0.4666082567
-0.4717072594
-0.5432137546
-0.5483287107
-0.2452865761
-0.2383571259
-0.2611777086
-0.285264603
-0.3198278309
-0.3650344753
-0.4207870211
-0.4870119965
-0.5636786788
-0.270761404
-0.265971305
-0.2852646031
-0.3098760327
-0.3448760511
-0.3903311178
-0.4462265863
-0.5125431214
-0.5892783233
-0.3049194585
-0.2999779762
-0.3198278333
-0.3448760538
-0.3802016238
-0.4258711454
-0.4819091752
-0.5483287102
-0.6251523366
-0.3499075044
-0.3448760531
-0.3650344771
-0.3903311184
-0.4258711443
-0.4717072586
-0.527874219
-0.5944006643
-0.6713582045
-0.4055477531
-0.4004728143
-0.4207870199
-0.446226579
-0.4819091754
-0.5278742175
-0.5841567831
-0.6508062742
-0.728693312
-0.4717072573
-0.4666082563
-0.4870119931
-0.5125431172
-0.5483287038
-0.5944006602
-0.6508062722
-0.7180029645
-0.7957242902
-0.5483287085
-0.5432137549
-0.5636786768
-0.5892783198
-0.6251523343
-0.6713582089
-0.7286933205
-0.7957242902
-0.871491203

