$MeshFormat
2.2 0 8
$EndMeshFormat
$PhysicalNames
4
0 3 "anode"
0 4 "cathode"
1 1 "TiO2"
1 2 "electrolyte"
$EndPhysicalNames
$Nodes
1499
1 0 0 0
2 10 0 0
3 15 0 0
4 0.01001001000999015 0 0
5 0.02002002001998029 0 0
6 0.03003003002997044 0 0
7 0.04004004003996059 0 0
8 0.05005005004995074 0 0
9 0.06006006005994088 0 0
10 0.07007007006993103 0 0
11 0.08008008007992118 0 0
12 0.09009009008991133 0 0
13 0.1001001000999015 0 0
14 0.1101101101098916 0 0
15 0.1201201201198818 0 0
16 0.1301301301298719 0 0
17 0.1401401401398621 0 0
18 0.1501501501498522 0 0
19 0.1601601601598424 0 0
20 0.1701701701698325 0 0
21 0.1801801801798227 0 0
22 0.1901901901898128 0 0
23 0.200200200199803 0 0
24 0.2102102102097931 0 0
25 0.2202202202197832 0 0
26 0.2302302302297734 0 0
27 0.2402402402397635 0 0
28 0.2502502502497537 0 0
29 0.2602602602597439 0 0
30 0.270270270269734 0 0
31 0.2802802802797241 0 0
32 0.2902902902897143 0 0
33 0.3003003002997044 0 0
34 0.3103103103096946 0 0
35 0.3203203203196847 0 0
36 0.3303303303296748 0 0
37 0.340340340339665 0 0
38 0.3503503503496552 0 0
39 0.3603603603596453 0 0
40 0.3703703703696354 0 0
41 0.3803803803796256 0 0
42 0.3903903903896158 0 0
43 0.4004004003996059 0 0
44 0.4104104104095961 0 0
45 0.4204204204195862 0 0
46 0.4304304304295763 0 0
47 0.4404404404395665 0 0
48 0.4504504504495566 0 0
49 0.4604604604595469 0 0
50 0.4704704704695369 0 0
51 0.4804804804795271 0 0
52 0.4904904904895172 0 0
53 0.5005005004995073 0 0
54 0.5105105105094976 0 0
55 0.5205205205194877 0 0
56 0.5305305305294779 0 0
57 0.540540540539468 0 0
58 0.5505505505494581 0 0
59 0.5605605605594483 0 0
60 0.5705705705694385 0 0
61 0.5805805805794285 0 0
62 0.5905905905894187 0 0
63 0.6006006005994089 0 0
64 0.610610610609399 0 0
65 0.6206206206193892 0 0
66 0.6306306306293794 0 0
67 0.6406406406393694 0 0
68 0.6506506506493597 0 0
69 0.6606606606593497 0 0
70 0.6706706706693399 0 0
71 0.68068068067933 0 0
72 0.6906906906893202 0 0
73 0.7007007006993105 0 0
74 0.7107107107093005 0 0
75 0.7207207207192906 0 0
76 0.7307307307292807 0 0
77 0.7407407407392709 0 0
78 0.7507507507492611 0 0
79 0.7607607607592513 0 0
80 0.7707707707692414 0 0
81 0.7807807807792315 0 0
82 0.7907907907892218 0 0
83 0.8008008007992119 0 0
84 0.810810810809202 0 0
85 0.8208208208191923 0 0
86 0.8308308308291822 0 0
87 0.8408408408391723 0 0
88 0.8508508508491625 0 0
89 0.8608608608591527 0 0
90 0.8708708708691428 0 0
91 0.880880880879133 0 0
92 0.8908908908891232 0 0
93 0.9009009008991132 0 0
94 0.9109109109091035 0 0
95 0.9209209209190937 0 0
96 0.9309309309290837 0 0
97 0.9409409409390739 0 0
98 0.9509509509490639 0 0
99 0.9609609609590541 0 0
100 0.9709709709690444 0 0
101 0.9809809809790344 0 0
102 0.9909909909890247 0 0
103 1.001001000999015 0 0
104 1.011011011009005 0 0
105 1.021021021018995 0 0
106 1.031031031028985 0 0
107 1.041041041038975 0 0
108 1.051051051048965 0 0
109 1.061061061058956 0 0
110 1.071071071068946 0 0
111 1.081081081078936 0 0
112 1.091091091088926 0 0
113 1.101101101098916 0 0
114 1.111111111108906 0 0
115 1.121121121118897 0 0
116 1.131131131128887 0 0
117 1.141141141138877 0 0
118 1.151151151148867 0 0
119 1.161161161158857 0 0
120 1.171171171168847 0 0
121 1.181181181178837 0 0
122 1.191191191188828 0 0
123 1.201201201198818 0 0
124 1.211211211208808 0 0
125 1.221221221218798 0 0
126 1.231231231228788 0 0
127 1.241241241238778 0 0
128 1.251251251248768 0 0
129 1.261261261258759 0 0
130 1.271271271268749 0 0
131 1.281281281278739 0 0
132 1.291291291288729 0 0
133 1.301301301298719 0 0
134 1.311311311308709 0 0
135 1.321321321318699 0 0
136 1.331331331328689 0 0
137 1.34134134133868 0 0
138 1.35135135134867 0 0
139 1.36136136135866 0 0
140 1.37137137136865 0 0
141 1.38138138137864 0 0
142 1.39139139138863 0 0
143 1.401401401398621 0 0
144 1.411411411408611 0 0
145 1.421421421418601 0 0
146 1.431431431428591 0 0
147 1.441441441438581 0 0
148 1.451451451448571 0 0
149 1.461461461458561 0 0
150 1.471471471468552 0 0
151 1.481481481478542 0 0
152 1.491491491488532 0 0
153 1.501501501498522 0 0
154 1.511511511508512 0 0
155 1.521521521518503 0 0
156 1.531531531528493 0 0
157 1.541541541538483 0 0
158 1.551551551548473 0 0
159 1.561561561558463 0 0
160 1.571571571568453 0 0
161 1.581581581578444 0 0
162 1.591591591588434 0 0
163 1.601601601598424 0 0
164 1.611611611608414 0 0
165 1.621621621618404 0 0
166 1.631631631628394 0 0
167 1.641641641638385 0 0
168 1.651651651648374 0 0
169 1.661661661658364 0 0
170 1.671671671668355 0 0
171 1.681681681678345 0 0
172 1.691691691688335 0 0
173 1.701701701698325 0 0
174 1.711711711708315 0 0
175 1.721721721718305 0 0
176 1.731731731728296 0 0
177 1.741741741738286 0 0
178 1.751751751748276 0 0
179 1.761761761758266 0 0
180 1.771771771768256 0 0
181 1.781781781778246 0 0
182 1.791791791788236 0 0
183 1.801801801798226 0 0
184 1.811811811808217 0 0
185 1.821821821818207 0 0
186 1.831831831828197 0 0
187 1.841841841838187 0 0
188 1.851851851848177 0 0
189 1.861861861858167 0 0
190 1.871871871868158 0 0
191 1.881881881878148 0 0
192 1.891891891888138 0 0
193 1.901901901898128 0 0
194 1.911911911908118 0 0
195 1.921921921918108 0 0
196 1.931931931928099 0 0
197 1.941941941938089 0 0
198 1.951951951948079 0 0
199 1.961961961958069 0 0
200 1.971971971968059 0 0
201 1.981981981978049 0 0
202 1.991991991988039 0 0
203 2.002002001998029 0 0
204 2.012012012008019 0 0
205 2.02202202201801 0 0
206 2.032032032028 0 0
207 2.04204204203799 0 0
208 2.05205205204798 0 0
209 2.06206206205797 0 0
210 2.07207207206796 0 0
211 2.082082082077951 0 0
212 2.092092092087941 0 0
213 2.102102102097931 0 0
214 2.112112112107921 0 0
215 2.122122122117911 0 0
216 2.132132132127901 0 0
217 2.142142142137891 0 0
218 2.152152152147882 0 0
219 2.162162162157872 0 0
220 2.172172172167862 0 0
221 2.182182182177852 0 0
222 2.192192192187842 0 0
223 2.202202202197832 0 0
224 2.212212212207822 0 0
225 2.222222222217813 0 0
226 2.232232232227803 0 0
227 2.242242242237793 0 0
228 2.252252252247783 0 0
229 2.262262262257773 0 0
230 2.272272272267764 0 0
231 2.282282282277754 0 0
232 2.292292292287744 0 0
233 2.302302302297734 0 0
234 2.312312312307724 0 0
235 2.322322322317714 0 0
236 2.332332332327705 0 0
237 2.342342342337695 0 0
238 2.352352352347685 0 0
239 2.362362362357675 0 0
240 2.372372372367665 0 0
241 2.382382382377655 0 0
242 2.392392392387645 0 0
243 2.402402402397636 0 0
244 2.412412412407626 0 0
245 2.422422422417616 0 0
246 2.432432432427606 0 0
247 2.442442442437596 0 0
248 2.452452452447586 0 0
249 2.462462462457577 0 0
250 2.472472472467567 0 0
251 2.482482482477557 0 0
252 2.492492492487547 0 0
253 2.50250250249754 0 0
254 2.512512512507542 0 0
255 2.522522522517543 0 0
256 2.532532532527545 0 0
257 2.542542542537547 0 0
258 2.552552552547549 0 0
259 2.562562562557551 0 0
260 2.572572572567553 0 0
261 2.582582582577555 0 0
262 2.592592592587557 0 0
263 2.602602602597559 0 0
264 2.61261261260756 0 0
265 2.622622622617561 0 0
266 2.632632632627563 0 0
267 2.642642642637565 0 0
268 2.652652652647567 0 0
269 2.662662662657569 0 0
270 2.672672672667571 0 0
271 2.682682682677573 0 0
272 2.692692692687575 0 0
273 2.702702702697577 0 0
274 2.712712712707578 0 0
275 2.72272272271758 0 0
276 2.732732732727582 0 0
277 2.742742742737583 0 0
278 2.752752752747585 0 0
279 2.762762762757587 0 0
280 2.772772772767589 0 0
281 2.782782782777591 0 0
282 2.792792792787593 0 0
283 2.802802802797595 0 0
284 2.812812812807596 0 0
285 2.822822822817598 0 0
286 2.8328328328276 0 0
287 2.842842842837602 0 0
288 2.852852852847603 0 0
289 2.862862862857605 0 0
290 2.872872872867607 0 0
291 2.882882882877609 0 0
292 2.892892892887611 0 0
293 2.902902902897613 0 0
294 2.912912912907614 0 0
295 2.922922922917616 0 0
296 2.932932932927618 0 0
297 2.94294294293762 0 0
298 2.952952952947622 0 0
299 2.962962962957624 0 0
300 2.972972972967625 0 0
301 2.982982982977627 0 0
302 2.992992992987629 0 0
303 3.003003002997631 0 0
304 3.013013013007632 0 0
305 3.023023023017634 0 0
306 3.033033033027636 0 0
307 3.043043043037637 0 0
308 3.053053053047639 0 0
309 3.063063063057641 0 0
310 3.073073073067643 0 0
311 3.083083083077645 0 0
312 3.093093093087647 0 0
313 3.103103103097649 0 0
314 3.113113113107651 0 0
315 3.123123123117652 0 0
316 3.133133133127654 0 0
317 3.143143143137656 0 0
318 3.153153153147658 0 0
319 3.16316316315766 0 0
320 3.173173173167662 0 0
321 3.183183183177664 0 0
322 3.193193193187666 0 0
323 3.203203203197667 0 0
324 3.213213213207669 0 0
325 3.223223223217671 0 0
326 3.233233233227673 0 0
327 3.243243243237674 0 0
328 3.253253253247676 0 0
329 3.263263263257678 0 0
330 3.273273273267679 0 0
331 3.283283283277681 0 0
332 3.293293293287683 0 0
333 3.303303303297685 0 0
334 3.313313313307686 0 0
335 3.323323323317688 0 0
336 3.33333333332769 0 0
337 3.343343343337692 0 0
338 3.353353353347694 0 0
339 3.363363363357696 0 0
340 3.373373373367698 0 0
341 3.3833833833777 0 0
342 3.393393393387702 0 0
343 3.403403403397703 0 0
344 3.413413413407705 0 0
345 3.423423423417706 0 0
346 3.433433433427708 0 0
347 3.44344344343771 0 0
348 3.453453453447712 0 0
349 3.463463463457714 0 0
350 3.473473473467716 0 0
351 3.483483483477718 0 0
352 3.49349349348772 0 0
353 3.503503503497721 0 0
354 3.513513513507723 0 0
355 3.523523523517725 0 0
356 3.533533533527727 0 0
357 3.543543543537728 0 0
358 3.55355355354773 0 0
359 3.563563563557732 0 0
360 3.573573573567734 0 0
361 3.583583583577736 0 0
362 3.593593593587738 0 0
363 3.603603603597739 0 0
364 3.613613613607741 0 0
365 3.623623623617743 0 0
366 3.633633633627745 0 0
367 3.643643643637747 0 0
368 3.653653653647749 0 0
369 3.66366366365775 0 0
370 3.673673673667752 0 0
371 3.683683683677754 0 0
372 3.693693693687756 0 0
373 3.703703703697757 0 0
374 3.713713713707759 0 0
375 3.723723723717761 0 0
376 3.733733733727763 0 0
377 3.743743743737765 0 0
378 3.753753753747767 0 0
379 3.763763763757769 0 0
380 3.77377377376777 0 0
381 3.783783783777772 0 0
382 3.793793793787774 0 0
383 3.803803803797775 0 0
384 3.813813813807777 0 0
385 3.823823823817779 0 0
386 3.833833833827781 0 0
387 3.843843843837783 0 0
388 3.853853853847785 0 0
389 3.863863863857786 0 0
390 3.873873873867788 0 0
391 3.88388388387779 0 0
392 3.893893893887792 0 0
393 3.903903903897794 0 0
394 3.913913913907796 0 0
395 3.923923923917797 0 0
396 3.933933933927799 0 0
397 3.943943943937801 0 0
398 3.953953953947803 0 0
399 3.963963963957805 0 0
400 3.973973973967807 0 0
401 3.983983983977808 0 0
402 3.99399399398781 0 0
403 4.004004003997812 0 0
404 4.014014014007814 0 0
405 4.024024024017815 0 0
406 4.034034034027817 0 0
407 4.044044044037819 0 0
408 4.054054054047821 0 0
409 4.064064064057823 0 0
410 4.074074074067825 0 0
411 4.084084084077827 0 0
412 4.094094094087827 0 0
413 4.10410410409783 0 0
414 4.114114114107831 0 0
415 4.124124124117834 0 0
416 4.134134134127835 0 0
417 4.144144144137837 0 0
418 4.154154154147839 0 0
419 4.164164164157841 0 0
420 4.174174174167843 0 0
421 4.184184184177845 0 0
422 4.194194194187846 0 0
423 4.204204204197848 0 0
424 4.21421421420785 0 0
425 4.224224224217852 0 0
426 4.234234234227854 0 0
427 4.244244244237856 0 0
428 4.254254254247857 0 0
429 4.264264264257859 0 0
430 4.274274274267861 0 0
431 4.284284284277863 0 0
432 4.294294294287864 0 0
433 4.304304304297866 0 0
434 4.314314314307868 0 0
435 4.324324324317869 0 0
436 4.334334334327872 0 0
437 4.344344344337873 0 0
438 4.354354354347876 0 0
439 4.364364364357877 0 0
440 4.374374374367879 0 0
441 4.38438438437788 0 0
442 4.394394394387882 0 0
443 4.404404404397884 0 0
444 4.414414414407887 0 0
445 4.424424424417888 0 0
446 4.43443443442789 0 0
447 4.444444444437892 0 0
448 4.454454454447894 0 0
449 4.464464464457896 0 0
450 4.474474474467898 0 0
451 4.484484484477899 0 0
452 4.494494494487901 0 0
453 4.504504504497903 0 0
454 4.514514514507905 0 0
455 4.524524524517906 0 0
456 4.534534534527908 0 0
457 4.54454454453791 0 0
458 4.554554554547911 0 0
459 4.564564564557914 0 0
460 4.574574574567915 0 0
461 4.584584584577916 0 0
462 4.594594594587918 0 0
463 4.60460460459792 0 0
464 4.614614614607922 0 0
465 4.624624624617924 0 0
466 4.634634634627926 0 0
467 4.644644644637928 0 0
468 4.654654654647929 0 0
469 4.664664664657932 0 0
470 4.674674674667934 0 0
471 4.684684684677935 0 0
472 4.694694694687937 0 0
473 4.704704704697939 0 0
474 4.714714714707941 0 0
475 4.724724724717943 0 0
476 4.734734734727945 0 0
477 4.744744744737947 0 0
478 4.754754754747948 0 0
479 4.76476476475795 0 0
480 4.774774774767952 0 0
481 4.784784784777953 0 0
482 4.794794794787955 0 0
483 4.804804804797957 0 0
484 4.814814814807958 0 0
485 4.82482482481796 0 0
486 4.834834834827962 0 0
487 4.844844844837964 0 0
488 4.854854854847966 0 0
489 4.864864864857968 0 0
490 4.87487487486797 0 0
491 4.884884884877971 0 0
492 4.894894894887973 0 0
493 4.904904904897974 0 0
494 4.914914914907976 0 0
495 4.924924924917979 0 0
496 4.934934934927981 0 0
497 4.944944944937983 0 0
498 4.954954954947985 0 0
499 4.964964964957987 0 0
500 4.974974974967989 0 0
501 4.98498498497799 0 0
502 4.994994994987991 0 0
503 5.005005004998004 0 0
504 5.015015015008029 0 0
505 5.025025025018053 0 0
506 5.035035035028077 0 0
507 5.045045045038101 0 0
508 5.055055055048125 0 0
509 5.065065065058149 0 0
510 5.075075075068173 0 0
511 5.085085085078197 0 0
512 5.095095095088221 0 0
513 5.105105105098245 0 0
514 5.115115115108269 0 0
515 5.125125125118293 0 0
516 5.135135135128317 0 0
517 5.145145145138342 0 0
518 5.155155155148366 0 0
519 5.16516516515839 0 0
520 5.175175175168414 0 0
521 5.185185185178439 0 0
522 5.195195195188461 0 0
523 5.205205205198485 0 0
524 5.215215215208509 0 0
525 5.225225225218533 0 0
526 5.235235235228557 0 0
527 5.245245245238581 0 0
528 5.255255255248605 0 0
529 5.26526526525863 0 0
530 5.275275275268654 0 0
531 5.285285285278677 0 0
532 5.295295295288701 0 0
533 5.305305305298726 0 0
534 5.31531531530875 0 0
535 5.325325325318774 0 0
536 5.335335335328798 0 0
537 5.345345345338822 0 0
538 5.355355355348847 0 0
539 5.365365365358871 0 0
540 5.375375375368893 0 0
541 5.385385385378918 0 0
542 5.395395395388942 0 0
543 5.405405405398966 0 0
544 5.41541541540899 0 0
545 5.425425425419014 0 0
546 5.435435435429038 0 0
547 5.445445445439062 0 0
548 5.455455455449086 0 0
549 5.465465465459109 0 0
550 5.475475475469134 0 0
551 5.485485485479158 0 0
552 5.495495495489182 0 0
553 5.505505505499206 0 0
554 5.515515515509231 0 0
555 5.525525525519255 0 0
556 5.535535535529279 0 0
557 5.545545545539303 0 0
558 5.555555555549327 0 0
559 5.565565565559351 0 0
560 5.575575575569375 0 0
561 5.585585585579399 0 0
562 5.595595595589423 0 0
563 5.605605605599448 0 0
564 5.615615615609472 0 0
565 5.625625625619495 0 0
566 5.635635635629519 0 0
567 5.645645645639544 0 0
568 5.655655655649566 0 0
569 5.66566566565959 0 0
570 5.675675675669615 0 0
571 5.685685685679639 0 0
572 5.695695695689663 0 0
573 5.705705705699687 0 0
574 5.715715715709711 0 0
575 5.725725725719736 0 0
576 5.735735735729759 0 0
577 5.745745745739783 0 0
578 5.755755755749807 0 0
579 5.765765765759832 0 0
580 5.775775775769856 0 0
581 5.78578578577988 0 0
582 5.795795795789904 0 0
583 5.805805805799928 0 0
584 5.815815815809952 0 0
585 5.825825825819974 0 0
586 5.835835835829998 0 0
587 5.845845845840023 0 0
588 5.855855855850047 0 0
589 5.865865865860071 0 0
590 5.875875875870095 0 0
591 5.88588588588012 0 0
592 5.895895895890144 0 0
593 5.905905905900168 0 0
594 5.915915915910192 0 0
595 5.925925925920215 0 0
596 5.93593593593024 0 0
597 5.945945945940264 0 0
598 5.955955955950288 0 0
599 5.965965965960312 0 0
600 5.975975975970337 0 0
601 5.985985985980361 0 0
602 5.995995995990385 0 0
603 6.006006006000408 0 0
604 6.016016016010432 0 0
605 6.026026026020456 0 0
606 6.03603603603048 0 0
607 6.046046046040504 0 0
608 6.056056056050529 0 0
609 6.066066066060553 0 0
610 6.076076076070577 0 0
611 6.086086086080601 0 0
612 6.096096096090625 0 0
613 6.106106106100649 0 0
614 6.116116116110673 0 0
615 6.126126126120697 0 0
616 6.136136136130721 0 0
617 6.146146146140746 0 0
618 6.15615615615077 0 0
619 6.166166166160794 0 0
620 6.176176176170818 0 0
621 6.186186186180842 0 0
622 6.196196196190867 0 0
623 6.206206206200889 0 0
624 6.216216216210912 0 0
625 6.226226226220937 0 0
626 6.236236236230961 0 0
627 6.246246246240985 0 0
628 6.256256256251009 0 0
629 6.266266266261034 0 0
630 6.276276276271058 0 0
631 6.286286286281082 0 0
632 6.296296296291105 0 0
633 6.30630630630113 0 0
634 6.316316316311154 0 0
635 6.326326326321178 0 0
636 6.336336336331202 0 0
637 6.346346346341226 0 0
638 6.356356356351251 0 0
639 6.366366366361273 0 0
640 6.376376376371297 0 0
641 6.386386386381322 0 0
642 6.396396396391346 0 0
643 6.40640640640137 0 0
644 6.416416416411393 0 0
645 6.426426426421417 0 0
646 6.436436436431442 0 0
647 6.446446446441466 0 0
648 6.456456456451489 0 0
649 6.466466466461513 0 0
650 6.476476476471538 0 0
651 6.486486486481562 0 0
652 6.496496496491586 0 0
653 6.50650650650161 0 0
654 6.516516516511635 0 0
655 6.526526526521659 0 0
656 6.536536536531683 0 0
657 6.546546546541707 0 0
658 6.556556556551731 0 0
659 6.566566566561756 0 0
660 6.576576576571779 0 0
661 6.586586586581803 0 0
662 6.596596596591827 0 0
663 6.606606606601851 0 0
664 6.616616616611875 0 0
665 6.626626626621899 0 0
666 6.636636636631923 0 0
667 6.646646646641948 0 0
668 6.656656656651972 0 0
669 6.666666666661994 0 0
670 6.676676676672018 0 0
671 6.686686686682043 0 0
672 6.696696696692067 0 0
673 6.706706706702091 0 0
674 6.716716716712115 0 0
675 6.72672672672214 0 0
676 6.736736736732163 0 0
677 6.746746746742187 0 0
678 6.756756756752211 0 0
679 6.766766766762236 0 0
680 6.77677677677226 0 0
681 6.786786786782284 0 0
682 6.796796796792308 0 0
683 6.806806806802332 0 0
684 6.816816816812356 0 0
685 6.826826826822378 0 0
686 6.836836836832402 0 0
687 6.846846846842427 0 0
688 6.856856856852451 0 0
689 6.866866866862475 0 0
690 6.876876876872499 0 0
691 6.886886886882523 0 0
692 6.896896896892548 0 0
693 6.906906906902572 0 0
694 6.916916916912596 0 0
695 6.92692692692262 0 0
696 6.936936936932644 0 0
697 6.946946946942668 0 0
698 6.956956956952692 0 0
699 6.966966966962716 0 0
700 6.976976976972741 0 0
701 6.986986986982765 0 0
702 6.996996996992789 0 0
703 7.007007007002812 0 0
704 7.017017017012837 0 0
705 7.02702702702286 0 0
706 7.037037037032884 0 0
707 7.047047047042908 0 0
708 7.057057057052933 0 0
709 7.067067067062957 0 0
710 7.077077077072981 0 0
711 7.087087087083005 0 0
712 7.097097097093028 0 0
713 7.107107107103053 0 0
714 7.117117117113077 0 0
715 7.127127127123101 0 0
716 7.137137137133125 0 0
717 7.14714714714315 0 0
718 7.157157157153174 0 0
719 7.167167167163198 0 0
720 7.177177177173222 0 0
721 7.187187187183246 0 0
722 7.197197197193268 0 0
723 7.207207207203292 0 0
724 7.217217217213316 0 0
725 7.227227227223341 0 0
726 7.237237237233365 0 0
727 7.247247247243389 0 0
728 7.257257257253413 0 0
729 7.267267267263438 0 0
730 7.277277277273462 0 0
731 7.287287287283486 0 0
732 7.297297297293509 0 0
733 7.307307307303534 0 0
734 7.317317317313558 0 0
735 7.327327327323582 0 0
736 7.337337337333606 0 0
737 7.34734734734363 0 0
738 7.357357357353655 0 0
739 7.367367367363677 0 0
740 7.377377377373701 0 0
741 7.387387387383725 0 0
742 7.397397397393749 0 0
743 7.407407407403773 0 0
744 7.417417417413797 0 0
745 7.427427427423821 0 0
746 7.437437437433846 0 0
747 7.44744744744387 0 0
748 7.457457457453893 0 0
749 7.467467467463917 0 0
750 7.477477477473942 0 0
751 7.487487487483966 0 0
752 7.49749749749399 0 0
753 7.507507507504014 0 0
754 7.517517517514039 0 0
755 7.527527527524063 0 0
756 7.537537537534087 0 0
757 7.547547547544111 0 0
758 7.557557557554134 0 0
759 7.567567567564159 0 0
760 7.577577577574183 0 0
761 7.587587587584207 0 0
762 7.59759759759423 0 0
763 7.607607607604255 0 0
764 7.617617617614279 0 0
765 7.627627627624303 0 0
766 7.637637637634327 0 0
767 7.64764764764435 0 0
768 7.657657657654374 0 0
769 7.667667667664398 0 0
770 7.677677677674422 0 0
771 7.687687687684447 0 0
772 7.697697697694471 0 0
773 7.707707707704495 0 0
774 7.717717717714519 0 0
775 7.727727727724544 0 0
776 7.737737737734567 0 0
777 7.747747747744591 0 0
778 7.757757757754615 0 0
779 7.76776776776464 0 0
780 7.777777777774664 0 0
781 7.787787787784687 0 0
782 7.797797797794711 0 0
783 7.807807807804735 0 0
784 7.81781781781476 0 0
785 7.827827827824782 0 0
786 7.837837837834806 0 0
787 7.847847847844831 0 0
788 7.857857857854855 0 0
789 7.867867867864879 0 0
790 7.877877877874903 0 0
791 7.887887887884927 0 0
792 7.897897897894952 0 0
793 7.907907907904976 0 0
794 7.917917917915 0 0
795 7.927927927925023 0 0
796 7.937937937935048 0 0
797 7.947947947945072 0 0
798 7.957957957955096 0 0
799 7.96796796796512 0 0
800 7.977977977975145 0 0
801 7.987987987985168 0 0
802 7.997997997995192 0 0
803 8.008008008005216 0 0
804 8.018018018015239 0 0
805 8.028028028025263 0 0
806 8.038038038035287 0 0
807 8.048048048045311 0 0
808 8.058058058055336 0 0
809 8.06806806806536 0 0
810 8.078078078075384 0 0
811 8.088088088085408 0 0
812 8.098098098095432 0 0
813 8.108108108105457 0 0
814 8.118118118115481 0 0
815 8.128128128125505 0 0
816 8.138138138135529 0 0
817 8.148148148145554 0 0
818 8.158158158155578 0 0
819 8.168168168165602 0 0
820 8.178178178175626 0 0
821 8.188188188185649 0 0
822 8.198198198195673 0 0
823 8.208208208205697 0 0
824 8.218218218215721 0 0
825 8.228228228225746 0 0
826 8.23823823823577 0 0
827 8.248248248245794 0 0
828 8.258258258255818 0 0
829 8.268268268265842 0 0
830 8.278278278275867 0 0
831 8.288288288285891 0 0
832 8.298298298295913 0 0
833 8.308308308305937 0 0
834 8.318318318315962 0 0
835 8.328328328325986 0 0
836 8.33833833833601 0 0
837 8.348348348346034 0 0
838 8.358358358356059 0 0
839 8.368368368366083 0 0
840 8.378378378376105 0 0
841 8.388388388386129 0 0
842 8.398398398396154 0 0
843 8.408408408406178 0 0
844 8.418418418416202 0 0
845 8.428428428426226 0 0
846 8.438438438436251 0 0
847 8.448448448446275 0 0
848 8.458458458456299 0 0
849 8.468468468466323 0 0
850 8.478478478476346 0 0
851 8.48848848848637 0 0
852 8.498498498496394 0 0
853 8.508508508506418 0 0
854 8.518518518516442 0 0
855 8.528528528526467 0 0
856 8.538538538536491 0 0
857 8.548548548546515 0 0
858 8.558558558556539 0 0
859 8.568568568566564 0 0
860 8.578578578576586 0 0
861 8.58858858858661 0 0
862 8.598598598596634 0 0
863 8.608608608606659 0 0
864 8.618618618616683 0 0
865 8.628628628626707 0 0
866 8.638638638636731 0 0
867 8.648648648646756 0 0
868 8.65865865865678 0 0
869 8.668668668666804 0 0
870 8.678678678676826 0 0
871 8.688688688686851 0 0
872 8.698698698696875 0 0
873 8.708708708706899 0 0
874 8.718718718716923 0 0
875 8.728728728726947 0 0
876 8.738738738736972 0 0
877 8.748748748746996 0 0
878 8.758758758757018 0 0
879 8.768768768767043 0 0
880 8.778778778777067 0 0
881 8.788788788787091 0 0
882 8.798798798797115 0 0
883 8.808808808807139 0 0
884 8.818818818817164 0 0
885 8.828828828827188 0 0
886 8.83883883883721 0 0
887 8.848848848847235 0 0
888 8.858858858857259 0 0
889 8.868868868867283 0 0
890 8.878878878877307 0 0
891 8.888888888887331 0 0
892 8.898898898897356 0 0
893 8.90890890890738 0 0
894 8.918918918917404 0 0
895 8.928928928927428 0 0
896 8.938938938937453 0 0
897 8.948948948947477 0 0
898 8.958958958957501 0 0
899 8.968968968967523 0 0
900 8.978978978977548 0 0
901 8.988988988987572 0 0
902 8.998998998997596 0 0
903 9.00900900900762 0 0
904 9.019019019017644 0 0
905 9.029029029027669 0 0
906 9.039039039037693 0 0
907 9.049049049047715 0 0
908 9.05905905905774 0 0
909 9.069069069067764 0 0
910 9.079079079077788 0 0
911 9.089089089087812 0 0
912 9.099099099097836 0 0
913 9.109109109107861 0 0
914 9.119119119117885 0 0
915 9.129129129127909 0 0
916 9.139139139137933 0 0
917 9.149149149147958 0 0
918 9.159159159157982 0 0
919 9.169169169168004 0 0
920 9.179179179178028 0 0
921 9.189189189188053 0 0
922 9.199199199198077 0 0
923 9.209209209208101 0 0
924 9.219219219218125 0 0
925 9.229229229228149 0 0
926 9.239239239238174 0 0
927 9.249249249248198 0 0
928 9.259259259258222 0 0
929 9.269269269268246 0 0
930 9.279279279278271 0 0
931 9.289289289288295 0 0
932 9.299299299298319 0 0
933 9.309309309308343 0 0
934 9.319319319318367 0 0
935 9.32932932932839 0 0
936 9.339339339338414 0 0
937 9.349349349348438 0 0
938 9.359359359358463 0 0
939 9.369369369368485 0 0
940 9.379379379378509 0 0
941 9.389389389388533 0 0
942 9.399399399398558 0 0
943 9.409409409408582 0 0
944 9.419419419418606 0 0
945 9.42942942942863 0 0
946 9.439439439438654 0 0
947 9.449449449448679 0 0
948 9.459459459458703 0 0
949 9.469469469468727 0 0
950 9.479479479478751 0 0
951 9.489489489488774 0 0
952 9.499499499498798 0 0
953 9.509509509508822 0 0
954 9.519519519518846 0 0
955 9.529529529528871 0 0
956 9.539539539538895 0 0
957 9.549549549548919 0 0
958 9.559559559558943 0 0
959 9.569569569568966 0 0
960 9.57957957957899 0 0
961 9.589589589589014 0 0
962 9.599599599599038 0 0
963 9.609609609609063 0 0
964 9.619619619619087 0 0
965 9.629629629629111 0 0
966 9.639639639639135 0 0
967 9.649649649649159 0 0
968 9.659659659659184 0 0
969 9.669669669669208 0 0
970 9.679679679679232 0 0
971 9.689689689689256 0 0
972 9.699699699699279 0 0
973 9.709709709709303 0 0
974 9.719719719719327 0 0
975 9.729729729729351 0 0
976 9.739739739739376 0 0
977 9.7497497497494 0 0
978 9.759759759759422 0 0
979 9.769769769769447 0 0
980 9.779779779779471 0 0
981 9.789789789789495 0 0
982 9.799799799799519 0 0
983 9.809809809809543 0 0
984 9.819819819819568 0 0
985 9.829829829829592 0 0
986 9.839839839839616 0 0
987 9.84984984984964 0 0
988 9.859859859859663 0 0
989 9.869869869869687 0 0
990 9.879879879879711 0 0
991 9.889889889889735 0 0
992 9.89989989989976 0 0
993 9.909909909909784 0 0
994 9.919919919919808 0 0
995 9.929929929929832 0 0
996 9.939939939939856 0 0
997 9.949949949949881 0 0
998 9.959959959959903 0 0
999 9.969969969969927 0 0
1000 9.979979979979952 0 0
1001 9.989989989989976 0 0
1002 10.01002004008016 0 0
1003 10.02004008016032 0 0
1004 10.03006012024048 0 0
1005 10.04008016032064 0 0
1006 10.0501002004008 0 0
1007 10.06012024048096 0 0
1008 10.07014028056112 0 0
1009 10.08016032064128 0 0
1010 10.09018036072144 0 0
1011 10.1002004008016 0 0
1012 10.11022044088176 0 0
1013 10.12024048096192 0 0
1014 10.13026052104208 0 0
1015 10.14028056112224 0 0
1016 10.1503006012024 0 0
1017 10.16032064128257 0 0
1018 10.17034068136273 0 0
1019 10.18036072144289 0 0
1020 10.19038076152305 0 0
1021 10.20040080160321 0 0
1022 10.21042084168337 0 0
1023 10.22044088176353 0 0
1024 10.23046092184369 0 0
1025 10.24048096192385 0 0
1026 10.25050100200401 0 0
1027 10.26052104208417 0 0
1028 10.27054108216433 0 0
1029 10.28056112224449 0 0
1030 10.29058116232465 0 0
1031 10.30060120240481 0 0
1032 10.31062124248497 0 0
1033 10.32064128256513 0 0
1034 10.33066132264529 0 0
1035 10.34068136272545 0 0
1036 10.35070140280561 0 0
1037 10.36072144288577 0 0
1038 10.37074148296593 0 0
1039 10.38076152304609 0 0
1040 10.39078156312625 0 0
1041 10.40080160320641 0 0
1042 10.41082164328657 0 0
1043 10.42084168336673 0 0
1044 10.43086172344689 0 0
1045 10.44088176352705 0 0
1046 10.45090180360721 0 0
1047 10.46092184368737 0 0
1048 10.47094188376754 0 0
1049 10.4809619238477 0 0
1050 10.49098196392786 0 0
1051 10.50100200400802 0 0
1052 10.51102204408818 0 0
1053 10.52104208416834 0 0
1054 10.5310621242485 0 0
1055 10.54108216432866 0 0
1056 10.55110220440882 0 0
1057 10.56112224448898 0 0
1058 10.57114228456914 0 0
1059 10.5811623246493 0 0
1060 10.59118236472946 0 0
1061 10.60120240480962 0 0
1062 10.61122244488978 0 0
1063 10.62124248496994 0 0
1064 10.6312625250501 0 0
1065 10.64128256513026 0 0
1066 10.65130260521042 0 0
1067 10.66132264529058 0 0
1068 10.67134268537074 0 0
1069 10.6813627254509 0 0
1070 10.69138276553106 0 0
1071 10.70140280561122 0 0
1072 10.71142284569138 0 0
1073 10.72144288577154 0 0
1074 10.7314629258517 0 0
1075 10.74148296593186 0 0
1076 10.75150300601202 0 0
1077 10.76152304609218 0 0
1078 10.77154308617235 0 0
1079 10.78156312625251 0 0
1080 10.79158316633267 0 0
1081 10.80160320641282 0 0
1082 10.81162324649299 0 0
1083 10.82164328657315 0 0
1084 10.83166332665331 0 0
1085 10.84168336673347 0 0
1086 10.85170340681363 0 0
1087 10.86172344689379 0 0
1088 10.87174348697395 0 0
1089 10.88176352705411 0 0
1090 10.89178356713427 0 0
1091 10.90180360721443 0 0
1092 10.91182364729459 0 0
1093 10.92184368737475 0 0
1094 10.93186372745491 0 0
1095 10.94188376753507 0 0
1096 10.95190380761523 0 0
1097 10.96192384769539 0 0
1098 10.97194388777555 0 0
1099 10.98196392785571 0 0
1100 10.99198396793587 0 0
1101 11.00200400801603 0 0
1102 11.01202404809619 0 0
1103 11.02204408817635 0 0
1104 11.03206412825651 0 0
1105 11.04208416833667 0 0
1106 11.05210420841683 0 0
1107 11.06212424849699 0 0
1108 11.07214428857715 0 0
1109 11.08216432865732 0 0
1110 11.09218436873747 0 0
1111 11.10220440881763 0 0
1112 11.11222444889779 0 0
1113 11.12224448897796 0 0
1114 11.13226452905812 0 0
1115 11.14228456913828 0 0
1116 11.15230460921844 0 0
1117 11.1623246492986 0 0
1118 11.17234468937876 0 0
1119 11.18236472945892 0 0
1120 11.19238476953908 0 0
1121 11.20240480961924 0 0
1122 11.2124248496994 0 0
1123 11.22244488977956 0 0
1124 11.23246492985972 0 0
1125 11.24248496993988 0 0
1126 11.25250501002004 0 0
1127 11.2625250501002 0 0
1128 11.27254509018036 0 0
1129 11.28256513026052 0 0
1130 11.29258517034068 0 0
1131 11.30260521042084 0 0
1132 11.312625250501 0 0
1133 11.32264529058116 0 0
1134 11.33266533066132 0 0
1135 11.34268537074148 0 0
1136 11.35270541082164 0 0
1137 11.3627254509018 0 0
1138 11.37274549098196 0 0
1139 11.38276553106212 0 0
1140 11.39278557114228 0 0
1141 11.40280561122244 0 0
1142 11.4128256513026 0 0
1143 11.42284569138276 0 0
1144 11.43286573146293 0 0
1145 11.44288577154309 0 0
1146 11.45290581162325 0 0
1147 11.46292585170341 0 0
1148 11.47294589178357 0 0
1149 11.48296593186373 0 0
1150 11.49298597194389 0 0
1151 11.50300601202405 0 0
1152 11.51302605210421 0 0
1153 11.52304609218437 0 0
1154 11.53306613226453 0 0
1155 11.54308617234469 0 0
1156 11.55310621242485 0 0
1157 11.56312625250501 0 0
1158 11.57314629258517 0 0
1159 11.58316633266533 0 0
1160 11.59318637274549 0 0
1161 11.60320641282565 0 0
1162 11.61322645290581 0 0
1163 11.62324649298597 0 0
1164 11.63326653306613 0 0
1165 11.64328657314629 0 0
1166 11.65330661322645 0 0
1167 11.66332665330661 0 0
1168 11.67334669338677 0 0
1169 11.68336673346693 0 0
1170 11.69338677354709 0 0
1171 11.70340681362725 0 0
1172 11.71342685370741 0 0
1173 11.72344689378757 0 0
1174 11.73346693386774 0 0
1175 11.7434869739479 0 0
1176 11.75350701402806 0 0
1177 11.76352705410822 0 0
1178 11.77354709418838 0 0
1179 11.78356713426854 0 0
1180 11.7935871743487 0 0
1181 11.80360721442886 0 0
1182 11.81362725450902 0 0
1183 11.82364729458918 0 0
1184 11.83366733466934 0 0
1185 11.8436873747495 0 0
1186 11.85370741482966 0 0
1187 11.86372745490982 0 0
1188 11.87374749498998 0 0
1189 11.88376753507014 0 0
1190 11.8937875751503 0 0
1191 11.90380761523046 0 0
1192 11.91382765531062 0 0
1193 11.92384769539078 0 0
1194 11.93386773547094 0 0
1195 11.9438877755511 0 0
1196 11.95390781563126 0 0
1197 11.96392785571142 0 0
1198 11.97394789579158 0 0
1199 11.98396793587174 0 0
1200 11.9939879759519 0 0
1201 12.00400801603206 0 0
1202 12.01402805611222 0 0
1203 12.02404809619238 0 0
1204 12.03406813627254 0 0
1205 12.04408817635271 0 0
1206 12.05410821643287 0 0
1207 12.06412825651303 0 0
1208 12.07414829659319 0 0
1209 12.08416833667335 0 0
1210 12.09418837675351 0 0
1211 12.10420841683367 0 0
1212 12.11422845691383 0 0
1213 12.12424849699399 0 0
1214 12.13426853707415 0 0
1215 12.14428857715431 0 0
1216 12.15430861723447 0 0
1217 12.16432865731463 0 0
1218 12.17434869739479 0 0
1219 12.18436873747495 0 0
1220 12.19438877755511 0 0
1221 12.20440881763527 0 0
1222 12.21442885771543 0 0
1223 12.22444889779559 0 0
1224 12.23446893787575 0 0
1225 12.24448897795591 0 0
1226 12.25450901803607 0 0
1227 12.26452905811623 0 0
1228 12.27454909819639 0 0
1229 12.28456913827655 0 0
1230 12.29458917835671 0 0
1231 12.30460921843687 0 0
1232 12.31462925851703 0 0
1233 12.32464929859719 0 0
1234 12.33466933867735 0 0
1235 12.34468937875751 0 0
1236 12.35470941883768 0 0
1237 12.36472945891784 0 0
1238 12.374749498998 0 0
1239 12.38476953907816 0 0
1240 12.39478957915832 0 0
1241 12.40480961923848 0 0
1242 12.41482965931864 0 0
1243 12.4248496993988 0 0
1244 12.43486973947896 0 0
1245 12.44488977955912 0 0
1246 12.45490981963928 0 0
1247 12.46492985971944 0 0
1248 12.4749498997996 0 0
1249 12.48496993987976 0 0
1250 12.49498997995992 0 0
1251 12.50501002004008 0 0
1252 12.51503006012024 0 0
1253 12.5250501002004 0 0
1254 12.53507014028056 0 0
1255 12.54509018036072 0 0
1256 12.55511022044088 0 0
1257 12.56513026052104 0 0
1258 12.5751503006012 0 0
1259 12.58517034068136 0 0
1260 12.59519038076152 0 0
1261 12.60521042084168 0 0
1262 12.61523046092184 0 0
1263 12.625250501002 0 0
1264 12.63527054108216 0 0
1265 12.64529058116232 0 0
1266 12.65531062124249 0 0
1267 12.66533066132265 0 0
1268 12.67535070140281 0 0
1269 12.68537074148297 0 0
1270 12.69539078156313 0 0
1271 12.70541082164329 0 0
1272 12.71543086172345 0 0
1273 12.72545090180361 0 0
1274 12.73547094188377 0 0
1275 12.74549098196393 0 0
1276 12.75551102204409 0 0
1277 12.76553106212425 0 0
1278 12.77555110220441 0 0
1279 12.78557114228457 0 0
1280 12.79559118236473 0 0
1281 12.80561122244489 0 0
1282 12.81563126252505 0 0
1283 12.82565130260521 0 0
1284 12.83567134268537 0 0
1285 12.84569138276553 0 0
1286 12.85571142284569 0 0
1287 12.86573146292585 0 0
1288 12.87575150300601 0 0
1289 12.88577154308617 0 0
1290 12.89579158316633 0 0
1291 12.90581162324649 0 0
1292 12.91583166332665 0 0
1293 12.92585170340681 0 0
1294 12.93587174348697 0 0
1295 12.94589178356713 0 0
1296 12.95591182364729 0 0
1297 12.96593186372746 0 0
1298 12.97595190380762 0 0
1299 12.98597194388778 0 0
1300 12.99599198396794 0 0
1301 13.0060120240481 0 0
1302 13.01603206412826 0 0
1303 13.02605210420842 0 0
1304 13.03607214428858 0 0
1305 13.04609218436874 0 0
1306 13.0561122244489 0 0
1307 13.06613226452906 0 0
1308 13.07615230460922 0 0
1309 13.08617234468938 0 0
1310 13.09619238476954 0 0
1311 13.1062124248497 0 0
1312 13.11623246492986 0 0
1313 13.12625250501002 0 0
1314 13.13627254509018 0 0
1315 13.14629258517034 0 0
1316 13.1563126252505 0 0
1317 13.16633266533066 0 0
1318 13.17635270541082 0 0
1319 13.18637274549098 0 0
1320 13.19639278557114 0 0
1321 13.2064128256513 0 0
1322 13.21643286573146 0 0
1323 13.22645290581162 0 0
1324 13.23647294589178 0 0
1325 13.24649298597194 0 0
1326 13.2565130260521 0 0
1327 13.26653306613226 0 0
1328 13.27655310621243 0 0
1329 13.28657314629259 0 0
1330 13.29659318637274 0 0
1331 13.30661322645291 0 0
1332 13.31663326653307 0 0
1333 13.32665330661323 0 0
1334 13.33667334669339 0 0
1335 13.34669338677355 0 0
1336 13.35671342685371 0 0
1337 13.36673346693387 0 0
1338 13.37675350701403 0 0
1339 13.38677354709419 0 0
1340 13.39679358717435 0 0
1341 13.40681362725451 0 0
1342 13.41683366733467 0 0
1343 13.42685370741483 0 0
1344 13.43687374749499 0 0
1345 13.44689378757515 0 0
1346 13.45691382765531 0 0
1347 13.46693386773547 0 0
1348 13.47695390781563 0 0
1349 13.48697394789579 0 0
1350 13.49699398797595 0 0
1351 13.50701402805611 0 0
1352 13.51703406813627 0 0
1353 13.52705410821643 0 0
1354 13.53707414829659 0 0
1355 13.54709418837675 0 0
1356 13.55711422845691 0 0
1357 13.56713426853707 0 0
1358 13.57715430861724 0 0
1359 13.5871743486974 0 0
1360 13.59719438877756 0 0
1361 13.60721442885771 0 0
1362 13.61723446893788 0 0
1363 13.62725450901804 0 0
1364 13.6372745490982 0 0
1365 13.64729458917836 0 0
1366 13.65731462925852 0 0
1367 13.66733466933868 0 0
1368 13.67735470941884 0 0
1369 13.687374749499 0 0
1370 13.69739478957916 0 0
1371 13.70741482965932 0 0
1372 13.71743486973948 0 0
1373 13.72745490981964 0 0
1374 13.7374749498998 0 0
1375 13.74749498997996 0 0
1376 13.75751503006012 0 0
1377 13.76753507014028 0 0
1378 13.77755511022044 0 0
1379 13.7875751503006 0 0
1380 13.79759519038076 0 0
1381 13.80761523046092 0 0
1382 13.81763527054108 0 0
1383 13.82765531062124 0 0
1384 13.8376753507014 0 0
1385 13.84769539078156 0 0
1386 13.85771543086172 0 0
1387 13.86773547094188 0 0
1388 13.87775551102204 0 0
1389 13.8877755511022 0 0
1390 13.89779559118236 0 0
1391 13.90781563126253 0 0
1392 13.91783567134268 0 0
1393 13.92785571142285 0 0
1394 13.93787575150301 0 0
1395 13.94789579158317 0 0
1396 13.95791583166333 0 0
1397 13.96793587174349 0 0
1398 13.97795591182365 0 0
1399 13.98797595190381 0 0
1400 13.99799599198397 0 0
1401 14.00801603206413 0 0
1402 14.01803607214429 0 0
1403 14.02805611222445 0 0
1404 14.03807615230461 0 0
1405 14.04809619238477 0 0
1406 14.05811623246493 0 0
1407 14.06813627254509 0 0
1408 14.07815631262525 0 0
1409 14.08817635270541 0 0
1410 14.09819639278557 0 0
1411 14.10821643286573 0 0
1412 14.11823647294589 0 0
1413 14.12825651302605 0 0
1414 14.13827655310621 0 0
1415 14.14829659318637 0 0
1416 14.15831663326653 0 0
1417 14.16833667334669 0 0
1418 14.17835671342685 0 0
1419 14.18837675350701 0 0
1420 14.19839679358718 0 0
1421 14.20841683366733 0 0
1422 14.21843687374749 0 0
1423 14.22845691382765 0 0
1424 14.23847695390782 0 0
1425 14.24849699398798 0 0
1426 14.25851703406814 0 0
1427 14.2685370741483 0 0
1428 14.27855711422846 0 0
1429 14.28857715430862 0 0
1430 14.29859719438878 0 0
1431 14.30861723446894 0 0
1432 14.3186372745491 0 0
1433 14.32865731462926 0 0
1434 14.33867735470942 0 0
1435 14.34869739478958 0 0
1436 14.35871743486974 0 0
1437 14.3687374749499 0 0
1438 14.37875751503006 0 0
1439 14.38877755511022 0 0
1440 14.39879759519038 0 0
1441 14.40881763527054 0 0
1442 14.4188376753507 0 0
1443 14.42885771543086 0 0
1444 14.43887775551102 0 0
1445 14.44889779559118 0 0
1446 14.45891783567134 0 0
1447 14.4689378757515 0 0
1448 14.47895791583166 0 0
1449 14.48897795591182 0 0
1450 14.49899799599198 0 0
1451 14.50901803607214 0 0
1452 14.5190380761523 0 0
1453 14.52905811623246 0 0
1454 14.53907815631263 0 0
1455 14.54909819639279 0 0
1456 14.55911823647295 0 0
1457 14.56913827655311 0 0
1458 14.57915831663327 0 0
1459 14.58917835671343 0 0
1460 14.59919839679359 0 0
1461 14.60921843687375 0 0
1462 14.61923847695391 0 0
1463 14.62925851703407 0 0
1464 14.63927855711423 0 0
1465 14.64929859719439 0 0
1466 14.65931863727455 0 0
1467 14.66933867735471 0 0
1468 14.67935871743487 0 0
1469 14.68937875751503 0 0
1470 14.69939879759519 0 0
1471 14.70941883767535 0 0
1472 14.71943887775551 0 0
1473 14.72945891783567 0 0
1474 14.73947895791583 0 0
1475 14.74949899799599 0 0
1476 14.75951903807615 0 0
1477 14.76953907815631 0 0
1478 14.77955911823647 0 0
1479 14.78957915831663 0 0
1480 14.79959919839679 0 0
1481 14.80961923847695 0 0
1482 14.81963927855711 0 0
1483 14.82965931863727 0 0
1484 14.83967935871743 0 0
1485 14.84969939879759 0 0
1486 14.85971943887776 0 0
1487 14.86973947895791 0 0
1488 14.87975951903808 0 0
1489 14.88977955911824 0 0
1490 14.8997995991984 0 0
1491 14.90981963927856 0 0
1492 14.91983967935872 0 0
1493 14.92985971943888 0 0
1494 14.93987975951904 0 0
1495 14.9498997995992 0 0
1496 14.95991983967936 0 0
1497 14.96993987975952 0 0
1498 14.97995991983968 0 0
1499 14.98997995991984 0 0
$EndNodes
$Elements
1500
1 15 2 3 1 1
2 15 2 4 3 3
3 1 2 1 1 1 4
4 1 2 1 1 4 5
5 1 2 1 1 5 6
6 1 2 1 1 6 7
7 1 2 1 1 7 8
8 1 2 1 1 8 9
9 1 2 1 1 9 10
10 1 2 1 1 10 11
11 1 2 1 1 11 12
12 1 2 1 1 12 13
13 1 2 1 1 13 14
14 1 2 1 1 14 15
15 1 2 1 1 15 16
16 1 2 1 1 16 17
17 1 2 1 1 17 18
18 1 2 1 1 18 19
19 1 2 1 1 19 20
20 1 2 1 1 20 21
21 1 2 1 1 21 22
22 1 2 1 1 22 23
23 1 2 1 1 23 24
24 1 2 1 1 24 25
25 1 2 1 1 25 26
26 1 2 1 1 26 27
27 1 2 1 1 27 28
28 1 2 1 1 28 29
29 1 2 1 1 29 30
30 1 2 1 1 30 31
31 1 2 1 1 31 32
32 1 2 1 1 32 33
33 1 2 1 1 33 34
34 1 2 1 1 34 35
35 1 2 1 1 35 36
36 1 2 1 1 36 37
37 1 2 1 1 37 38
38 1 2 1 1 38 39
39 1 2 1 1 39 40
40 1 2 1 1 40 41
41 1 2 1 1 41 42
42 1 2 1 1 42 43
43 1 2 1 1 43 44
44 1 2 1 1 44 45
45 1 2 1 1 45 46
46 1 2 1 1 46 47
47 1 2 1 1 47 48
48 1 2 1 1 48 49
49 1 2 1 1 49 50
50 1 2 1 1 50 51
51 1 2 1 1 51 52
52 1 2 1 1 52 53
53 1 2 1 1 53 54
54 1 2 1 1 54 55
55 1 2 1 1 55 56
56 1 2 1 1 56 57
57 1 2 1 1 57 58
58 1 2 1 1 58 59
59 1 2 1 1 59 60
60 1 2 1 1 60 61
61 1 2 1 1 61 62
62 1 2 1 1 62 63
63 1 2 1 1 63 64
64 1 2 1 1 64 65
65 1 2 1 1 65 66
66 1 2 1 1 66 67
67 1 2 1 1 67 68
68 1 2 1 1 68 69
69 1 2 1 1 69 70
70 1 2 1 1 70 71
71 1 2 1 1 71 72
72 1 2 1 1 72 73
73 1 2 1 1 73 74
74 1 2 1 1 74 75
75 1 2 1 1 75 76
76 1 2 1 1 76 77
77 1 2 1 1 77 78
78 1 2 1 1 78 79
79 1 2 1 1 79 80
80 1 2 1 1 80 81
81 1 2 1 1 81 82
82 1 2 1 1 82 83
83 1 2 1 1 83 84
84 1 2 1 1 84 85
85 1 2 1 1 85 86
86 1 2 1 1 86 87
87 1 2 1 1 87 88
88 1 2 1 1 88 89
89 1 2 1 1 89 90
90 1 2 1 1 90 91
91 1 2 1 1 91 92
92 1 2 1 1 92 93
93 1 2 1 1 93 94
94 1 2 1 1 94 95
95 1 2 1 1 95 96
96 1 2 1 1 96 97
97 1 2 1 1 97 98
98 1 2 1 1 98 99
99 1 2 1 1 99 100
100 1 2 1 1 100 101
101 1 2 1 1 101 102
102 1 2 1 1 102 103
103 1 2 1 1 103 104
104 1 2 1 1 104 105
105 1 2 1 1 105 106
106 1 2 1 1 106 107
107 1 2 1 1 107 108
108 1 2 1 1 108 109
109 1 2 1 1 109 110
110 1 2 1 1 110 111
111 1 2 1 1 111 112
112 1 2 1 1 112 113
113 1 2 1 1 113 114
114 1 2 1 1 114 115
115 1 2 1 1 115 116
116 1 2 1 1 116 117
117 1 2 1 1 117 118
118 1 2 1 1 118 119
119 1 2 1 1 119 120
120 1 2 1 1 120 121
121 1 2 1 1 121 122
122 1 2 1 1 122 123
123 1 2 1 1 123 124
124 1 2 1 1 124 125
125 1 2 1 1 125 126
126 1 2 1 1 126 127
127 1 2 1 1 127 128
128 1 2 1 1 128 129
129 1 2 1 1 129 130
130 1 2 1 1 130 131
131 1 2 1 1 131 132
132 1 2 1 1 132 133
133 1 2 1 1 133 134
134 1 2 1 1 134 135
135 1 2 1 1 135 136
136 1 2 1 1 136 137
137 1 2 1 1 137 138
138 1 2 1 1 138 139
139 1 2 1 1 139 140
140 1 2 1 1 140 141
141 1 2 1 1 141 142
142 1 2 1 1 142 143
143 1 2 1 1 143 144
144 1 2 1 1 144 145
145 1 2 1 1 145 146
146 1 2 1 1 146 147
147 1 2 1 1 147 148
148 1 2 1 1 148 149
149 1 2 1 1 149 150
150 1 2 1 1 150 151
151 1 2 1 1 151 152
152 1 2 1 1 152 153
153 1 2 1 1 153 154
154 1 2 1 1 154 155
155 1 2 1 1 155 156
156 1 2 1 1 156 157
157 1 2 1 1 157 158
158 1 2 1 1 158 159
159 1 2 1 1 159 160
160 1 2 1 1 160 161
161 1 2 1 1 161 162
162 1 2 1 1 162 163
163 1 2 1 1 163 164
164 1 2 1 1 164 165
165 1 2 1 1 165 166
166 1 2 1 1 166 167
167 1 2 1 1 167 168
168 1 2 1 1 168 169
169 1 2 1 1 169 170
170 1 2 1 1 170 171
171 1 2 1 1 171 172
172 1 2 1 1 172 173
173 1 2 1 1 173 174
174 1 2 1 1 174 175
175 1 2 1 1 175 176
176 1 2 1 1 176 177
177 1 2 1 1 177 178
178 1 2 1 1 178 179
179 1 2 1 1 179 180
180 1 2 1 1 180 181
181 1 2 1 1 181 182
182 1 2 1 1 182 183
183 1 2 1 1 183 184
184 1 2 1 1 184 185
185 1 2 1 1 185 186
186 1 2 1 1 186 187
187 1 2 1 1 187 188
188 1 2 1 1 188 189
189 1 2 1 1 189 190
190 1 2 1 1 190 191
191 1 2 1 1 191 192
192 1 2 1 1 192 193
193 1 2 1 1 193 194
194 1 2 1 1 194 195
195 1 2 1 1 195 196
196 1 2 1 1 196 197
197 1 2 1 1 197 198
198 1 2 1 1 198 199
199 1 2 1 1 199 200
200 1 2 1 1 200 201
201 1 2 1 1 201 202
202 1 2 1 1 202 203
203 1 2 1 1 203 204
204 1 2 1 1 204 205
205 1 2 1 1 205 206
206 1 2 1 1 206 207
207 1 2 1 1 207 208
208 1 2 1 1 208 209
209 1 2 1 1 209 210
210 1 2 1 1 210 211
211 1 2 1 1 211 212
212 1 2 1 1 212 213
213 1 2 1 1 213 214
214 1 2 1 1 214 215
215 1 2 1 1 215 216
216 1 2 1 1 216 217
217 1 2 1 1 217 218
218 1 2 1 1 218 219
219 1 2 1 1 219 220
220 1 2 1 1 220 221
221 1 2 1 1 221 222
222 1 2 1 1 222 223
223 1 2 1 1 223 224
224 1 2 1 1 224 225
225 1 2 1 1 225 226
226 1 2 1 1 226 227
227 1 2 1 1 227 228
228 1 2 1 1 228 229
229 1 2 1 1 229 230
230 1 2 1 1 230 231
231 1 2 1 1 231 232
232 1 2 1 1 232 233
233 1 2 1 1 233 234
234 1 2 1 1 234 235
235 1 2 1 1 235 236
236 1 2 1 1 236 237
237 1 2 1 1 237 238
238 1 2 1 1 238 239
239 1 2 1 1 239 240
240 1 2 1 1 240 241
241 1 2 1 1 241 242
242 1 2 1 1 242 243
243 1 2 1 1 243 244
244 1 2 1 1 244 245
245 1 2 1 1 245 246
246 1 2 1 1 246 247
247 1 2 1 1 247 248
248 1 2 1 1 248 249
249 1 2 1 1 249 250
250 1 2 1 1 250 251
251 1 2 1 1 251 252
252 1 2 1 1 252 253
253 1 2 1 1 253 254
254 1 2 1 1 254 255
255 1 2 1 1 255 256
256 1 2 1 1 256 257
257 1 2 1 1 257 258
258 1 2 1 1 258 259
259 1 2 1 1 259 260
260 1 2 1 1 260 261
261 1 2 1 1 261 262
262 1 2 1 1 262 263
263 1 2 1 1 263 264
264 1 2 1 1 264 265
265 1 2 1 1 265 266
266 1 2 1 1 266 267
267 1 2 1 1 267 268
268 1 2 1 1 268 269
269 1 2 1 1 269 270
270 1 2 1 1 270 271
271 1 2 1 1 271 272
272 1 2 1 1 272 273
273 1 2 1 1 273 274
274 1 2 1 1 274 275
275 1 2 1 1 275 276
276 1 2 1 1 276 277
277 1 2 1 1 277 278
278 1 2 1 1 278 279
279 1 2 1 1 279 280
280 1 2 1 1 280 281
281 1 2 1 1 281 282
282 1 2 1 1 282 283
283 1 2 1 1 283 284
284 1 2 1 1 284 285
285 1 2 1 1 285 286
286 1 2 1 1 286 287
287 1 2 1 1 287 288
288 1 2 1 1 288 289
289 1 2 1 1 289 290
290 1 2 1 1 290 291
291 1 2 1 1 291 292
292 1 2 1 1 292 293
293 1 2 1 1 293 294
294 1 2 1 1 294 295
295 1 2 1 1 295 296
296 1 2 1 1 296 297
297 1 2 1 1 297 298
298 1 2 1 1 298 299
299 1 2 1 1 299 300
300 1 2 1 1 300 301
301 1 2 1 1 301 302
302 1 2 1 1 302 303
303 1 2 1 1 303 304
304 1 2 1 1 304 305
305 1 2 1 1 305 306
306 1 2 1 1 306 307
307 1 2 1 1 307 308
308 1 2 1 1 308 309
309 1 2 1 1 309 310
310 1 2 1 1 310 311
311 1 2 1 1 311 312
312 1 2 1 1 312 313
313 1 2 1 1 313 314
314 1 2 1 1 314 315
315 1 2 1 1 315 316
316 1 2 1 1 316 317
317 1 2 1 1 317 318
318 1 2 1 1 318 319
319 1 2 1 1 319 320
320 1 2 1 1 320 321
321 1 2 1 1 321 322
322 1 2 1 1 322 323
323 1 2 1 1 323 324
324 1 2 1 1 324 325
325 1 2 1 1 325 326
326 1 2 1 1 326 327
327 1 2 1 1 327 328
328 1 2 1 1 328 329
329 1 2 1 1 329 330
330 1 2 1 1 330 331
331 1 2 1 1 331 332
332 1 2 1 1 332 333
333 1 2 1 1 333 334
334 1 2 1 1 334 335
335 1 2 1 1 335 336
336 1 2 1 1 336 337
337 1 2 1 1 337 338
338 1 2 1 1 338 339
339 1 2 1 1 339 340
340 1 2 1 1 340 341
341 1 2 1 1 341 342
342 1 2 1 1 342 343
343 1 2 1 1 343 344
344 1 2 1 1 344 345
345 1 2 1 1 345 346
346 1 2 1 1 346 347
347 1 2 1 1 347 348
348 1 2 1 1 348 349
349 1 2 1 1 349 350
350 1 2 1 1 350 351
351 1 2 1 1 351 352
352 1 2 1 1 352 353
353 1 2 1 1 353 354
354 1 2 1 1 354 355
355 1 2 1 1 355 356
356 1 2 1 1 356 357
357 1 2 1 1 357 358
358 1 2 1 1 358 359
359 1 2 1 1 359 360
360 1 2 1 1 360 361
361 1 2 1 1 361 362
362 1 2 1 1 362 363
363 1 2 1 1 363 364
364 1 2 1 1 364 365
365 1 2 1 1 365 366
366 1 2 1 1 366 367
367 1 2 1 1 367 368
368 1 2 1 1 368 369
369 1 2 1 1 369 370
370 1 2 1 1 370 371
371 1 2 1 1 371 372
372 1 2 1 1 372 373
373 1 2 1 1 373 374
374 1 2 1 1 374 375
375 1 2 1 1 375 376
376 1 2 1 1 376 377
377 1 2 1 1 377 378
378 1 2 1 1 378 379
379 1 2 1 1 379 380
380 1 2 1 1 380 381
381 1 2 1 1 381 382
382 1 2 1 1 382 383
383 1 2 1 1 383 384
384 1 2 1 1 384 385
385 1 2 1 1 385 386
386 1 2 1 1 386 387
387 1 2 1 1 387 388
388 1 2 1 1 388 389
389 1 2 1 1 389 390
390 1 2 1 1 390 391
391 1 2 1 1 391 392
392 1 2 1 1 392 393
393 1 2 1 1 393 394
394 1 2 1 1 394 395
395 1 2 1 1 395 396
396 1 2 1 1 396 397
397 1 2 1 1 397 398
398 1 2 1 1 398 399
399 1 2 1 1 399 400
400 1 2 1 1 400 401
401 1 2 1 1 401 402
402 1 2 1 1 402 403
403 1 2 1 1 403 404
404 1 2 1 1 404 405
405 1 2 1 1 405 406
406 1 2 1 1 406 407
407 1 2 1 1 407 408
408 1 2 1 1 408 409
409 1 2 1 1 409 410
410 1 2 1 1 410 411
411 1 2 1 1 411 412
412 1 2 1 1 412 413
413 1 2 1 1 413 414
414 1 2 1 1 414 415
415 1 2 1 1 415 416
416 1 2 1 1 416 417
417 1 2 1 1 417 418
418 1 2 1 1 418 419
419 1 2 1 1 419 420
420 1 2 1 1 420 421
421 1 2 1 1 421 422
422 1 2 1 1 422 423
423 1 2 1 1 423 424
424 1 2 1 1 424 425
425 1 2 1 1 425 426
426 1 2 1 1 426 427
427 1 2 1 1 427 428
428 1 2 1 1 428 429
429 1 2 1 1 429 430
430 1 2 1 1 430 431
431 1 2 1 1 431 432
432 1 2 1 1 432 433
433 1 2 1 1 433 434
434 1 2 1 1 434 435
435 1 2 1 1 435 436
436 1 2 1 1 436 437
437 1 2 1 1 437 438
438 1 2 1 1 438 439
439 1 2 1 1 439 440
440 1 2 1 1 440 441
441 1 2 1 1 441 442
442 1 2 1 1 442 443
443 1 2 1 1 443 444
444 1 2 1 1 444 445
445 1 2 1 1 445 446
446 1 2 1 1 446 447
447 1 2 1 1 447 448
448 1 2 1 1 448 449
449 1 2 1 1 449 450
450 1 2 1 1 450 451
451 1 2 1 1 451 452
452 1 2 1 1 452 453
453 1 2 1 1 453 454
454 1 2 1 1 454 455
455 1 2 1 1 455 456
456 1 2 1 1 456 457
457 1 2 1 1 457 458
458 1 2 1 1 458 459
459 1 2 1 1 459 460
460 1 2 1 1 460 461
461 1 2 1 1 461 462
462 1 2 1 1 462 463
463 1 2 1 1 463 464
464 1 2 1 1 464 465
465 1 2 1 1 465 466
466 1 2 1 1 466 467
467 1 2 1 1 467 468
468 1 2 1 1 468 469
469 1 2 1 1 469 470
470 1 2 1 1 470 471
471 1 2 1 1 471 472
472 1 2 1 1 472 473
473 1 2 1 1 473 474
474 1 2 1 1 474 475
475 1 2 1 1 475 476
476 1 2 1 1 476 477
477 1 2 1 1 477 478
478 1 2 1 1 478 479
479 1 2 1 1 479 480
480 1 2 1 1 480 481
481 1 2 1 1 481 482
482 1 2 1 1 482 483
483 1 2 1 1 483 484
484 1 2 1 1 484 485
485 1 2 1 1 485 486
486 1 2 1 1 486 487
487 1 2 1 1 487 488
488 1 2 1 1 488 489
489 1 2 1 1 489 490
490 1 2 1 1 490 491
491 1 2 1 1 491 492
492 1 2 1 1 492 493
493 1 2 1 1 493 494
494 1 2 1 1 494 495
495 1 2 1 1 495 496
496 1 2 1 1 496 497
497 1 2 1 1 497 498
498 1 2 1 1 498 499
499 1 2 1 1 499 500
500 1 2 1 1 500 501
501 1 2 1 1 501 502
502 1 2 1 1 502 503
503 1 2 1 1 503 504
504 1 2 1 1 504 505
505 1 2 1 1 505 506
506 1 2 1 1 506 507
507 1 2 1 1 507 508
508 1 2 1 1 508 509
509 1 2 1 1 509 510
510 1 2 1 1 510 511
511 1 2 1 1 511 512
512 1 2 1 1 512 513
513 1 2 1 1 513 514
514 1 2 1 1 514 515
515 1 2 1 1 515 516
516 1 2 1 1 516 517
517 1 2 1 1 517 518
518 1 2 1 1 518 519
519 1 2 1 1 519 520
520 1 2 1 1 520 521
521 1 2 1 1 521 522
522 1 2 1 1 522 523
523 1 2 1 1 523 524
524 1 2 1 1 524 525
525 1 2 1 1 525 526
526 1 2 1 1 526 527
527 1 2 1 1 527 528
528 1 2 1 1 528 529
529 1 2 1 1 529 530
530 1 2 1 1 530 531
531 1 2 1 1 531 532
532 1 2 1 1 532 533
533 1 2 1 1 533 534
534 1 2 1 1 534 535
535 1 2 1 1 535 536
536 1 2 1 1 536 537
537 1 2 1 1 537 538
538 1 2 1 1 538 539
539 1 2 1 1 539 540
540 1 2 1 1 540 541
541 1 2 1 1 541 542
542 1 2 1 1 542 543
543 1 2 1 1 543 544
544 1 2 1 1 544 545
545 1 2 1 1 545 546
546 1 2 1 1 546 547
547 1 2 1 1 547 548
548 1 2 1 1 548 549
549 1 2 1 1 549 550
550 1 2 1 1 550 551
551 1 2 1 1 551 552
552 1 2 1 1 552 553
553 1 2 1 1 553 554
554 1 2 1 1 554 555
555 1 2 1 1 555 556
556 1 2 1 1 556 557
557 1 2 1 1 557 558
558 1 2 1 1 558 559
559 1 2 1 1 559 560
560 1 2 1 1 560 561
561 1 2 1 1 561 562
562 1 2 1 1 562 563
563 1 2 1 1 563 564
564 1 2 1 1 564 565
565 1 2 1 1 565 566
566 1 2 1 1 566 567
567 1 2 1 1 567 568
568 1 2 1 1 568 569
569 1 2 1 1 569 570
570 1 2 1 1 570 571
571 1 2 1 1 571 572
572 1 2 1 1 572 573
573 1 2 1 1 573 574
574 1 2 1 1 574 575
575 1 2 1 1 575 576
576 1 2 1 1 576 577
577 1 2 1 1 577 578
578 1 2 1 1 578 579
579 1 2 1 1 579 580
580 1 2 1 1 580 581
581 1 2 1 1 581 582
582 1 2 1 1 582 583
583 1 2 1 1 583 584
584 1 2 1 1 584 585
585 1 2 1 1 585 586
586 1 2 1 1 586 587
587 1 2 1 1 587 588
588 1 2 1 1 588 589
589 1 2 1 1 589 590
590 1 2 1 1 590 591
591 1 2 1 1 591 592
592 1 2 1 1 592 593
593 1 2 1 1 593 594
594 1 2 1 1 594 595
595 1 2 1 1 595 596
596 1 2 1 1 596 597
597 1 2 1 1 597 598
598 1 2 1 1 598 599
599 1 2 1 1 599 600
600 1 2 1 1 600 601
601 1 2 1 1 601 602
602 1 2 1 1 602 603
603 1 2 1 1 603 604
604 1 2 1 1 604 605
605 1 2 1 1 605 606
606 1 2 1 1 606 607
607 1 2 1 1 607 608
608 1 2 1 1 608 609
609 1 2 1 1 609 610
610 1 2 1 1 610 611
611 1 2 1 1 611 612
612 1 2 1 1 612 613
613 1 2 1 1 613 614
614 1 2 1 1 614 615
615 1 2 1 1 615 616
616 1 2 1 1 616 617
617 1 2 1 1 617 618
618 1 2 1 1 618 619
619 1 2 1 1 619 620
620 1 2 1 1 620 621
621 1 2 1 1 621 622
622 1 2 1 1 622 623
623 1 2 1 1 623 624
624 1 2 1 1 624 625
625 1 2 1 1 625 626
626 1 2 1 1 626 627
627 1 2 1 1 627 628
628 1 2 1 1 628 629
629 1 2 1 1 629 630
630 1 2 1 1 630 631
631 1 2 1 1 631 632
632 1 2 1 1 632 633
633 1 2 1 1 633 634
634 1 2 1 1 634 635
635 1 2 1 1 635 636
636 1 2 1 1 636 637
637 1 2 1 1 637 638
638 1 2 1 1 638 639
639 1 2 1 1 639 640
640 1 2 1 1 640 641
641 1 2 1 1 641 642
642 1 2 1 1 642 643
643 1 2 1 1 643 644
644 1 2 1 1 644 645
645 1 2 1 1 645 646
646 1 2 1 1 646 647
647 1 2 1 1 647 648
648 1 2 1 1 648 649
649 1 2 1 1 649 650
650 1 2 1 1 650 651
651 1 2 1 1 651 652
652 1 2 1 1 652 653
653 1 2 1 1 653 654
654 1 2 1 1 654 655
655 1 2 1 1 655 656
656 1 2 1 1 656 657
657 1 2 1 1 657 658
658 1 2 1 1 658 659
659 1 2 1 1 659 660
660 1 2 1 1 660 661
661 1 2 1 1 661 662
662 1 2 1 1 662 663
663 1 2 1 1 663 664
664 1 2 1 1 664 665
665 1 2 1 1 665 666
666 1 2 1 1 666 667
667 1 2 1 1 667 668
668 1 2 1 1 668 669
669 1 2 1 1 669 670
670 1 2 1 1 670 671
671 1 2 1 1 671 672
672 1 2 1 1 672 673
673 1 2 1 1 673 674
674 1 2 1 1 674 675
675 1 2 1 1 675 676
676 1 2 1 1 676 677
677 1 2 1 1 677 678
678 1 2 1 1 678 679
679 1 2 1 1 679 680
680 1 2 1 1 680 681
681 1 2 1 1 681 682
682 1 2 1 1 682 683
683 1 2 1 1 683 684
684 1 2 1 1 684 685
685 1 2 1 1 685 686
686 1 2 1 1 686 687
687 1 2 1 1 687 688
688 1 2 1 1 688 689
689 1 2 1 1 689 690
690 1 2 1 1 690 691
691 1 2 1 1 691 692
692 1 2 1 1 692 693
693 1 2 1 1 693 694
694 1 2 1 1 694 695
695 1 2 1 1 695 696
696 1 2 1 1 696 697
697 1 2 1 1 697 698
698 1 2 1 1 698 699
699 1 2 1 1 699 700
700 1 2 1 1 700 701
701 1 2 1 1 701 702
702 1 2 1 1 702 703
703 1 2 1 1 703 704
704 1 2 1 1 704 705
705 1 2 1 1 705 706
706 1 2 1 1 706 707
707 1 2 1 1 707 708
708 1 2 1 1 708 709
709 1 2 1 1 709 710
710 1 2 1 1 710 711
711 1 2 1 1 711 712
712 1 2 1 1 712 713
713 1 2 1 1 713 714
714 1 2 1 1 714 715
715 1 2 1 1 715 716
716 1 2 1 1 716 717
717 1 2 1 1 717 718
718 1 2 1 1 718 719
719 1 2 1 1 719 720
720 1 2 1 1 720 721
721 1 2 1 1 721 722
722 1 2 1 1 722 723
723 1 2 1 1 723 724
724 1 2 1 1 724 725
725 1 2 1 1 725 726
726 1 2 1 1 726 727
727 1 2 1 1 727 728
728 1 2 1 1 728 729
729 1 2 1 1 729 730
730 1 2 1 1 730 731
731 1 2 1 1 731 732
732 1 2 1 1 732 733
733 1 2 1 1 733 734
734 1 2 1 1 734 735
735 1 2 1 1 735 736
736 1 2 1 1 736 737
737 1 2 1 1 737 738
738 1 2 1 1 738 739
739 1 2 1 1 739 740
740 1 2 1 1 740 741
741 1 2 1 1 741 742
742 1 2 1 1 742 743
743 1 2 1 1 743 744
744 1 2 1 1 744 745
745 1 2 1 1 745 746
746 1 2 1 1 746 747
747 1 2 1 1 747 748
748 1 2 1 1 748 749
749 1 2 1 1 749 750
750 1 2 1 1 750 751
751 1 2 1 1 751 752
752 1 2 1 1 752 753
753 1 2 1 1 753 754
754 1 2 1 1 754 755
755 1 2 1 1 755 756
756 1 2 1 1 756 757
757 1 2 1 1 757 758
758 1 2 1 1 758 759
759 1 2 1 1 759 760
760 1 2 1 1 760 761
761 1 2 1 1 761 762
762 1 2 1 1 762 763
763 1 2 1 1 763 764
764 1 2 1 1 764 765
765 1 2 1 1 765 766
766 1 2 1 1 766 767
767 1 2 1 1 767 768
768 1 2 1 1 768 769
769 1 2 1 1 769 770
770 1 2 1 1 770 771
771 1 2 1 1 771 772
772 1 2 1 1 772 773
773 1 2 1 1 773 774
774 1 2 1 1 774 775
775 1 2 1 1 775 776
776 1 2 1 1 776 777
777 1 2 1 1 777 778
778 1 2 1 1 778 779
779 1 2 1 1 779 780
780 1 2 1 1 780 781
781 1 2 1 1 781 782
782 1 2 1 1 782 783
783 1 2 1 1 783 784
784 1 2 1 1 784 785
785 1 2 1 1 785 786
786 1 2 1 1 786 787
787 1 2 1 1 787 788
788 1 2 1 1 788 789
789 1 2 1 1 789 790
790 1 2 1 1 790 791
791 1 2 1 1 791 792
792 1 2 1 1 792 793
793 1 2 1 1 793 794
794 1 2 1 1 794 795
795 1 2 1 1 795 796
796 1 2 1 1 796 797
797 1 2 1 1 797 798
798 1 2 1 1 798 799
799 1 2 1 1 799 800
800 1 2 1 1 800 801
801 1 2 1 1 801 802
802 1 2 1 1 802 803
803 1 2 1 1 803 804
804 1 2 1 1 804 805
805 1 2 1 1 805 806
806 1 2 1 1 806 807
807 1 2 1 1 807 808
808 1 2 1 1 808 809
809 1 2 1 1 809 810
810 1 2 1 1 810 811
811 1 2 1 1 811 812
812 1 2 1 1 812 813
813 1 2 1 1 813 814
814 1 2 1 1 814 815
815 1 2 1 1 815 816
816 1 2 1 1 816 817
817 1 2 1 1 817 818
818 1 2 1 1 818 819
819 1 2 1 1 819 820
820 1 2 1 1 820 821
821 1 2 1 1 821 822
822 1 2 1 1 822 823
823 1 2 1 1 823 824
824 1 2 1 1 824 825
825 1 2 1 1 825 826
826 1 2 1 1 826 827
827 1 2 1 1 827 828
828 1 2 1 1 828 829
829 1 2 1 1 829 830
830 1 2 1 1 830 831
831 1 2 1 1 831 832
832 1 2 1 1 832 833
833 1 2 1 1 833 834
834 1 2 1 1 834 835
835 1 2 1 1 835 836
836 1 2 1 1 836 837
837 1 2 1 1 837 838
838 1 2 1 1 838 839
839 1 2 1 1 839 840
840 1 2 1 1 840 841
841 1 2 1 1 841 842
842 1 2 1 1 842 843
843 1 2 1 1 843 844
844 1 2 1 1 844 845
845 1 2 1 1 845 846
846 1 2 1 1 846 847
847 1 2 1 1 847 848
848 1 2 1 1 848 849
849 1 2 1 1 849 850
850 1 2 1 1 850 851
851 1 2 1 1 851 852
852 1 2 1 1 852 853
853 1 2 1 1 853 854
854 1 2 1 1 854 855
855 1 2 1 1 855 856
856 1 2 1 1 856 857
857 1 2 1 1 857 858
858 1 2 1 1 858 859
859 1 2 1 1 859 860
860 1 2 1 1 860 861
861 1 2 1 1 861 862
862 1 2 1 1 862 863
863 1 2 1 1 863 864
864 1 2 1 1 864 865
865 1 2 1 1 865 866
866 1 2 1 1 866 867
867 1 2 1 1 867 868
868 1 2 1 1 868 869
869 1 2 1 1 869 870
870 1 2 1 1 870 871
871 1 2 1 1 871 872
872 1 2 1 1 872 873
873 1 2 1 1 873 874
874 1 2 1 1 874 875
875 1 2 1 1 875 876
876 1 2 1 1 876 877
877 1 2 1 1 877 878
878 1 2 1 1 878 879
879 1 2 1 1 879 880
880 1 2 1 1 880 881
881 1 2 1 1 881 882
882 1 2 1 1 882 883
883 1 2 1 1 883 884
884 1 2 1 1 884 885
885 1 2 1 1 885 886
886 1 2 1 1 886 887
887 1 2 1 1 887 888
888 1 2 1 1 888 889
889 1 2 1 1 889 890
890 1 2 1 1 890 891
891 1 2 1 1 891 892
892 1 2 1 1 892 893
893 1 2 1 1 893 894
894 1 2 1 1 894 895
895 1 2 1 1 895 896
896 1 2 1 1 896 897
897 1 2 1 1 897 898
898 1 2 1 1 898 899
899 1 2 1 1 899 900
900 1 2 1 1 900 901
901 1 2 1 1 901 902
902 1 2 1 1 902 903
903 1 2 1 1 903 904
904 1 2 1 1 904 905
905 1 2 1 1 905 906
906 1 2 1 1 906 907
907 1 2 1 1 907 908
908 1 2 1 1 908 909
909 1 2 1 1 909 910
910 1 2 1 1 910 911
911 1 2 1 1 911 912
912 1 2 1 1 912 913
913 1 2 1 1 913 914
914 1 2 1 1 914 915
915 1 2 1 1 915 916
916 1 2 1 1 916 917
917 1 2 1 1 917 918
918 1 2 1 1 918 919
919 1 2 1 1 919 920
920 1 2 1 1 920 921
921 1 2 1 1 921 922
922 1 2 1 1 922 923
923 1 2 1 1 923 924
924 1 2 1 1 924 925
925 1 2 1 1 925 926
926 1 2 1 1 926 927
927 1 2 1 1 927 928
928 1 2 1 1 928 929
929 1 2 1 1 929 930
930 1 2 1 1 930 931
931 1 2 1 1 931 932
932 1 2 1 1 932 933
933 1 2 1 1 933 934
934 1 2 1 1 934 935
935 1 2 1 1 935 936
936 1 2 1 1 936 937
937 1 2 1 1 937 938
938 1 2 1 1 938 939
939 1 2 1 1 939 940
940 1 2 1 1 940 941
941 1 2 1 1 941 942
942 1 2 1 1 942 943
943 1 2 1 1 943 944
944 1 2 1 1 944 945
945 1 2 1 1 945 946
946 1 2 1 1 946 947
947 1 2 1 1 947 948
948 1 2 1 1 948 949
949 1 2 1 1 949 950
950 1 2 1 1 950 951
951 1 2 1 1 951 952
952 1 2 1 1 952 953
953 1 2 1 1 953 954
954 1 2 1 1 954 955
955 1 2 1 1 955 956
956 1 2 1 1 956 957
957 1 2 1 1 957 958
958 1 2 1 1 958 959
959 1 2 1 1 959 960
960 1 2 1 1 960 961
961 1 2 1 1 961 962
962 1 2 1 1 962 963
963 1 2 1 1 963 964
964 1 2 1 1 964 965
965 1 2 1 1 965 966
966 1 2 1 1 966 967
967 1 2 1 1 967 968
968 1 2 1 1 968 969
969 1 2 1 1 969 970
970 1 2 1 1 970 971
971 1 2 1 1 971 972
972 1 2 1 1 972 973
973 1 2 1 1 973 974
974 1 2 1 1 974 975
975 1 2 1 1 975 976
976 1 2 1 1 976 977
977 1 2 1 1 977 978
978 1 2 1 1 978 979
979 1 2 1 1 979 980
980 1 2 1 1 980 981
981 1 2 1 1 981 982
982 1 2 1 1 982 983
983 1 2 1 1 983 984
984 1 2 1 1 984 985
985 1 2 1 1 985 986
986 1 2 1 1 986 987
987 1 2 1 1 987 988
988 1 2 1 1 988 989
989 1 2 1 1 989 990
990 1 2 1 1 990 991
991 1 2 1 1 991 992
992 1 2 1 1 992 993
993 1 2 1 1 993 994
994 1 2 1 1 994 995
995 1 2 1 1 995 996
996 1 2 1 1 996 997
997 1 2 1 1 997 998
998 1 2 1 1 998 999
999 1 2 1 1 999 1000
1000 1 2 1 1 1000 1001
1001 1 2 1 1 1001 2
1002 1 2 2 2 2 1002
1003 1 2 2 2 1002 1003
1004 1 2 2 2 1003 1004
1005 1 2 2 2 1004 1005
1006 1 2 2 2 1005 1006
1007 1 2 2 2 1006 1007
1008 1 2 2 2 1007 1008
1009 1 2 2 2 1008 1009
1010 1 2 2 2 1009 1010
1011 1 2 2 2 1010 1011
1012 1 2 2 2 1011 1012
1013 1 2 2 2 1012 1013
1014 1 2 2 2 1013 1014
1015 1 2 2 2 1014 1015
1016 1 2 2 2 1015 1016
1017 1 2 2 2 1016 1017
1018 1 2 2 2 1017 1018
1019 1 2 2 2 1018 1019
1020 1 2 2 2 1019 1020
1021 1 2 2 2 1020 1021
1022 1 2 2 2 1021 1022
1023 1 2 2 2 1022 1023
1024 1 2 2 2 1023 1024
1025 1 2 2 2 1024 1025
1026 1 2 2 2 1025 1026
1027 1 2 2 2 1026 1027
1028 1 2 2 2 1027 1028
1029 1 2 2 2 1028 1029
1030 1 2 2 2 1029 1030
1031 1 2 2 2 1030 1031
1032 1 2 2 2 1031 1032
1033 1 2 2 2 1032 1033
1034 1 2 2 2 1033 1034
1035 1 2 2 2 1034 1035
1036 1 2 2 2 1035 1036
1037 1 2 2 2 1036 1037
1038 1 2 2 2 1037 1038
1039 1 2 2 2 1038 1039
1040 1 2 2 2 1039 1040
1041 1 2 2 2 1040 1041
1042 1 2 2 2 1041 1042
1043 1 2 2 2 1042 1043
1044 1 2 2 2 1043 1044
1045 1 2 2 2 1044 1045
1046 1 2 2 2 1045 1046
1047 1 2 2 2 1046 1047
1048 1 2 2 2 1047 1048
1049 1 2 2 2 1048 1049
1050 1 2 2 2 1049 1050
1051 1 2 2 2 1050 1051
1052 1 2 2 2 1051 1052
1053 1 2 2 2 1052 1053
1054 1 2 2 2 1053 1054
1055 1 2 2 2 1054 1055
1056 1 2 2 2 1055 1056
1057 1 2 2 2 1056 1057
1058 1 2 2 2 1057 1058
1059 1 2 2 2 1058 1059
1060 1 2 2 2 1059 1060
1061 1 2 2 2 1060 1061
1062 1 2 2 2 1061 1062
1063 1 2 2 2 1062 1063
1064 1 2 2 2 1063 1064
1065 1 2 2 2 1064 1065
1066 1 2 2 2 1065 1066
1067 1 2 2 2 1066 1067
1068 1 2 2 2 1067 1068
1069 1 2 2 2 1068 1069
1070 1 2 2 2 1069 1070
1071 1 2 2 2 1070 1071
1072 1 2 2 2 1071 1072
1073 1 2 2 2 1072 1073
1074 1 2 2 2 1073 1074
1075 1 2 2 2 1074 1075
1076 1 2 2 2 1075 1076
1077 1 2 2 2 1076 1077
1078 1 2 2 2 1077 1078
1079 1 2 2 2 1078 1079
1080 1 2 2 2 1079 1080
1081 1 2 2 2 1080 1081
1082 1 2 2 2 1081 1082
1083 1 2 2 2 1082 1083
1084 1 2 2 2 1083 1084
1085 1 2 2 2 1084 1085
1086 1 2 2 2 1085 1086
1087 1 2 2 2 1086 1087
1088 1 2 2 2 1087 1088
1089 1 2 2 2 1088 1089
1090 1 2 2 2 1089 1090
1091 1 2 2 2 1090 1091
1092 1 2 2 2 1091 1092
1093 1 2 2 2 1092 1093
1094 1 2 2 2 1093 1094
1095 1 2 2 2 1094 1095
1096 1 2 2 2 1095 1096
1097 1 2 2 2 1096 1097
1098 1 2 2 2 1097 1098
1099 1 2 2 2 1098 1099
1100 1 2 2 2 1099 1100
1101 1 2 2 2 1100 1101
1102 1 2 2 2 1101 1102
1103 1 2 2 2 1102 1103
1104 1 2 2 2 1103 1104
1105 1 2 2 2 1104 1105
1106 1 2 2 2 1105 1106
1107 1 2 2 2 1106 1107
1108 1 2 2 2 1107 1108
1109 1 2 2 2 1108 1109
1110 1 2 2 2 1109 1110
1111 1 2 2 2 1110 1111
1112 1 2 2 2 1111 1112
1113 1 2 2 2 1112 1113
1114 1 2 2 2 1113 1114
1115 1 2 2 2 1114 1115
1116 1 2 2 2 1115 1116
1117 1 2 2 2 1116 1117
1118 1 2 2 2 1117 1118
1119 1 2 2 2 1118 1119
1120 1 2 2 2 1119 1120
1121 1 2 2 2 1120 1121
1122 1 2 2 2 1121 1122
1123 1 2 2 2 1122 1123
1124 1 2 2 2 1123 1124
1125 1 2 2 2 1124 1125
1126 1 2 2 2 1125 1126
1127 1 2 2 2 1126 1127
1128 1 2 2 2 1127 1128
1129 1 2 2 2 1128 1129
1130 1 2 2 2 1129 1130
1131 1 2 2 2 1130 1131
1132 1 2 2 2 1131 1132
1133 1 2 2 2 1132 1133
1134 1 2 2 2 1133 1134
1135 1 2 2 2 1134 1135
1136 1 2 2 2 1135 1136
1137 1 2 2 2 1136 1137
1138 1 2 2 2 1137 1138
1139 1 2 2 2 1138 1139
1140 1 2 2 2 1139 1140
1141 1 2 2 2 1140 1141
1142 1 2 2 2 1141 1142
1143 1 2 2 2 1142 1143
1144 1 2 2 2 1143 1144
1145 1 2 2 2 1144 1145
1146 1 2 2 2 1145 1146
1147 1 2 2 2 1146 1147
1148 1 2 2 2 1147 1148
1149 1 2 2 2 1148 1149
1150 1 2 2 2 1149 1150
1151 1 2 2 2 1150 1151
1152 1 2 2 2 1151 1152
1153 1 2 2 2 1152 1153
1154 1 2 2 2 1153 1154
1155 1 2 2 2 1154 1155
1156 1 2 2 2 1155 1156
1157 1 2 2 2 1156 1157
1158 1 2 2 2 1157 1158
1159 1 2 2 2 1158 1159
1160 1 2 2 2 1159 1160
1161 1 2 2 2 1160 1161
1162 1 2 2 2 1161 1162
1163 1 2 2 2 1162 1163
1164 1 2 2 2 1163 1164
1165 1 2 2 2 1164 1165
1166 1 2 2 2 1165 1166
1167 1 2 2 2 1166 1167
1168 1 2 2 2 1167 1168
1169 1 2 2 2 1168 1169
1170 1 2 2 2 1169 1170
1171 1 2 2 2 1170 1171
1172 1 2 2 2 1171 1172
1173 1 2 2 2 1172 1173
1174 1 2 2 2 1173 1174
1175 1 2 2 2 1174 1175
1176 1 2 2 2 1175 1176
1177 1 2 2 2 1176 1177
1178 1 2 2 2 1177 1178
1179 1 2 2 2 1178 1179
1180 1 2 2 2 1179 1180
1181 1 2 2 2 1180 1181
1182 1 2 2 2 1181 1182
1183 1 2 2 2 1182 1183
1184 1 2 2 2 1183 1184
1185 1 2 2 2 1184 1185
1186 1 2 2 2 1185 1186
1187 1 2 2 2 1186 1187
1188 1 2 2 2 1187 1188
1189 1 2 2 2 1188 1189
1190 1 2 2 2 1189 1190
1191 1 2 2 2 1190 1191
1192 1 2 2 2 1191 1192
1193 1 2 2 2 1192 1193
1194 1 2 2 2 1193 1194
1195 1 2 2 2 1194 1195
1196 1 2 2 2 1195 1196
1197 1 2 2 2 1196 1197
1198 1 2 2 2 1197 1198
1199 1 2 2 2 1198 1199
1200 1 2 2 2 1199 1200
1201 1 2 2 2 1200 1201
1202 1 2 2 2 1201 1202
1203 1 2 2 2 1202 1203
1204 1 2 2 2 1203 1204
1205 1 2 2 2 1204 1205
1206 1 2 2 2 1205 1206
1207 1 2 2 2 1206 1207
1208 1 2 2 2 1207 1208
1209 1 2 2 2 1208 1209
1210 1 2 2 2 1209 1210
1211 1 2 2 2 1210 1211
1212 1 2 2 2 1211 1212
1213 1 2 2 2 1212 1213
1214 1 2 2 2 1213 1214
1215 1 2 2 2 1214 1215
1216 1 2 2 2 1215 1216
1217 1 2 2 2 1216 1217
1218 1 2 2 2 1217 1218
1219 1 2 2 2 1218 1219
1220 1 2 2 2 1219 1220
1221 1 2 2 2 1220 1221
1222 1 2 2 2 1221 1222
1223 1 2 2 2 1222 1223
1224 1 2 2 2 1223 1224
1225 1 2 2 2 1224 1225
1226 1 2 2 2 1225 1226
1227 1 2 2 2 1226 1227
1228 1 2 2 2 1227 1228
1229 1 2 2 2 1228 1229
1230 1 2 2 2 1229 1230
1231 1 2 2 2 1230 1231
1232 1 2 2 2 1231 1232
1233 1 2 2 2 1232 1233
1234 1 2 2 2 1233 1234
1235 1 2 2 2 1234 1235
1236 1 2 2 2 1235 1236
1237 1 2 2 2 1236 1237
1238 1 2 2 2 1237 1238
1239 1 2 2 2 1238 1239
1240 1 2 2 2 1239 1240
1241 1 2 2 2 1240 1241
1242 1 2 2 2 1241 1242
1243 1 2 2 2 1242 1243
1244 1 2 2 2 1243 1244
1245 1 2 2 2 1244 1245
1246 1 2 2 2 1245 1246
1247 1 2 2 2 1246 1247
1248 1 2 2 2 1247 1248
1249 1 2 2 2 1248 1249
1250 1 2 2 2 1249 1250
1251 1 2 2 2 1250 1251
1252 1 2 2 2 1251 1252
1253 1 2 2 2 1252 1253
1254 1 2 2 2 1253 1254
1255 1 2 2 2 1254 1255
1256 1 2 2 2 1255 1256
1257 1 2 2 2 1256 1257
1258 1 2 2 2 1257 1258
1259 1 2 2 2 1258 1259
1260 1 2 2 2 1259 1260
1261 1 2 2 2 1260 1261
1262 1 2 2 2 1261 1262
1263 1 2 2 2 1262 1263
1264 1 2 2 2 1263 1264
1265 1 2 2 2 1264 1265
1266 1 2 2 2 1265 1266
1267 1 2 2 2 1266 1267
1268 1 2 2 2 1267 1268
1269 1 2 2 2 1268 1269
1270 1 2 2 2 1269 1270
1271 1 2 2 2 1270 1271
1272 1 2 2 2 1271 1272
1273 1 2 2 2 1272 1273
1274 1 2 2 2 1273 1274
1275 1 2 2 2 1274 1275
1276 1 2 2 2 1275 1276
1277 1 2 2 2 1276 1277
1278 1 2 2 2 1277 1278
1279 1 2 2 2 1278 1279
1280 1 2 2 2 1279 1280
1281 1 2 2 2 1280 1281
1282 1 2 2 2 1281 1282
1283 1 2 2 2 1282 1283
1284 1 2 2 2 1283 1284
1285 1 2 2 2 1284 1285
1286 1 2 2 2 1285 1286
1287 1 2 2 2 1286 1287
1288 1 2 2 2 1287 1288
1289 1 2 2 2 1288 1289
1290 1 2 2 2 1289 1290
1291 1 2 2 2 1290 1291
1292 1 2 2 2 1291 1292
1293 1 2 2 2 1292 1293
1294 1 2 2 2 1293 1294
1295 1 2 2 2 1294 1295
1296 1 2 2 2 1295 1296
1297 1 2 2 2 1296 1297
1298 1 2 2 2 1297 1298
1299 1 2 2 2 1298 1299
1300 1 2 2 2 1299 1300
1301 1 2 2 2 1300 1301
1302 1 2 2 2 1301 1302
1303 1 2 2 2 1302 1303
1304 1 2 2 2 1303 1304
1305 1 2 2 2 1304 1305
1306 1 2 2 2 1305 1306
1307 1 2 2 2 1306 1307
1308 1 2 2 2 1307 1308
1309 1 2 2 2 1308 1309
1310 1 2 2 2 1309 1310
1311 1 2 2 2 1310 1311
1312 1 2 2 2 1311 1312
1313 1 2 2 2 1312 1313
1314 1 2 2 2 1313 1314
1315 1 2 2 2 1314 1315
1316 1 2 2 2 1315 1316
1317 1 2 2 2 1316 1317
1318 1 2 2 2 1317 1318
1319 1 2 2 2 1318 1319
1320 1 2 2 2 1319 1320
1321 1 2 2 2 1320 1321
1322 1 2 2 2 1321 1322
1323 1 2 2 2 1322 1323
1324 1 2 2 2 1323 1324
1325 1 2 2 2 1324 1325
1326 1 2 2 2 1325 1326
1327 1 2 2 2 1326 1327
1328 1 2 2 2 1327 1328
1329 1 2 2 2 1328 1329
1330 1 2 2 2 1329 1330
1331 1 2 2 2 1330 1331
1332 1 2 2 2 1331 1332
1333 1 2 2 2 1332 1333
1334 1 2 2 2 1333 1334
1335 1 2 2 2 1334 1335
1336 1 2 2 2 1335 1336
1337 1 2 2 2 1336 1337
1338 1 2 2 2 1337 1338
1339 1 2 2 2 1338 1339
1340 1 2 2 2 1339 1340
1341 1 2 2 2 1340 1341
1342 1 2 2 2 1341 1342
1343 1 2 2 2 1342 1343
1344 1 2 2 2 1343 1344
1345 1 2 2 2 1344 1345
1346 1 2 2 2 1345 1346
1347 1 2 2 2 1346 1347
1348 1 2 2 2 1347 1348
1349 1 2 2 2 1348 1349
1350 1 2 2 2 1349 1350
1351 1 2 2 2 1350 1351
1352 1 2 2 2 1351 1352
1353 1 2 2 2 1352 1353
1354 1 2 2 2 1353 1354
1355 1 2 2 2 1354 1355
1356 1 2 2 2 1355 1356
1357 1 2 2 2 1356 1357
1358 1 2 2 2 1357 1358
1359 1 2 2 2 1358 1359
1360 1 2 2 2 1359 1360
1361 1 2 2 2 1360 1361
1362 1 2 2 2 1361 1362
1363 1 2 2 2 1362 1363
1364 1 2 2 2 1363 1364
1365 1 2 2 2 1364 1365
1366 1 2 2 2 1365 1366
1367 1 2 2 2 1366 1367
1368 1 2 2 2 1367 1368
1369 1 2 2 2 1368 1369
1370 1 2 2 2 1369 1370
1371 1 2 2 2 1370 1371
1372 1 2 2 2 1371 1372
1373 1 2 2 2 1372 1373
1374 1 2 2 2 1373 1374
1375 1 2 2 2 1374 1375
1376 1 2 2 2 1375 1376
1377 1 2 2 2 1376 1377
1378 1 2 2 2 1377 1378
1379 1 2 2 2 1378 1379
1380 1 2 2 2 1379 1380
1381 1 2 2 2 1380 1381
1382 1 2 2 2 1381 1382
1383 1 2 2 2 1382 1383
1384 1 2 2 2 1383 1384
1385 1 2 2 2 1384 1385
1386 1 2 2 2 1385 1386
1387 1 2 2 2 1386 1387
1388 1 2 2 2 1387 1388
1389 1 2 2 2 1388 1389
1390 1 2 2 2 1389 1390
1391 1 2 2 2 1390 1391
1392 1 2 2 2 1391 1392
1393 1 2 2 2 1392 1393
1394 1 2 2 2 1393 1394
1395 1 2 2 2 1394 1395
1396 1 2 2 2 1395 1396
1397 1 2 2 2 1396 1397
1398 1 2 2 2 1397 1398
1399 1 2 2 2 1398 1399
1400 1 2 2 2 1399 1400
1401 1 2 2 2 1400 1401
1402 1 2 2 2 1401 1402
1403 1 2 2 2 1402 1403
1404 1 2 2 2 1403 1404
1405 1 2 2 2 1404 1405
1406 1 2 2 2 1405 1406
1407 1 2 2 2 1406 1407
1408 1 2 2 2 1407 1408
1409 1 2 2 2 1408 1409
1410 1 2 2 2 1409 1410
1411 1 2 2 2 1410 1411
1412 1 2 2 2 1411 1412
1413 1 2 2 2 1412 1413
1414 1 2 2 2 1413 1414
1415 1 2 2 2 1414 1415
1416 1 2 2 2 1415 1416
1417 1 2 2 2 1416 1417
1418 1 2 2 2 1417 1418
1419 1 2 2 2 1418 1419
1420 1 2 2 2 1419 1420
1421 1 2 2 2 1420 1421
1422 1 2 2 2 1421 1422
1423 1 2 2 2 1422 1423
1424 1 2 2 2 1423 1424
1425 1 2 2 2 1424 1425
1426 1 2 2 2 1425 1426
1427 1 2 2 2 1426 1427
1428 1 2 2 2 1427 1428
1429 1 2 2 2 1428 1429
1430 1 2 2 2 1429 1430
1431 1 2 2 2 1430 1431
1432 1 2 2 2 1431 1432
1433 1 2 2 2 1432 1433
1434 1 2 2 2 1433 1434
1435 1 2 2 2 1434 1435
1436 1 2 2 2 1435 1436
1437 1 2 2 2 1436 1437
1438 1 2 2 2 1437 1438
1439 1 2 2 2 1438 1439
1440 1 2 2 2 1439 1440
1441 1 2 2 2 1440 1441
1442 1 2 2 2 1441 1442
1443 1 2 2 2 1442 1443
1444 1 2 2 2 1443 1444
1445 1 2 2 2 1444 1445
1446 1 2 2 2 1445 1446
1447 1 2 2 2 1446 1447
1448 1 2 2 2 1447 1448
1449 1 2 2 2 1448 1449
1450 1 2 2 2 1449 1450
1451 1 2 2 2 1450 1451
1452 1 2 2 2 1451 1452
1453 1 2 2 2 1452 1453
1454 1 2 2 2 1453 1454
1455 1 2 2 2 1454 1455
1456 1 2 2 2 1455 1456
1457 1 2 2 2 1456 1457
1458 1 2 2 2 1457 1458
1459 1 2 2 2 1458 1459
1460 1 2 2 2 1459 1460
1461 1 2 2 2 1460 1461
1462 1 2 2 2 1461 1462
1463 1 2 2 2 1462 1463
1464 1 2 2 2 1463 1464
1465 1 2 2 2 1464 1465
1466 1 2 2 2 1465 1466
1467 1 2 2 2 1466 1467
1468 1 2 2 2 1467 1468
1469 1 2 2 2 1468 1469
1470 1 2 2 2 1469 1470
1471 1 2 2 2 1470 1471
1472 1 2 2 2 1471 1472
1473 1 2 2 2 1472 1473
1474 1 2 2 2 1473 1474
1475 1 2 2 2 1474 1475
1476 1 2 2 2 1475 1476
1477 1 2 2 2 1476 1477
1478 1 2 2 2 1477 1478
1479 1 2 2 2 1478 1479
1480 1 2 2 2 1479 1480
1481 1 2 2 2 1480 1481
1482 1 2 2 2 1481 1482
1483 1 2 2 2 1482 1483
1484 1 2 2 2 1483 1484
1485 1 2 2 2 1484 1485
1486 1 2 2 2 1485 1486
1487 1 2 2 2 1486 1487
1488 1 2 2 2 1487 1488
1489 1 2 2 2 1488 1489
1490 1 2 2 2 1489 1490
1491 1 2 2 2 1490 1491
1492 1 2 2 2 1491 1492
1493 1 2 2 2 1492 1493
1494 1 2 2 2 1493 1494
1495 1 2 2 2 1494 1495
1496 1 2 2 2 1495 1496
1497 1 2 2 2 1496 1497
1498 1 2 2 2 1497 1498
1499 1 2 2 2 1498 1499
1500 1 2 2 2 1499 3
$EndElements
