$MeshFormat
2 0 8
$EndMeshFormat
$Nodes
322
1 -100 0 0
2 -20 0 0
3 -10 0 0
4 10 0 0
5 20 0 0
6 100 0 0
7 -95.97056303923063 0 0
8 -92.09330846989555 0 0
9 -88.36253152520339 0 0
10 -84.77269422682878 0 0
11 -81.31846682281743 0 0
12 -77.99473018531387 0 0
13 -74.79654848834566 0 0
14 -71.71917219804058 0 0
15 -68.75805937042612 0 0
16 -65.90880870062564 0 0
17 -63.16718711088826 0 0
18 -60.52912958736123 0 0
19 -57.99073213372404 0 0
20 -55.54821542070467 0 0
21 -53.19797835851696 0 0
22 -50.93651957081619 0 0
23 -48.76049819458282 0 0
24 -46.66667938966084 0 0
25 -44.65195302707876 0 0
26 -42.71332220812819 0 0
27 -40.84793512563249 0 0
28 -39.05301546908458 0 0
29 -37.32590249504697 0 0
30 -35.66402776909037 0 0
31 -34.06493752089026 0 0
32 -32.52625694544933 0 0
33 -31.0456980608828 0 0
34 -29.62107053361402 0 0
35 -28.2502583689439 0 0
36 -26.93123306058628 0 0
37 -25.66202912364666 0 0
38 -24.4407792621274 0 0
39 -23.26566038528954 0 0
40 -22.13493211269532 0 0
41 -21.04691694902083 0 0
42 -19.02234380868688 0 0
43 -18.13071011533664 0 0
44 -17.31752994751245 0 0
45 -16.57590112125486 0 0
46 -15.89952665028482 0 0
47 -15.28266626434837 0 0
48 -14.72008464524941 0 0
49 -14.20700246640592 0 0
50 -13.7390659257292 0 0
51 -13.31230258659048 0 0
52 -12.92309016937985 0 0
53 -12.56812367445202 0 0
54 -12.24439154051406 0 0
55 -11.94914352469129 0 0
56 -11.67987392679006 0 0
57 -11.43429828213739 0 0
58 -11.21032931485464 0 0
59 -11.00606757211955 0 0
60 -10.81977893237456 0 0
61 -10.64988154182424 0 0
62 -10.49493340059306 0 0
63 -10.35361882767191 0 0
64 -10.22473834774739 0 0
65 -10.10719820076394 0 0
66 -9.899497487437186 0 0
67 -9.798994974874374 0 0
68 -9.69849246231156 0 0
69 -9.597989949748746 0 0
70 -9.497487437185933 0 0
71 -9.396984924623119 0 0
72 -9.296482412060305 0 0
73 -9.195979899497493 0 0
74 -9.095477386934679 0 0
75 -8.994974874371865 0 0
76 -8.894472361809051 0 0
77 -8.793969849246238 0 0
78 -8.693467336683424 0 0
79 -8.59296482412061 0 0
80 -8.492462311557798 0 0
81 -8.391959798994984 0 0
82 -8.29145728643217 0 0
83 -8.190954773869358 0 0
84 -8.090452261306543 0 0
85 -7.98994974874373 0 0
86 -7.889447236180916 0 0
87 -7.788944723618103 0 0
88 -7.68844221105529 0 0
89 -7.587939698492476 0 0
90 -7.487437185929663 0 0
91 -7.386934673366849 0 0
92 -7.286432160804035 0 0
93 -7.185929648241222 0 0
94 -7.085427135678409 0 0
95 -6.984924623115595 0 0
96 -6.884422110552782 0 0
97 -6.783919597989968 0 0
98 -6.683417085427155 0 0
99 -6.582914572864341 0 0
100 -6.482412060301527 0 0
101 -6.381909547738714 0 0
102 -6.2814070351759 0 0
103 -6.180904522613087 0 0
104 -6.080402010050274 0 0
105 -5.979899497487461 0 0
106 -5.879396984924647 0 0
107 -5.778894472361833 0 0
108 -5.678391959799019 0 0
109 -5.577889447236206 0 0
110 -5.477386934673393 0 0
111 -5.37688442211058 0 0
112 -5.276381909547766 0 0
113 -5.175879396984952 0 0
114 -5.075376884422139 0 0
115 -4.974874371859325 0 0
116 -4.874371859296513 0 0
117 -4.773869346733701 0 0
118 -4.673366834170888 0 0
119 -4.572864321608075 0 0
120 -4.472361809045263 0 0
121 -4.371859296482451 0 0
122 -4.271356783919638 0 0
123 -4.170854271356826 0 0
124 -4.070351758794014 0 0
125 -3.969849246231202 0 0
126 -3.869346733668389 0 0
127 -3.768844221105577 0 0
128 -3.668341708542765 0 0
129 -3.567839195979952 0 0
130 -3.467336683417139 0 0
131 -3.366834170854327 0 0
132 -3.266331658291515 0 0
133 -3.165829145728702 0 0
134 -3.06532663316589 0 0
135 -2.964824120603078 0 0
136 -2.864321608040266 0 0
137 -2.763819095477453 0 0
138 -2.663316582914641 0 0
139 -2.562814070351829 0 0
140 -2.462311557789016 0 0
141 -2.361809045226204 0 0
142 -2.261306532663391 0 0
143 -2.160804020100579 0 0
144 -2.060301507537766 0 0
145 -1.959798994974954 0 0
146 -1.859296482412142 0 0
147 -1.758793969849329 0 0
148 -1.658291457286517 0 0
149 -1.557788944723705 0 0
150 -1.457286432160892 0 0
151 -1.35678391959808 0 0
152 -1.256281407035268 0 0
153 -1.155778894472455 0 0
154 -1.055276381909642 0 0
155 -0.95477386934683 0 0
156 -0.8542713567840177 0 0
157 -0.7537688442212054 0 0
158 -0.6532663316583931 0 0
159 -0.5527638190955808 0 0
160 -0.4522613065327685 0 0
161 -0.3517587939699562 0 0
162 -0.251256281407144 0 0
163 -0.1507537688443317 0 0
164 -0.05025125628151939 0 0
165 0.0502512562812929 0 0
166 0.1507537688441052 0 0
167 0.2512562814069175 0 0
168 0.3517587939697298 0 0
169 0.4522613065325443 0 0
170 0.5527638190953565 0 0
171 0.6532663316581688 0 0
172 0.7537688442209811 0 0
173 0.8542713567837934 0 0
174 0.9547738693466057 0 0
175 1.055276381909418 0 0
176 1.15577889447223 0 0
177 1.256281407035043 0 0
178 1.356783919597855 0 0
179 1.457286432160667 0 0
180 1.557788944723479 0 0
181 1.658291457286292 0 0
182 1.758793969849104 0 0
183 1.859296482411916 0 0
184 1.959798994974729 0 0
185 2.060301507537541 0 0
186 2.160804020100353 0 0
187 2.261306532663168 0 0
188 2.36180904522598 0 0
189 2.462311557788792 0 0
190 2.562814070351604 0 0
191 2.663316582914417 0 0
192 2.763819095477229 0 0
193 2.864321608040041 0 0
194 2.964824120602854 0 0
195 3.065326633165666 0 0
196 3.165829145728478 0 0
197 3.26633165829129 0 0
198 3.366834170854103 0 0
199 3.467336683416915 0 0
200 3.567839195979727 0 0
201 3.66834170854254 0 0
202 3.768844221105352 0 0
203 3.869346733668164 0 0
204 3.969849246230976 0 0
205 4.070351758793791 0 0
206 4.170854271356603 0 0
207 4.271356783919416 0 0
208 4.371859296482228 0 0
209 4.47236180904504 0 0
210 4.572864321607852 0 0
211 4.673366834170665 0 0
212 4.773869346733477 0 0
213 4.874371859296289 0 0
214 4.974874371859102 0 0
215 5.075376884421918 0 0
216 5.175879396984737 0 0
217 5.276381909547554 0 0
218 5.376884422110373 0 0
219 5.47738693467319 0 0
220 5.577889447236009 0 0
221 5.678391959798825 0 0
222 5.778894472361644 0 0
223 5.879396984924461 0 0
224 5.979899497487279 0 0
225 6.080402010050099 0 0
226 6.180904522612916 0 0
227 6.281407035175734 0 0
228 6.381909547738552 0 0
229 6.48241206030137 0 0
230 6.582914572864187 0 0
231 6.683417085427006 0 0
232 6.783919597989825 0 0
233 6.884422110552642 0 0
234 6.984924623115461 0 0
235 7.085427135678277 0 0
236 7.185929648241096 0 0
237 7.286432160803913 0 0
238 7.386934673366731 0 0
239 7.487437185929551 0 0
240 7.587939698492367 0 0
241 7.688442211055186 0 0
242 7.788944723618004 0 0
243 7.889447236180822 0 0
244 7.989949748743639 0 0
245 8.090452261306458 0 0
246 8.190954773869274 0 0
247 8.291457286432093 0 0
248 8.391959798994913 0 0
249 8.492462311557729 0 0
250 8.592964824120548 0 0
251 8.693467336683366 0 0
252 8.793969849246183 0 0
253 8.894472361809001 0 0
254 8.99497487437182 0 0
255 9.095477386934638 0 0
256 9.195979899497456 0 0
257 9.296482412060275 0 0
258 9.396984924623091 0 0
259 9.49748743718591 0 0
260 9.597989949748726 0 0
261 9.698492462311545 0 0
262 9.798994974874361 0 0
263 9.899497487437181 0 0
264 10.10719820076394 0 0
265 10.22473834774739 0 0
266 10.35361882767191 0 0
267 10.49493340059306 0 0
268 10.64988154182424 0 0
269 10.81977893237455 0 0
270 11.00606757211954 0 0
271 11.21032931485463 0 0
272 11.43429828213739 0 0
273 11.67987392679006 0 0
274 11.94914352469129 0 0
275 12.24439154051406 0 0
276 12.56812367445202 0 0
277 12.92309016937985 0 0
278 13.31230258659049 0 0
279 13.7390659257292 0 0
280 14.20700246640593 0 0
281 14.72008464524943 0 0
282 15.28266626434839 0 0
283 15.89952665028483 0 0
284 16.57590112125488 0 0
285 17.31752994751247 0 0
286 18.13071011533665 0 0
287 19.02234380868688 0 0
288 21.04691694902085 0 0
289 22.13493211269533 0 0
290 23.26566038528956 0 0
291 24.4407792621274 0 0
292 25.66202912364666 0 0
293 26.9312330605863 0 0
294 28.2502583689439 0 0
295 29.62107053361403 0 0
296 31.04569806088281 0 0
297 32.52625694544935 0 0
298 34.06493752089025 0 0
299 35.66402776909036 0 0
300 37.32590249504697 0 0
301 39.05301546908457 0 0
302 40.84793512563249 0 0
303 42.71332220812818 0 0
304 44.65195302707876 0 0
305 46.66667938966084 0 0
306 48.76049819458284 0 0
307 50.93651957081619 0 0
308 53.19797835851698 0 0
309 55.54821542070467 0 0
310 57.99073213372407 0 0
311 60.52912958736122 0 0
312 63.16718711088824 0 0
313 65.90880870062564 0 0
314 68.75805937042614 0 0
315 71.7191721980406 0 0
316 74.79654848834569 0 0
317 77.99473018531393 0 0
318 81.31846682281746 0 0
319 84.77269422682889 0 0
320 88.36253152520344 0 0
321 92.09330846989558 0 0
322 95.9705630392306 0 0
$EndNodes
$Elements
323
1 15 2 1 1 1
2 15 2 2 6 6
3 1 3 2 1 0 1 7
4 1 3 2 1 0 7 8
5 1 3 2 1 0 8 9
6 1 3 2 1 0 9 10
7 1 3 2 1 0 10 11
8 1 3 2 1 0 11 12
9 1 3 2 1 0 12 13
10 1 3 2 1 0 13 14
11 1 3 2 1 0 14 15
12 1 3 2 1 0 15 16
13 1 3 2 1 0 16 17
14 1 3 2 1 0 17 18
15 1 3 2 1 0 18 19
16 1 3 2 1 0 19 20
17 1 3 2 1 0 20 21
18 1 3 2 1 0 21 22
19 1 3 2 1 0 22 23
20 1 3 2 1 0 23 24
21 1 3 2 1 0 24 25
22 1 3 2 1 0 25 26
23 1 3 2 1 0 26 27
24 1 3 2 1 0 27 28
25 1 3 2 1 0 28 29
26 1 3 2 1 0 29 30
27 1 3 2 1 0 30 31
28 1 3 2 1 0 31 32
29 1 3 2 1 0 32 33
30 1 3 2 1 0 33 34
31 1 3 2 1 0 34 35
32 1 3 2 1 0 35 36
33 1 3 2 1 0 36 37
34 1 3 2 1 0 37 38
35 1 3 2 1 0 38 39
36 1 3 2 1 0 39 40
37 1 3 2 1 0 40 41
38 1 3 2 1 0 41 2
39 1 3 4 2 0 2 42
40 1 3 4 2 0 42 43
41 1 3 4 2 0 43 44
42 1 3 4 2 0 44 45
43 1 3 4 2 0 45 46
44 1 3 4 2 0 46 47
45 1 3 4 2 0 47 48
46 1 3 4 2 0 48 49
47 1 3 4 2 0 49 50
48 1 3 4 2 0 50 51
49 1 3 4 2 0 51 52
50 1 3 4 2 0 52 53
51 1 3 4 2 0 53 54
52 1 3 4 2 0 54 55
53 1 3 4 2 0 55 56
54 1 3 4 2 0 56 57
55 1 3 4 2 0 57 58
56 1 3 4 2 0 58 59
57 1 3 4 2 0 59 60
58 1 3 4 2 0 60 61
59 1 3 4 2 0 61 62
60 1 3 4 2 0 62 63
61 1 3 4 2 0 63 64
62 1 3 4 2 0 64 65
63 1 3 4 2 0 65 3
64 1 3 1 3 0 3 66
65 1 3 1 3 0 66 67
66 1 3 1 3 0 67 68
67 1 3 1 3 0 68 69
68 1 3 1 3 0 69 70
69 1 3 1 3 0 70 71
70 1 3 1 3 0 71 72
71 1 3 1 3 0 72 73
72 1 3 1 3 0 73 74
73 1 3 1 3 0 74 75
74 1 3 1 3 0 75 76
75 1 3 1 3 0 76 77
76 1 3 1 3 0 77 78
77 1 3 1 3 0 78 79
78 1 3 1 3 0 79 80
79 1 3 1 3 0 80 81
80 1 3 1 3 0 81 82
81 1 3 1 3 0 82 83
82 1 3 1 3 0 83 84
83 1 3 1 3 0 84 85
84 1 3 1 3 0 85 86
85 1 3 1 3 0 86 87
86 1 3 1 3 0 87 88
87 1 3 1 3 0 88 89
88 1 3 1 3 0 89 90
89 1 3 1 3 0 90 91
90 1 3 1 3 0 91 92
91 1 3 1 3 0 92 93
92 1 3 1 3 0 93 94
93 1 3 1 3 0 94 95
94 1 3 1 3 0 95 96
95 1 3 1 3 0 96 97
96 1 3 1 3 0 97 98
97 1 3 1 3 0 98 99
98 1 3 1 3 0 99 100
99 1 3 1 3 0 100 101
100 1 3 1 3 0 101 102
101 1 3 1 3 0 102 103
102 1 3 1 3 0 103 104
103 1 3 1 3 0 104 105
104 1 3 1 3 0 105 106
105 1 3 1 3 0 106 107
106 1 3 1 3 0 107 108
107 1 3 1 3 0 108 109
108 1 3 1 3 0 109 110
109 1 3 1 3 0 110 111
110 1 3 1 3 0 111 112
111 1 3 1 3 0 112 113
112 1 3 1 3 0 113 114
113 1 3 1 3 0 114 115
114 1 3 1 3 0 115 116
115 1 3 1 3 0 116 117
116 1 3 1 3 0 117 118
117 1 3 1 3 0 118 119
118 1 3 1 3 0 119 120
119 1 3 1 3 0 120 121
120 1 3 1 3 0 121 122
121 1 3 1 3 0 122 123
122 1 3 1 3 0 123 124
123 1 3 1 3 0 124 125
124 1 3 1 3 0 125 126
125 1 3 1 3 0 126 127
126 1 3 1 3 0 127 128
127 1 3 1 3 0 128 129
128 1 3 1 3 0 129 130
129 1 3 1 3 0 130 131
130 1 3 1 3 0 131 132
131 1 3 1 3 0 132 133
132 1 3 1 3 0 133 134
133 1 3 1 3 0 134 135
134 1 3 1 3 0 135 136
135 1 3 1 3 0 136 137
136 1 3 1 3 0 137 138
137 1 3 1 3 0 138 139
138 1 3 1 3 0 139 140
139 1 3 1 3 0 140 141
140 1 3 1 3 0 141 142
141 1 3 1 3 0 142 143
142 1 3 1 3 0 143 144
143 1 3 1 3 0 144 145
144 1 3 1 3 0 145 146
145 1 3 1 3 0 146 147
146 1 3 1 3 0 147 148
147 1 3 1 3 0 148 149
148 1 3 1 3 0 149 150
149 1 3 1 3 0 150 151
150 1 3 1 3 0 151 152
151 1 3 1 3 0 152 153
152 1 3 1 3 0 153 154
153 1 3 1 3 0 154 155
154 1 3 1 3 0 155 156
155 1 3 1 3 0 156 157
156 1 3 1 3 0 157 158
157 1 3 1 3 0 158 159
158 1 3 1 3 0 159 160
159 1 3 1 3 0 160 161
160 1 3 1 3 0 161 162
161 1 3 1 3 0 162 163
162 1 3 1 3 0 163 164
163 1 3 1 3 0 164 165
164 1 3 1 3 0 165 166
165 1 3 1 3 0 166 167
166 1 3 1 3 0 167 168
167 1 3 1 3 0 168 169
168 1 3 1 3 0 169 170
169 1 3 1 3 0 170 171
170 1 3 1 3 0 171 172
171 1 3 1 3 0 172 173
172 1 3 1 3 0 173 174
173 1 3 1 3 0 174 175
174 1 3 1 3 0 175 176
175 1 3 1 3 0 176 177
176 1 3 1 3 0 177 178
177 1 3 1 3 0 178 179
178 1 3 1 3 0 179 180
179 1 3 1 3 0 180 181
180 1 3 1 3 0 181 182
181 1 3 1 3 0 182 183
182 1 3 1 3 0 183 184
183 1 3 1 3 0 184 185
184 1 3 1 3 0 185 186
185 1 3 1 3 0 186 187
186 1 3 1 3 0 187 188
187 1 3 1 3 0 188 189
188 1 3 1 3 0 189 190
189 1 3 1 3 0 190 191
190 1 3 1 3 0 191 192
191 1 3 1 3 0 192 193
192 1 3 1 3 0 193 194
193 1 3 1 3 0 194 195
194 1 3 1 3 0 195 196
195 1 3 1 3 0 196 197
196 1 3 1 3 0 197 198
197 1 3 1 3 0 198 199
198 1 3 1 3 0 199 200
199 1 3 1 3 0 200 201
200 1 3 1 3 0 201 202
201 1 3 1 3 0 202 203
202 1 3 1 3 0 203 204
203 1 3 1 3 0 204 205
204 1 3 1 3 0 205 206
205 1 3 1 3 0 206 207
206 1 3 1 3 0 207 208
207 1 3 1 3 0 208 209
208 1 3 1 3 0 209 210
209 1 3 1 3 0 210 211
210 1 3 1 3 0 211 212
211 1 3 1 3 0 212 213
212 1 3 1 3 0 213 214
213 1 3 1 3 0 214 215
214 1 3 1 3 0 215 216
215 1 3 1 3 0 216 217
216 1 3 1 3 0 217 218
217 1 3 1 3 0 218 219
218 1 3 1 3 0 219 220
219 1 3 1 3 0 220 221
220 1 3 1 3 0 221 222
221 1 3 1 3 0 222 223
222 1 3 1 3 0 223 224
223 1 3 1 3 0 224 225
224 1 3 1 3 0 225 226
225 1 3 1 3 0 226 227
226 1 3 1 3 0 227 228
227 1 3 1 3 0 228 229
228 1 3 1 3 0 229 230
229 1 3 1 3 0 230 231
230 1 3 1 3 0 231 232
231 1 3 1 3 0 232 233
232 1 3 1 3 0 233 234
233 1 3 1 3 0 234 235
234 1 3 1 3 0 235 236
235 1 3 1 3 0 236 237
236 1 3 1 3 0 237 238
237 1 3 1 3 0 238 239
238 1 3 1 3 0 239 240
239 1 3 1 3 0 240 241
240 1 3 1 3 0 241 242
241 1 3 1 3 0 242 243
242 1 3 1 3 0 243 244
243 1 3 1 3 0 244 245
244 1 3 1 3 0 245 246
245 1 3 1 3 0 246 247
246 1 3 1 3 0 247 248
247 1 3 1 3 0 248 249
248 1 3 1 3 0 249 250
249 1 3 1 3 0 250 251
250 1 3 1 3 0 251 252
251 1 3 1 3 0 252 253
252 1 3 1 3 0 253 254
253 1 3 1 3 0 254 255
254 1 3 1 3 0 255 256
255 1 3 1 3 0 256 257
256 1 3 1 3 0 257 258
257 1 3 1 3 0 258 259
258 1 3 1 3 0 259 260
259 1 3 1 3 0 260 261
260 1 3 1 3 0 261 262
261 1 3 1 3 0 262 263
262 1 3 1 3 0 263 4
263 1 3 5 4 0 4 264
264 1 3 5 4 0 264 265
265 1 3 5 4 0 265 266
266 1 3 5 4 0 266 267
267 1 3 5 4 0 267 268
268 1 3 5 4 0 268 269
269 1 3 5 4 0 269 270
270 1 3 5 4 0 270 271
271 1 3 5 4 0 271 272
272 1 3 5 4 0 272 273
273 1 3 5 4 0 273 274
274 1 3 5 4 0 274 275
275 1 3 5 4 0 275 276
276 1 3 5 4 0 276 277
277 1 3 5 4 0 277 278
278 1 3 5 4 0 278 279
279 1 3 5 4 0 279 280
280 1 3 5 4 0 280 281
281 1 3 5 4 0 281 282
282 1 3 5 4 0 282 283
283 1 3 5 4 0 283 284
284 1 3 5 4 0 284 285
285 1 3 5 4 0 285 286
286 1 3 5 4 0 286 287
287 1 3 5 4 0 287 5
288 1 3 3 5 0 5 288
289 1 3 3 5 0 288 289
290 1 3 3 5 0 289 290
291 1 3 3 5 0 290 291
292 1 3 3 5 0 291 292
293 1 3 3 5 0 292 293
294 1 3 3 5 0 293 294
295 1 3 3 5 0 294 295
296 1 3 3 5 0 295 296
297 1 3 3 5 0 296 297
298 1 3 3 5 0 297 298
299 1 3 3 5 0 298 299
300 1 3 3 5 0 299 300
301 1 3 3 5 0 300 301
302 1 3 3 5 0 301 302
303 1 3 3 5 0 302 303
304 1 3 3 5 0 303 304
305 1 3 3 5 0 304 305
306 1 3 3 5 0 305 306
307 1 3 3 5 0 306 307
308 1 3 3 5 0 307 308
309 1 3 3 5 0 308 309
310 1 3 3 5 0 309 310
311 1 3 3 5 0 310 311
312 1 3 3 5 0 311 312
313 1 3 3 5 0 312 313
314 1 3 3 5 0 313 314
315 1 3 3 5 0 314 315
316 1 3 3 5 0 315 316
317 1 3 3 5 0 316 317
318 1 3 3 5 0 317 318
319 1 3 3 5 0 318 319
320 1 3 3 5 0 319 320
321 1 3 3 5 0 320 321
322 1 3 3 5 0 321 322
323 1 3 3 5 0 322 6
$EndElements
