$MeshFormat
2.2 0 8
$EndMeshFormat
$PhysicalNames
4
0 3 "start"
0 4 "end"
1 1 "device"
1 2 "pml"
$EndPhysicalNames
$Nodes
181
1 0 0 0
2 1883651565.156467 0 0
3 2825477347.734701 0 0
4 4709128912.891169 0 0
5 31394192.75260779 0 0
6 62788385.50521558 0 0
7 94182578.25782338 0 0
8 125576771.0104312 0 0
9 156970963.7630389 0 0
10 188365156.5156468 0 0
11 219759349.2682545 0 0
12 251153542.0208623 0 0
13 282547734.7734701 0 0
14 313941927.5260779 0 0
15 345336120.2786857 0 0
16 376730313.0312935 0 0
17 408124505.7839013 0 0
18 439518698.5365091 0 0
19 470912891.2891169 0 0
20 502307084.0417246 0 0
21 533701276.7943324 0 0
22 565095469.5469402 0 0
23 596489662.299548 0 0
24 627883855.0521557 0 0
25 659278047.8047636 0 0
26 690672240.5573714 0 0
27 722066433.3099792 0 0
28 753460626.062587 0 0
29 784854818.8151948 0 0
30 816249011.5678025 0 0
31 847643204.3204104 0 0
32 879037397.0730182 0 0
33 910431589.8256259 0 0
34 941825782.5782337 0 0
35 973219975.3308417 0 0
36 1004614168.083449 0 0
37 1036008360.836057 0 0
38 1067402553.588665 0 0
39 1098796746.341273 0 0
40 1130190939.09388 0 0
41 1161585131.846488 0 0
42 1192979324.599096 0 0
43 1224373517.351704 0 0
44 1255767710.104311 0 0
45 1287161902.85692 0 0
46 1318556095.609527 0 0
47 1349950288.362135 0 0
48 1381344481.114743 0 0
49 1412738673.867351 0 0
50 1444132866.619958 0 0
51 1475527059.372566 0 0
52 1506921252.125174 0 0
53 1538315444.877782 0 0
54 1569709637.63039 0 0
55 1601103830.382997 0 0
56 1632498023.135605 0 0
57 1663892215.888213 0 0
58 1695286408.640821 0 0
59 1726680601.393428 0 0
60 1758074794.146036 0 0
61 1789468986.898644 0 0
62 1820863179.651252 0 0
63 1852257372.40386 0 0
64 1899348661.532771 0 0
65 1915045757.909075 0 0
66 1930742854.285379 0 0
67 1946439950.661683 0 0
68 1962137047.037987 0 0
69 1977834143.414291 0 0
70 1993531239.790595 0 0
71 2009228336.166898 0 0
72 2024925432.543202 0 0
73 2040622528.919506 0 0
74 2056319625.29581 0 0
75 2072016721.672114 0 0
76 2087713818.048418 0 0
77 2103410914.424722 0 0
78 2119108010.801026 0 0
79 2134805107.17733 0 0
80 2150502203.553634 0 0
81 2166199299.929937 0 0
82 2181896396.306242 0 0
83 2197593492.682545 0 0
84 2213290589.058849 0 0
85 2228987685.435153 0 0
86 2244684781.811457 0 0
87 2260381878.187761 0 0
88 2276078974.564065 0 0
89 2291776070.940369 0 0
90 2307473167.316673 0 0
91 2323170263.692976 0 0
92 2338867360.069281 0 0
93 2354564456.445584 0 0
94 2370261552.821888 0 0
95 2385958649.198192 0 0
96 2401655745.574496 0 0
97 2417352841.9508 0 0
98 2433049938.327104 0 0
99 2448747034.703408 0 0
100 2464444131.079711 0 0
101 2480141227.456016 0 0
102 2495838323.832319 0 0
103 2511535420.208623 0 0
104 2527232516.584927 0 0
105 2542929612.961231 0 0
106 2558626709.337535 0 0
107 2574323805.713839 0 0
108 2590020902.090143 0 0
109 2605717998.466447 0 0
110 2621415094.842751 0 0
111 2637112191.219054 0 0
112 2652809287.595358 0 0
113 2668506383.971663 0 0
114 2684203480.347966 0 0
115 2699900576.72427 0 0
116 2715597673.100574 0 0
117 2731294769.476878 0 0
118 2746991865.853182 0 0
119 2762688962.229486 0 0
120 2778386058.605789 0 0
121 2794083154.982093 0 0
122 2809780251.358397 0 0
123 2856871540.487309 0 0
124 2888265733.239917 0 0
125 2919659925.992525 0 0
126 2951054118.745132 0 0
127 2982448311.49774 0 0
128 3013842504.250348 0 0
129 3045236697.002956 0 0
130 3076630889.755563 0 0
131 3108025082.508171 0 0
132 3139419275.260779 0 0
133 3170813468.013387 0 0
134 3202207660.765995 0 0
135 3233601853.518602 0 0
136 3264996046.27121 0 0
137 3296390239.023818 0 0
138 3327784431.776426 0 0
139 3359178624.529034 0 0
140 3390572817.281641 0 0
141 3421967010.034249 0 0
142 3453361202.786857 0 0
143 3484755395.539465 0 0
144 3516149588.292072 0 0
145 3547543781.044681 0 0
146 3578937973.797288 0 0
147 3610332166.549896 0 0
148 3641726359.302504 0 0
149 3673120552.055111 0 0
150 3704514744.807719 0 0
151 3735908937.560327 0 0
152 3767303130.312935 0 0
153 3798697323.065543 0 0
154 3830091515.818151 0 0
155 3861485708.570758 0 0
156 3892879901.323366 0 0
157 3924274094.075974 0 0
158 3955668286.828582 0 0
159 3987062479.581189 0 0
160 4018456672.333797 0 0
161 4049850865.086405 0 0
162 4081245057.839013 0 0
163 4112639250.59162 0 0
164 4144033443.344228 0 0
165 4175427636.096836 0 0
166 4206821828.849444 0 0
167 4238216021.602052 0 0
168 4269610214.35466 0 0
169 4301004407.107267 0 0
170 4332398599.859875 0 0
171 4363792792.612483 0 0
172 4395186985.365091 0 0
173 4426581178.117699 0 0
174 4457975370.870306 0 0
175 4489369563.622914 0 0
176 4520763756.375522 0 0
177 4552157949.12813 0 0
178 4583552141.880737 0 0
179 4614946334.633345 0 0
180 4646340527.385953 0 0
181 4677734720.138561 0 0
$EndNodes
$Elements
182
1 15 2 3 1 1
2 15 2 4 4 4
3 1 2 2 1 1 5
4 1 2 2 1 5 6
5 1 2 2 1 6 7
6 1 2 2 1 7 8
7 1 2 2 1 8 9
8 1 2 2 1 9 10
9 1 2 2 1 10 11
10 1 2 2 1 11 12
11 1 2 2 1 12 13
12 1 2 2 1 13 14
13 1 2 2 1 14 15
14 1 2 2 1 15 16
15 1 2 2 1 16 17
16 1 2 2 1 17 18
17 1 2 2 1 18 19
18 1 2 2 1 19 20
19 1 2 2 1 20 21
20 1 2 2 1 21 22
21 1 2 2 1 22 23
22 1 2 2 1 23 24
23 1 2 2 1 24 25
24 1 2 2 1 25 26
25 1 2 2 1 26 27
26 1 2 2 1 27 28
27 1 2 2 1 28 29
28 1 2 2 1 29 30
29 1 2 2 1 30 31
30 1 2 2 1 31 32
31 1 2 2 1 32 33
32 1 2 2 1 33 34
33 1 2 2 1 34 35
34 1 2 2 1 35 36
35 1 2 2 1 36 37
36 1 2 2 1 37 38
37 1 2 2 1 38 39
38 1 2 2 1 39 40
39 1 2 2 1 40 41
40 1 2 2 1 41 42
41 1 2 2 1 42 43
42 1 2 2 1 43 44
43 1 2 2 1 44 45
44 1 2 2 1 45 46
45 1 2 2 1 46 47
46 1 2 2 1 47 48
47 1 2 2 1 48 49
48 1 2 2 1 49 50
49 1 2 2 1 50 51
50 1 2 2 1 51 52
51 1 2 2 1 52 53
52 1 2 2 1 53 54
53 1 2 2 1 54 55
54 1 2 2 1 55 56
55 1 2 2 1 56 57
56 1 2 2 1 57 58
57 1 2 2 1 58 59
58 1 2 2 1 59 60
59 1 2 2 1 60 61
60 1 2 2 1 61 62
61 1 2 2 1 62 63
62 1 2 2 1 63 2
63 1 2 1 2 2 64
64 1 2 1 2 64 65
65 1 2 1 2 65 66
66 1 2 1 2 66 67
67 1 2 1 2 67 68
68 1 2 1 2 68 69
69 1 2 1 2 69 70
70 1 2 1 2 70 71
71 1 2 1 2 71 72
72 1 2 1 2 72 73
73 1 2 1 2 73 74
74 1 2 1 2 74 75
75 1 2 1 2 75 76
76 1 2 1 2 76 77
77 1 2 1 2 77 78
78 1 2 1 2 78 79
79 1 2 1 2 79 80
80 1 2 1 2 80 81
81 1 2 1 2 81 82
82 1 2 1 2 82 83
83 1 2 1 2 83 84
84 1 2 1 2 84 85
85 1 2 1 2 85 86
86 1 2 1 2 86 87
87 1 2 1 2 87 88
88 1 2 1 2 88 89
89 1 2 1 2 89 90
90 1 2 1 2 90 91
91 1 2 1 2 91 92
92 1 2 1 2 92 93
93 1 2 1 2 93 94
94 1 2 1 2 94 95
95 1 2 1 2 95 96
96 1 2 1 2 96 97
97 1 2 1 2 97 98
98 1 2 1 2 98 99
99 1 2 1 2 99 100
100 1 2 1 2 100 101
101 1 2 1 2 101 102
102 1 2 1 2 102 103
103 1 2 1 2 103 104
104 1 2 1 2 104 105
105 1 2 1 2 105 106
106 1 2 1 2 106 107
107 1 2 1 2 107 108
108 1 2 1 2 108 109
109 1 2 1 2 109 110
110 1 2 1 2 110 111
111 1 2 1 2 111 112
112 1 2 1 2 112 113
113 1 2 1 2 113 114
114 1 2 1 2 114 115
115 1 2 1 2 115 116
116 1 2 1 2 116 117
117 1 2 1 2 117 118
118 1 2 1 2 118 119
119 1 2 1 2 119 120
120 1 2 1 2 120 121
121 1 2 1 2 121 122
122 1 2 1 2 122 3
123 1 2 2 3 3 123
124 1 2 2 3 123 124
125 1 2 2 3 124 125
126 1 2 2 3 125 126
127 1 2 2 3 126 127
128 1 2 2 3 127 128
129 1 2 2 3 128 129
130 1 2 2 3 129 130
131 1 2 2 3 130 131
132 1 2 2 3 131 132
133 1 2 2 3 132 133
134 1 2 2 3 133 134
135 1 2 2 3 134 135
136 1 2 2 3 135 136
137 1 2 2 3 136 137
138 1 2 2 3 137 138
139 1 2 2 3 138 139
140 1 2 2 3 139 140
141 1 2 2 3 140 141
142 1 2 2 3 141 142
143 1 2 2 3 142 143
144 1 2 2 3 143 144
145 1 2 2 3 144 145
146 1 2 2 3 145 146
147 1 2 2 3 146 147
148 1 2 2 3 147 148
149 1 2 2 3 148 149
150 1 2 2 3 149 150
151 1 2 2 3 150 151
152 1 2 2 3 151 152
153 1 2 2 3 152 153
154 1 2 2 3 153 154
155 1 2 2 3 154 155
156 1 2 2 3 155 156
157 1 2 2 3 156 157
158 1 2 2 3 157 158
159 1 2 2 3 158 159
160 1 2 2 3 159 160
161 1 2 2 3 160 161
162 1 2 2 3 161 162
163 1 2 2 3 162 163
164 1 2 2 3 163 164
165 1 2 2 3 164 165
166 1 2 2 3 165 166
167 1 2 2 3 166 167
168 1 2 2 3 167 168
169 1 2 2 3 168 169
170 1 2 2 3 169 170
171 1 2 2 3 170 171
172 1 2 2 3 171 172
173 1 2 2 3 172 173
174 1 2 2 3 173 174
175 1 2 2 3 174 175
176 1 2 2 3 175 176
177 1 2 2 3 176 177
178 1 2 2 3 177 178
179 1 2 2 3 178 179
180 1 2 2 3 179 180
181 1 2 2 3 180 181
182 1 2 2 3 181 4
$EndElements
