$MeshFormat
2.2 0 8
$EndMeshFormat
$PhysicalNames
9
0 9 "source"
1 1 "pml"
1 2 "air"
1 3 "sio2"
1 4 "ito"
1 5 "pedot"
1 6 "blend"
1 7 "Ca"
1 8 "Al"
$EndPhysicalNames
$Nodes
481
1 0 0 0
2 300 0 0
3 350 0 0
4 450 0 0
5 600 0 0
6 800 0 0
7 1080 0 0
8 1085 0 0
9 1285 0 0
10 5 0 0
11 10 0 0
12 15 0 0
13 20 0 0
14 25 0 0
15 30 0 0
16 35 0 0
17 40 0 0
18 45 0 0
19 50 0 0
20 54.99999999999999 0 0
21 60 0 0
22 65 0 0
23 70 0 0
24 75 0 0
25 80 0 0
26 85 0 0
27 90 0 0
28 95 0 0
29 100 0 0
30 105 0 0
31 110 0 0
32 115 0 0
33 120 0 0
34 125 0 0
35 130 0 0
36 135 0 0
37 140 0 0
38 145 0 0
39 150 0 0
40 155 0 0
41 160 0 0
42 165 0 0
43 170 0 0
44 175 0 0
45 180 0 0
46 185 0 0
47 190 0 0
48 195 0 0
49 200 0 0
50 205 0 0
51 210 0 0
52 215 0 0
53 220 0 0
54 225 0 0
55 230 0 0
56 235 0 0
57 240 0 0
58 245 0 0
59 250 0 0
60 255 0 0
61 260 0 0
62 265 0 0
63 270 0 0
64 275 0 0
65 280 0 0
66 285 0 0
67 290 0 0
68 295 0 0
69 300.8333333333333 0 0
70 301.6666666666667 0 0
71 302.5 0 0
72 303.3333333333333 0 0
73 304.1666666666667 0 0
74 305 0 0
75 305.8333333333333 0 0
76 306.6666666666667 0 0
77 307.5 0 0
78 308.3333333333333 0 0
79 309.1666666666667 0 0
80 310 0 0
81 310.8333333333333 0 0
82 311.6666666666667 0 0
83 312.5 0 0
84 313.3333333333333 0 0
85 314.1666666666667 0 0
86 315 0 0
87 315.8333333333333 0 0
88 316.6666666666667 0 0
89 317.5 0 0
90 318.3333333333333 0 0
91 319.1666666666667 0 0
92 320 0 0
93 320.8333333333333 0 0
94 321.6666666666667 0 0
95 322.5 0 0
96 323.3333333333333 0 0
97 324.1666666666667 0 0
98 325 0 0
99 325.8333333333333 0 0
100 326.6666666666667 0 0
101 327.5 0 0
102 328.3333333333333 0 0
103 329.1666666666667 0 0
104 330 0 0
105 330.8333333333333 0 0
106 331.6666666666667 0 0
107 332.5 0 0
108 333.3333333333333 0 0
109 334.1666666666667 0 0
110 335 0 0
111 335.8333333333333 0 0
112 336.6666666666667 0 0
113 337.5 0 0
114 338.3333333333333 0 0
115 339.1666666666667 0 0
116 340 0 0
117 340.8333333333333 0 0
118 341.6666666666667 0 0
119 342.5 0 0
120 343.3333333333333 0 0
121 344.1666666666667 0 0
122 345 0 0
123 345.8333333333333 0 0
124 346.6666666666667 0 0
125 347.5 0 0
126 348.3333333333333 0 0
127 349.1666666666667 0 0
128 351.6666666666667 0 0
129 353.3333333333333 0 0
130 355 0 0
131 356.6666666666667 0 0
132 358.3333333333333 0 0
133 360 0 0
134 361.6666666666667 0 0
135 363.3333333333333 0 0
136 365 0 0
137 366.6666666666667 0 0
138 368.3333333333333 0 0
139 370 0 0
140 371.6666666666667 0 0
141 373.3333333333333 0 0
142 375 0 0
143 376.6666666666667 0 0
144 378.3333333333333 0 0
145 380 0 0
146 381.6666666666667 0 0
147 383.3333333333333 0 0
148 385 0 0
149 386.6666666666667 0 0
150 388.3333333333333 0 0
151 390 0 0
152 391.6666666666667 0 0
153 393.3333333333333 0 0
154 395 0 0
155 396.6666666666667 0 0
156 398.3333333333333 0 0
157 400 0 0
158 401.6666666666667 0 0
159 403.3333333333333 0 0
160 405 0 0
161 406.6666666666667 0 0
162 408.3333333333333 0 0
163 410 0 0
164 411.6666666666667 0 0
165 413.3333333333333 0 0
166 415 0 0
167 416.6666666666666 0 0
168 418.3333333333333 0 0
169 420 0 0
170 421.6666666666667 0 0
171 423.3333333333333 0 0
172 425 0 0
173 426.6666666666667 0 0
174 428.3333333333333 0 0
175 430 0 0
176 431.6666666666667 0 0
177 433.3333333333334 0 0
178 435 0 0
179 436.6666666666667 0 0
180 438.3333333333333 0 0
181 440 0 0
182 441.6666666666666 0 0
183 443.3333333333333 0 0
184 445 0 0
185 446.6666666666667 0 0
186 448.3333333333333 0 0
187 452.5 0 0
188 455 0 0
189 457.5 0 0
190 460 0 0
191 462.5 0 0
192 465 0 0
193 467.5 0 0
194 470 0 0
195 472.5 0 0
196 475 0 0
197 477.5 0 0
198 480 0 0
199 482.5 0 0
200 485 0 0
201 487.5 0 0
202 490 0 0
203 492.5 0 0
204 495 0 0
205 497.5 0 0
206 500 0 0
207 502.5 0 0
208 505 0 0
209 507.5 0 0
210 510 0 0
211 512.5 0 0
212 515 0 0
213 517.5 0 0
214 520 0 0
215 522.5 0 0
216 525 0 0
217 527.5 0 0
218 530 0 0
219 532.5 0 0
220 535 0 0
221 537.5 0 0
222 540 0 0
223 542.5 0 0
224 545 0 0
225 547.5 0 0
226 550 0 0
227 552.5 0 0
228 555 0 0
229 557.5 0 0
230 560 0 0
231 562.5 0 0
232 565 0 0
233 567.5 0 0
234 570 0 0
235 572.5 0 0
236 575 0 0
237 577.5 0 0
238 580 0 0
239 582.5 0 0
240 585 0 0
241 587.5 0 0
242 590 0 0
243 592.5 0 0
244 595 0 0
245 597.5 0 0
246 603.3333333333334 0 0
247 606.6666666666666 0 0
248 610 0 0
249 613.3333333333334 0 0
250 616.6666666666666 0 0
251 620 0 0
252 623.3333333333334 0 0
253 626.6666666666666 0 0
254 630 0 0
255 633.3333333333334 0 0
256 636.6666666666666 0 0
257 640 0 0
258 643.3333333333334 0 0
259 646.6666666666666 0 0
260 650 0 0
261 653.3333333333334 0 0
262 656.6666666666666 0 0
263 660 0 0
264 663.3333333333334 0 0
265 666.6666666666666 0 0
266 670 0 0
267 673.3333333333334 0 0
268 676.6666666666666 0 0
269 680 0 0
270 683.3333333333334 0 0
271 686.6666666666666 0 0
272 690 0 0
273 693.3333333333334 0 0
274 696.6666666666666 0 0
275 700 0 0
276 703.3333333333334 0 0
277 706.6666666666666 0 0
278 710 0 0
279 713.3333333333334 0 0
280 716.6666666666666 0 0
281 720 0 0
282 723.3333333333334 0 0
283 726.6666666666666 0 0
284 730 0 0
285 733.3333333333333 0 0
286 736.6666666666666 0 0
287 740 0 0
288 743.3333333333334 0 0
289 746.6666666666666 0 0
290 750 0 0
291 753.3333333333334 0 0
292 756.6666666666666 0 0
293 760 0 0
294 763.3333333333334 0 0
295 766.6666666666667 0 0
296 770 0 0
297 773.3333333333334 0 0
298 776.6666666666666 0 0
299 780 0 0
300 783.3333333333333 0 0
301 786.6666666666666 0 0
302 790 0 0
303 793.3333333333334 0 0
304 796.6666666666666 0 0
305 804.6666666666666 0 0
306 809.3333333333334 0 0
307 814 0 0
308 818.6666666666666 0 0
309 823.3333333333334 0 0
310 828 0 0
311 832.6666666666666 0 0
312 837.3333333333334 0 0
313 842 0 0
314 846.6666666666666 0 0
315 851.3333333333334 0 0
316 856 0 0
317 860.6666666666666 0 0
318 865.3333333333334 0 0
319 870 0 0
320 874.6666666666666 0 0
321 879.3333333333334 0 0
322 884 0 0
323 888.6666666666666 0 0
324 893.3333333333334 0 0
325 898 0 0
326 902.6666666666666 0 0
327 907.3333333333334 0 0
328 912 0 0
329 916.6666666666666 0 0
330 921.3333333333334 0 0
331 926 0 0
332 930.6666666666666 0 0
333 935.3333333333334 0 0
334 940 0 0
335 944.6666666666667 0 0
336 949.3333333333334 0 0
337 954 0 0
338 958.6666666666666 0 0
339 963.3333333333334 0 0
340 968 0 0
341 972.6666666666667 0 0
342 977.3333333333333 0 0
343 982 0 0
344 986.6666666666666 0 0
345 991.3333333333334 0 0
346 996 0 0
347 1000.666666666667 0 0
348 1005.333333333333 0 0
349 1010 0 0
350 1014.666666666667 0 0
351 1019.333333333333 0 0
352 1024 0 0
353 1028.666666666667 0 0
354 1033.333333333333 0 0
355 1038 0 0
356 1042.666666666667 0 0
357 1047.333333333333 0 0
358 1052 0 0
359 1056.666666666667 0 0
360 1061.333333333333 0 0
361 1066 0 0
362 1070.666666666667 0 0
363 1075.333333333333 0 0
364 1080.083333333333 0 0
365 1080.166666666667 0 0
366 1080.25 0 0
367 1080.333333333333 0 0
368 1080.416666666667 0 0
369 1080.5 0 0
370 1080.583333333333 0 0
371 1080.666666666667 0 0
372 1080.75 0 0
373 1080.833333333333 0 0
374 1080.916666666667 0 0
375 1081 0 0
376 1081.083333333333 0 0
377 1081.166666666667 0 0
378 1081.25 0 0
379 1081.333333333333 0 0
380 1081.416666666667 0 0
381 1081.5 0 0
382 1081.583333333333 0 0
383 1081.666666666667 0 0
384 1081.75 0 0
385 1081.833333333333 0 0
386 1081.916666666667 0 0
387 1082 0 0
388 1082.083333333333 0 0
389 1082.166666666667 0 0
390 1082.25 0 0
391 1082.333333333333 0 0
392 1082.416666666667 0 0
393 1082.5 0 0
394 1082.583333333333 0 0
395 1082.666666666667 0 0
396 1082.75 0 0
397 1082.833333333333 0 0
398 1082.916666666667 0 0
399 1083 0 0
400 1083.083333333333 0 0
401 1083.166666666667 0 0
402 1083.25 0 0
403 1083.333333333333 0 0
404 1083.416666666667 0 0
405 1083.5 0 0
406 1083.583333333333 0 0
407 1083.666666666667 0 0
408 1083.75 0 0
409 1083.833333333333 0 0
410 1083.916666666667 0 0
411 1084 0 0
412 1084.083333333333 0 0
413 1084.166666666667 0 0
414 1084.25 0 0
415 1084.333333333333 0 0
416 1084.416666666667 0 0
417 1084.5 0 0
418 1084.583333333333 0 0
419 1084.666666666667 0 0
420 1084.75 0 0
421 1084.833333333333 0 0
422 1084.916666666667 0 0
423 1088.333333333333 0 0
424 1091.666666666667 0 0
425 1095 0 0
426 1098.333333333333 0 0
427 1101.666666666667 0 0
428 1105 0 0
429 1108.333333333333 0 0
430 1111.666666666667 0 0
431 1115 0 0
432 1118.333333333333 0 0
433 1121.666666666667 0 0
434 1125 0 0
435 1128.333333333333 0 0
436 1131.666666666667 0 0
437 1135 0 0
438 1138.333333333333 0 0
439 1141.666666666667 0 0
440 1145 0 0
441 1148.333333333333 0 0
442 1151.666666666667 0 0
443 1155 0 0
444 1158.333333333333 0 0
445 1161.666666666667 0 0
446 1165 0 0
447 1168.333333333333 0 0
448 1171.666666666667 0 0
449 1175 0 0
450 1178.333333333333 0 0
451 1181.666666666667 0 0
452 1185 0 0
453 1188.333333333333 0 0
454 1191.666666666667 0 0
455 1195 0 0
456 1198.333333333333 0 0
457 1201.666666666667 0 0
458 1205 0 0
459 1208.333333333333 0 0
460 1211.666666666667 0 0
461 1215 0 0
462 1218.333333333333 0 0
463 1221.666666666667 0 0
464 1225 0 0
465 1228.333333333333 0 0
466 1231.666666666667 0 0
467 1235 0 0
468 1238.333333333333 0 0
469 1241.666666666667 0 0
470 1245 0 0
471 1248.333333333333 0 0
472 1251.666666666667 0 0
473 1255 0 0
474 1258.333333333333 0 0
475 1261.666666666667 0 0
476 1265 0 0
477 1268.333333333333 0 0
478 1271.666666666667 0 0
479 1275 0 0
480 1278.333333333333 0 0
481 1281.666666666667 0 0
$EndNodes
$Elements
481
1 15 2 9 2 2
2 1 2 1 1 1 10
3 1 2 1 1 10 11
4 1 2 1 1 11 12
5 1 2 1 1 12 13
6 1 2 1 1 13 14
7 1 2 1 1 14 15
8 1 2 1 1 15 16
9 1 2 1 1 16 17
10 1 2 1 1 17 18
11 1 2 1 1 18 19
12 1 2 1 1 19 20
13 1 2 1 1 20 21
14 1 2 1 1 21 22
15 1 2 1 1 22 23
16 1 2 1 1 23 24
17 1 2 1 1 24 25
18 1 2 1 1 25 26
19 1 2 1 1 26 27
20 1 2 1 1 27 28
21 1 2 1 1 28 29
22 1 2 1 1 29 30
23 1 2 1 1 30 31
24 1 2 1 1 31 32
25 1 2 1 1 32 33
26 1 2 1 1 33 34
27 1 2 1 1 34 35
28 1 2 1 1 35 36
29 1 2 1 1 36 37
30 1 2 1 1 37 38
31 1 2 1 1 38 39
32 1 2 1 1 39 40
33 1 2 1 1 40 41
34 1 2 1 1 41 42
35 1 2 1 1 42 43
36 1 2 1 1 43 44
37 1 2 1 1 44 45
38 1 2 1 1 45 46
39 1 2 1 1 46 47
40 1 2 1 1 47 48
41 1 2 1 1 48 49
42 1 2 1 1 49 50
43 1 2 1 1 50 51
44 1 2 1 1 51 52
45 1 2 1 1 52 53
46 1 2 1 1 53 54
47 1 2 1 1 54 55
48 1 2 1 1 55 56
49 1 2 1 1 56 57
50 1 2 1 1 57 58
51 1 2 1 1 58 59
52 1 2 1 1 59 60
53 1 2 1 1 60 61
54 1 2 1 1 61 62
55 1 2 1 1 62 63
56 1 2 1 1 63 64
57 1 2 1 1 64 65
58 1 2 1 1 65 66
59 1 2 1 1 66 67
60 1 2 1 1 67 68
61 1 2 1 1 68 2
62 1 2 2 2 2 69
63 1 2 2 2 69 70
64 1 2 2 2 70 71
65 1 2 2 2 71 72
66 1 2 2 2 72 73
67 1 2 2 2 73 74
68 1 2 2 2 74 75
69 1 2 2 2 75 76
70 1 2 2 2 76 77
71 1 2 2 2 77 78
72 1 2 2 2 78 79
73 1 2 2 2 79 80
74 1 2 2 2 80 81
75 1 2 2 2 81 82
76 1 2 2 2 82 83
77 1 2 2 2 83 84
78 1 2 2 2 84 85
79 1 2 2 2 85 86
80 1 2 2 2 86 87
81 1 2 2 2 87 88
82 1 2 2 2 88 89
83 1 2 2 2 89 90
84 1 2 2 2 90 91
85 1 2 2 2 91 92
86 1 2 2 2 92 93
87 1 2 2 2 93 94
88 1 2 2 2 94 95
89 1 2 2 2 95 96
90 1 2 2 2 96 97
91 1 2 2 2 97 98
92 1 2 2 2 98 99
93 1 2 2 2 99 100
94 1 2 2 2 100 101
95 1 2 2 2 101 102
96 1 2 2 2 102 103
97 1 2 2 2 103 104
98 1 2 2 2 104 105
99 1 2 2 2 105 106
100 1 2 2 2 106 107
101 1 2 2 2 107 108
102 1 2 2 2 108 109
103 1 2 2 2 109 110
104 1 2 2 2 110 111
105 1 2 2 2 111 112
106 1 2 2 2 112 113
107 1 2 2 2 113 114
108 1 2 2 2 114 115
109 1 2 2 2 115 116
110 1 2 2 2 116 117
111 1 2 2 2 117 118
112 1 2 2 2 118 119
113 1 2 2 2 119 120
114 1 2 2 2 120 121
115 1 2 2 2 121 122
116 1 2 2 2 122 123
117 1 2 2 2 123 124
118 1 2 2 2 124 125
119 1 2 2 2 125 126
120 1 2 2 2 126 127
121 1 2 2 2 127 3
122 1 2 3 3 3 128
123 1 2 3 3 128 129
124 1 2 3 3 129 130
125 1 2 3 3 130 131
126 1 2 3 3 131 132
127 1 2 3 3 132 133
128 1 2 3 3 133 134
129 1 2 3 3 134 135
130 1 2 3 3 135 136
131 1 2 3 3 136 137
132 1 2 3 3 137 138
133 1 2 3 3 138 139
134 1 2 3 3 139 140
135 1 2 3 3 140 141
136 1 2 3 3 141 142
137 1 2 3 3 142 143
138 1 2 3 3 143 144
139 1 2 3 3 144 145
140 1 2 3 3 145 146
141 1 2 3 3 146 147
142 1 2 3 3 147 148
143 1 2 3 3 148 149
144 1 2 3 3 149 150
145 1 2 3 3 150 151
146 1 2 3 3 151 152
147 1 2 3 3 152 153
148 1 2 3 3 153 154
149 1 2 3 3 154 155
150 1 2 3 3 155 156
151 1 2 3 3 156 157
152 1 2 3 3 157 158
153 1 2 3 3 158 159
154 1 2 3 3 159 160
155 1 2 3 3 160 161
156 1 2 3 3 161 162
157 1 2 3 3 162 163
158 1 2 3 3 163 164
159 1 2 3 3 164 165
160 1 2 3 3 165 166
161 1 2 3 3 166 167
162 1 2 3 3 167 168
163 1 2 3 3 168 169
164 1 2 3 3 169 170
165 1 2 3 3 170 171
166 1 2 3 3 171 172
167 1 2 3 3 172 173
168 1 2 3 3 173 174
169 1 2 3 3 174 175
170 1 2 3 3 175 176
171 1 2 3 3 176 177
172 1 2 3 3 177 178
173 1 2 3 3 178 179
174 1 2 3 3 179 180
175 1 2 3 3 180 181
176 1 2 3 3 181 182
177 1 2 3 3 182 183
178 1 2 3 3 183 184
179 1 2 3 3 184 185
180 1 2 3 3 185 186
181 1 2 3 3 186 4
182 1 2 4 4 4 187
183 1 2 4 4 187 188
184 1 2 4 4 188 189
185 1 2 4 4 189 190
186 1 2 4 4 190 191
187 1 2 4 4 191 192
188 1 2 4 4 192 193
189 1 2 4 4 193 194
190 1 2 4 4 194 195
191 1 2 4 4 195 196
192 1 2 4 4 196 197
193 1 2 4 4 197 198
194 1 2 4 4 198 199
195 1 2 4 4 199 200
196 1 2 4 4 200 201
197 1 2 4 4 201 202
198 1 2 4 4 202 203
199 1 2 4 4 203 204
200 1 2 4 4 204 205
201 1 2 4 4 205 206
202 1 2 4 4 206 207
203 1 2 4 4 207 208
204 1 2 4 4 208 209
205 1 2 4 4 209 210
206 1 2 4 4 210 211
207 1 2 4 4 211 212
208 1 2 4 4 212 213
209 1 2 4 4 213 214
210 1 2 4 4 214 215
211 1 2 4 4 215 216
212 1 2 4 4 216 217
213 1 2 4 4 217 218
214 1 2 4 4 218 219
215 1 2 4 4 219 220
216 1 2 4 4 220 221
217 1 2 4 4 221 222
218 1 2 4 4 222 223
219 1 2 4 4 223 224
220 1 2 4 4 224 225
221 1 2 4 4 225 226
222 1 2 4 4 226 227
223 1 2 4 4 227 228
224 1 2 4 4 228 229
225 1 2 4 4 229 230
226 1 2 4 4 230 231
227 1 2 4 4 231 232
228 1 2 4 4 232 233
229 1 2 4 4 233 234
230 1 2 4 4 234 235
231 1 2 4 4 235 236
232 1 2 4 4 236 237
233 1 2 4 4 237 238
234 1 2 4 4 238 239
235 1 2 4 4 239 240
236 1 2 4 4 240 241
237 1 2 4 4 241 242
238 1 2 4 4 242 243
239 1 2 4 4 243 244
240 1 2 4 4 244 245
241 1 2 4 4 245 5
242 1 2 5 5 5 246
243 1 2 5 5 246 247
244 1 2 5 5 247 248
245 1 2 5 5 248 249
246 1 2 5 5 249 250
247 1 2 5 5 250 251
248 1 2 5 5 251 252
249 1 2 5 5 252 253
250 1 2 5 5 253 254
251 1 2 5 5 254 255
252 1 2 5 5 255 256
253 1 2 5 5 256 257
254 1 2 5 5 257 258
255 1 2 5 5 258 259
256 1 2 5 5 259 260
257 1 2 5 5 260 261
258 1 2 5 5 261 262
259 1 2 5 5 262 263
260 1 2 5 5 263 264
261 1 2 5 5 264 265
262 1 2 5 5 265 266
263 1 2 5 5 266 267
264 1 2 5 5 267 268
265 1 2 5 5 268 269
266 1 2 5 5 269 270
267 1 2 5 5 270 271
268 1 2 5 5 271 272
269 1 2 5 5 272 273
270 1 2 5 5 273 274
271 1 2 5 5 274 275
272 1 2 5 5 275 276
273 1 2 5 5 276 277
274 1 2 5 5 277 278
275 1 2 5 5 278 279
276 1 2 5 5 279 280
277 1 2 5 5 280 281
278 1 2 5 5 281 282
279 1 2 5 5 282 283
280 1 2 5 5 283 284
281 1 2 5 5 284 285
282 1 2 5 5 285 286
283 1 2 5 5 286 287
284 1 2 5 5 287 288
285 1 2 5 5 288 289
286 1 2 5 5 289 290
287 1 2 5 5 290 291
288 1 2 5 5 291 292
289 1 2 5 5 292 293
290 1 2 5 5 293 294
291 1 2 5 5 294 295
292 1 2 5 5 295 296
293 1 2 5 5 296 297
294 1 2 5 5 297 298
295 1 2 5 5 298 299
296 1 2 5 5 299 300
297 1 2 5 5 300 301
298 1 2 5 5 301 302
299 1 2 5 5 302 303
300 1 2 5 5 303 304
301 1 2 5 5 304 6
302 1 2 6 6 6 305
303 1 2 6 6 305 306
304 1 2 6 6 306 307
305 1 2 6 6 307 308
306 1 2 6 6 308 309
307 1 2 6 6 309 310
308 1 2 6 6 310 311
309 1 2 6 6 311 312
310 1 2 6 6 312 313
311 1 2 6 6 313 314
312 1 2 6 6 314 315
313 1 2 6 6 315 316
314 1 2 6 6 316 317
315 1 2 6 6 317 318
316 1 2 6 6 318 319
317 1 2 6 6 319 320
318 1 2 6 6 320 321
319 1 2 6 6 321 322
320 1 2 6 6 322 323
321 1 2 6 6 323 324
322 1 2 6 6 324 325
323 1 2 6 6 325 326
324 1 2 6 6 326 327
325 1 2 6 6 327 328
326 1 2 6 6 328 329
327 1 2 6 6 329 330
328 1 2 6 6 330 331
329 1 2 6 6 331 332
330 1 2 6 6 332 333
331 1 2 6 6 333 334
332 1 2 6 6 334 335
333 1 2 6 6 335 336
334 1 2 6 6 336 337
335 1 2 6 6 337 338
336 1 2 6 6 338 339
337 1 2 6 6 339 340
338 1 2 6 6 340 341
339 1 2 6 6 341 342
340 1 2 6 6 342 343
341 1 2 6 6 343 344
342 1 2 6 6 344 345
343 1 2 6 6 345 346
344 1 2 6 6 346 347
345 1 2 6 6 347 348
346 1 2 6 6 348 349
347 1 2 6 6 349 350
348 1 2 6 6 350 351
349 1 2 6 6 351 352
350 1 2 6 6 352 353
351 1 2 6 6 353 354
352 1 2 6 6 354 355
353 1 2 6 6 355 356
354 1 2 6 6 356 357
355 1 2 6 6 357 358
356 1 2 6 6 358 359
357 1 2 6 6 359 360
358 1 2 6 6 360 361
359 1 2 6 6 361 362
360 1 2 6 6 362 363
361 1 2 6 6 363 7
362 1 2 7 7 7 364
363 1 2 7 7 364 365
364 1 2 7 7 365 366
365 1 2 7 7 366 367
366 1 2 7 7 367 368
367 1 2 7 7 368 369
368 1 2 7 7 369 370
369 1 2 7 7 370 371
370 1 2 7 7 371 372
371 1 2 7 7 372 373
372 1 2 7 7 373 374
373 1 2 7 7 374 375
374 1 2 7 7 375 376
375 1 2 7 7 376 377
376 1 2 7 7 377 378
377 1 2 7 7 378 379
378 1 2 7 7 379 380
379 1 2 7 7 380 381
380 1 2 7 7 381 382
381 1 2 7 7 382 383
382 1 2 7 7 383 384
383 1 2 7 7 384 385
384 1 2 7 7 385 386
385 1 2 7 7 386 387
386 1 2 7 7 387 388
387 1 2 7 7 388 389
388 1 2 7 7 389 390
389 1 2 7 7 390 391
390 1 2 7 7 391 392
391 1 2 7 7 392 393
392 1 2 7 7 393 394
393 1 2 7 7 394 395
394 1 2 7 7 395 396
395 1 2 7 7 396 397
396 1 2 7 7 397 398
397 1 2 7 7 398 399
398 1 2 7 7 399 400
399 1 2 7 7 400 401
400 1 2 7 7 401 402
401 1 2 7 7 402 403
402 1 2 7 7 403 404
403 1 2 7 7 404 405
404 1 2 7 7 405 406
405 1 2 7 7 406 407
406 1 2 7 7 407 408
407 1 2 7 7 408 409
408 1 2 7 7 409 410
409 1 2 7 7 410 411
410 1 2 7 7 411 412
411 1 2 7 7 412 413
412 1 2 7 7 413 414
413 1 2 7 7 414 415
414 1 2 7 7 415 416
415 1 2 7 7 416 417
416 1 2 7 7 417 418
417 1 2 7 7 418 419
418 1 2 7 7 419 420
419 1 2 7 7 420 421
420 1 2 7 7 421 422
421 1 2 7 7 422 8
422 1 2 8 8 8 423
423 1 2 8 8 423 424
424 1 2 8 8 424 425
425 1 2 8 8 425 426
426 1 2 8 8 426 427
427 1 2 8 8 427 428
428 1 2 8 8 428 429
429 1 2 8 8 429 430
430 1 2 8 8 430 431
431 1 2 8 8 431 432
432 1 2 8 8 432 433
433 1 2 8 8 433 434
434 1 2 8 8 434 435
435 1 2 8 8 435 436
436 1 2 8 8 436 437
437 1 2 8 8 437 438
438 1 2 8 8 438 439
439 1 2 8 8 439 440
440 1 2 8 8 440 441
441 1 2 8 8 441 442
442 1 2 8 8 442 443
443 1 2 8 8 443 444
444 1 2 8 8 444 445
445 1 2 8 8 445 446
446 1 2 8 8 446 447
447 1 2 8 8 447 448
448 1 2 8 8 448 449
449 1 2 8 8 449 450
450 1 2 8 8 450 451
451 1 2 8 8 451 452
452 1 2 8 8 452 453
453 1 2 8 8 453 454
454 1 2 8 8 454 455
455 1 2 8 8 455 456
456 1 2 8 8 456 457
457 1 2 8 8 457 458
458 1 2 8 8 458 459
459 1 2 8 8 459 460
460 1 2 8 8 460 461
461 1 2 8 8 461 462
462 1 2 8 8 462 463
463 1 2 8 8 463 464
464 1 2 8 8 464 465
465 1 2 8 8 465 466
466 1 2 8 8 466 467
467 1 2 8 8 467 468
468 1 2 8 8 468 469
469 1 2 8 8 469 470
470 1 2 8 8 470 471
471 1 2 8 8 471 472
472 1 2 8 8 472 473
473 1 2 8 8 473 474
474 1 2 8 8 474 475
475 1 2 8 8 475 476
476 1 2 8 8 476 477
477 1 2 8 8 477 478
478 1 2 8 8 478 479
479 1 2 8 8 479 480
480 1 2 8 8 480 481
481 1 2 8 8 481 9
$EndElements
