$MeshFormat
2 0 8
$EndMeshFormat
$Nodes
555
1 -25 0 0
2 0 0 0
3 25 0 0
4 -24.5046279658429 0 0
5 -24.01902934380356 0 0
6 -23.54301594059557 0 0
7 -23.07639547991192 0 0
8 -22.6189858702609 0 0
9 -22.17060046694363 0 0
10 -21.73106621108008 0 0
11 -21.30020867216449 0 0
12 -20.87785070715772 0 0
13 -20.46383025888084 0 0
14 -20.05798169584101 0 0
15 -19.66014098878391 0 0
16 -19.27015040103106 0 0
17 -18.88785846636214 0 0
18 -18.51311159181296 0 0
19 -18.1457605252941 0 0
20 -17.7856583281829 0 0
21 -17.43266432709649 0 0
22 -17.08663711705196 0 0
23 -16.74743787183875 0 0
24 -16.4149343043699 0 0
25 -16.08899135369622 0 0
26 -15.76948258412645 0 0
27 -15.45627902428764 0 0
28 -15.14925613444404 0 0
29 -14.8482941621461 0 0
30 -14.55327053814513 0 0
31 -14.26407022323466 0 0
32 -13.98057681600825 0 0
33 -13.70267882223306 0 0
34 -13.43026465062213 0 0
35 -13.16322754437462 0 0
36 -12.90145960336815 0 0
37 -12.6448586055312 0 0
38 -12.39332218856276 0 0
39 -12.14674876263729 0 0
40 -11.90504327020228 0 0
41 -11.66810678771014 0 0
42 -11.43584693949087 0 0
43 -11.20817078733193 0 0
44 -10.98498769463853 0 0
45 -10.76620911963949 0 0
46 -10.55175019837172 0 0
47 -10.34152170850525 0 0
48 -10.13544332899907 0 0
49 -9.933431482120506 0 0
50 -9.735407078364533 0 0
51 -9.541288813119669 0 0
52 -9.351002855915343 0 0
53 -9.164472934404074 0 0
54 -8.981623951868379 0 0
55 -8.802383425858235 0 0
56 -8.626680731724676 0 0
57 -8.454445269562994 0 0
58 -8.285609428278443 0 0
59 -8.120105438932185 0 0
60 -7.957867605538594 0 0
61 -7.798831930733686 0 0
62 -7.642934839464399 0 0
63 -7.490114461138023 0 0
64 -7.340310367674785 0 0
65 -7.193462598517391 0 0
66 -7.049512330657601 0 0
67 -6.908403891567685 0 0
68 -6.770080215496041 0 0
69 -6.63448587277781 0 0
70 -6.501568471049721 0 0
71 -6.371273684523746 0 0
72 -6.243550340154941 0 0
73 -6.118348452160724 0 0
74 -5.995616881541766 0 0
75 -5.875307648440894 0 0
76 -5.757372642866423 0 0
77 -5.641765341275126 0 0
78 -5.528439386946834 0 0
79 -5.417350419442665 0 0
80 -5.308453469089697 0 0
81 -5.201705818031713 0 0
82 -5.097064600195822 0 0
83 -4.994489301787597 0 0
84 -4.893937758912872 0 0
85 -4.79537118144188 0 0
86 -4.698748962877161 0 0
87 -4.604034276393873 0 0
88 -4.511188788649117 0 0
89 -4.420175792568126 0 0
90 -4.330958833763818 0 0
91 -4.243502855651629 0 0
92 -4.157772764848897 0 0
93 -4.073734471824456 0 0
94 -3.991354879278999 0 0
95 -3.910601280405412 0 0
96 -3.831441257983251 0 0
97 -3.75384327587214 0 0
98 -3.677777045758035 0 0
99 -3.603212084808141 0 0
100 -3.530118576272578 0 0
101 -3.458467660788298 0 0
102 -3.38823080691302 0 0
103 -3.319380167908434 0 0
104 -3.251888361561495 0 0
105 -3.185728295904197 0 0
106 -3.120874355087583 0 0
107 -3.057300048105288 0 0
108 -2.994980670610867 0 0
109 -2.933891076997949 0 0
110 -2.874007059418946 0 0
111 -2.815305074400343 0 0
112 -2.757761474490686 0 0
113 -2.701353454191058 0 0
114 -2.646058655827352 0 0
115 -2.591855552290906 0 0
116 -2.538721738033447 0 0
117 -2.486636831426065 0 0
118 -2.435579657762085 0 0
119 -2.385530494435526 0 0
120 -2.336468896392025 0 0
121 -2.288375153389485 0 0
122 -2.241230893809748 0 0
123 -2.195017135658489 0 0
124 -2.149715333727792 0 0
125 -2.105307683133709 0 0
126 -2.061776402911153 0 0
127 -2.019104271039976 0 0
128 -1.977274272858284 0 0
129 -1.936269784332254 0 0
130 -1.896074716570398 0 0
131 -1.856672777076446 0 0
132 -1.818048554532634 0 0
133 -1.78018654475382 0 0
134 -1.743071785288031 0 0
135 -1.706689528828989 0 0
136 -1.671025193424458 0 0
137 -1.636064848825439 0 0
138 -1.601794447826035 0 0
139 -1.568200390670291 0 0
140 -1.535269285799923 0 0
141 -1.502988050869952 0 0
142 -1.471344140469943 0 0
143 -1.440324513247224 0 0
144 -1.409917127068497 0 0
145 -1.380110091160316 0 0
146 -1.350891108018631 0 0
147 -1.322248831794246 0 0
148 -1.294171706981737 0 0
149 -1.266648778481327 0 0
150 -1.239669184985354 0 0
151 -1.213221791812166 0 0
152 -1.187296498272236 0 0
153 -1.161882993319219 0 0
154 -1.136970777475035 0 0
155 -1.11255034438984 0 0
156 -1.088611789385421 0 0
157 -1.065145746284116 0 0
158 -1.04214281339379 0 0
159 -1.019593925524426 0 0
160 -0.9974900077732357 0 0
161 -0.9758222672668432 0 0
162 -0.954582246036656 0 0
163 -0.9337613610443773 0 0
164 -0.9133514188196995 0 0
165 -0.8933442554142385 0 0
166 -0.8737319936419269 0 0
167 -0.8545067190900119 0 0
168 -0.8356609753073341 0 0
169 -0.8171870675479531 0 0
170 -0.799077838782028 0 0
171 -0.7813259183104104 0 0
172 -0.7639244295077757 0 0
173 -0.7468662847793295 0 0
174 -0.7301448255544157 0 0
175 -0.7137534761667452 0 0
176 -0.6976855417381467 0 0
177 -0.6819346806891474 0 0
178 -0.666494749141644 0 0
179 -0.6513594790028804 0 0
180 -0.6365229441739811 0 0
181 -0.6219791987088052 0 0
182 -0.6077225222901411 0 0
183 -0.5937471584110315 0 0
184 -0.5800476445134872 0 0
185 -0.5666184991764023 0 0
186 -0.5534543923677249 0 0
187 -0.5405500804425811 0 0
188 -0.527900356693381 0 0
189 -0.5155004390016482 0 0
190 -0.5033450971858477 0 0
191 -0.4914297131428574 0 0
192 -0.4797495003970864 0 0
193 -0.4682998004799072 0 0
194 -0.4570760581855182 0 0
195 -0.4460738437171374 0 0
196 -0.4352887361510904 0 0
197 -0.4247165221475141 0 0
198 -0.4143529274800994 0 0
199 -0.4041938878446727 0 0
200 -0.394235333103804 0 0
201 -0.3844732964403796 0 0
202 -0.3749039492795064 0 0
203 -0.3655234505282406 0 0
204 -0.3563280721298967 0 0
205 -0.3473142093856102 0 0
206 -0.3384782097059752 0 0
207 -0.3298166063223334 0 0
208 -0.3213259378921612 0 0
209 -0.3130028466091533 0 0
210 -0.3048439886549681 0 0
211 -0.2968461796760691 0 0
212 -0.2890062277391942 0 0
213 -0.2813209872159439 0 0
214 -0.273787409504575 0 0
215 -0.2664025264119935 0 0
216 -0.2591633854669734 0 0
217 -0.2520670999992203 0 0
218 -0.2451108934755891 0 0
219 -0.2382919518111676 0 0
220 -0.231607570995776 0 0
221 -0.2250551109685694 0 0
222 -0.218632007554681 0 0
223 -0.2123356787131492 0 0
224 -0.2061635885462348 0 0
225 -0.2001132544077938 0 0
226 -0.1941823722355379 0 0
227 -0.1883685554174758 0 0
228 -0.1826694657165423 0 0
229 -0.1770828566086929 0 0
230 -0.1716064981537369 0 0
231 -0.1662382249077388 0 0
232 -0.1609758802515487 0 0
233 -0.1558174096406101 0 0
234 -0.1507607554439044 0 0
235 -0.1458038855882665 0 0
236 -0.1409448276719211 0 0
237 -0.1361816795922899 0 0
238 -0.1315125559935293 0 0
239 -0.1269355632856572 0 0
240 -0.1224488816961772 0 0
241 -0.1180507709174716 0 0
242 -0.1137394685023552 0 0
243 -0.1095132335496157 0 0
244 -0.1053704228259345 0 0
245 -0.101309353615564 0 0
246 -0.09732844944625452 0 0
247 -0.09342609967558924 0 0
248 -0.0896007737839849 0 0
249 -0.08585093223621998 0 0
250 -0.08217510880872414 0 0
251 -0.07857181771598332 0 0
252 -0.07503966813249552 0 0
253 -0.07157720422314717 0 0
254 -0.0681830849547066 0 0
255 -0.06485592166387832 0 0
256 -0.06159444912655077 0 0
257 -0.05839734958190124 0 0
258 -0.05526334458847704 0 0
259 -0.05219119041201814 0 0
260 -0.04917964079722836 0 0
261 -0.04622754639888038 0 0
262 -0.04333371557168342 0 0
263 -0.04049699513681004 0 0
264 -0.03771626032202102 0 0
265 -0.03499039931895154 0 0
266 -0.03231834084086171 0 0
267 -0.02969902176745698 0 0
268 -0.02713139243434581 0 0
269 -0.0246144311116997 0 0
270 -0.02214715261131261 0 0
271 -0.01972856219386587 0 0
272 -0.01735770264463532 0 0
273 -0.01503364638510696 0 0
274 -0.01275544692351527 0 0
275 -0.01052221249702168 0 0
276 -0.008333051749143117 0 0
277 -0.00618708975843596 0 0
278 -0.004083486838613037 0 0
279 -0.002021398766952065 0 0
280 0.002021398766951485 0 0
281 0.00408348683861232 0 0
282 0.006187089758435719 0 0
283 0.008333051749141937 0 0
284 0.0105222124970203 0 0
285 0.01275544692351251 0 0
286 0.01503364638510485 0 0
287 0.01735770264463209 0 0
288 0.01972856219386351 0 0
289 0.02214715261130997 0 0
290 0.02461443111169585 0 0
291 0.02713139243434259 0 0
292 0.0296990217674516 0 0
293 0.03231834084085791 0 0
294 0.03499039931894758 0 0
295 0.03771626032201674 0 0
296 0.04049699513680585 0 0
297 0.04333371557167953 0 0
298 0.04622754639887675 0 0
299 0.04917964079722354 0 0
300 0.05219119041201203 0 0
301 0.0552633445884719 0 0
302 0.05839734958189696 0 0
303 0.06159444912654527 0 0
304 0.06485592166387359 0 0
305 0.06818308495470221 0 0
306 0.07157720422314229 0 0
307 0.07503966813249013 0 0
308 0.07857181771597724 0 0
309 0.08217510880871982 0 0
310 0.08585093223621312 0 0
311 0.08960077378397988 0 0
312 0.0934260996755828 0 0
313 0.09732844944624956 0 0
314 0.1013093536155566 0 0
315 0.1053704228259295 0 0
316 0.1095132335496082 0 0
317 0.1137394685023482 0 0
318 0.1180507709174651 0 0
319 0.1224488816961705 0 0
320 0.1269355632856508 0 0
321 0.131512555993521 0 0
322 0.1361816795922836 0 0
323 0.140944827671915 0 0
324 0.1458038855882584 0 0
325 0.1507607554438964 0 0
326 0.1558174096406017 0 0
327 0.1609758802515405 0 0
328 0.1662382249077324 0 0
329 0.1716064981537275 0 0
330 0.1770828566086829 0 0
331 0.1826694657165335 0 0
332 0.1883685554174662 0 0
333 0.1941823722355284 0 0
334 0.2001132544077856 0 0
335 0.2061635885462258 0 0
336 0.2123356787131393 0 0
337 0.2186320075546703 0 0
338 0.2250551109685615 0 0
339 0.2316075709957658 0 0
340 0.2382919518111583 0 0
341 0.2451108934755801 0 0
342 0.2520670999992094 0 0
343 0.2591633854669627 0 0
344 0.2664025264119841 0 0
345 0.2737874095045658 0 0
346 0.2813209872159346 0 0
347 0.2890062277391847 0 0
348 0.2968461796760581 0 0
349 0.3048439886549583 0 0
350 0.3130028466091431 0 0
351 0.3213259378921514 0 0
352 0.3298166063223219 0 0
353 0.3384782097059633 0 0
354 0.3473142093855992 0 0
355 0.3563280721298872 0 0
356 0.3655234505282282 0 0
357 0.3749039492794937 0 0
358 0.3844732964403695 0 0
359 0.3942353331037908 0 0
360 0.4041938878446603 0 0
361 0.4143529274800866 0 0
362 0.4247165221475026 0 0
363 0.4352887361510768 0 0
364 0.4460738437171242 0 0
365 0.4570760581855056 0 0
366 0.4682998004798928 0 0
367 0.4797495003970741 0 0
368 0.4914297131428425 0 0
369 0.5033450971858333 0 0
370 0.5155004390016318 0 0
371 0.5279003566933644 0 0
372 0.5405500804425641 0 0
373 0.553454392367707 0 0
374 0.5666184991763841 0 0
375 0.5800476445134704 0 0
376 0.5937471584110149 0 0
377 0.6077225222901231 0 0
378 0.6219791987087872 0 0
379 0.6365229441739629 0 0
380 0.6513594790028643 0 0
381 0.6664947491416275 0 0
382 0.681934680689131 0 0
383 0.6976855417381301 0 0
384 0.7137534761667272 0 0
385 0.7301448255543979 0 0
386 0.7468662847793096 0 0
387 0.7639244295077556 0 0
388 0.781325918310392 0 0
389 0.7990778387820098 0 0
390 0.8171870675479334 0 0
391 0.8356609753073143 0 0
392 0.854506719089993 0 0
393 0.8737319936419069 0 0
394 0.8933442554142168 0 0
395 0.9133514188196764 0 0
396 0.9337613610443539 0 0
397 0.9545822460366313 0 0
398 0.9758222672668166 0 0
399 0.9974900077732095 0 0
400 1.019593925524398 0 0
401 1.042142813393762 0 0
402 1.065145746284086 0 0
403 1.088611789385391 0 0
404 1.11255034438981 0 0
405 1.136970777475004 0 0
406 1.161882993319187 0 0
407 1.187296498272203 0 0
408 1.21322179181213 0 0
409 1.239669184985318 0 0
410 1.266648778481292 0 0
411 1.294171706981699 0 0
412 1.322248831794209 0 0
413 1.350891108018593 0 0
414 1.380110091160278 0 0
415 1.409917127068458 0 0
416 1.440324513247183 0 0
417 1.471344140469903 0 0
418 1.502988050869911 0 0
419 1.53526928579988 0 0
420 1.568200390670247 0 0
421 1.601794447825991 0 0
422 1.636064848825393 0 0
423 1.671025193424412 0 0
424 1.706689528828942 0 0
425 1.743071785287984 0 0
426 1.780186544753772 0 0
427 1.818048554532584 0 0
428 1.856672777076395 0 0
429 1.896074716570348 0 0
430 1.936269784332196 0 0
431 1.977274272858227 0 0
432 2.019104271039917 0 0
433 2.061776402911092 0 0
434 2.105307683133649 0 0
435 2.149715333727733 0 0
436 2.195017135658427 0 0
437 2.241230893809691 0 0
438 2.288375153389425 0 0
439 2.33646889639196 0 0
440 2.38553049443546 0 0
441 2.43557965776202 0 0
442 2.486636831426 0 0
443 2.538721738033381 0 0
444 2.591855552290839 0 0
445 2.646058655827286 0 0
446 2.701353454190988 0 0
447 2.757761474490612 0 0
448 2.815305074400267 0 0
449 2.874007059418874 0 0
450 2.933891076997877 0 0
451 2.994980670610796 0 0
452 3.05730004810522 0 0
453 3.12087435508751 0 0
454 3.185728295904125 0 0
455 3.251888361561415 0 0
456 3.319380167908353 0 0
457 3.388230806912943 0 0
458 3.458467660788225 0 0
459 3.530118576272507 0 0
460 3.603212084808075 0 0
461 3.677777045757964 0 0
462 3.753843275872069 0 0
463 3.831441257983168 0 0
464 3.910601280405321 0 0
465 3.991354879278904 0 0
466 4.073734471824351 0 0
467 4.157772764848784 0 0
468 4.24350285565152 0 0
469 4.3309588337637 0 0
470 4.420175792568008 0 0
471 4.511188788648996 0 0
472 4.604034276393747 0 0
473 4.698748962877038 0 0
474 4.795371181441763 0 0
475 4.893937758912751 0 0
476 4.994489301787474 0 0
477 5.097064600195703 0 0
478 5.201705818031593 0 0
479 5.308453469089567 0 0
480 5.417350419442536 0 0
481 5.528439386946702 0 0
482 5.641765341274985 0 0
483 5.757372642866275 0 0
484 5.875307648440741 0 0
485 5.995616881541598 0 0
486 6.118348452160562 0 0
487 6.243550340154776 0 0
488 6.371273684523581 0 0
489 6.501568471049557 0 0
490 6.634485872777637 0 0
491 6.770080215495867 0 0
492 6.908403891567512 0 0
493 7.049512330657421 0 0
494 7.19346259851722 0 0
495 7.340310367674614 0 0
496 7.490114461137843 0 0
497 7.64293483946422 0 0
498 7.798831930733511 0 0
499 7.957867605538429 0 0
500 8.120105438932018 0 0
501 8.285609428278274 0 0
502 8.454445269562818 0 0
503 8.6266807317245 0 0
504 8.802383425858064 0 0
505 8.981623951868198 0 0
506 9.1644729344039 0 0
507 9.35100285591516 0 0
508 9.541288813119495 0 0
509 9.735407078364339 0 0
510 9.93343148212031 0 0
511 10.13544332899886 0 0
512 10.34152170850503 0 0
513 10.55175019837152 0 0
514 10.76620911963927 0 0
515 10.98498769463833 0 0
516 11.20817078733172 0 0
517 11.43584693949065 0 0
518 11.66810678770991 0 0
519 11.90504327020204 0 0
520 12.14674876263704 0 0
521 12.39332218856251 0 0
522 12.64485860553095 0 0
523 12.90145960336788 0 0
524 13.16322754437435 0 0
525 13.43026465062185 0 0
526 13.70267882223277 0 0
527 13.98057681600797 0 0
528 14.26407022323438 0 0
529 14.55327053814486 0 0
530 14.84829416214583 0 0
531 15.14925613444377 0 0
532 15.45627902428734 0 0
533 15.76948258412614 0 0
534 16.08899135369591 0 0
535 16.41493430436961 0 0
536 16.74743787183848 0 0
537 17.08663711705171 0 0
538 17.43266432709623 0 0
539 17.78565832818268 0 0
540 18.14576052529391 0 0
541 18.51311159181278 0 0
542 18.88785846636195 0 0
543 19.27015040103092 0 0
544 19.66014098878378 0 0
545 20.05798169584093 0 0
546 20.46383025888074 0 0
547 20.87785070715761 0 0
548 21.30020867216445 0 0
549 21.73106621108008 0 0
550 22.17060046694367 0 0
551 22.61898587026097 0 0
552 23.07639547991199 0 0
553 23.54301594059561 0 0
554 24.01902934380358 0 0
555 24.50462796584289 0 0
$EndNodes
$Elements
556
1 15 2 1 1 1
2 15 2 2 3 3
3 1 3 1 1 0 1 4
4 1 3 1 1 0 4 5
5 1 3 1 1 0 5 6
6 1 3 1 1 0 6 7
7 1 3 1 1 0 7 8
8 1 3 1 1 0 8 9
9 1 3 1 1 0 9 10
10 1 3 1 1 0 10 11
11 1 3 1 1 0 11 12
12 1 3 1 1 0 12 13
13 1 3 1 1 0 13 14
14 1 3 1 1 0 14 15
15 1 3 1 1 0 15 16
16 1 3 1 1 0 16 17
17 1 3 1 1 0 17 18
18 1 3 1 1 0 18 19
19 1 3 1 1 0 19 20
20 1 3 1 1 0 20 21
21 1 3 1 1 0 21 22
22 1 3 1 1 0 22 23
23 1 3 1 1 0 23 24
24 1 3 1 1 0 24 25
25 1 3 1 1 0 25 26
26 1 3 1 1 0 26 27
27 1 3 1 1 0 27 28
28 1 3 1 1 0 28 29
29 1 3 1 1 0 29 30
30 1 3 1 1 0 30 31
31 1 3 1 1 0 31 32
32 1 3 1 1 0 32 33
33 1 3 1 1 0 33 34
34 1 3 1 1 0 34 35
35 1 3 1 1 0 35 36
36 1 3 1 1 0 36 37
37 1 3 1 1 0 37 38
38 1 3 1 1 0 38 39
39 1 3 1 1 0 39 40
40 1 3 1 1 0 40 41
41 1 3 1 1 0 41 42
42 1 3 1 1 0 42 43
43 1 3 1 1 0 43 44
44 1 3 1 1 0 44 45
45 1 3 1 1 0 45 46
46 1 3 1 1 0 46 47
47 1 3 1 1 0 47 48
48 1 3 1 1 0 48 49
49 1 3 1 1 0 49 50
50 1 3 1 1 0 50 51
51 1 3 1 1 0 51 52
52 1 3 1 1 0 52 53
53 1 3 1 1 0 53 54
54 1 3 1 1 0 54 55
55 1 3 1 1 0 55 56
56 1 3 1 1 0 56 57
57 1 3 1 1 0 57 58
58 1 3 1 1 0 58 59
59 1 3 1 1 0 59 60
60 1 3 1 1 0 60 61
61 1 3 1 1 0 61 62
62 1 3 1 1 0 62 63
63 1 3 1 1 0 63 64
64 1 3 1 1 0 64 65
65 1 3 1 1 0 65 66
66 1 3 1 1 0 66 67
67 1 3 1 1 0 67 68
68 1 3 1 1 0 68 69
69 1 3 1 1 0 69 70
70 1 3 1 1 0 70 71
71 1 3 1 1 0 71 72
72 1 3 1 1 0 72 73
73 1 3 1 1 0 73 74
74 1 3 1 1 0 74 75
75 1 3 1 1 0 75 76
76 1 3 1 1 0 76 77
77 1 3 1 1 0 77 78
78 1 3 1 1 0 78 79
79 1 3 1 1 0 79 80
80 1 3 1 1 0 80 81
81 1 3 1 1 0 81 82
82 1 3 1 1 0 82 83
83 1 3 1 1 0 83 84
84 1 3 1 1 0 84 85
85 1 3 1 1 0 85 86
86 1 3 1 1 0 86 87
87 1 3 1 1 0 87 88
88 1 3 1 1 0 88 89
89 1 3 1 1 0 89 90
90 1 3 1 1 0 90 91
91 1 3 1 1 0 91 92
92 1 3 1 1 0 92 93
93 1 3 1 1 0 93 94
94 1 3 1 1 0 94 95
95 1 3 1 1 0 95 96
96 1 3 1 1 0 96 97
97 1 3 1 1 0 97 98
98 1 3 1 1 0 98 99
99 1 3 1 1 0 99 100
100 1 3 1 1 0 100 101
101 1 3 1 1 0 101 102
102 1 3 1 1 0 102 103
103 1 3 1 1 0 103 104
104 1 3 1 1 0 104 105
105 1 3 1 1 0 105 106
106 1 3 1 1 0 106 107
107 1 3 1 1 0 107 108
108 1 3 1 1 0 108 109
109 1 3 1 1 0 109 110
110 1 3 1 1 0 110 111
111 1 3 1 1 0 111 112
112 1 3 1 1 0 112 113
113 1 3 1 1 0 113 114
114 1 3 1 1 0 114 115
115 1 3 1 1 0 115 116
116 1 3 1 1 0 116 117
117 1 3 1 1 0 117 118
118 1 3 1 1 0 118 119
119 1 3 1 1 0 119 120
120 1 3 1 1 0 120 121
121 1 3 1 1 0 121 122
122 1 3 1 1 0 122 123
123 1 3 1 1 0 123 124
124 1 3 1 1 0 124 125
125 1 3 1 1 0 125 126
126 1 3 1 1 0 126 127
127 1 3 1 1 0 127 128
128 1 3 1 1 0 128 129
129 1 3 1 1 0 129 130
130 1 3 1 1 0 130 131
131 1 3 1 1 0 131 132
132 1 3 1 1 0 132 133
133 1 3 1 1 0 133 134
134 1 3 1 1 0 134 135
135 1 3 1 1 0 135 136
136 1 3 1 1 0 136 137
137 1 3 1 1 0 137 138
138 1 3 1 1 0 138 139
139 1 3 1 1 0 139 140
140 1 3 1 1 0 140 141
141 1 3 1 1 0 141 142
142 1 3 1 1 0 142 143
143 1 3 1 1 0 143 144
144 1 3 1 1 0 144 145
145 1 3 1 1 0 145 146
146 1 3 1 1 0 146 147
147 1 3 1 1 0 147 148
148 1 3 1 1 0 148 149
149 1 3 1 1 0 149 150
150 1 3 1 1 0 150 151
151 1 3 1 1 0 151 152
152 1 3 1 1 0 152 153
153 1 3 1 1 0 153 154
154 1 3 1 1 0 154 155
155 1 3 1 1 0 155 156
156 1 3 1 1 0 156 157
157 1 3 1 1 0 157 158
158 1 3 1 1 0 158 159
159 1 3 1 1 0 159 160
160 1 3 1 1 0 160 161
161 1 3 1 1 0 161 162
162 1 3 1 1 0 162 163
163 1 3 1 1 0 163 164
164 1 3 1 1 0 164 165
165 1 3 1 1 0 165 166
166 1 3 1 1 0 166 167
167 1 3 1 1 0 167 168
168 1 3 1 1 0 168 169
169 1 3 1 1 0 169 170
170 1 3 1 1 0 170 171
171 1 3 1 1 0 171 172
172 1 3 1 1 0 172 173
173 1 3 1 1 0 173 174
174 1 3 1 1 0 174 175
175 1 3 1 1 0 175 176
176 1 3 1 1 0 176 177
177 1 3 1 1 0 177 178
178 1 3 1 1 0 178 179
179 1 3 1 1 0 179 180
180 1 3 1 1 0 180 181
181 1 3 1 1 0 181 182
182 1 3 1 1 0 182 183
183 1 3 1 1 0 183 184
184 1 3 1 1 0 184 185
185 1 3 1 1 0 185 186
186 1 3 1 1 0 186 187
187 1 3 1 1 0 187 188
188 1 3 1 1 0 188 189
189 1 3 1 1 0 189 190
190 1 3 1 1 0 190 191
191 1 3 1 1 0 191 192
192 1 3 1 1 0 192 193
193 1 3 1 1 0 193 194
194 1 3 1 1 0 194 195
195 1 3 1 1 0 195 196
196 1 3 1 1 0 196 197
197 1 3 1 1 0 197 198
198 1 3 1 1 0 198 199
199 1 3 1 1 0 199 200
200 1 3 1 1 0 200 201
201 1 3 1 1 0 201 202
202 1 3 1 1 0 202 203
203 1 3 1 1 0 203 204
204 1 3 1 1 0 204 205
205 1 3 1 1 0 205 206
206 1 3 1 1 0 206 207
207 1 3 1 1 0 207 208
208 1 3 1 1 0 208 209
209 1 3 1 1 0 209 210
210 1 3 1 1 0 210 211
211 1 3 1 1 0 211 212
212 1 3 1 1 0 212 213
213 1 3 1 1 0 213 214
214 1 3 1 1 0 214 215
215 1 3 1 1 0 215 216
216 1 3 1 1 0 216 217
217 1 3 1 1 0 217 218
218 1 3 1 1 0 218 219
219 1 3 1 1 0 219 220
220 1 3 1 1 0 220 221
221 1 3 1 1 0 221 222
222 1 3 1 1 0 222 223
223 1 3 1 1 0 223 224
224 1 3 1 1 0 224 225
225 1 3 1 1 0 225 226
226 1 3 1 1 0 226 227
227 1 3 1 1 0 227 228
228 1 3 1 1 0 228 229
229 1 3 1 1 0 229 230
230 1 3 1 1 0 230 231
231 1 3 1 1 0 231 232
232 1 3 1 1 0 232 233
233 1 3 1 1 0 233 234
234 1 3 1 1 0 234 235
235 1 3 1 1 0 235 236
236 1 3 1 1 0 236 237
237 1 3 1 1 0 237 238
238 1 3 1 1 0 238 239
239 1 3 1 1 0 239 240
240 1 3 1 1 0 240 241
241 1 3 1 1 0 241 242
242 1 3 1 1 0 242 243
243 1 3 1 1 0 243 244
244 1 3 1 1 0 244 245
245 1 3 1 1 0 245 246
246 1 3 1 1 0 246 247
247 1 3 1 1 0 247 248
248 1 3 1 1 0 248 249
249 1 3 1 1 0 249 250
250 1 3 1 1 0 250 251
251 1 3 1 1 0 251 252
252 1 3 1 1 0 252 253
253 1 3 1 1 0 253 254
254 1 3 1 1 0 254 255
255 1 3 1 1 0 255 256
256 1 3 1 1 0 256 257
257 1 3 1 1 0 257 258
258 1 3 1 1 0 258 259
259 1 3 1 1 0 259 260
260 1 3 1 1 0 260 261
261 1 3 1 1 0 261 262
262 1 3 1 1 0 262 263
263 1 3 1 1 0 263 264
264 1 3 1 1 0 264 265
265 1 3 1 1 0 265 266
266 1 3 1 1 0 266 267
267 1 3 1 1 0 267 268
268 1 3 1 1 0 268 269
269 1 3 1 1 0 269 270
270 1 3 1 1 0 270 271
271 1 3 1 1 0 271 272
272 1 3 1 1 0 272 273
273 1 3 1 1 0 273 274
274 1 3 1 1 0 274 275
275 1 3 1 1 0 275 276
276 1 3 1 1 0 276 277
277 1 3 1 1 0 277 278
278 1 3 1 1 0 278 279
279 1 3 1 1 0 279 2
280 1 3 2 2 0 2 280
281 1 3 2 2 0 280 281
282 1 3 2 2 0 281 282
283 1 3 2 2 0 282 283
284 1 3 2 2 0 283 284
285 1 3 2 2 0 284 285
286 1 3 2 2 0 285 286
287 1 3 2 2 0 286 287
288 1 3 2 2 0 287 288
289 1 3 2 2 0 288 289
290 1 3 2 2 0 289 290
291 1 3 2 2 0 290 291
292 1 3 2 2 0 291 292
293 1 3 2 2 0 292 293
294 1 3 2 2 0 293 294
295 1 3 2 2 0 294 295
296 1 3 2 2 0 295 296
297 1 3 2 2 0 296 297
298 1 3 2 2 0 297 298
299 1 3 2 2 0 298 299
300 1 3 2 2 0 299 300
301 1 3 2 2 0 300 301
302 1 3 2 2 0 301 302
303 1 3 2 2 0 302 303
304 1 3 2 2 0 303 304
305 1 3 2 2 0 304 305
306 1 3 2 2 0 305 306
307 1 3 2 2 0 306 307
308 1 3 2 2 0 307 308
309 1 3 2 2 0 308 309
310 1 3 2 2 0 309 310
311 1 3 2 2 0 310 311
312 1 3 2 2 0 311 312
313 1 3 2 2 0 312 313
314 1 3 2 2 0 313 314
315 1 3 2 2 0 314 315
316 1 3 2 2 0 315 316
317 1 3 2 2 0 316 317
318 1 3 2 2 0 317 318
319 1 3 2 2 0 318 319
320 1 3 2 2 0 319 320
321 1 3 2 2 0 320 321
322 1 3 2 2 0 321 322
323 1 3 2 2 0 322 323
324 1 3 2 2 0 323 324
325 1 3 2 2 0 324 325
326 1 3 2 2 0 325 326
327 1 3 2 2 0 326 327
328 1 3 2 2 0 327 328
329 1 3 2 2 0 328 329
330 1 3 2 2 0 329 330
331 1 3 2 2 0 330 331
332 1 3 2 2 0 331 332
333 1 3 2 2 0 332 333
334 1 3 2 2 0 333 334
335 1 3 2 2 0 334 335
336 1 3 2 2 0 335 336
337 1 3 2 2 0 336 337
338 1 3 2 2 0 337 338
339 1 3 2 2 0 338 339
340 1 3 2 2 0 339 340
341 1 3 2 2 0 340 341
342 1 3 2 2 0 341 342
343 1 3 2 2 0 342 343
344 1 3 2 2 0 343 344
345 1 3 2 2 0 344 345
346 1 3 2 2 0 345 346
347 1 3 2 2 0 346 347
348 1 3 2 2 0 347 348
349 1 3 2 2 0 348 349
350 1 3 2 2 0 349 350
351 1 3 2 2 0 350 351
352 1 3 2 2 0 351 352
353 1 3 2 2 0 352 353
354 1 3 2 2 0 353 354
355 1 3 2 2 0 354 355
356 1 3 2 2 0 355 356
357 1 3 2 2 0 356 357
358 1 3 2 2 0 357 358
359 1 3 2 2 0 358 359
360 1 3 2 2 0 359 360
361 1 3 2 2 0 360 361
362 1 3 2 2 0 361 362
363 1 3 2 2 0 362 363
364 1 3 2 2 0 363 364
365 1 3 2 2 0 364 365
366 1 3 2 2 0 365 366
367 1 3 2 2 0 366 367
368 1 3 2 2 0 367 368
369 1 3 2 2 0 368 369
370 1 3 2 2 0 369 370
371 1 3 2 2 0 370 371
372 1 3 2 2 0 371 372
373 1 3 2 2 0 372 373
374 1 3 2 2 0 373 374
375 1 3 2 2 0 374 375
376 1 3 2 2 0 375 376
377 1 3 2 2 0 376 377
378 1 3 2 2 0 377 378
379 1 3 2 2 0 378 379
380 1 3 2 2 0 379 380
381 1 3 2 2 0 380 381
382 1 3 2 2 0 381 382
383 1 3 2 2 0 382 383
384 1 3 2 2 0 383 384
385 1 3 2 2 0 384 385
386 1 3 2 2 0 385 386
387 1 3 2 2 0 386 387
388 1 3 2 2 0 387 388
389 1 3 2 2 0 388 389
390 1 3 2 2 0 389 390
391 1 3 2 2 0 390 391
392 1 3 2 2 0 391 392
393 1 3 2 2 0 392 393
394 1 3 2 2 0 393 394
395 1 3 2 2 0 394 395
396 1 3 2 2 0 395 396
397 1 3 2 2 0 396 397
398 1 3 2 2 0 397 398
399 1 3 2 2 0 398 399
400 1 3 2 2 0 399 400
401 1 3 2 2 0 400 401
402 1 3 2 2 0 401 402
403 1 3 2 2 0 402 403
404 1 3 2 2 0 403 404
405 1 3 2 2 0 404 405
406 1 3 2 2 0 405 406
407 1 3 2 2 0 406 407
408 1 3 2 2 0 407 408
409 1 3 2 2 0 408 409
410 1 3 2 2 0 409 410
411 1 3 2 2 0 410 411
412 1 3 2 2 0 411 412
413 1 3 2 2 0 412 413
414 1 3 2 2 0 413 414
415 1 3 2 2 0 414 415
416 1 3 2 2 0 415 416
417 1 3 2 2 0 416 417
418 1 3 2 2 0 417 418
419 1 3 2 2 0 418 419
420 1 3 2 2 0 419 420
421 1 3 2 2 0 420 421
422 1 3 2 2 0 421 422
423 1 3 2 2 0 422 423
424 1 3 2 2 0 423 424
425 1 3 2 2 0 424 425
426 1 3 2 2 0 425 426
427 1 3 2 2 0 426 427
428 1 3 2 2 0 427 428
429 1 3 2 2 0 428 429
430 1 3 2 2 0 429 430
431 1 3 2 2 0 430 431
432 1 3 2 2 0 431 432
433 1 3 2 2 0 432 433
434 1 3 2 2 0 433 434
435 1 3 2 2 0 434 435
436 1 3 2 2 0 435 436
437 1 3 2 2 0 436 437
438 1 3 2 2 0 437 438
439 1 3 2 2 0 438 439
440 1 3 2 2 0 439 440
441 1 3 2 2 0 440 441
442 1 3 2 2 0 441 442
443 1 3 2 2 0 442 443
444 1 3 2 2 0 443 444
445 1 3 2 2 0 444 445
446 1 3 2 2 0 445 446
447 1 3 2 2 0 446 447
448 1 3 2 2 0 447 448
449 1 3 2 2 0 448 449
450 1 3 2 2 0 449 450
451 1 3 2 2 0 450 451
452 1 3 2 2 0 451 452
453 1 3 2 2 0 452 453
454 1 3 2 2 0 453 454
455 1 3 2 2 0 454 455
456 1 3 2 2 0 455 456
457 1 3 2 2 0 456 457
458 1 3 2 2 0 457 458
459 1 3 2 2 0 458 459
460 1 3 2 2 0 459 460
461 1 3 2 2 0 460 461
462 1 3 2 2 0 461 462
463 1 3 2 2 0 462 463
464 1 3 2 2 0 463 464
465 1 3 2 2 0 464 465
466 1 3 2 2 0 465 466
467 1 3 2 2 0 466 467
468 1 3 2 2 0 467 468
469 1 3 2 2 0 468 469
470 1 3 2 2 0 469 470
471 1 3 2 2 0 470 471
472 1 3 2 2 0 471 472
473 1 3 2 2 0 472 473
474 1 3 2 2 0 473 474
475 1 3 2 2 0 474 475
476 1 3 2 2 0 475 476
477 1 3 2 2 0 476 477
478 1 3 2 2 0 477 478
479 1 3 2 2 0 478 479
480 1 3 2 2 0 479 480
481 1 3 2 2 0 480 481
482 1 3 2 2 0 481 482
483 1 3 2 2 0 482 483
484 1 3 2 2 0 483 484
485 1 3 2 2 0 484 485
486 1 3 2 2 0 485 486
487 1 3 2 2 0 486 487
488 1 3 2 2 0 487 488
489 1 3 2 2 0 488 489
490 1 3 2 2 0 489 490
491 1 3 2 2 0 490 491
492 1 3 2 2 0 491 492
493 1 3 2 2 0 492 493
494 1 3 2 2 0 493 494
495 1 3 2 2 0 494 495
496 1 3 2 2 0 495 496
497 1 3 2 2 0 496 497
498 1 3 2 2 0 497 498
499 1 3 2 2 0 498 499
500 1 3 2 2 0 499 500
501 1 3 2 2 0 500 501
502 1 3 2 2 0 501 502
503 1 3 2 2 0 502 503
504 1 3 2 2 0 503 504
505 1 3 2 2 0 504 505
506 1 3 2 2 0 505 506
507 1 3 2 2 0 506 507
508 1 3 2 2 0 507 508
509 1 3 2 2 0 508 509
510 1 3 2 2 0 509 510
511 1 3 2 2 0 510 511
512 1 3 2 2 0 511 512
513 1 3 2 2 0 512 513
514 1 3 2 2 0 513 514
515 1 3 2 2 0 514 515
516 1 3 2 2 0 515 516
517 1 3 2 2 0 516 517
518 1 3 2 2 0 517 518
519 1 3 2 2 0 518 519
520 1 3 2 2 0 519 520
521 1 3 2 2 0 520 521
522 1 3 2 2 0 521 522
523 1 3 2 2 0 522 523
524 1 3 2 2 0 523 524
525 1 3 2 2 0 524 525
526 1 3 2 2 0 525 526
527 1 3 2 2 0 526 527
528 1 3 2 2 0 527 528
529 1 3 2 2 0 528 529
530 1 3 2 2 0 529 530
531 1 3 2 2 0 530 531
532 1 3 2 2 0 531 532
533 1 3 2 2 0 532 533
534 1 3 2 2 0 533 534
535 1 3 2 2 0 534 535
536 1 3 2 2 0 535 536
537 1 3 2 2 0 536 537
538 1 3 2 2 0 537 538
539 1 3 2 2 0 538 539
540 1 3 2 2 0 539 540
541 1 3 2 2 0 540 541
542 1 3 2 2 0 541 542
543 1 3 2 2 0 542 543
544 1 3 2 2 0 543 544
545 1 3 2 2 0 544 545
546 1 3 2 2 0 545 546
547 1 3 2 2 0 546 547
548 1 3 2 2 0 547 548
549 1 3 2 2 0 548 549
550 1 3 2 2 0 549 550
551 1 3 2 2 0 550 551
552 1 3 2 2 0 551 552
553 1 3 2 2 0 552 553
554 1 3 2 2 0 553 554
555 1 3 2 2 0 554 555
556 1 3 2 2 0 555 3
$EndElements
