$MeshFormat
2.2 0 8
$EndMeshFormat
$PhysicalNames
3
0 2 "start"
0 3 "end"
1 1 "air"
$EndPhysicalNames
$Nodes
61
1 0 0 0
2 941825782.5782337 0 0
3 15697096.37630389 0 0
4 31394192.75260779 0 0
5 47091289.12891169 0 0
6 62788385.50521558 0 0
7 78485481.88151947 0 0
8 94182578.25782338 0 0
9 109879674.6341273 0 0
10 125576771.0104312 0 0
11 141273867.3867351 0 0
12 156970963.7630389 0 0
13 172668060.1393428 0 0
14 188365156.5156468 0 0
15 204062252.8919506 0 0
16 219759349.2682545 0 0
17 235456445.6445584 0 0
18 251153542.0208623 0 0
19 266850638.3971662 0 0
20 282547734.7734701 0 0
21 298244831.149774 0 0
22 313941927.5260779 0 0
23 329639023.9023818 0 0
24 345336120.2786857 0 0
25 361033216.6549896 0 0
26 376730313.0312935 0 0
27 392427409.4075974 0 0
28 408124505.7839013 0 0
29 423821602.1602052 0 0
30 439518698.5365091 0 0
31 455215794.9128129 0 0
32 470912891.2891169 0 0
33 486609987.6654208 0 0
34 502307084.0417246 0 0
35 518004180.4180286 0 0
36 533701276.7943324 0 0
37 549398373.1706364 0 0
38 565095469.5469402 0 0
39 580792565.9232441 0 0
40 596489662.299548 0 0
41 612186758.6758519 0 0
42 627883855.0521557 0 0
43 643580951.4284598 0 0
44 659278047.8047636 0 0
45 674975144.1810675 0 0
46 690672240.5573714 0 0
47 706369336.9336753 0 0
48 722066433.3099792 0 0
49 737763529.6862831 0 0
50 753460626.062587 0 0
51 769157722.4388908 0 0
52 784854818.8151948 0 0
53 800551915.1914986 0 0
54 816249011.5678025 0 0
55 831946107.9441065 0 0
56 847643204.3204104 0 0
57 863340300.6967142 0 0
58 879037397.0730182 0 0
59 894734493.449322 0 0
60 910431589.8256259 0 0
61 926128686.2019298 0 0
$EndNodes
$Elements
62
1 15 2 2 1 1
2 15 2 3 2 2
3 1 2 1 1 1 3
4 1 2 1 1 3 4
5 1 2 1 1 4 5
6 1 2 1 1 5 6
7 1 2 1 1 6 7
8 1 2 1 1 7 8
9 1 2 1 1 8 9
10 1 2 1 1 9 10
11 1 2 1 1 10 11
12 1 2 1 1 11 12
13 1 2 1 1 12 13
14 1 2 1 1 13 14
15 1 2 1 1 14 15
16 1 2 1 1 15 16
17 1 2 1 1 16 17
18 1 2 1 1 17 18
19 1 2 1 1 18 19
20 1 2 1 1 19 20
21 1 2 1 1 20 21
22 1 2 1 1 21 22
23 1 2 1 1 22 23
24 1 2 1 1 23 24
25 1 2 1 1 24 25
26 1 2 1 1 25 26
27 1 2 1 1 26 27
28 1 2 1 1 27 28
29 1 2 1 1 28 29
30 1 2 1 1 29 30
31 1 2 1 1 30 31
32 1 2 1 1 31 32
33 1 2 1 1 32 33
34 1 2 1 1 33 34
35 1 2 1 1 34 35
36 1 2 1 1 35 36
37 1 2 1 1 36 37
38 1 2 1 1 37 38
39 1 2 1 1 38 39
40 1 2 1 1 39 40
41 1 2 1 1 40 41
42 1 2 1 1 41 42
43 1 2 1 1 42 43
44 1 2 1 1 43 44
45 1 2 1 1 44 45
46 1 2 1 1 45 46
47 1 2 1 1 46 47
48 1 2 1 1 47 48
49 1 2 1 1 48 49
50 1 2 1 1 49 50
51 1 2 1 1 50 51
52 1 2 1 1 51 52
53 1 2 1 1 52 53
54 1 2 1 1 53 54
55 1 2 1 1 54 55
56 1 2 1 1 55 56
57 1 2 1 1 56 57
58 1 2 1 1 57 58
59 1 2 1 1 58 59
60 1 2 1 1 59 60
61 1 2 1 1 60 61
62 1 2 1 1 61 2
$EndElements
