$MeshFormat
2.1 0 8
$EndMeshFormat
$PhysicalNames
8
0 8 "source"
1 1 "pml"
1 2 "air"
1 3 "d1"
1 4 "d2"
1 5 "d3"
1 6 "d4"
1 7 "d5"
$EndPhysicalNames
$Nodes
481
1 0 0 0
2 300 0 0
3 350 0 0
4 460 0 0
5 495 0 0
6 715 0 0
7 722 0 0
8 922 0 0
9 1222 0 0
10 5 0 0
11 10 0 0
12 15 0 0
13 20 0 0
14 25 0 0
15 30 0 0
16 35 0 0
17 40 0 0
18 45 0 0
19 50 0 0
20 54.99999999999999 0 0
21 60 0 0
22 65 0 0
23 70 0 0
24 75 0 0
25 80 0 0
26 85 0 0
27 90 0 0
28 95 0 0
29 100 0 0
30 105 0 0
31 110 0 0
32 115 0 0
33 120 0 0
34 125 0 0
35 130 0 0
36 135 0 0
37 140 0 0
38 145 0 0
39 150 0 0
40 155 0 0
41 160 0 0
42 165 0 0
43 170 0 0
44 175 0 0
45 180 0 0
46 185 0 0
47 190 0 0
48 195 0 0
49 200 0 0
50 205 0 0
51 210 0 0
52 215 0 0
53 220 0 0
54 225 0 0
55 230 0 0
56 235 0 0
57 240 0 0
58 245 0 0
59 250 0 0
60 255 0 0
61 260 0 0
62 265 0 0
63 270 0 0
64 275 0 0
65 280 0 0
66 285 0 0
67 290 0 0
68 295 0 0
69 300.8333333333333 0 0
70 301.6666666666667 0 0
71 302.5 0 0
72 303.3333333333333 0 0
73 304.1666666666667 0 0
74 305 0 0
75 305.8333333333333 0 0
76 306.6666666666667 0 0
77 307.5 0 0
78 308.3333333333333 0 0
79 309.1666666666667 0 0
80 310 0 0
81 310.8333333333333 0 0
82 311.6666666666667 0 0
83 312.5 0 0
84 313.3333333333333 0 0
85 314.1666666666667 0 0
86 315 0 0
87 315.8333333333333 0 0
88 316.6666666666667 0 0
89 317.5 0 0
90 318.3333333333333 0 0
91 319.1666666666667 0 0
92 320 0 0
93 320.8333333333333 0 0
94 321.6666666666667 0 0
95 322.5 0 0
96 323.3333333333333 0 0
97 324.1666666666667 0 0
98 325 0 0
99 325.8333333333333 0 0
100 326.6666666666667 0 0
101 327.5 0 0
102 328.3333333333333 0 0
103 329.1666666666667 0 0
104 330 0 0
105 330.8333333333333 0 0
106 331.6666666666667 0 0
107 332.5 0 0
108 333.3333333333333 0 0
109 334.1666666666667 0 0
110 335 0 0
111 335.8333333333333 0 0
112 336.6666666666667 0 0
113 337.5 0 0
114 338.3333333333333 0 0
115 339.1666666666667 0 0
116 340 0 0
117 340.8333333333333 0 0
118 341.6666666666667 0 0
119 342.5 0 0
120 343.3333333333333 0 0
121 344.1666666666667 0 0
122 345 0 0
123 345.8333333333333 0 0
124 346.6666666666667 0 0
125 347.5 0 0
126 348.3333333333333 0 0
127 349.1666666666667 0 0
128 351.8333333333333 0 0
129 353.6666666666667 0 0
130 355.5 0 0
131 357.3333333333333 0 0
132 359.1666666666667 0 0
133 361 0 0
134 362.8333333333333 0 0
135 364.6666666666667 0 0
136 366.5 0 0
137 368.3333333333333 0 0
138 370.1666666666667 0 0
139 372 0 0
140 373.8333333333333 0 0
141 375.6666666666667 0 0
142 377.5 0 0
143 379.3333333333333 0 0
144 381.1666666666667 0 0
145 383 0 0
146 384.8333333333333 0 0
147 386.6666666666667 0 0
148 388.5 0 0
149 390.3333333333333 0 0
150 392.1666666666667 0 0
151 394 0 0
152 395.8333333333333 0 0
153 397.6666666666667 0 0
154 399.5 0 0
155 401.3333333333333 0 0
156 403.1666666666667 0 0
157 405 0 0
158 406.8333333333333 0 0
159 408.6666666666667 0 0
160 410.5 0 0
161 412.3333333333333 0 0
162 414.1666666666667 0 0
163 416 0 0
164 417.8333333333334 0 0
165 419.6666666666666 0 0
166 421.5 0 0
167 423.3333333333333 0 0
168 425.1666666666667 0 0
169 427 0 0
170 428.8333333333333 0 0
171 430.6666666666666 0 0
172 432.5 0 0
173 434.3333333333334 0 0
174 436.1666666666667 0 0
175 438 0 0
176 439.8333333333333 0 0
177 441.6666666666667 0 0
178 443.5 0 0
179 445.3333333333334 0 0
180 447.1666666666666 0 0
181 449 0 0
182 450.8333333333333 0 0
183 452.6666666666667 0 0
184 454.5 0 0
185 456.3333333333333 0 0
186 458.1666666666666 0 0
187 460.5833333333333 0 0
188 461.1666666666667 0 0
189 461.75 0 0
190 462.3333333333333 0 0
191 462.9166666666667 0 0
192 463.5 0 0
193 464.0833333333333 0 0
194 464.6666666666667 0 0
195 465.25 0 0
196 465.8333333333333 0 0
197 466.4166666666667 0 0
198 467 0 0
199 467.5833333333333 0 0
200 468.1666666666667 0 0
201 468.75 0 0
202 469.3333333333333 0 0
203 469.9166666666667 0 0
204 470.5 0 0
205 471.0833333333333 0 0
206 471.6666666666667 0 0
207 472.25 0 0
208 472.8333333333333 0 0
209 473.4166666666667 0 0
210 474 0 0
211 474.5833333333333 0 0
212 475.1666666666667 0 0
213 475.75 0 0
214 476.3333333333333 0 0
215 476.9166666666667 0 0
216 477.5 0 0
217 478.0833333333333 0 0
218 478.6666666666667 0 0
219 479.25 0 0
220 479.8333333333333 0 0
221 480.4166666666667 0 0
222 481 0 0
223 481.5833333333333 0 0
224 482.1666666666667 0 0
225 482.75 0 0
226 483.3333333333333 0 0
227 483.9166666666667 0 0
228 484.5 0 0
229 485.0833333333333 0 0
230 485.6666666666667 0 0
231 486.25 0 0
232 486.8333333333333 0 0
233 487.4166666666667 0 0
234 488 0 0
235 488.5833333333333 0 0
236 489.1666666666667 0 0
237 489.75 0 0
238 490.3333333333333 0 0
239 490.9166666666667 0 0
240 491.5 0 0
241 492.0833333333333 0 0
242 492.6666666666667 0 0
243 493.25 0 0
244 493.8333333333333 0 0
245 494.4166666666667 0 0
246 498.6666666666667 0 0
247 502.3333333333333 0 0
248 506 0 0
249 509.6666666666667 0 0
250 513.3333333333334 0 0
251 517 0 0
252 520.6666666666666 0 0
253 524.3333333333334 0 0
254 528 0 0
255 531.6666666666666 0 0
256 535.3333333333334 0 0
257 539 0 0
258 542.6666666666666 0 0
259 546.3333333333334 0 0
260 550 0 0
261 553.6666666666666 0 0
262 557.3333333333334 0 0
263 561 0 0
264 564.6666666666666 0 0
265 568.3333333333334 0 0
266 572 0 0
267 575.6666666666666 0 0
268 579.3333333333334 0 0
269 583 0 0
270 586.6666666666666 0 0
271 590.3333333333334 0 0
272 594 0 0
273 597.6666666666666 0 0
274 601.3333333333334 0 0
275 605 0 0
276 608.6666666666666 0 0
277 612.3333333333334 0 0
278 616 0 0
279 619.6666666666666 0 0
280 623.3333333333334 0 0
281 627 0 0
282 630.6666666666667 0 0
283 634.3333333333333 0 0
284 638 0 0
285 641.6666666666666 0 0
286 645.3333333333334 0 0
287 649 0 0
288 652.6666666666666 0 0
289 656.3333333333333 0 0
290 660 0 0
291 663.6666666666667 0 0
292 667.3333333333334 0 0
293 671 0 0
294 674.6666666666666 0 0
295 678.3333333333334 0 0
296 682 0 0
297 685.6666666666667 0 0
298 689.3333333333333 0 0
299 693 0 0
300 696.6666666666666 0 0
301 700.3333333333334 0 0
302 704 0 0
303 707.6666666666666 0 0
304 711.3333333333333 0 0
305 715.1166666666667 0 0
306 715.2333333333333 0 0
307 715.35 0 0
308 715.4666666666667 0 0
309 715.5833333333334 0 0
310 715.7 0 0
311 715.8166666666667 0 0
312 715.9333333333333 0 0
313 716.05 0 0
314 716.1666666666666 0 0
315 716.2833333333333 0 0
316 716.4 0 0
317 716.5166666666667 0 0
318 716.6333333333333 0 0
319 716.75 0 0
320 716.8666666666667 0 0
321 716.9833333333333 0 0
322 717.1 0 0
323 717.2166666666667 0 0
324 717.3333333333334 0 0
325 717.45 0 0
326 717.5666666666667 0 0
327 717.6833333333333 0 0
328 717.8 0 0
329 717.9166666666666 0 0
330 718.0333333333333 0 0
331 718.15 0 0
332 718.2666666666667 0 0
333 718.3833333333333 0 0
334 718.5 0 0
335 718.6166666666667 0 0
336 718.7333333333333 0 0
337 718.85 0 0
338 718.9666666666667 0 0
339 719.0833333333334 0 0
340 719.2 0 0
341 719.3166666666667 0 0
342 719.4333333333333 0 0
343 719.55 0 0
344 719.6666666666666 0 0
345 719.7833333333333 0 0
346 719.9 0 0
347 720.0166666666667 0 0
348 720.1333333333333 0 0
349 720.25 0 0
350 720.3666666666667 0 0
351 720.4833333333333 0 0
352 720.6 0 0
353 720.7166666666667 0 0
354 720.8333333333334 0 0
355 720.95 0 0
356 721.0666666666667 0 0
357 721.1833333333333 0 0
358 721.3 0 0
359 721.4166666666666 0 0
360 721.5333333333333 0 0
361 721.65 0 0
362 721.7666666666667 0 0
363 721.8833333333333 0 0
364 725.3333333333334 0 0
365 728.6666666666666 0 0
366 732 0 0
367 735.3333333333334 0 0
368 738.6666666666666 0 0
369 742 0 0
370 745.3333333333334 0 0
371 748.6666666666666 0 0
372 752 0 0
373 755.3333333333334 0 0
374 758.6666666666666 0 0
375 762 0 0
376 765.3333333333334 0 0
377 768.6666666666666 0 0
378 772 0 0
379 775.3333333333334 0 0
380 778.6666666666666 0 0
381 782 0 0
382 785.3333333333334 0 0
383 788.6666666666666 0 0
384 792 0 0
385 795.3333333333334 0 0
386 798.6666666666666 0 0
387 802 0 0
388 805.3333333333334 0 0
389 808.6666666666666 0 0
390 812 0 0
391 815.3333333333334 0 0
392 818.6666666666666 0 0
393 822 0 0
394 825.3333333333334 0 0
395 828.6666666666666 0 0
396 832 0 0
397 835.3333333333334 0 0
398 838.6666666666666 0 0
399 842 0 0
400 845.3333333333334 0 0
401 848.6666666666666 0 0
402 852 0 0
403 855.3333333333333 0 0
404 858.6666666666666 0 0
405 862 0 0
406 865.3333333333334 0 0
407 868.6666666666666 0 0
408 872 0 0
409 875.3333333333334 0 0
410 878.6666666666666 0 0
411 882 0 0
412 885.3333333333334 0 0
413 888.6666666666667 0 0
414 892 0 0
415 895.3333333333334 0 0
416 898.6666666666666 0 0
417 902 0 0
418 905.3333333333333 0 0
419 908.6666666666666 0 0
420 912 0 0
421 915.3333333333334 0 0
422 918.6666666666666 0 0
423 927 0 0
424 932 0 0
425 937 0 0
426 942 0 0
427 947 0 0
428 952 0 0
429 957 0 0
430 962 0 0
431 967 0 0
432 972 0 0
433 977 0 0
434 982 0 0
435 987 0 0
436 992 0 0
437 997 0 0
438 1002 0 0
439 1007 0 0
440 1012 0 0
441 1017 0 0
442 1022 0 0
443 1027 0 0
444 1032 0 0
445 1037 0 0
446 1042 0 0
447 1047 0 0
448 1052 0 0
449 1057 0 0
450 1062 0 0
451 1067 0 0
452 1072 0 0
453 1077 0 0
454 1082 0 0
455 1087 0 0
456 1092 0 0
457 1097 0 0
458 1102 0 0
459 1107 0 0
460 1112 0 0
461 1117 0 0
462 1122 0 0
463 1127 0 0
464 1132 0 0
465 1137 0 0
466 1142 0 0
467 1147 0 0
468 1152 0 0
469 1157 0 0
470 1162 0 0
471 1167 0 0
472 1172 0 0
473 1177 0 0
474 1182 0 0
475 1187 0 0
476 1192 0 0
477 1197 0 0
478 1202 0 0
479 1207 0 0
480 1212 0 0
481 1217 0 0
$EndNodes
$Elements
481
1 15 3 8 2 0 2
2 1 3 1 1 0 1 10
3 1 3 1 1 0 10 11
4 1 3 1 1 0 11 12
5 1 3 1 1 0 12 13
6 1 3 1 1 0 13 14
7 1 3 1 1 0 14 15
8 1 3 1 1 0 15 16
9 1 3 1 1 0 16 17
10 1 3 1 1 0 17 18
11 1 3 1 1 0 18 19
12 1 3 1 1 0 19 20
13 1 3 1 1 0 20 21
14 1 3 1 1 0 21 22
15 1 3 1 1 0 22 23
16 1 3 1 1 0 23 24
17 1 3 1 1 0 24 25
18 1 3 1 1 0 25 26
19 1 3 1 1 0 26 27
20 1 3 1 1 0 27 28
21 1 3 1 1 0 28 29
22 1 3 1 1 0 29 30
23 1 3 1 1 0 30 31
24 1 3 1 1 0 31 32
25 1 3 1 1 0 32 33
26 1 3 1 1 0 33 34
27 1 3 1 1 0 34 35
28 1 3 1 1 0 35 36
29 1 3 1 1 0 36 37
30 1 3 1 1 0 37 38
31 1 3 1 1 0 38 39
32 1 3 1 1 0 39 40
33 1 3 1 1 0 40 41
34 1 3 1 1 0 41 42
35 1 3 1 1 0 42 43
36 1 3 1 1 0 43 44
37 1 3 1 1 0 44 45
38 1 3 1 1 0 45 46
39 1 3 1 1 0 46 47
40 1 3 1 1 0 47 48
41 1 3 1 1 0 48 49
42 1 3 1 1 0 49 50
43 1 3 1 1 0 50 51
44 1 3 1 1 0 51 52
45 1 3 1 1 0 52 53
46 1 3 1 1 0 53 54
47 1 3 1 1 0 54 55
48 1 3 1 1 0 55 56
49 1 3 1 1 0 56 57
50 1 3 1 1 0 57 58
51 1 3 1 1 0 58 59
52 1 3 1 1 0 59 60
53 1 3 1 1 0 60 61
54 1 3 1 1 0 61 62
55 1 3 1 1 0 62 63
56 1 3 1 1 0 63 64
57 1 3 1 1 0 64 65
58 1 3 1 1 0 65 66
59 1 3 1 1 0 66 67
60 1 3 1 1 0 67 68
61 1 3 1 1 0 68 2
62 1 3 2 2 0 2 69
63 1 3 2 2 0 69 70
64 1 3 2 2 0 70 71
65 1 3 2 2 0 71 72
66 1 3 2 2 0 72 73
67 1 3 2 2 0 73 74
68 1 3 2 2 0 74 75
69 1 3 2 2 0 75 76
70 1 3 2 2 0 76 77
71 1 3 2 2 0 77 78
72 1 3 2 2 0 78 79
73 1 3 2 2 0 79 80
74 1 3 2 2 0 80 81
75 1 3 2 2 0 81 82
76 1 3 2 2 0 82 83
77 1 3 2 2 0 83 84
78 1 3 2 2 0 84 85
79 1 3 2 2 0 85 86
80 1 3 2 2 0 86 87
81 1 3 2 2 0 87 88
82 1 3 2 2 0 88 89
83 1 3 2 2 0 89 90
84 1 3 2 2 0 90 91
85 1 3 2 2 0 91 92
86 1 3 2 2 0 92 93
87 1 3 2 2 0 93 94
88 1 3 2 2 0 94 95
89 1 3 2 2 0 95 96
90 1 3 2 2 0 96 97
91 1 3 2 2 0 97 98
92 1 3 2 2 0 98 99
93 1 3 2 2 0 99 100
94 1 3 2 2 0 100 101
95 1 3 2 2 0 101 102
96 1 3 2 2 0 102 103
97 1 3 2 2 0 103 104
98 1 3 2 2 0 104 105
99 1 3 2 2 0 105 106
100 1 3 2 2 0 106 107
101 1 3 2 2 0 107 108
102 1 3 2 2 0 108 109
103 1 3 2 2 0 109 110
104 1 3 2 2 0 110 111
105 1 3 2 2 0 111 112
106 1 3 2 2 0 112 113
107 1 3 2 2 0 113 114
108 1 3 2 2 0 114 115
109 1 3 2 2 0 115 116
110 1 3 2 2 0 116 117
111 1 3 2 2 0 117 118
112 1 3 2 2 0 118 119
113 1 3 2 2 0 119 120
114 1 3 2 2 0 120 121
115 1 3 2 2 0 121 122
116 1 3 2 2 0 122 123
117 1 3 2 2 0 123 124
118 1 3 2 2 0 124 125
119 1 3 2 2 0 125 126
120 1 3 2 2 0 126 127
121 1 3 2 2 0 127 3
122 1 3 3 3 0 3 128
123 1 3 3 3 0 128 129
124 1 3 3 3 0 129 130
125 1 3 3 3 0 130 131
126 1 3 3 3 0 131 132
127 1 3 3 3 0 132 133
128 1 3 3 3 0 133 134
129 1 3 3 3 0 134 135
130 1 3 3 3 0 135 136
131 1 3 3 3 0 136 137
132 1 3 3 3 0 137 138
133 1 3 3 3 0 138 139
134 1 3 3 3 0 139 140
135 1 3 3 3 0 140 141
136 1 3 3 3 0 141 142
137 1 3 3 3 0 142 143
138 1 3 3 3 0 143 144
139 1 3 3 3 0 144 145
140 1 3 3 3 0 145 146
141 1 3 3 3 0 146 147
142 1 3 3 3 0 147 148
143 1 3 3 3 0 148 149
144 1 3 3 3 0 149 150
145 1 3 3 3 0 150 151
146 1 3 3 3 0 151 152
147 1 3 3 3 0 152 153
148 1 3 3 3 0 153 154
149 1 3 3 3 0 154 155
150 1 3 3 3 0 155 156
151 1 3 3 3 0 156 157
152 1 3 3 3 0 157 158
153 1 3 3 3 0 158 159
154 1 3 3 3 0 159 160
155 1 3 3 3 0 160 161
156 1 3 3 3 0 161 162
157 1 3 3 3 0 162 163
158 1 3 3 3 0 163 164
159 1 3 3 3 0 164 165
160 1 3 3 3 0 165 166
161 1 3 3 3 0 166 167
162 1 3 3 3 0 167 168
163 1 3 3 3 0 168 169
164 1 3 3 3 0 169 170
165 1 3 3 3 0 170 171
166 1 3 3 3 0 171 172
167 1 3 3 3 0 172 173
168 1 3 3 3 0 173 174
169 1 3 3 3 0 174 175
170 1 3 3 3 0 175 176
171 1 3 3 3 0 176 177
172 1 3 3 3 0 177 178
173 1 3 3 3 0 178 179
174 1 3 3 3 0 179 180
175 1 3 3 3 0 180 181
176 1 3 3 3 0 181 182
177 1 3 3 3 0 182 183
178 1 3 3 3 0 183 184
179 1 3 3 3 0 184 185
180 1 3 3 3 0 185 186
181 1 3 3 3 0 186 4
182 1 3 4 4 0 4 187
183 1 3 4 4 0 187 188
184 1 3 4 4 0 188 189
185 1 3 4 4 0 189 190
186 1 3 4 4 0 190 191
187 1 3 4 4 0 191 192
188 1 3 4 4 0 192 193
189 1 3 4 4 0 193 194
190 1 3 4 4 0 194 195
191 1 3 4 4 0 195 196
192 1 3 4 4 0 196 197
193 1 3 4 4 0 197 198
194 1 3 4 4 0 198 199
195 1 3 4 4 0 199 200
196 1 3 4 4 0 200 201
197 1 3 4 4 0 201 202
198 1 3 4 4 0 202 203
199 1 3 4 4 0 203 204
200 1 3 4 4 0 204 205
201 1 3 4 4 0 205 206
202 1 3 4 4 0 206 207
203 1 3 4 4 0 207 208
204 1 3 4 4 0 208 209
205 1 3 4 4 0 209 210
206 1 3 4 4 0 210 211
207 1 3 4 4 0 211 212
208 1 3 4 4 0 212 213
209 1 3 4 4 0 213 214
210 1 3 4 4 0 214 215
211 1 3 4 4 0 215 216
212 1 3 4 4 0 216 217
213 1 3 4 4 0 217 218
214 1 3 4 4 0 218 219
215 1 3 4 4 0 219 220
216 1 3 4 4 0 220 221
217 1 3 4 4 0 221 222
218 1 3 4 4 0 222 223
219 1 3 4 4 0 223 224
220 1 3 4 4 0 224 225
221 1 3 4 4 0 225 226
222 1 3 4 4 0 226 227
223 1 3 4 4 0 227 228
224 1 3 4 4 0 228 229
225 1 3 4 4 0 229 230
226 1 3 4 4 0 230 231
227 1 3 4 4 0 231 232
228 1 3 4 4 0 232 233
229 1 3 4 4 0 233 234
230 1 3 4 4 0 234 235
231 1 3 4 4 0 235 236
232 1 3 4 4 0 236 237
233 1 3 4 4 0 237 238
234 1 3 4 4 0 238 239
235 1 3 4 4 0 239 240
236 1 3 4 4 0 240 241
237 1 3 4 4 0 241 242
238 1 3 4 4 0 242 243
239 1 3 4 4 0 243 244
240 1 3 4 4 0 244 245
241 1 3 4 4 0 245 5
242 1 3 5 5 0 5 246
243 1 3 5 5 0 246 247
244 1 3 5 5 0 247 248
245 1 3 5 5 0 248 249
246 1 3 5 5 0 249 250
247 1 3 5 5 0 250 251
248 1 3 5 5 0 251 252
249 1 3 5 5 0 252 253
250 1 3 5 5 0 253 254
251 1 3 5 5 0 254 255
252 1 3 5 5 0 255 256
253 1 3 5 5 0 256 257
254 1 3 5 5 0 257 258
255 1 3 5 5 0 258 259
256 1 3 5 5 0 259 260
257 1 3 5 5 0 260 261
258 1 3 5 5 0 261 262
259 1 3 5 5 0 262 263
260 1 3 5 5 0 263 264
261 1 3 5 5 0 264 265
262 1 3 5 5 0 265 266
263 1 3 5 5 0 266 267
264 1 3 5 5 0 267 268
265 1 3 5 5 0 268 269
266 1 3 5 5 0 269 270
267 1 3 5 5 0 270 271
268 1 3 5 5 0 271 272
269 1 3 5 5 0 272 273
270 1 3 5 5 0 273 274
271 1 3 5 5 0 274 275
272 1 3 5 5 0 275 276
273 1 3 5 5 0 276 277
274 1 3 5 5 0 277 278
275 1 3 5 5 0 278 279
276 1 3 5 5 0 279 280
277 1 3 5 5 0 280 281
278 1 3 5 5 0 281 282
279 1 3 5 5 0 282 283
280 1 3 5 5 0 283 284
281 1 3 5 5 0 284 285
282 1 3 5 5 0 285 286
283 1 3 5 5 0 286 287
284 1 3 5 5 0 287 288
285 1 3 5 5 0 288 289
286 1 3 5 5 0 289 290
287 1 3 5 5 0 290 291
288 1 3 5 5 0 291 292
289 1 3 5 5 0 292 293
290 1 3 5 5 0 293 294
291 1 3 5 5 0 294 295
292 1 3 5 5 0 295 296
293 1 3 5 5 0 296 297
294 1 3 5 5 0 297 298
295 1 3 5 5 0 298 299
296 1 3 5 5 0 299 300
297 1 3 5 5 0 300 301
298 1 3 5 5 0 301 302
299 1 3 5 5 0 302 303
300 1 3 5 5 0 303 304
301 1 3 5 5 0 304 6
302 1 3 6 6 0 6 305
303 1 3 6 6 0 305 306
304 1 3 6 6 0 306 307
305 1 3 6 6 0 307 308
306 1 3 6 6 0 308 309
307 1 3 6 6 0 309 310
308 1 3 6 6 0 310 311
309 1 3 6 6 0 311 312
310 1 3 6 6 0 312 313
311 1 3 6 6 0 313 314
312 1 3 6 6 0 314 315
313 1 3 6 6 0 315 316
314 1 3 6 6 0 316 317
315 1 3 6 6 0 317 318
316 1 3 6 6 0 318 319
317 1 3 6 6 0 319 320
318 1 3 6 6 0 320 321
319 1 3 6 6 0 321 322
320 1 3 6 6 0 322 323
321 1 3 6 6 0 323 324
322 1 3 6 6 0 324 325
323 1 3 6 6 0 325 326
324 1 3 6 6 0 326 327
325 1 3 6 6 0 327 328
326 1 3 6 6 0 328 329
327 1 3 6 6 0 329 330
328 1 3 6 6 0 330 331
329 1 3 6 6 0 331 332
330 1 3 6 6 0 332 333
331 1 3 6 6 0 333 334
332 1 3 6 6 0 334 335
333 1 3 6 6 0 335 336
334 1 3 6 6 0 336 337
335 1 3 6 6 0 337 338
336 1 3 6 6 0 338 339
337 1 3 6 6 0 339 340
338 1 3 6 6 0 340 341
339 1 3 6 6 0 341 342
340 1 3 6 6 0 342 343
341 1 3 6 6 0 343 344
342 1 3 6 6 0 344 345
343 1 3 6 6 0 345 346
344 1 3 6 6 0 346 347
345 1 3 6 6 0 347 348
346 1 3 6 6 0 348 349
347 1 3 6 6 0 349 350
348 1 3 6 6 0 350 351
349 1 3 6 6 0 351 352
350 1 3 6 6 0 352 353
351 1 3 6 6 0 353 354
352 1 3 6 6 0 354 355
353 1 3 6 6 0 355 356
354 1 3 6 6 0 356 357
355 1 3 6 6 0 357 358
356 1 3 6 6 0 358 359
357 1 3 6 6 0 359 360
358 1 3 6 6 0 360 361
359 1 3 6 6 0 361 362
360 1 3 6 6 0 362 363
361 1 3 6 6 0 363 7
362 1 3 7 7 0 7 364
363 1 3 7 7 0 364 365
364 1 3 7 7 0 365 366
365 1 3 7 7 0 366 367
366 1 3 7 7 0 367 368
367 1 3 7 7 0 368 369
368 1 3 7 7 0 369 370
369 1 3 7 7 0 370 371
370 1 3 7 7 0 371 372
371 1 3 7 7 0 372 373
372 1 3 7 7 0 373 374
373 1 3 7 7 0 374 375
374 1 3 7 7 0 375 376
375 1 3 7 7 0 376 377
376 1 3 7 7 0 377 378
377 1 3 7 7 0 378 379
378 1 3 7 7 0 379 380
379 1 3 7 7 0 380 381
380 1 3 7 7 0 381 382
381 1 3 7 7 0 382 383
382 1 3 7 7 0 383 384
383 1 3 7 7 0 384 385
384 1 3 7 7 0 385 386
385 1 3 7 7 0 386 387
386 1 3 7 7 0 387 388
387 1 3 7 7 0 388 389
388 1 3 7 7 0 389 390
389 1 3 7 7 0 390 391
390 1 3 7 7 0 391 392
391 1 3 7 7 0 392 393
392 1 3 7 7 0 393 394
393 1 3 7 7 0 394 395
394 1 3 7 7 0 395 396
395 1 3 7 7 0 396 397
396 1 3 7 7 0 397 398
397 1 3 7 7 0 398 399
398 1 3 7 7 0 399 400
399 1 3 7 7 0 400 401
400 1 3 7 7 0 401 402
401 1 3 7 7 0 402 403
402 1 3 7 7 0 403 404
403 1 3 7 7 0 404 405
404 1 3 7 7 0 405 406
405 1 3 7 7 0 406 407
406 1 3 7 7 0 407 408
407 1 3 7 7 0 408 409
408 1 3 7 7 0 409 410
409 1 3 7 7 0 410 411
410 1 3 7 7 0 411 412
411 1 3 7 7 0 412 413
412 1 3 7 7 0 413 414
413 1 3 7 7 0 414 415
414 1 3 7 7 0 415 416
415 1 3 7 7 0 416 417
416 1 3 7 7 0 417 418
417 1 3 7 7 0 418 419
418 1 3 7 7 0 419 420
419 1 3 7 7 0 420 421
420 1 3 7 7 0 421 422
421 1 3 7 7 0 422 8
422 1 3 1 8 0 8 423
423 1 3 1 8 0 423 424
424 1 3 1 8 0 424 425
425 1 3 1 8 0 425 426
426 1 3 1 8 0 426 427
427 1 3 1 8 0 427 428
428 1 3 1 8 0 428 429
429 1 3 1 8 0 429 430
430 1 3 1 8 0 430 431
431 1 3 1 8 0 431 432
432 1 3 1 8 0 432 433
433 1 3 1 8 0 433 434
434 1 3 1 8 0 434 435
435 1 3 1 8 0 435 436
436 1 3 1 8 0 436 437
437 1 3 1 8 0 437 438
438 1 3 1 8 0 438 439
439 1 3 1 8 0 439 440
440 1 3 1 8 0 440 441
441 1 3 1 8 0 441 442
442 1 3 1 8 0 442 443
443 1 3 1 8 0 443 444
444 1 3 1 8 0 444 445
445 1 3 1 8 0 445 446
446 1 3 1 8 0 446 447
447 1 3 1 8 0 447 448
448 1 3 1 8 0 448 449
449 1 3 1 8 0 449 450
450 1 3 1 8 0 450 451
451 1 3 1 8 0 451 452
452 1 3 1 8 0 452 453
453 1 3 1 8 0 453 454
454 1 3 1 8 0 454 455
455 1 3 1 8 0 455 456
456 1 3 1 8 0 456 457
457 1 3 1 8 0 457 458
458 1 3 1 8 0 458 459
459 1 3 1 8 0 459 460
460 1 3 1 8 0 460 461
461 1 3 1 8 0 461 462
462 1 3 1 8 0 462 463
463 1 3 1 8 0 463 464
464 1 3 1 8 0 464 465
465 1 3 1 8 0 465 466
466 1 3 1 8 0 466 467
467 1 3 1 8 0 467 468
468 1 3 1 8 0 468 469
469 1 3 1 8 0 469 470
470 1 3 1 8 0 470 471
471 1 3 1 8 0 471 472
472 1 3 1 8 0 472 473
473 1 3 1 8 0 473 474
474 1 3 1 8 0 474 475
475 1 3 1 8 0 475 476
476 1 3 1 8 0 476 477
477 1 3 1 8 0 477 478
478 1 3 1 8 0 478 479
479 1 3 1 8 0 479 480
480 1 3 1 8 0 480 481
481 1 3 1 8 0 481 9
$EndElements
