$MeshFormat
4.1 0 8
$EndMeshFormat
$PhysicalNames
6
0 5 "substrate"
0 6 "top"
1 1 "nGaN"
1 2 "well"
1 3 "barrier"
1 4 "pGaN"
$EndPhysicalNames
$Entities
14 13 0 0
1 0 0 0 1 5 
2 93 0 0 0 
3 100 0 0 0 
4 103 0 0 0 
5 110 0 0 0 
6 113 0 0 0 
7 120 0 0 0 
8 123 0 0 0 
9 130 0 0 0 
10 133 0 0 0 
11 140 0 0 0 
12 143 0 0 0 
13 150 0 0 0 
14 175 0 0 1 6 
1 0 0 0 93 0 0 1 1 2 1 -2 
2 93 0 0 100 0 0 1 3 2 2 -3 
3 100 0 0 103 0 0 1 2 2 3 -4 
4 103 0 0 110 0 0 1 3 2 4 -5 
5 110 0 0 113 0 0 1 2 2 5 -6 
6 113 0 0 120 0 0 1 3 2 6 -7 
7 120 0 0 123 0 0 1 2 2 7 -8 
8 123 0 0 130 0 0 1 3 2 8 -9 
9 130 0 0 133 0 0 1 2 2 9 -10 
10 133 0 0 140 0 0 1 3 2 10 -11 
11 140 0 0 143 0 0 1 2 2 11 -12 
12 143 0 0 150 0 0 1 3 2 12 -13 
13 150 0 0 175 0 0 1 4 2 13 -14 
$EndEntities
$Nodes
27 1351 1 1351
0 1 0 1
1
0 0 0
0 2 0 1
2
93 0 0
0 3 0 1
3
100 0 0
0 4 0 1
4
103 0 0
0 5 0 1
5
110 0 0
0 6 0 1
6
113 0 0
0 7 0 1
7
120 0 0
0 8 0 1
8
123 0 0
0 9 0 1
9
130 0 0
0 10 0 1
10
133 0 0
0 11 0 1
11
140 0 0
0 12 0 1
12
143 0 0
0 13 0 1
13
150 0 0
0 14 0 1
14
175 0 0
1 1 0 185
15
16
17
18
19
20
21
22
23
24
25
26
27
28
29
30
31
32
33
34
35
36
37
38
39
40
41
42
43
44
45
46
47
48
49
50
51
52
53
54
55
56
57
58
59
60
61
62
63
64
65
66
67
68
69
70
71
72
73
74
75
76
77
78
79
80
81
82
83
84
85
86
87
88
89
90
91
92
93
94
95
96
97
98
99
100
101
102
103
104
105
106
107
108
109
110
111
112
113
114
115
116
117
118
119
120
121
122
123
124
125
126
127
128
129
130
131
132
133
134
135
136
137
138
139
140
141
142
143
144
145
146
147
148
149
150
151
152
153
154
155
156
157
158
159
160
161
162
163
164
165
166
167
168
169
170
171
172
173
174
175
176
177
178
179
180
181
182
183
184
185
186
187
188
189
190
191
192
193
194
195
196
197
198
199
0.4999999999994904 0 0
0.9999999999989992 0 0
1.499999999998526 0 0
1.99999999999808 0 0
2.499999999997596 0 0
2.999999999997068 0 0
3.499999999996442 0 0
3.999999999995774 0 0
4.499999999995087 0 0
4.999999999994404 0 0
5.499999999993817 0 0
5.999999999993341 0 0
6.499999999993014 0 0
6.999999999992797 0 0
7.499999999992589 0 0
7.999999999992379 0 0
8.499999999991932 0 0
8.999999999991349 0 0
9.499999999990665 0 0
9.999999999989981 0 0
10.4999999999893 0 0
10.99999999998861 0 0
11.49999999998793 0 0
11.99999999998725 0 0
12.49999999998656 0 0
12.99999999998588 0 0
13.49999999998519 0 0
13.99999999998451 0 0
14.49999999998382 0 0
14.99999999998314 0 0
15.49999999998245 0 0
15.99999999998177 0 0
16.49999999998109 0 0
16.9999999999804 0 0
17.49999999997972 0 0
17.99999999997903 0 0
18.49999999997835 0 0
18.99999999997766 0 0
19.49999999997698 0 0
19.99999999997629 0 0
20.49999999997561 0 0
20.99999999997492 0 0
21.49999999997424 0 0
21.99999999997356 0 0
22.49999999997287 0 0
22.99999999997219 0 0
23.4999999999715 0 0
23.99999999997082 0 0
24.49999999997013 0 0
24.99999999996945 0 0
25.49999999996876 0 0
25.99999999996808 0 0
26.4999999999674 0 0
26.99999999996671 0 0
27.49999999996603 0 0
27.99999999996534 0 0
28.49999999996466 0 0
28.99999999996398 0 0
29.49999999996329 0 0
29.99999999996261 0 0
30.49999999996192 0 0
30.99999999996124 0 0
31.49999999996055 0 0
31.99999999995981 0 0
32.49999999995817 0 0
32.99999999995595 0 0
33.49999999995335 0 0
33.99999999995075 0 0
34.49999999994816 0 0
34.99999999994556 0 0
35.49999999994296 0 0
35.99999999994036 0 0
36.49999999993778 0 0
36.99999999993518 0 0
37.49999999993258 0 0
37.99999999992998 0 0
38.49999999992738 0 0
38.9999999999248 0 0
39.49999999992219 0 0
39.99999999991959 0 0
40.499999999917 0 0
40.99999999991441 0 0
41.49999999991181 0 0
41.99999999990921 0 0
42.49999999990661 0 0
42.99999999990402 0 0
43.49999999990143 0 0
43.99999999989883 0 0
44.49999999989623 0 0
44.99999999989364 0 0
45.49999999989104 0 0
45.99999999988887 0 0
46.49999999988724 0 0
46.99999999988751 0 0
47.4999999998883 0 0
47.99999999988953 0 0
48.49999999989076 0 0
48.99999999989199 0 0
49.49999999989321 0 0
49.99999999989444 0 0
50.49999999989566 0 0
50.99999999989689 0 0
51.49999999989812 0 0
51.99999999989934 0 0
52.49999999990057 0 0
52.9999999999018 0 0
53.49999999990303 0 0
53.99999999990426 0 0
54.49999999990549 0 0
54.99999999990671 0 0
55.49999999990794 0 0
55.99999999990917 0 0
56.4999999999104 0 0
56.99999999991162 0 0
57.49999999991284 0 0
57.99999999991407 0 0
58.49999999991531 0 0
58.99999999991653 0 0
59.49999999991776 0 0
59.99999999991899 0 0
60.49999999992021 0 0
60.99999999992144 0 0
61.49999999992267 0 0
61.9999999999239 0 0
62.49999999992513 0 0
62.99999999992635 0 0
63.49999999992757 0 0
63.9999999999288 0 0
64.49999999993004 0 0
64.99999999993128 0 0
65.4999999999325 0 0
65.99999999993372 0 0
66.49999999993494 0 0
66.99999999993618 0 0
67.4999999999374 0 0
67.99999999993862 0 0
68.49999999993986 0 0
68.99999999994108 0 0
69.49999999994232 0 0
69.99999999994354 0 0
70.49999999994476 0 0
70.99999999994598 0 0
71.49999999994722 0 0
71.99999999994844 0 0
72.49999999994968 0 0
72.9999999999509 0 0
73.49999999995212 0 0
73.99999999995336 0 0
74.4999999999546 0 0
74.9999999999558 0 0
75.49999999995703 0 0
75.99999999995826 0 0
76.4999999999595 0 0
76.99999999996072 0 0
77.49999999996196 0 0
77.99999999996318 0 0
78.49999999996442 0 0
78.99999999996562 0 0
79.49999999996686 0 0
79.99999999996808 0 0
80.49999999996932 0 0
80.99999999997054 0 0
81.49999999997178 0 0
81.999999999973 0 0
82.49999999997422 0 0
82.99999999997546 0 0
83.49999999997668 0 0
83.9999999999779 0 0
84.49999999997912 0 0
84.99999999998036 0 0
85.49999999998158 0 0
85.99999999998282 0 0
86.49999999998406 0 0
86.99999999998528 0 0
87.49999999998649 0 0
87.99999999998772 0 0
88.49999999998896 0 0
88.99999999999018 0 0
89.49999999999142 0 0
89.99999999999264 0 0
90.49999999999388 0 0
90.9999999999951 0 0
91.49999999999632 0 0
91.99999999999754 0 0
92.49999999999878 0 0
1 2 0 35
200
201
202
203
204
205
206
207
208
209
210
211
212
213
214
215
216
217
218
219
220
221
222
223
224
225
226
227
228
229
230
231
232
233
234
93.48189659111162 0 0
93.93393572320909 0 0
94.35796739877551 0 0
94.75572686269012 0 0
95.12884189155437 0 0
95.47883939810922 0 0
95.80715172062681 0 0
96.11512244594275 0 0
96.40401186611653 0 0
96.67500226710882 0 0
96.92920257460706 0 0
97.1676531069712 0 0
97.39132970450025 0 0
97.60114769044806 0 0
97.79796578442422 0 0
97.98258936766494 0 0
98.15577400215615 0 0
98.3182284675641 0 0
98.47061754478072 0 0
98.61356486511914 0 0
98.74765548994129 0 0
98.87343807722445 0 0
98.99142740634117 0 0
99.10210633916076 0 0
99.20592781216375 0 0
99.30331670097279 0 0
99.39467156037912 0 0
99.48036623613372 0 0
99.56075143877737 0 0
99.63615610518363 0 0
99.70688886637863 0 0
99.77323914267333 0 0
99.83547848401606 0 0
99.89386158916855 0 0
99.94862738268807 0 0
1 3 0 59
235
236
237
238
239
240
241
242
243
244
245
246
247
248
249
250
251
252
253
254
255
256
257
258
259
260
261
262
263
264
265
266
267
268
269
270
271
272
273
274
275
276
277
278
279
280
281
282
283
284
285
286
287
288
289
290
291
292
293
100.05 0 0
100.1 0 0
100.15 0 0
100.2 0 0
100.25 0 0
100.3 0 0
100.35 0 0
100.4 0 0
100.45 0 0
100.5 0 0
100.55 0 0
100.6 0 0
100.65 0 0
100.7 0 0
100.75 0 0
100.8 0 0
100.85 0 0
100.9 0 0
100.95 0 0
101 0 0
101.05 0 0
101.1 0 0
101.15 0 0
101.2 0 0
101.25 0 0
101.3 0 0
101.35 0 0
101.4 0 0
101.45 0 0
101.5 0 0
101.55 0 0
101.6 0 0
101.65 0 0
101.7 0 0
101.75 0 0
101.8 0 0
101.85 0 0
101.9 0 0
101.95 0 0
102 0 0
102.05 0 0
102.1 0 0
102.15 0 0
102.2 0 0
102.25 0 0
102.3 0 0
102.35 0 0
102.4 0 0
102.45 0 0
102.5 0 0
102.55 0 0
102.6 0 0
102.65 0 0
102.7 0 0
102.75 0 0
102.8 0 0
102.85 0 0
102.9 0 0
102.95 0 0
1 4 0 139
294
295
296
297
298
299
300
301
302
303
304
305
306
307
308
309
310
311
312
313
314
315
316
317
318
319
320
321
322
323
324
325
326
327
328
329
330
331
332
333
334
335
336
337
338
339
340
341
342
343
344
345
346
347
348
349
350
351
352
353
354
355
356
357
358
359
360
361
362
363
364
365
366
367
368
369
370
371
372
373
374
375
376
377
378
379
380
381
382
383
384
385
386
387
388
389
390
391
392
393
394
395
396
397
398
399
400
401
402
403
404
405
406
407
408
409
410
411
412
413
414
415
416
417
418
419
420
421
422
423
424
425
426
427
428
429
430
431
432
103.05 0 0
103.1 0 0
103.15 0 0
103.2 0 0
103.25 0 0
103.3 0 0
103.35 0 0
103.4 0 0
103.45 0 0
103.5 0 0
103.55 0 0
103.6 0 0
103.65 0 0
103.7 0 0
103.75 0 0
103.8 0 0
103.85 0 0
103.9 0 0
103.95 0 0
104 0 0
104.05 0 0
104.1 0 0
104.15 0 0
104.2 0 0
104.25 0 0
104.3 0 0
104.35 0 0
104.4 0 0
104.45 0 0
104.5 0 0
104.55 0 0
104.6 0 0
104.65 0 0
104.7 0 0
104.75 0 0
104.8 0 0
104.85 0 0
104.9 0 0
104.95 0 0
105 0 0
105.05 0 0
105.1 0 0
105.15 0 0
105.2 0 0
105.25 0 0
105.3 0 0
105.35 0 0
105.4 0 0
105.45 0 0
105.5 0 0
105.55 0 0
105.6 0 0
105.65 0 0
105.7 0 0
105.75 0 0
105.8 0 0
105.85 0 0
105.9 0 0
105.95 0 0
106 0 0
106.05 0 0
106.1 0 0
106.15 0 0
106.2 0 0
106.25 0 0
106.3 0 0
106.35 0 0
106.4 0 0
106.45 0 0
106.5 0 0
106.55 0 0
106.6 0 0
106.65 0 0
106.7 0 0
106.75 0 0
106.8 0 0
106.85 0 0
106.9 0 0
106.95 0 0
107 0 0
107.05 0 0
107.1 0 0
107.15 0 0
107.2 0 0
107.25 0 0
107.3 0 0
107.35 0 0
107.4 0 0
107.45 0 0
107.5 0 0
107.55 0 0
107.6 0 0
107.65 0 0
107.7 0 0
107.75 0 0
107.8 0 0
107.85 0 0
107.9 0 0
107.95 0 0
108 0 0
108.05 0 0
108.1 0 0
108.15 0 0
108.2 0 0
108.25 0 0
108.3 0 0
108.35 0 0
108.4 0 0
108.45 0 0
108.5 0 0
108.55 0 0
108.6 0 0
108.65 0 0
108.7 0 0
108.75 0 0
108.8 0 0
108.85 0 0
108.9 0 0
108.95 0 0
109 0 0
109.05 0 0
109.1 0 0
109.15 0 0
109.2 0 0
109.25 0 0
109.3 0 0
109.35 0 0
109.4 0 0
109.45 0 0
109.5 0 0
109.55 0 0
109.6 0 0
109.65 0 0
109.7 0 0
109.75 0 0
109.8 0 0
109.85 0 0
109.9 0 0
109.95 0 0
1 5 0 59
433
434
435
436
437
438
439
440
441
442
443
444
445
446
447
448
449
450
451
452
453
454
455
456
457
458
459
460
461
462
463
464
465
466
467
468
469
470
471
472
473
474
475
476
477
478
479
480
481
482
483
484
485
486
487
488
489
490
491
110.05 0 0
110.1 0 0
110.15 0 0
110.2 0 0
110.25 0 0
110.3 0 0
110.35 0 0
110.4 0 0
110.45 0 0
110.5 0 0
110.55 0 0
110.6 0 0
110.65 0 0
110.7 0 0
110.75 0 0
110.8 0 0
110.85 0 0
110.9 0 0
110.95 0 0
111 0 0
111.05 0 0
111.1 0 0
111.15 0 0
111.2 0 0
111.25 0 0
111.3 0 0
111.35 0 0
111.4 0 0
111.45 0 0
111.5 0 0
111.55 0 0
111.6 0 0
111.65 0 0
111.7 0 0
111.75 0 0
111.8 0 0
111.85 0 0
111.9 0 0
111.95 0 0
112 0 0
112.05 0 0
112.1 0 0
112.15 0 0
112.2 0 0
112.25 0 0
112.3 0 0
112.35 0 0
112.4 0 0
112.45 0 0
112.5 0 0
112.55 0 0
112.6 0 0
112.65 0 0
112.7 0 0
112.75 0 0
112.8 0 0
112.85 0 0
112.9 0 0
112.95 0 0
1 6 0 139
492
493
494
495
496
497
498
499
500
501
502
503
504
505
506
507
508
509
510
511
512
513
514
515
516
517
518
519
520
521
522
523
524
525
526
527
528
529
530
531
532
533
534
535
536
537
538
539
540
541
542
543
544
545
546
547
548
549
550
551
552
553
554
555
556
557
558
559
560
561
562
563
564
565
566
567
568
569
570
571
572
573
574
575
576
577
578
579
580
581
582
583
584
585
586
587
588
589
590
591
592
593
594
595
596
597
598
599
600
601
602
603
604
605
606
607
608
609
610
611
612
613
614
615
616
617
618
619
620
621
622
623
624
625
626
627
628
629
630
113.05 0 0
113.1 0 0
113.15 0 0
113.2 0 0
113.25 0 0
113.3 0 0
113.35 0 0
113.4 0 0
113.45 0 0
113.5 0 0
113.55 0 0
113.6 0 0
113.65 0 0
113.7 0 0
113.75 0 0
113.8 0 0
113.85 0 0
113.9 0 0
113.95 0 0
114 0 0
114.05 0 0
114.1 0 0
114.15 0 0
114.2 0 0
114.25 0 0
114.3 0 0
114.35 0 0
114.4 0 0
114.45 0 0
114.5 0 0
114.55 0 0
114.6 0 0
114.65 0 0
114.7 0 0
114.75 0 0
114.8 0 0
114.85 0 0
114.9 0 0
114.95 0 0
115 0 0
115.05 0 0
115.1 0 0
115.15 0 0
115.2 0 0
115.25 0 0
115.3 0 0
115.35 0 0
115.4 0 0
115.45 0 0
115.5 0 0
115.55 0 0
115.6 0 0
115.65 0 0
115.7 0 0
115.75 0 0
115.8 0 0
115.85 0 0
115.9 0 0
115.95 0 0
116 0 0
116.05 0 0
116.1 0 0
116.15 0 0
116.2 0 0
116.25 0 0
116.3 0 0
116.35 0 0
116.4 0 0
116.45 0 0
116.5 0 0
116.55 0 0
116.6 0 0
116.65 0 0
116.7 0 0
116.75 0 0
116.8 0 0
116.85 0 0
116.9 0 0
116.95 0 0
117 0 0
117.05 0 0
117.1 0 0
117.15 0 0
117.2 0 0
117.25 0 0
117.3 0 0
117.35 0 0
117.4 0 0
117.45 0 0
117.5 0 0
117.55 0 0
117.6 0 0
117.65 0 0
117.7 0 0
117.75 0 0
117.8 0 0
117.85 0 0
117.9 0 0
117.95 0 0
118 0 0
118.05 0 0
118.1 0 0
118.15 0 0
118.2 0 0
118.25 0 0
118.3 0 0
118.35 0 0
118.4 0 0
118.45 0 0
118.5 0 0
118.55 0 0
118.6 0 0
118.65 0 0
118.7 0 0
118.75 0 0
118.8 0 0
118.85 0 0
118.9 0 0
118.95 0 0
119 0 0
119.05 0 0
119.1 0 0
119.15 0 0
119.2 0 0
119.25 0 0
119.3 0 0
119.35 0 0
119.4 0 0
119.45 0 0
119.5 0 0
119.55 0 0
119.6 0 0
119.65 0 0
119.7 0 0
119.75 0 0
119.8 0 0
119.85 0 0
119.9 0 0
119.95 0 0
1 7 0 59
631
632
633
634
635
636
637
638
639
640
641
642
643
644
645
646
647
648
649
650
651
652
653
654
655
656
657
658
659
660
661
662
663
664
665
666
667
668
669
670
671
672
673
674
675
676
677
678
679
680
681
682
683
684
685
686
687
688
689
120.05 0 0
120.1 0 0
120.15 0 0
120.2 0 0
120.25 0 0
120.3 0 0
120.35 0 0
120.4 0 0
120.45 0 0
120.5 0 0
120.55 0 0
120.6 0 0
120.65 0 0
120.7 0 0
120.75 0 0
120.8 0 0
120.85 0 0
120.9 0 0
120.95 0 0
121 0 0
121.05 0 0
121.1 0 0
121.15 0 0
121.2 0 0
121.25 0 0
121.3 0 0
121.35 0 0
121.4 0 0
121.45 0 0
121.5 0 0
121.55 0 0
121.6 0 0
121.65 0 0
121.7 0 0
121.75 0 0
121.8 0 0
121.85 0 0
121.9 0 0
121.95 0 0
122 0 0
122.05 0 0
122.1 0 0
122.15 0 0
122.2 0 0
122.25 0 0
122.3 0 0
122.35 0 0
122.4 0 0
122.45 0 0
122.5 0 0
122.55 0 0
122.6 0 0
122.65 0 0
122.7 0 0
122.75 0 0
122.8 0 0
122.85 0 0
122.9 0 0
122.95 0 0
1 8 0 139
690
691
692
693
694
695
696
697
698
699
700
701
702
703
704
705
706
707
708
709
710
711
712
713
714
715
716
717
718
719
720
721
722
723
724
725
726
727
728
729
730
731
732
733
734
735
736
737
738
739
740
741
742
743
744
745
746
747
748
749
750
751
752
753
754
755
756
757
758
759
760
761
762
763
764
765
766
767
768
769
770
771
772
773
774
775
776
777
778
779
780
781
782
783
784
785
786
787
788
789
790
791
792
793
794
795
796
797
798
799
800
801
802
803
804
805
806
807
808
809
810
811
812
813
814
815
816
817
818
819
820
821
822
823
824
825
826
827
828
123.05 0 0
123.1 0 0
123.15 0 0
123.2 0 0
123.25 0 0
123.3 0 0
123.35 0 0
123.4 0 0
123.45 0 0
123.5 0 0
123.55 0 0
123.6 0 0
123.65 0 0
123.7 0 0
123.75 0 0
123.8 0 0
123.85 0 0
123.9 0 0
123.95 0 0
124 0 0
124.05 0 0
124.1 0 0
124.15 0 0
124.2 0 0
124.25 0 0
124.3 0 0
124.35 0 0
124.4 0 0
124.45 0 0
124.5 0 0
124.55 0 0
124.6 0 0
124.65 0 0
124.7 0 0
124.75 0 0
124.8 0 0
124.85 0 0
124.9 0 0
124.95 0 0
125 0 0
125.05 0 0
125.1 0 0
125.15 0 0
125.2 0 0
125.25 0 0
125.3 0 0
125.35 0 0
125.4 0 0
125.45 0 0
125.5 0 0
125.55 0 0
125.6 0 0
125.65 0 0
125.7 0 0
125.75 0 0
125.8 0 0
125.85 0 0
125.9 0 0
125.95 0 0
126 0 0
126.05 0 0
126.1 0 0
126.15 0 0
126.2 0 0
126.25 0 0
126.3 0 0
126.35 0 0
126.4 0 0
126.45 0 0
126.5 0 0
126.55 0 0
126.6 0 0
126.65 0 0
126.7 0 0
126.75 0 0
126.8 0 0
126.85 0 0
126.9 0 0
126.95 0 0
127 0 0
127.05 0 0
127.1 0 0
127.15 0 0
127.2 0 0
127.25 0 0
127.3 0 0
127.35 0 0
127.4 0 0
127.45 0 0
127.5 0 0
127.55 0 0
127.6 0 0
127.65 0 0
127.7 0 0
127.75 0 0
127.8 0 0
127.85 0 0
127.9 0 0
127.95 0 0
128 0 0
128.05 0 0
128.1 0 0
128.15 0 0
128.2 0 0
128.25 0 0
128.3 0 0
128.35 0 0
128.4 0 0
128.45 0 0
128.5 0 0
128.55 0 0
128.6 0 0
128.65 0 0
128.7 0 0
128.75 0 0
128.8 0 0
128.85 0 0
128.9 0 0
128.95 0 0
129 0 0
129.05 0 0
129.1 0 0
129.15 0 0
129.2 0 0
129.25 0 0
129.3 0 0
129.35 0 0
129.4 0 0
129.45 0 0
129.5 0 0
129.55 0 0
129.6 0 0
129.65 0 0
129.7 0 0
129.75 0 0
129.8 0 0
129.85 0 0
129.9 0 0
129.95 0 0
1 9 0 59
829
830
831
832
833
834
835
836
837
838
839
840
841
842
843
844
845
846
847
848
849
850
851
852
853
854
855
856
857
858
859
860
861
862
863
864
865
866
867
868
869
870
871
872
873
874
875
876
877
878
879
880
881
882
883
884
885
886
887
130.05 0 0
130.1 0 0
130.15 0 0
130.2 0 0
130.25 0 0
130.3 0 0
130.35 0 0
130.4 0 0
130.45 0 0
130.5 0 0
130.55 0 0
130.6 0 0
130.65 0 0
130.7 0 0
130.75 0 0
130.8 0 0
130.85 0 0
130.9 0 0
130.95 0 0
131 0 0
131.05 0 0
131.1 0 0
131.15 0 0
131.2 0 0
131.25 0 0
131.3 0 0
131.35 0 0
131.4 0 0
131.45 0 0
131.5 0 0
131.55 0 0
131.6 0 0
131.65 0 0
131.7 0 0
131.75 0 0
131.8 0 0
131.85 0 0
131.9 0 0
131.95 0 0
132 0 0
132.05 0 0
132.1 0 0
132.15 0 0
132.2 0 0
132.25 0 0
132.3 0 0
132.35 0 0
132.4 0 0
132.45 0 0
132.5 0 0
132.55 0 0
132.6 0 0
132.65 0 0
132.7 0 0
132.75 0 0
132.8 0 0
132.85 0 0
132.9 0 0
132.95 0 0
1 10 0 139
888
889
890
891
892
893
894
895
896
897
898
899
900
901
902
903
904
905
906
907
908
909
910
911
912
913
914
915
916
917
918
919
920
921
922
923
924
925
926
927
928
929
930
931
932
933
934
935
936
937
938
939
940
941
942
943
944
945
946
947
948
949
950
951
952
953
954
955
956
957
958
959
960
961
962
963
964
965
966
967
968
969
970
971
972
973
974
975
976
977
978
979
980
981
982
983
984
985
986
987
988
989
990
991
992
993
994
995
996
997
998
999
1000
1001
1002
1003
1004
1005
1006
1007
1008
1009
1010
1011
1012
1013
1014
1015
1016
1017
1018
1019
1020
1021
1022
1023
1024
1025
1026
133.05 0 0
133.1 0 0
133.15 0 0
133.2 0 0
133.25 0 0
133.3 0 0
133.35 0 0
133.4 0 0
133.45 0 0
133.5 0 0
133.55 0 0
133.6 0 0
133.65 0 0
133.7 0 0
133.75 0 0
133.8 0 0
133.85 0 0
133.9 0 0
133.95 0 0
134 0 0
134.05 0 0
134.1 0 0
134.15 0 0
134.2 0 0
134.25 0 0
134.3 0 0
134.35 0 0
134.4 0 0
134.45 0 0
134.5 0 0
134.55 0 0
134.6 0 0
134.65 0 0
134.7 0 0
134.75 0 0
134.8 0 0
134.85 0 0
134.9 0 0
134.95 0 0
135 0 0
135.05 0 0
135.1 0 0
135.15 0 0
135.2 0 0
135.25 0 0
135.3 0 0
135.35 0 0
135.4 0 0
135.45 0 0
135.5 0 0
135.55 0 0
135.6 0 0
135.65 0 0
135.7 0 0
135.75 0 0
135.8 0 0
135.85 0 0
135.9 0 0
135.95 0 0
136 0 0
136.05 0 0
136.1 0 0
136.15 0 0
136.2 0 0
136.25 0 0
136.3 0 0
136.35 0 0
136.4 0 0
136.45 0 0
136.5 0 0
136.55 0 0
136.6 0 0
136.65 0 0
136.7 0 0
136.75 0 0
136.8 0 0
136.85 0 0
136.9 0 0
136.95 0 0
137 0 0
137.05 0 0
137.1 0 0
137.15 0 0
137.2 0 0
137.25 0 0
137.3 0 0
137.35 0 0
137.4 0 0
137.45 0 0
137.5 0 0
137.55 0 0
137.6 0 0
137.65 0 0
137.7 0 0
137.75 0 0
137.8 0 0
137.85 0 0
137.9 0 0
137.95 0 0
138 0 0
138.05 0 0
138.1 0 0
138.15 0 0
138.2 0 0
138.25 0 0
138.3 0 0
138.35 0 0
138.4 0 0
138.45 0 0
138.5 0 0
138.55 0 0
138.6 0 0
138.65 0 0
138.7 0 0
138.75 0 0
138.8 0 0
138.85 0 0
138.9 0 0
138.95 0 0
139 0 0
139.05 0 0
139.1 0 0
139.15 0 0
139.2 0 0
139.25 0 0
139.3 0 0
139.35 0 0
139.4 0 0
139.45 0 0
139.5 0 0
139.55 0 0
139.6 0 0
139.65 0 0
139.7 0 0
139.75 0 0
139.8 0 0
139.85 0 0
139.9 0 0
139.95 0 0
1 11 0 59
1027
1028
1029
1030
1031
1032
1033
1034
1035
1036
1037
1038
1039
1040
1041
1042
1043
1044
1045
1046
1047
1048
1049
1050
1051
1052
1053
1054
1055
1056
1057
1058
1059
1060
1061
1062
1063
1064
1065
1066
1067
1068
1069
1070
1071
1072
1073
1074
1075
1076
1077
1078
1079
1080
1081
1082
1083
1084
1085
140.05 0 0
140.1 0 0
140.15 0 0
140.2 0 0
140.25 0 0
140.3 0 0
140.35 0 0
140.4 0 0
140.45 0 0
140.5 0 0
140.55 0 0
140.6 0 0
140.65 0 0
140.7 0 0
140.75 0 0
140.8 0 0
140.85 0 0
140.9 0 0
140.95 0 0
141 0 0
141.05 0 0
141.1 0 0
141.15 0 0
141.2 0 0
141.25 0 0
141.3 0 0
141.35 0 0
141.4 0 0
141.45 0 0
141.5 0 0
141.55 0 0
141.6 0 0
141.65 0 0
141.7 0 0
141.75 0 0
141.8 0 0
141.85 0 0
141.9 0 0
141.95 0 0
142 0 0
142.05 0 0
142.1 0 0
142.15 0 0
142.2 0 0
142.25 0 0
142.3 0 0
142.35 0 0
142.4 0 0
142.45 0 0
142.5 0 0
142.55 0 0
142.6 0 0
142.65 0 0
142.7 0 0
142.75 0 0
142.8 0 0
142.85 0 0
142.9 0 0
142.95 0 0
1 12 0 139
1086
1087
1088
1089
1090
1091
1092
1093
1094
1095
1096
1097
1098
1099
1100
1101
1102
1103
1104
1105
1106
1107
1108
1109
1110
1111
1112
1113
1114
1115
1116
1117
1118
1119
1120
1121
1122
1123
1124
1125
1126
1127
1128
1129
1130
1131
1132
1133
1134
1135
1136
1137
1138
1139
1140
1141
1142
1143
1144
1145
1146
1147
1148
1149
1150
1151
1152
1153
1154
1155
1156
1157
1158
1159
1160
1161
1162
1163
1164
1165
1166
1167
1168
1169
1170
1171
1172
1173
1174
1175
1176
1177
1178
1179
1180
1181
1182
1183
1184
1185
1186
1187
1188
1189
1190
1191
1192
1193
1194
1195
1196
1197
1198
1199
1200
1201
1202
1203
1204
1205
1206
1207
1208
1209
1210
1211
1212
1213
1214
1215
1216
1217
1218
1219
1220
1221
1222
1223
1224
143.05 0 0
143.1 0 0
143.15 0 0
143.2 0 0
143.25 0 0
143.3 0 0
143.35 0 0
143.4 0 0
143.45 0 0
143.5 0 0
143.55 0 0
143.6 0 0
143.65 0 0
143.7 0 0
143.75 0 0
143.8 0 0
143.85 0 0
143.9 0 0
143.95 0 0
144 0 0
144.05 0 0
144.1 0 0
144.15 0 0
144.2 0 0
144.25 0 0
144.3 0 0
144.35 0 0
144.4 0 0
144.45 0 0
144.5 0 0
144.55 0 0
144.6 0 0
144.65 0 0
144.7 0 0
144.75 0 0
144.8 0 0
144.85 0 0
144.9 0 0
144.95 0 0
145 0 0
145.05 0 0
145.1 0 0
145.15 0 0
145.2 0 0
145.25 0 0
145.3 0 0
145.35 0 0
145.4 0 0
145.45 0 0
145.5 0 0
145.55 0 0
145.6 0 0
145.65 0 0
145.7 0 0
145.75 0 0
145.8 0 0
145.85 0 0
145.9 0 0
145.95 0 0
146 0 0
146.05 0 0
146.1 0 0
146.15 0 0
146.2 0 0
146.25 0 0
146.3 0 0
146.35 0 0
146.4 0 0
146.45 0 0
146.5 0 0
146.55 0 0
146.6 0 0
146.65 0 0
146.7 0 0
146.75 0 0
146.8 0 0
146.85 0 0
146.9 0 0
146.95 0 0
147 0 0
147.05 0 0
147.1 0 0
147.15 0 0
147.2 0 0
147.25 0 0
147.3 0 0
147.35 0 0
147.4 0 0
147.45 0 0
147.5 0 0
147.55 0 0
147.6 0 0
147.65 0 0
147.7 0 0
147.75 0 0
147.8 0 0
147.85 0 0
147.9 0 0
147.95 0 0
148 0 0
148.05 0 0
148.1 0 0
148.15 0 0
148.2 0 0
148.25 0 0
148.3 0 0
148.35 0 0
148.4 0 0
148.45 0 0
148.5 0 0
148.55 0 0
148.6 0 0
148.65 0 0
148.7 0 0
148.75 0 0
148.8 0 0
148.85 0 0
148.9 0 0
148.95 0 0
149 0 0
149.05 0 0
149.1 0 0
149.15 0 0
149.2 0 0
149.25 0 0
149.3 0 0
149.35 0 0
149.4 0 0
149.45 0 0
149.5 0 0
149.55 0 0
149.6 0 0
149.65 0 0
149.7 0 0
149.75 0 0
149.8 0 0
149.85 0 0
149.9 0 0
149.95 0 0
1 13 0 127
1225
1226
1227
1228
1229
1230
1231
1232
1233
1234
1235
1236
1237
1238
1239
1240
1241
1242
1243
1244
1245
1246
1247
1248
1249
1250
1251
1252
1253
1254
1255
1256
1257
1258
1259
1260
1261
1262
1263
1264
1265
1266
1267
1268
1269
1270
1271
1272
1273
1274
1275
1276
1277
1278
1279
1280
1281
1282
1283
1284
1285
1286
1287
1288
1289
1290
1291
1292
1293
1294
1295
1296
1297
1298
1299
1300
1301
1302
1303
1304
1305
1306
1307
1308
1309
1310
1311
1312
1313
1314
1315
1316
1317
1318
1319
1320
1321
1322
1323
1324
1325
1326
1327
1328
1329
1330
1331
1332
1333
1334
1335
1336
1337
1338
1339
1340
1341
1342
1343
1344
1345
1346
1347
1348
1349
1350
1351
150.0504214531296 0 0
150.1017581395988 0 0
150.1540266795047 0 0
150.2072439901681 0 0
150.2614272730348 0 0
150.316594058275 0 0
150.3727622537996 0 0
150.4299499792334 0 0
150.4881757483623 0 0
150.5474584384634 0 0
150.6078171976304 0 0
150.6692715710946 0 0
150.7318414515 0 0
150.7955470833273 0 0
150.86040908055 0 0
150.9264484377945 0 0
150.9936865230148 0 0
151.0621450849812 0 0
151.1318463035964 0 0
151.2028127111838 0 0
151.2750672773045 0 0
151.3486333943526 0 0
151.4235348546563 0 0
151.4997959141392 0 0
151.5774412472001 0 0
151.6564959651347 0 0
151.736985670967 0 0
151.8189363936264 0 0
151.9023746791399 0 0
151.9873274971297 0 0
152.0738223630637 0 0
152.1618872628799 0 0
152.2515506817818 0 0
152.3428416538046 0 0
152.435789716971 0 0
152.5304249424068 0 0
152.6267779506712 0 0
152.7248799540638 0 0
152.8247626658965 0 0
152.9264584172084 0 0
153.0300001288397 0 0
153.1354213118978 0 0
153.2427560550371 0 0
153.3520391124473 0 0
153.463305848826 0 0
153.5765922305053 0 0
153.691935022896 0 0
153.80937144769 0 0
153.9289395217494 0 0
154.050678006208 0 0
154.1746262130689 0 0
154.3008243376183 0 0
154.4293131390143 0 0
154.5601342602941 0 0
154.6933299801961 0 0
154.8289434581018 0 0
154.9670185348758 0 0
155.1075999311599 0 0
155.2507330958466 0 0
155.3964644087796 0 0
155.5448409605279 0 0
155.695910818865 0 0
155.8497228703958 0 0
156.0063268594784 0 0
156.1657734746836 0 0
156.3281143272661 0 0
156.4934019581396 0 0
156.6616898204661 0 0
156.8330324006562 0 0
157.0074851712683 0 0
157.1851045285621 0 0
157.365948005412 0 0
157.5500740688465 0 0
157.7375423722253 0 0
157.9284135293322 0 0
158.1227493549004 0 0
158.3206126671194 0 0
158.5220675645519 0 0
158.7271792360742 0 0
158.936014040429 0 0
159.1486395323685 0 0
159.3651245515904 0 0
159.5855390681793 0 0
159.809954642498 0 0
160.0384436507929 0 0
160.2710801298063 0 0
160.507939345955 0 0
160.7490979870434 0 0
160.9946340709082 0 0
161.2446270651821 0 0
161.4991577911259 0 0
161.7583087498333 0 0
162.022163812169 0 0
162.2908082315781 0 0
162.564328955644 0 0
162.8428146513129 0 0
163.1263552847583 0 0
163.4150426658048 0 0
163.708970234443 0 0
164.008233106162 0 0
164.3129280720987 0 0
164.6231538478381 0 0
164.9390107056194 0 0
165.2606009375131 0 0
165.5880285311323 0 0
165.9213995378594 0 0
166.2608218293222 0 0
166.6064051939458 0 0
166.9582614548659 0 0
167.3165045688413 0 0
167.6812503818254 0 0
168.0526169862833 0 0
168.4307245113127 0 0
168.8156953451884 0 0
169.207654014088 0 0
169.606727488428 0 0
170.0130447811091 0 0
170.4267374778161 0 0
170.8479394864818 0 0
171.2767867787684 0 0
171.7134187196502 0 0
172.1579760809572 0 0
172.610602951551 0 0
173.0714456035922 0 0
173.5406535567354 0 0
174.0183784313323 0 0
174.5047747816258 0 0
$EndNodes
$Elements
15 1352 1 1352
0 1 15 1
1 1 
0 14 15 1
2 14 
1 1 1 186
3 1 15 
4 15 16 
5 16 17 
6 17 18 
7 18 19 
8 19 20 
9 20 21 
10 21 22 
11 22 23 
12 23 24 
13 24 25 
14 25 26 
15 26 27 
16 27 28 
17 28 29 
18 29 30 
19 30 31 
20 31 32 
21 32 33 
22 33 34 
23 34 35 
24 35 36 
25 36 37 
26 37 38 
27 38 39 
28 39 40 
29 40 41 
30 41 42 
31 42 43 
32 43 44 
33 44 45 
34 45 46 
35 46 47 
36 47 48 
37 48 49 
38 49 50 
39 50 51 
40 51 52 
41 52 53 
42 53 54 
43 54 55 
44 55 56 
45 56 57 
46 57 58 
47 58 59 
48 59 60 
49 60 61 
50 61 62 
51 62 63 
52 63 64 
53 64 65 
54 65 66 
55 66 67 
56 67 68 
57 68 69 
58 69 70 
59 70 71 
60 71 72 
61 72 73 
62 73 74 
63 74 75 
64 75 76 
65 76 77 
66 77 78 
67 78 79 
68 79 80 
69 80 81 
70 81 82 
71 82 83 
72 83 84 
73 84 85 
74 85 86 
75 86 87 
76 87 88 
77 88 89 
78 89 90 
79 90 91 
80 91 92 
81 92 93 
82 93 94 
83 94 95 
84 95 96 
85 96 97 
86 97 98 
87 98 99 
88 99 100 
89 100 101 
90 101 102 
91 102 103 
92 103 104 
93 104 105 
94 105 106 
95 106 107 
96 107 108 
97 108 109 
98 109 110 
99 110 111 
100 111 112 
101 112 113 
102 113 114 
103 114 115 
104 115 116 
105 116 117 
106 117 118 
107 118 119 
108 119 120 
109 120 121 
110 121 122 
111 122 123 
112 123 124 
113 124 125 
114 125 126 
115 126 127 
116 127 128 
117 128 129 
118 129 130 
119 130 131 
120 131 132 
121 132 133 
122 133 134 
123 134 135 
124 135 136 
125 136 137 
126 137 138 
127 138 139 
128 139 140 
129 140 141 
130 141 142 
131 142 143 
132 143 144 
133 144 145 
134 145 146 
135 146 147 
136 147 148 
137 148 149 
138 149 150 
139 150 151 
140 151 152 
141 152 153 
142 153 154 
143 154 155 
144 155 156 
145 156 157 
146 157 158 
147 158 159 
148 159 160 
149 160 161 
150 161 162 
151 162 163 
152 163 164 
153 164 165 
154 165 166 
155 166 167 
156 167 168 
157 168 169 
158 169 170 
159 170 171 
160 171 172 
161 172 173 
162 173 174 
163 174 175 
164 175 176 
165 176 177 
166 177 178 
167 178 179 
168 179 180 
169 180 181 
170 181 182 
171 182 183 
172 183 184 
173 184 185 
174 185 186 
175 186 187 
176 187 188 
177 188 189 
178 189 190 
179 190 191 
180 191 192 
181 192 193 
182 193 194 
183 194 195 
184 195 196 
185 196 197 
186 197 198 
187 198 199 
188 199 2 
1 2 1 36
189 2 200 
190 200 201 
191 201 202 
192 202 203 
193 203 204 
194 204 205 
195 205 206 
196 206 207 
197 207 208 
198 208 209 
199 209 210 
200 210 211 
201 211 212 
202 212 213 
203 213 214 
204 214 215 
205 215 216 
206 216 217 
207 217 218 
208 218 219 
209 219 220 
210 220 221 
211 221 222 
212 222 223 
213 223 224 
214 224 225 
215 225 226 
216 226 227 
217 227 228 
218 228 229 
219 229 230 
220 230 231 
221 231 232 
222 232 233 
223 233 234 
224 234 3 
1 3 1 60
225 3 235 
226 235 236 
227 236 237 
228 237 238 
229 238 239 
230 239 240 
231 240 241 
232 241 242 
233 242 243 
234 243 244 
235 244 245 
236 245 246 
237 246 247 
238 247 248 
239 248 249 
240 249 250 
241 250 251 
242 251 252 
243 252 253 
244 253 254 
245 254 255 
246 255 256 
247 256 257 
248 257 258 
249 258 259 
250 259 260 
251 260 261 
252 261 262 
253 262 263 
254 263 264 
255 264 265 
256 265 266 
257 266 267 
258 267 268 
259 268 269 
260 269 270 
261 270 271 
262 271 272 
263 272 273 
264 273 274 
265 274 275 
266 275 276 
267 276 277 
268 277 278 
269 278 279 
270 279 280 
271 280 281 
272 281 282 
273 282 283 
274 283 284 
275 284 285 
276 285 286 
277 286 287 
278 287 288 
279 288 289 
280 289 290 
281 290 291 
282 291 292 
283 292 293 
284 293 4 
1 4 1 140
285 4 294 
286 294 295 
287 295 296 
288 296 297 
289 297 298 
290 298 299 
291 299 300 
292 300 301 
293 301 302 
294 302 303 
295 303 304 
296 304 305 
297 305 306 
298 306 307 
299 307 308 
300 308 309 
301 309 310 
302 310 311 
303 311 312 
304 312 313 
305 313 314 
306 314 315 
307 315 316 
308 316 317 
309 317 318 
310 318 319 
311 319 320 
312 320 321 
313 321 322 
314 322 323 
315 323 324 
316 324 325 
317 325 326 
318 326 327 
319 327 328 
320 328 329 
321 329 330 
322 330 331 
323 331 332 
324 332 333 
325 333 334 
326 334 335 
327 335 336 
328 336 337 
329 337 338 
330 338 339 
331 339 340 
332 340 341 
333 341 342 
334 342 343 
335 343 344 
336 344 345 
337 345 346 
338 346 347 
339 347 348 
340 348 349 
341 349 350 
342 350 351 
343 351 352 
344 352 353 
345 353 354 
346 354 355 
347 355 356 
348 356 357 
349 357 358 
350 358 359 
351 359 360 
352 360 361 
353 361 362 
354 362 363 
355 363 364 
356 364 365 
357 365 366 
358 366 367 
359 367 368 
360 368 369 
361 369 370 
362 370 371 
363 371 372 
364 372 373 
365 373 374 
366 374 375 
367 375 376 
368 376 377 
369 377 378 
370 378 379 
371 379 380 
372 380 381 
373 381 382 
374 382 383 
375 383 384 
376 384 385 
377 385 386 
378 386 387 
379 387 388 
380 388 389 
381 389 390 
382 390 391 
383 391 392 
384 392 393 
385 393 394 
386 394 395 
387 395 396 
388 396 397 
389 397 398 
390 398 399 
391 399 400 
392 400 401 
393 401 402 
394 402 403 
395 403 404 
396 404 405 
397 405 406 
398 406 407 
399 407 408 
400 408 409 
401 409 410 
402 410 411 
403 411 412 
404 412 413 
405 413 414 
406 414 415 
407 415 416 
408 416 417 
409 417 418 
410 418 419 
411 419 420 
412 420 421 
413 421 422 
414 422 423 
415 423 424 
416 424 425 
417 425 426 
418 426 427 
419 427 428 
420 428 429 
421 429 430 
422 430 431 
423 431 432 
424 432 5 
1 5 1 60
425 5 433 
426 433 434 
427 434 435 
428 435 436 
429 436 437 
430 437 438 
431 438 439 
432 439 440 
433 440 441 
434 441 442 
435 442 443 
436 443 444 
437 444 445 
438 445 446 
439 446 447 
440 447 448 
441 448 449 
442 449 450 
443 450 451 
444 451 452 
445 452 453 
446 453 454 
447 454 455 
448 455 456 
449 456 457 
450 457 458 
451 458 459 
452 459 460 
453 460 461 
454 461 462 
455 462 463 
456 463 464 
457 464 465 
458 465 466 
459 466 467 
460 467 468 
461 468 469 
462 469 470 
463 470 471 
464 471 472 
465 472 473 
466 473 474 
467 474 475 
468 475 476 
469 476 477 
470 477 478 
471 478 479 
472 479 480 
473 480 481 
474 481 482 
475 482 483 
476 483 484 
477 484 485 
478 485 486 
479 486 487 
480 487 488 
481 488 489 
482 489 490 
483 490 491 
484 491 6 
1 6 1 140
485 6 492 
486 492 493 
487 493 494 
488 494 495 
489 495 496 
490 496 497 
491 497 498 
492 498 499 
493 499 500 
494 500 501 
495 501 502 
496 502 503 
497 503 504 
498 504 505 
499 505 506 
500 506 507 
501 507 508 
502 508 509 
503 509 510 
504 510 511 
505 511 512 
506 512 513 
507 513 514 
508 514 515 
509 515 516 
510 516 517 
511 517 518 
512 518 519 
513 519 520 
514 520 521 
515 521 522 
516 522 523 
517 523 524 
518 524 525 
519 525 526 
520 526 527 
521 527 528 
522 528 529 
523 529 530 
524 530 531 
525 531 532 
526 532 533 
527 533 534 
528 534 535 
529 535 536 
530 536 537 
531 537 538 
532 538 539 
533 539 540 
534 540 541 
535 541 542 
536 542 543 
537 543 544 
538 544 545 
539 545 546 
540 546 547 
541 547 548 
542 548 549 
543 549 550 
544 550 551 
545 551 552 
546 552 553 
547 553 554 
548 554 555 
549 555 556 
550 556 557 
551 557 558 
552 558 559 
553 559 560 
554 560 561 
555 561 562 
556 562 563 
557 563 564 
558 564 565 
559 565 566 
560 566 567 
561 567 568 
562 568 569 
563 569 570 
564 570 571 
565 571 572 
566 572 573 
567 573 574 
568 574 575 
569 575 576 
570 576 577 
571 577 578 
572 578 579 
573 579 580 
574 580 581 
575 581 582 
576 582 583 
577 583 584 
578 584 585 
579 585 586 
580 586 587 
581 587 588 
582 588 589 
583 589 590 
584 590 591 
585 591 592 
586 592 593 
587 593 594 
588 594 595 
589 595 596 
590 596 597 
591 597 598 
592 598 599 
593 599 600 
594 600 601 
595 601 602 
596 602 603 
597 603 604 
598 604 605 
599 605 606 
600 606 607 
601 607 608 
602 608 609 
603 609 610 
604 610 611 
605 611 612 
606 612 613 
607 613 614 
608 614 615 
609 615 616 
610 616 617 
611 617 618 
612 618 619 
613 619 620 
614 620 621 
615 621 622 
616 622 623 
617 623 624 
618 624 625 
619 625 626 
620 626 627 
621 627 628 
622 628 629 
623 629 630 
624 630 7 
1 7 1 60
625 7 631 
626 631 632 
627 632 633 
628 633 634 
629 634 635 
630 635 636 
631 636 637 
632 637 638 
633 638 639 
634 639 640 
635 640 641 
636 641 642 
637 642 643 
638 643 644 
639 644 645 
640 645 646 
641 646 647 
642 647 648 
643 648 649 
644 649 650 
645 650 651 
646 651 652 
647 652 653 
648 653 654 
649 654 655 
650 655 656 
651 656 657 
652 657 658 
653 658 659 
654 659 660 
655 660 661 
656 661 662 
657 662 663 
658 663 664 
659 664 665 
660 665 666 
661 666 667 
662 667 668 
663 668 669 
664 669 670 
665 670 671 
666 671 672 
667 672 673 
668 673 674 
669 674 675 
670 675 676 
671 676 677 
672 677 678 
673 678 679 
674 679 680 
675 680 681 
676 681 682 
677 682 683 
678 683 684 
679 684 685 
680 685 686 
681 686 687 
682 687 688 
683 688 689 
684 689 8 
1 8 1 140
685 8 690 
686 690 691 
687 691 692 
688 692 693 
689 693 694 
690 694 695 
691 695 696 
692 696 697 
693 697 698 
694 698 699 
695 699 700 
696 700 701 
697 701 702 
698 702 703 
699 703 704 
700 704 705 
701 705 706 
702 706 707 
703 707 708 
704 708 709 
705 709 710 
706 710 711 
707 711 712 
708 712 713 
709 713 714 
710 714 715 
711 715 716 
712 716 717 
713 717 718 
714 718 719 
715 719 720 
716 720 721 
717 721 722 
718 722 723 
719 723 724 
720 724 725 
721 725 726 
722 726 727 
723 727 728 
724 728 729 
725 729 730 
726 730 731 
727 731 732 
728 732 733 
729 733 734 
730 734 735 
731 735 736 
732 736 737 
733 737 738 
734 738 739 
735 739 740 
736 740 741 
737 741 742 
738 742 743 
739 743 744 
740 744 745 
741 745 746 
742 746 747 
743 747 748 
744 748 749 
745 749 750 
746 750 751 
747 751 752 
748 752 753 
749 753 754 
750 754 755 
751 755 756 
752 756 757 
753 757 758 
754 758 759 
755 759 760 
756 760 761 
757 761 762 
758 762 763 
759 763 764 
760 764 765 
761 765 766 
762 766 767 
763 767 768 
764 768 769 
765 769 770 
766 770 771 
767 771 772 
768 772 773 
769 773 774 
770 774 775 
771 775 776 
772 776 777 
773 777 778 
774 778 779 
775 779 780 
776 780 781 
777 781 782 
778 782 783 
779 783 784 
780 784 785 
781 785 786 
782 786 787 
783 787 788 
784 788 789 
785 789 790 
786 790 791 
787 791 792 
788 792 793 
789 793 794 
790 794 795 
791 795 796 
792 796 797 
793 797 798 
794 798 799 
795 799 800 
796 800 801 
797 801 802 
798 802 803 
799 803 804 
800 804 805 
801 805 806 
802 806 807 
803 807 808 
804 808 809 
805 809 810 
806 810 811 
807 811 812 
808 812 813 
809 813 814 
810 814 815 
811 815 816 
812 816 817 
813 817 818 
814 818 819 
815 819 820 
816 820 821 
817 821 822 
818 822 823 
819 823 824 
820 824 825 
821 825 826 
822 826 827 
823 827 828 
824 828 9 
1 9 1 60
825 9 829 
826 829 830 
827 830 831 
828 831 832 
829 832 833 
830 833 834 
831 834 835 
832 835 836 
833 836 837 
834 837 838 
835 838 839 
836 839 840 
837 840 841 
838 841 842 
839 842 843 
840 843 844 
841 844 845 
842 845 846 
843 846 847 
844 847 848 
845 848 849 
846 849 850 
847 850 851 
848 851 852 
849 852 853 
850 853 854 
851 854 855 
852 855 856 
853 856 857 
854 857 858 
855 858 859 
856 859 860 
857 860 861 
858 861 862 
859 862 863 
860 863 864 
861 864 865 
862 865 866 
863 866 867 
864 867 868 
865 868 869 
866 869 870 
867 870 871 
868 871 872 
869 872 873 
870 873 874 
871 874 875 
872 875 876 
873 876 877 
874 877 878 
875 878 879 
876 879 880 
877 880 881 
878 881 882 
879 882 883 
880 883 884 
881 884 885 
882 885 886 
883 886 887 
884 887 10 
1 10 1 140
885 10 888 
886 888 889 
887 889 890 
888 890 891 
889 891 892 
890 892 893 
891 893 894 
892 894 895 
893 895 896 
894 896 897 
895 897 898 
896 898 899 
897 899 900 
898 900 901 
899 901 902 
900 902 903 
901 903 904 
902 904 905 
903 905 906 
904 906 907 
905 907 908 
906 908 909 
907 909 910 
908 910 911 
909 911 912 
910 912 913 
911 913 914 
912 914 915 
913 915 916 
914 916 917 
915 917 918 
916 918 919 
917 919 920 
918 920 921 
919 921 922 
920 922 923 
921 923 924 
922 924 925 
923 925 926 
924 926 927 
925 927 928 
926 928 929 
927 929 930 
928 930 931 
929 931 932 
930 932 933 
931 933 934 
932 934 935 
933 935 936 
934 936 937 
935 937 938 
936 938 939 
937 939 940 
938 940 941 
939 941 942 
940 942 943 
941 943 944 
942 944 945 
943 945 946 
944 946 947 
945 947 948 
946 948 949 
947 949 950 
948 950 951 
949 951 952 
950 952 953 
951 953 954 
952 954 955 
953 955 956 
954 956 957 
955 957 958 
956 958 959 
957 959 960 
958 960 961 
959 961 962 
960 962 963 
961 963 964 
962 964 965 
963 965 966 
964 966 967 
965 967 968 
966 968 969 
967 969 970 
968 970 971 
969 971 972 
970 972 973 
971 973 974 
972 974 975 
973 975 976 
974 976 977 
975 977 978 
976 978 979 
977 979 980 
978 980 981 
979 981 982 
980 982 983 
981 983 984 
982 984 985 
983 985 986 
984 986 987 
985 987 988 
986 988 989 
987 989 990 
988 990 991 
989 991 992 
990 992 993 
991 993 994 
992 994 995 
993 995 996 
994 996 997 
995 997 998 
996 998 999 
997 999 1000 
998 1000 1001 
999 1001 1002 
1000 1002 1003 
1001 1003 1004 
1002 1004 1005 
1003 1005 1006 
1004 1006 1007 
1005 1007 1008 
1006 1008 1009 
1007 1009 1010 
1008 1010 1011 
1009 1011 1012 
1010 1012 1013 
1011 1013 1014 
1012 1014 1015 
1013 1015 1016 
1014 1016 1017 
1015 1017 1018 
1016 1018 1019 
1017 1019 1020 
1018 1020 1021 
1019 1021 1022 
1020 1022 1023 
1021 1023 1024 
1022 1024 1025 
1023 1025 1026 
1024 1026 11 
1 11 1 60
1025 11 1027 
1026 1027 1028 
1027 1028 1029 
1028 1029 1030 
1029 1030 1031 
1030 1031 1032 
1031 1032 1033 
1032 1033 1034 
1033 1034 1035 
1034 1035 1036 
1035 1036 1037 
1036 1037 1038 
1037 1038 1039 
1038 1039 1040 
1039 1040 1041 
1040 1041 1042 
1041 1042 1043 
1042 1043 1044 
1043 1044 1045 
1044 1045 1046 
1045 1046 1047 
1046 1047 1048 
1047 1048 1049 
1048 1049 1050 
1049 1050 1051 
1050 1051 1052 
1051 1052 1053 
1052 1053 1054 
1053 1054 1055 
1054 1055 1056 
1055 1056 1057 
1056 1057 1058 
1057 1058 1059 
1058 1059 1060 
1059 1060 1061 
1060 1061 1062 
1061 1062 1063 
1062 1063 1064 
1063 1064 1065 
1064 1065 1066 
1065 1066 1067 
1066 1067 1068 
1067 1068 1069 
1068 1069 1070 
1069 1070 1071 
1070 1071 1072 
1071 1072 1073 
1072 1073 1074 
1073 1074 1075 
1074 1075 1076 
1075 1076 1077 
1076 1077 1078 
1077 1078 1079 
1078 1079 1080 
1079 1080 1081 
1080 1081 1082 
1081 1082 1083 
1082 1083 1084 
1083 1084 1085 
1084 1085 12 
1 12 1 140
1085 12 1086 
1086 1086 1087 
1087 1087 1088 
1088 1088 1089 
1089 1089 1090 
1090 1090 1091 
1091 1091 1092 
1092 1092 1093 
1093 1093 1094 
1094 1094 1095 
1095 1095 1096 
1096 1096 1097 
1097 1097 1098 
1098 1098 1099 
1099 1099 1100 
1100 1100 1101 
1101 1101 1102 
1102 1102 1103 
1103 1103 1104 
1104 1104 1105 
1105 1105 1106 
1106 1106 1107 
1107 1107 1108 
1108 1108 1109 
1109 1109 1110 
1110 1110 1111 
1111 1111 1112 
1112 1112 1113 
1113 1113 1114 
1114 1114 1115 
1115 1115 1116 
1116 1116 1117 
1117 1117 1118 
1118 1118 1119 
1119 1119 1120 
1120 1120 1121 
1121 1121 1122 
1122 1122 1123 
1123 1123 1124 
1124 1124 1125 
1125 1125 1126 
1126 1126 1127 
1127 1127 1128 
1128 1128 1129 
1129 1129 1130 
1130 1130 1131 
1131 1131 1132 
1132 1132 1133 
1133 1133 1134 
1134 1134 1135 
1135 1135 1136 
1136 1136 1137 
1137 1137 1138 
1138 1138 1139 
1139 1139 1140 
1140 1140 1141 
1141 1141 1142 
1142 1142 1143 
1143 1143 1144 
1144 1144 1145 
1145 1145 1146 
1146 1146 1147 
1147 1147 1148 
1148 1148 1149 
1149 1149 1150 
1150 1150 1151 
1151 1151 1152 
1152 1152 1153 
1153 1153 1154 
1154 1154 1155 
1155 1155 1156 
1156 1156 1157 
1157 1157 1158 
1158 1158 1159 
1159 1159 1160 
1160 1160 1161 
1161 1161 1162 
1162 1162 1163 
1163 1163 1164 
1164 1164 1165 
1165 1165 1166 
1166 1166 1167 
1167 1167 1168 
1168 1168 1169 
1169 1169 1170 
1170 1170 1171 
1171 1171 1172 
1172 1172 1173 
1173 1173 1174 
1174 1174 1175 
1175 1175 1176 
1176 1176 1177 
1177 1177 1178 
1178 1178 1179 
1179 1179 1180 
1180 1180 1181 
1181 1181 1182 
1182 1182 1183 
1183 1183 1184 
1184 1184 1185 
1185 1185 1186 
1186 1186 1187 
1187 1187 1188 
1188 1188 1189 
1189 1189 1190 
1190 1190 1191 
1191 1191 1192 
1192 1192 1193 
1193 1193 1194 
1194 1194 1195 
1195 1195 1196 
1196 1196 1197 
1197 1197 1198 
1198 1198 1199 
1199 1199 1200 
1200 1200 1201 
1201 1201 1202 
1202 1202 1203 
1203 1203 1204 
1204 1204 1205 
1205 1205 1206 
1206 1206 1207 
1207 1207 1208 
1208 1208 1209 
1209 1209 1210 
1210 1210 1211 
1211 1211 1212 
1212 1212 1213 
1213 1213 1214 
1214 1214 1215 
1215 1215 1216 
1216 1216 1217 
1217 1217 1218 
1218 1218 1219 
1219 1219 1220 
1220 1220 1221 
1221 1221 1222 
1222 1222 1223 
1223 1223 1224 
1224 1224 13 
1 13 1 128
1225 13 1225 
1226 1225 1226 
1227 1226 1227 
1228 1227 1228 
1229 1228 1229 
1230 1229 1230 
1231 1230 1231 
1232 1231 1232 
1233 1232 1233 
1234 1233 1234 
1235 1234 1235 
1236 1235 1236 
1237 1236 1237 
1238 1237 1238 
1239 1238 1239 
1240 1239 1240 
1241 1240 1241 
1242 1241 1242 
1243 1242 1243 
1244 1243 1244 
1245 1244 1245 
1246 1245 1246 
1247 1246 1247 
1248 1247 1248 
1249 1248 1249 
1250 1249 1250 
1251 1250 1251 
1252 1251 1252 
1253 1252 1253 
1254 1253 1254 
1255 1254 1255 
1256 1255 1256 
1257 1256 1257 
1258 1257 1258 
1259 1258 1259 
1260 1259 1260 
1261 1260 1261 
1262 1261 1262 
1263 1262 1263 
1264 1263 1264 
1265 1264 1265 
1266 1265 1266 
1267 1266 1267 
1268 1267 1268 
1269 1268 1269 
1270 1269 1270 
1271 1270 1271 
1272 1271 1272 
1273 1272 1273 
1274 1273 1274 
1275 1274 1275 
1276 1275 1276 
1277 1276 1277 
1278 1277 1278 
1279 1278 1279 
1280 1279 1280 
1281 1280 1281 
1282 1281 1282 
1283 1282 1283 
1284 1283 1284 
1285 1284 1285 
1286 1285 1286 
1287 1286 1287 
1288 1287 1288 
1289 1288 1289 
1290 1289 1290 
1291 1290 1291 
1292 1291 1292 
1293 1292 1293 
1294 1293 1294 
1295 1294 1295 
1296 1295 1296 
1297 1296 1297 
1298 1297 1298 
1299 1298 1299 
1300 1299 1300 
1301 1300 1301 
1302 1301 1302 
1303 1302 1303 
1304 1303 1304 
1305 1304 1305 
1306 1305 1306 
1307 1306 1307 
1308 1307 1308 
1309 1308 1309 
1310 1309 1310 
1311 1310 1311 
1312 1311 1312 
1313 1312 1313 
1314 1313 1314 
1315 1314 1315 
1316 1315 1316 
1317 1316 1317 
1318 1317 1318 
1319 1318 1319 
1320 1319 1320 
1321 1320 1321 
1322 1321 1322 
1323 1322 1323 
1324 1323 1324 
1325 1324 1325 
1326 1325 1326 
1327 1326 1327 
1328 1327 1328 
1329 1328 1329 
1330 1329 1330 
1331 1330 1331 
1332 1331 1332 
1333 1332 1333 
1334 1333 1334 
1335 1334 1335 
1336 1335 1336 
1337 1336 1337 
1338 1337 1338 
1339 1338 1339 
1340 1339 1340 
1341 1340 1341 
1342 1341 1342 
1343 1342 1343 
1344 1343 1344 
1345 1344 1345 
1346 1345 1346 
1347 1346 1347 
1348 1347 1348 
1349 1348 1349 
1350 1349 1350 
1351 1350 1351 
1352 1351 14 
$EndElements
