$MeshFormat
2 0 8
$EndMeshFormat
$PhysicalNames
3
1 "bulk"
2 "anode"
3 "cathode"
$EndPhysicalNames
$Nodes
100
1 0 0 0
2 1 0 0
3 0.01010101010100996 0 0
4 0.02020202020201993 0 0
5 0.03030303030302989 0 0
6 0.04040404040403986 0 0
7 0.05050505050504982 0 0
8 0.06060606060605978 0 0
9 0.07070707070706975 0 0
10 0.08080808080807972 0 0
11 0.09090909090908968 0 0
12 0.1010101010100996 0 0
13 0.1111111111111096 0 0
14 0.1212121212121196 0 0
15 0.1313131313131295 0 0
16 0.1414141414141395 0 0
17 0.1515151515151495 0 0
18 0.1616161616161594 0 0
19 0.1717171717171694 0 0
20 0.1818181818181794 0 0
21 0.1919191919191893 0 0
22 0.2020202020201993 0 0
23 0.2121212121212092 0 0
24 0.2222222222222192 0 0
25 0.2323232323232292 0 0
26 0.2424242424242391 0 0
27 0.2525252525252491 0 0
28 0.262626262626259 0 0
29 0.272727272727269 0 0
30 0.282828282828279 0 0
31 0.2929292929292889 0 0
32 0.3030303030302989 0 0
33 0.3131313131313089 0 0
34 0.3232323232323188 0 0
35 0.3333333333333288 0 0
36 0.3434343434343388 0 0
37 0.3535353535353487 0 0
38 0.3636363636363587 0 0
39 0.3737373737373686 0 0
40 0.3838383838383786 0 0
41 0.3939393939393885 0 0
42 0.4040404040403985 0 0
43 0.4141414141414085 0 0
44 0.4242424242424184 0 0
45 0.4343434343434284 0 0
46 0.4444444444444384 0 0
47 0.4545454545454483 0 0
48 0.4646464646464583 0 0
49 0.4747474747474683 0 0
50 0.4848484848484782 0 0
51 0.4949494949494882 0 0
52 0.5050505050504981 0 0
53 0.5151515151515081 0 0
54 0.5252525252525181 0 0
55 0.535353535353528 0 0
56 0.545454545454538 0 0
57 0.5555555555555479 0 0
58 0.5656565656565579 0 0
59 0.5757575757575678 0 0
60 0.5858585858585778 0 0
61 0.5959595959595877 0 0
62 0.6060606060605978 0 0
63 0.6161616161616077 0 0
64 0.6262626262626176 0 0
65 0.6363636363636276 0 0
66 0.6464646464646375 0 0
67 0.6565656565656475 0 0
68 0.6666666666666574 0 0
69 0.6767676767676674 0 0
70 0.6868686868686773 0 0
71 0.6969696969696874 0 0
72 0.7070707070706973 0 0
73 0.7171717171717072 0 0
74 0.7272727272727172 0 0
75 0.7373737373737271 0 0
76 0.7474747474747371 0 0
77 0.7575757575757475 0 0
78 0.767676767676758 0 0
79 0.7777777777777685 0 0
80 0.7878787878787791 0 0
81 0.7979797979797896 0 0
82 0.8080808080808001 0 0
83 0.8181818181818106 0 0
84 0.8282828282828211 0 0
85 0.8383838383838317 0 0
86 0.8484848484848422 0 0
87 0.8585858585858527 0 0
88 0.8686868686868632 0 0
89 0.8787878787878737 0 0
90 0.8888888888888843 0 0
91 0.8989898989898948 0 0
92 0.9090909090909053 0 0
93 0.9191919191919158 0 0
94 0.9292929292929263 0 0
95 0.9393939393939368 0 0
96 0.9494949494949474 0 0
97 0.9595959595959579 0 0
98 0.9696969696969684 0 0
99 0.9797979797979789 0 0
100 0.9898989898989894 0 0
$EndNodes
$Elements
101
1 15 2 2 1 1
2 15 2 3 2 2
3 1 3 1 1 0 1 3
4 1 3 1 1 0 3 4
5 1 3 1 1 0 4 5
6 1 3 1 1 0 5 6
7 1 3 1 1 0 6 7
8 1 3 1 1 0 7 8
9 1 3 1 1 0 8 9
10 1 3 1 1 0 9 10
11 1 3 1 1 0 10 11
12 1 3 1 1 0 11 12
13 1 3 1 1 0 12 13
14 1 3 1 1 0 13 14
15 1 3 1 1 0 14 15
16 1 3 1 1 0 15 16
17 1 3 1 1 0 16 17
18 1 3 1 1 0 17 18
19 1 3 1 1 0 18 19
20 1 3 1 1 0 19 20
21 1 3 1 1 0 20 21
22 1 3 1 1 0 21 22
23 1 3 1 1 0 22 23
24 1 3 1 1 0 23 24
25 1 3 1 1 0 24 25
26 1 3 1 1 0 25 26
27 1 3 1 1 0 26 27
28 1 3 1 1 0 27 28
29 1 3 1 1 0 28 29
30 1 3 1 1 0 29 30
31 1 3 1 1 0 30 31
32 1 3 1 1 0 31 32
33 1 3 1 1 0 32 33
34 1 3 1 1 0 33 34
35 1 3 1 1 0 34 35
36 1 3 1 1 0 35 36
37 1 3 1 1 0 36 37
38 1 3 1 1 0 37 38
39 1 3 1 1 0 38 39
40 1 3 1 1 0 39 40
41 1 3 1 1 0 40 41
42 1 3 1 1 0 41 42
43 1 3 1 1 0 42 43
44 1 3 1 1 0 43 44
45 1 3 1 1 0 44 45
46 1 3 1 1 0 45 46
47 1 3 1 1 0 46 47
48 1 3 1 1 0 47 48
49 1 3 1 1 0 48 49
50 1 3 1 1 0 49 50
51 1 3 1 1 0 50 51
52 1 3 1 1 0 51 52
53 1 3 1 1 0 52 53
54 1 3 1 1 0 53 54
55 1 3 1 1 0 54 55
56 1 3 1 1 0 55 56
57 1 3 1 1 0 56 57
58 1 3 1 1 0 57 58
59 1 3 1 1 0 58 59
60 1 3 1 1 0 59 60
61 1 3 1 1 0 60 61
62 1 3 1 1 0 61 62
63 1 3 1 1 0 62 63
64 1 3 1 1 0 63 64
65 1 3 1 1 0 64 65
66 1 3 1 1 0 65 66
67 1 3 1 1 0 66 67
68 1 3 1 1 0 67 68
69 1 3 1 1 0 68 69
70 1 3 1 1 0 69 70
71 1 3 1 1 0 70 71
72 1 3 1 1 0 71 72
73 1 3 1 1 0 72 73
74 1 3 1 1 0 73 74
75 1 3 1 1 0 74 75
76 1 3 1 1 0 75 76
77 1 3 1 1 0 76 77
78 1 3 1 1 0 77 78
79 1 3 1 1 0 78 79
80 1 3 1 1 0 79 80
81 1 3 1 1 0 80 81
82 1 3 1 1 0 81 82
83 1 3 1 1 0 82 83
84 1 3 1 1 0 83 84
85 1 3 1 1 0 84 85
86 1 3 1 1 0 85 86
87 1 3 1 1 0 86 87
88 1 3 1 1 0 87 88
89 1 3 1 1 0 88 89
90 1 3 1 1 0 89 90
91 1 3 1 1 0 90 91
92 1 3 1 1 0 91 92
93 1 3 1 1 0 92 93
94 1 3 1 1 0 93 94
95 1 3 1 1 0 94 95
96 1 3 1 1 0 95 96
97 1 3 1 1 0 96 97
98 1 3 1 1 0 97 98
99 1 3 1 1 0 98 99
100 1 3 1 1 0 99 100
101 1 3 1 1 0 100 2
$EndElements
