$MeshFormat
2 0 8
$EndMeshFormat
$PhysicalNames
7
1 "cathode"
2 "nside"
3 "buffer_classical"
4 "buffer_quantum"
5 "well"
6 "pside"
7 "anode"
$EndPhysicalNames
$Nodes
302
1 -200 0 0
2 -20 0 0
3 -15 0 0
4 -5 0 0
5 5 0 0
6 15 0 0
7 20 0 0
8 200 0 0
9 -195.0263172769473 0 0
10 -190.1625530385017 0 0
11 -185.4063148337846 0 0
12 -180.7552328924678 0 0
13 -176.2069467011283 0 0
14 -171.7592030142398 0 0
15 -167.409779774506 0 0
16 -163.1565007540156 0 0
17 -158.9972378849012 0 0
18 -154.9299247842594 0 0
19 -150.9524982682834 0 0
20 -147.0630214491734 0 0
21 -143.259517183182 0 0
22 -139.5400763744745 0 0
23 -135.9028831282054 0 0
24 -132.3460626139269 0 0
25 -128.8678896940518 0 0
26 -125.466570247975 0 0
27 -122.1404639858809 0 0
28 -118.8878973085349 0 0
29 -115.7072110499903 0 0
30 -112.596826398727 0 0
31 -109.5551871995594 0 0
32 -106.5808024096263 0 0
33 -103.6721639798042 0 0
34 -100.8278313345703 0 0
35 -98.04635989608263 0 0
36 -95.32638176720394 0 0
37 -92.66653255331018 0 0
38 -90.06547571519879 0 0
39 -87.52191776294458 0 0
40 -85.03458002084702 0 0
41 -82.60223575419252 0 0
42 -80.22365289912617 0 0
43 -77.89765138630176 0 0
44 -75.62306325976139 0 0
45 -73.39876350201486 0 0
46 -71.2236239678419 0 0
47 -69.09657365985898 0 0
48 -67.01653142756008 0 0
49 -64.98248119606602 0 0
50 -62.99338910811425 0 0
51 -61.04826269347714 0 0
52 -59.14614770170133 0 0
53 -57.28606784930352 0 0
54 -55.46711177812032 0 0
55 -53.68835918950158 0 0
56 -51.94893039807975 0 0
57 -50.24794418616194 0 0
58 -48.58456711415986 0 0
59 -46.95795856056195 0 0
60 -45.3673073329345 0 0
61 -43.81180690894232 0 0
62 -42.29069885994731 0 0
63 -40.80321723423629 0 0
64 -39.34861559590863 0 0
65 -37.92616684987357 0 0
66 -36.53516563974951 0 0
67 -35.17491145249135 0 0
68 -33.84472299412909 0 0
69 -32.5439449293546 0 0
70 -31.27191776294354 0 0
71 -30.02800746905163 0 0
72 -28.81159749456601 0 0
73 -27.62207499331531 0 0
74 -26.45884316318369 0 0
75 -25.32133003032659 0 0
76 -24.20896274845379 0 0
77 -23.12117999437155 0 0
78 -22.05744847135394 0 0
79 -21.01722814818435 0 0
80 -18.75 0 0
81 -17.5 0 0
82 -16.25 0 0
83 -14.02234380868674 0 0
84 -13.1307101153364 0 0
85 -12.31752994751212 0 0
86 -11.57590112125446 0 0
87 -10.89952665028437 0 0
88 -10.28266626434799 0 0
89 -9.720084645249083 0 0
90 -9.207002466405637 0 0
91 -8.739065925728957 0 0
92 -8.312302586590276 0 0
93 -7.923090169379673 0 0
94 -7.568123674451869 0 0
95 -7.244391540513934 0 0
96 -6.949143524691187 0 0
97 -6.679873926789969 0 0
98 -6.434298282137318 0 0
99 -6.210329314854577 0 0
100 -6.006067572119499 0 0
101 -5.81977893237452 0 0
102 -5.649881541824213 0 0
103 -5.494933400593039 0 0
104 -5.353618827671891 0 0
105 -5.224738347747381 0 0
106 -5.107198200763941 0 0
107 -4.8989898989899 0 0
108 -4.797979797979799 0 0
109 -4.696969696969699 0 0
110 -4.595959595959598 0 0
111 -4.494949494949497 0 0
112 -4.393939393939397 0 0
113 -4.292929292929297 0 0
114 -4.191919191919196 0 0
115 -4.090909090909096 0 0
116 -3.989898989898996 0 0
117 -3.888888888888895 0 0
118 -3.787878787878795 0 0
119 -3.686868686868694 0 0
120 -3.585858585858594 0 0
121 -3.484848484848493 0 0
122 -3.383838383838393 0 0
123 -3.282828282828293 0 0
124 -3.181818181818192 0 0
125 -3.080808080808092 0 0
126 -2.979797979797991 0 0
127 -2.87878787878789 0 0
128 -2.777777777777791 0 0
129 -2.67676767676769 0 0
130 -2.575757575757589 0 0
131 -2.47474747474749 0 0
132 -2.37373737373739 0 0
133 -2.272727272727291 0 0
134 -2.171717171717191 0 0
135 -2.070707070707092 0 0
136 -1.969696969696993 0 0
137 -1.868686868686893 0 0
138 -1.767676767676794 0 0
139 -1.666666666666694 0 0
140 -1.565656565656595 0 0
141 -1.464646464646496 0 0
142 -1.363636363636397 0 0
143 -1.262626262626297 0 0
144 -1.161616161616198 0 0
145 -1.060606060606099 0 0
146 -0.9595959595959996 0 0
147 -0.8585858585859002 0 0
148 -0.7575757575758008 0 0
149 -0.6565656565657013 0 0
150 -0.5555555555556024 0 0
151 -0.454545454545503 0 0
152 -0.3535353535354036 0 0
153 -0.2525252525253041 0 0
154 -0.1515151515152052 0 0
155 -0.05050505050510579 0 0
156 0.05050505050499421 0 0
157 0.1515151515150925 0 0
158 0.252525252525192 0 0
159 0.3535353535352914 0 0
160 0.4545454545453909 0 0
161 0.5555555555554903 0 0
162 0.6565656565655897 0 0
163 0.7575757575756892 0 0
164 0.8585858585857886 0 0
165 0.9595959595958881 0 0
166 1.060606060605987 0 0
167 1.161616161616087 0 0
168 1.262626262626186 0 0
169 1.363636363636285 0 0
170 1.464646464646384 0 0
171 1.565656565656484 0 0
172 1.666666666666583 0 0
173 1.767676767676682 0 0
174 1.868686868686782 0 0
175 1.969696969696881 0 0
176 2.070707070706981 0 0
177 2.17171717171708 0 0
178 2.27272727272718 0 0
179 2.373737373737279 0 0
180 2.474747474747379 0 0
181 2.575757575757481 0 0
182 2.676767676767586 0 0
183 2.777777777777692 0 0
184 2.878787878787796 0 0
185 2.979797979797901 0 0
186 3.080808080808006 0 0
187 3.181818181818111 0 0
188 3.282828282828216 0 0
189 3.383838383838321 0 0
190 3.484848484848426 0 0
191 3.585858585858531 0 0
192 3.686868686868636 0 0
193 3.787878787878741 0 0
194 3.888888888888846 0 0
195 3.989898989898951 0 0
196 4.090909090909056 0 0
197 4.191919191919161 0 0
198 4.292929292929266 0 0
199 4.39393939393937 0 0
200 4.494949494949475 0 0
201 4.59595959595958 0 0
202 4.696969696969685 0 0
203 4.79797979797979 0 0
204 4.898989898989895 0 0
205 5.10719820076394 0 0
206 5.224738347747382 0 0
207 5.353618827671891 0 0
208 5.494933400593037 0 0
209 5.649881541824209 0 0
210 5.819778932374517 0 0
211 6.006067572119496 0 0
212 6.210329314854571 0 0
213 6.434298282137314 0 0
214 6.679873926789965 0 0
215 6.949143524691183 0 0
216 7.244391540513932 0 0
217 7.568123674451865 0 0
218 7.92309016937967 0 0
219 8.312302586590272 0 0
220 8.73906592572895 0 0
221 9.207002466405635 0 0
222 9.720084645249083 0 0
223 10.28266626434799 0 0
224 10.89952665028437 0 0
225 11.57590112125446 0 0
226 12.31752994751212 0 0
227 13.13071011533641 0 0
228 14.02234380868675 0 0
229 16.24999999999983 0 0
230 17.49999999999989 0 0
231 18.74999999999994 0 0
232 21.01722814818435 0 0
233 22.05744847135394 0 0
234 23.12117999437156 0 0
235 24.2089627484538 0 0
236 25.32133003032662 0 0
237 26.45884316318372 0 0
238 27.62207499331531 0 0
239 28.81159749456604 0 0
240 30.02800746905167 0 0
241 31.27191776294358 0 0
242 32.54394492935462 0 0
243 33.84472299412914 0 0
244 35.1749114524914 0 0
245 36.53516563974956 0 0
246 37.92616684987362 0 0
247 39.34861559590865 0 0
248 40.80321723423637 0 0
249 42.29069885994737 0 0
250 43.81180690894234 0 0
251 45.36730733293454 0 0
252 46.95795856056195 0 0
253 48.58456711415986 0 0
254 50.24794418616195 0 0
255 51.94893039807975 0 0
256 53.68835918950158 0 0
257 55.46711177812026 0 0
258 57.28606784930344 0 0
259 59.14614770170126 0 0
260 61.04826269347709 0 0
261 62.9933891081142 0 0
262 64.98248119606593 0 0
263 67.01653142755997 0 0
264 69.09657365985888 0 0
265 71.22362396784177 0 0
266 73.39876350201472 0 0
267 75.62306325976127 0 0
268 77.8976513863016 0 0
269 80.22365289912602 0 0
270 82.60223575419235 0 0
271 85.03458002084685 0 0
272 87.52191776294445 0 0
273 90.0654757151987 0 0
274 92.66653255331013 0 0
275 95.32638176720391 0 0
276 98.04635989608266 0 0
277 100.8278313345703 0 0
278 103.6721639798041 0 0
279 106.5808024096262 0 0
280 109.5551871995593 0 0
281 112.5968263987268 0 0
282 115.7072110499901 0 0
283 118.8878973085347 0 0
284 122.1404639858807 0 0
285 125.4665702479748 0 0
286 128.8678896940516 0 0
287 132.3460626139267 0 0
288 135.9028831282051 0 0
289 139.5400763744741 0 0
290 143.2595171831816 0 0
291 147.0630214491729 0 0
292 150.952498268283 0 0
293 154.929924784259 0 0
294 158.9972378849008 0 0
295 163.1565007540152 0 0
296 167.4097797745058 0 0
297 171.7592030142395 0 0
298 176.206946701128 0 0
299 180.7552328924675 0 0
300 185.4063148337844 0 0
301 190.1625530385015 0 0
302 195.0263172769471 0 0
$EndNodes
$Elements
303
1 15 2 1 1 1
2 15 2 7 8 8
3 1 3 2 1 0 1 9
4 1 3 2 1 0 9 10
5 1 3 2 1 0 10 11
6 1 3 2 1 0 11 12
7 1 3 2 1 0 12 13
8 1 3 2 1 0 13 14
9 1 3 2 1 0 14 15
10 1 3 2 1 0 15 16
11 1 3 2 1 0 16 17
12 1 3 2 1 0 17 18
13 1 3 2 1 0 18 19
14 1 3 2 1 0 19 20
15 1 3 2 1 0 20 21
16 1 3 2 1 0 21 22
17 1 3 2 1 0 22 23
18 1 3 2 1 0 23 24
19 1 3 2 1 0 24 25
20 1 3 2 1 0 25 26
21 1 3 2 1 0 26 27
22 1 3 2 1 0 27 28
23 1 3 2 1 0 28 29
24 1 3 2 1 0 29 30
25 1 3 2 1 0 30 31
26 1 3 2 1 0 31 32
27 1 3 2 1 0 32 33
28 1 3 2 1 0 33 34
29 1 3 2 1 0 34 35
30 1 3 2 1 0 35 36
31 1 3 2 1 0 36 37
32 1 3 2 1 0 37 38
33 1 3 2 1 0 38 39
34 1 3 2 1 0 39 40
35 1 3 2 1 0 40 41
36 1 3 2 1 0 41 42
37 1 3 2 1 0 42 43
38 1 3 2 1 0 43 44
39 1 3 2 1 0 44 45
40 1 3 2 1 0 45 46
41 1 3 2 1 0 46 47
42 1 3 2 1 0 47 48
43 1 3 2 1 0 48 49
44 1 3 2 1 0 49 50
45 1 3 2 1 0 50 51
46 1 3 2 1 0 51 52
47 1 3 2 1 0 52 53
48 1 3 2 1 0 53 54
49 1 3 2 1 0 54 55
50 1 3 2 1 0 55 56
51 1 3 2 1 0 56 57
52 1 3 2 1 0 57 58
53 1 3 2 1 0 58 59
54 1 3 2 1 0 59 60
55 1 3 2 1 0 60 61
56 1 3 2 1 0 61 62
57 1 3 2 1 0 62 63
58 1 3 2 1 0 63 64
59 1 3 2 1 0 64 65
60 1 3 2 1 0 65 66
61 1 3 2 1 0 66 67
62 1 3 2 1 0 67 68
63 1 3 2 1 0 68 69
64 1 3 2 1 0 69 70
65 1 3 2 1 0 70 71
66 1 3 2 1 0 71 72
67 1 3 2 1 0 72 73
68 1 3 2 1 0 73 74
69 1 3 2 1 0 74 75
70 1 3 2 1 0 75 76
71 1 3 2 1 0 76 77
72 1 3 2 1 0 77 78
73 1 3 2 1 0 78 79
74 1 3 2 1 0 79 2
75 1 3 3 2 0 2 80
76 1 3 3 2 0 80 81
77 1 3 3 2 0 81 82
78 1 3 3 2 0 82 3
79 1 3 4 3 0 3 83
80 1 3 4 3 0 83 84
81 1 3 4 3 0 84 85
82 1 3 4 3 0 85 86
83 1 3 4 3 0 86 87
84 1 3 4 3 0 87 88
85 1 3 4 3 0 88 89
86 1 3 4 3 0 89 90
87 1 3 4 3 0 90 91
88 1 3 4 3 0 91 92
89 1 3 4 3 0 92 93
90 1 3 4 3 0 93 94
91 1 3 4 3 0 94 95
92 1 3 4 3 0 95 96
93 1 3 4 3 0 96 97
94 1 3 4 3 0 97 98
95 1 3 4 3 0 98 99
96 1 3 4 3 0 99 100
97 1 3 4 3 0 100 101
98 1 3 4 3 0 101 102
99 1 3 4 3 0 102 103
100 1 3 4 3 0 103 104
101 1 3 4 3 0 104 105
102 1 3 4 3 0 105 106
103 1 3 4 3 0 106 4
104 1 3 5 4 0 4 107
105 1 3 5 4 0 107 108
106 1 3 5 4 0 108 109
107 1 3 5 4 0 109 110
108 1 3 5 4 0 110 111
109 1 3 5 4 0 111 112
110 1 3 5 4 0 112 113
111 1 3 5 4 0 113 114
112 1 3 5 4 0 114 115
113 1 3 5 4 0 115 116
114 1 3 5 4 0 116 117
115 1 3 5 4 0 117 118
116 1 3 5 4 0 118 119
117 1 3 5 4 0 119 120
118 1 3 5 4 0 120 121
119 1 3 5 4 0 121 122
120 1 3 5 4 0 122 123
121 1 3 5 4 0 123 124
122 1 3 5 4 0 124 125
123 1 3 5 4 0 125 126
124 1 3 5 4 0 126 127
125 1 3 5 4 0 127 128
126 1 3 5 4 0 128 129
127 1 3 5 4 0 129 130
128 1 3 5 4 0 130 131
129 1 3 5 4 0 131 132
130 1 3 5 4 0 132 133
131 1 3 5 4 0 133 134
132 1 3 5 4 0 134 135
133 1 3 5 4 0 135 136
134 1 3 5 4 0 136 137
135 1 3 5 4 0 137 138
136 1 3 5 4 0 138 139
137 1 3 5 4 0 139 140
138 1 3 5 4 0 140 141
139 1 3 5 4 0 141 142
140 1 3 5 4 0 142 143
141 1 3 5 4 0 143 144
142 1 3 5 4 0 144 145
143 1 3 5 4 0 145 146
144 1 3 5 4 0 146 147
145 1 3 5 4 0 147 148
146 1 3 5 4 0 148 149
147 1 3 5 4 0 149 150
148 1 3 5 4 0 150 151
149 1 3 5 4 0 151 152
150 1 3 5 4 0 152 153
151 1 3 5 4 0 153 154
152 1 3 5 4 0 154 155
153 1 3 5 4 0 155 156
154 1 3 5 4 0 156 157
155 1 3 5 4 0 157 158
156 1 3 5 4 0 158 159
157 1 3 5 4 0 159 160
158 1 3 5 4 0 160 161
159 1 3 5 4 0 161 162
160 1 3 5 4 0 162 163
161 1 3 5 4 0 163 164
162 1 3 5 4 0 164 165
163 1 3 5 4 0 165 166
164 1 3 5 4 0 166 167
165 1 3 5 4 0 167 168
166 1 3 5 4 0 168 169
167 1 3 5 4 0 169 170
168 1 3 5 4 0 170 171
169 1 3 5 4 0 171 172
170 1 3 5 4 0 172 173
171 1 3 5 4 0 173 174
172 1 3 5 4 0 174 175
173 1 3 5 4 0 175 176
174 1 3 5 4 0 176 177
175 1 3 5 4 0 177 178
176 1 3 5 4 0 178 179
177 1 3 5 4 0 179 180
178 1 3 5 4 0 180 181
179 1 3 5 4 0 181 182
180 1 3 5 4 0 182 183
181 1 3 5 4 0 183 184
182 1 3 5 4 0 184 185
183 1 3 5 4 0 185 186
184 1 3 5 4 0 186 187
185 1 3 5 4 0 187 188
186 1 3 5 4 0 188 189
187 1 3 5 4 0 189 190
188 1 3 5 4 0 190 191
189 1 3 5 4 0 191 192
190 1 3 5 4 0 192 193
191 1 3 5 4 0 193 194
192 1 3 5 4 0 194 195
193 1 3 5 4 0 195 196
194 1 3 5 4 0 196 197
195 1 3 5 4 0 197 198
196 1 3 5 4 0 198 199
197 1 3 5 4 0 199 200
198 1 3 5 4 0 200 201
199 1 3 5 4 0 201 202
200 1 3 5 4 0 202 203
201 1 3 5 4 0 203 204
202 1 3 5 4 0 204 5
203 1 3 4 5 0 5 205
204 1 3 4 5 0 205 206
205 1 3 4 5 0 206 207
206 1 3 4 5 0 207 208
207 1 3 4 5 0 208 209
208 1 3 4 5 0 209 210
209 1 3 4 5 0 210 211
210 1 3 4 5 0 211 212
211 1 3 4 5 0 212 213
212 1 3 4 5 0 213 214
213 1 3 4 5 0 214 215
214 1 3 4 5 0 215 216
215 1 3 4 5 0 216 217
216 1 3 4 5 0 217 218
217 1 3 4 5 0 218 219
218 1 3 4 5 0 219 220
219 1 3 4 5 0 220 221
220 1 3 4 5 0 221 222
221 1 3 4 5 0 222 223
222 1 3 4 5 0 223 224
223 1 3 4 5 0 224 225
224 1 3 4 5 0 225 226
225 1 3 4 5 0 226 227
226 1 3 4 5 0 227 228
227 1 3 4 5 0 228 6
228 1 3 3 6 0 6 229
229 1 3 3 6 0 229 230
230 1 3 3 6 0 230 231
231 1 3 3 6 0 231 7
232 1 3 6 7 0 7 232
233 1 3 6 7 0 232 233
234 1 3 6 7 0 233 234
235 1 3 6 7 0 234 235
236 1 3 6 7 0 235 236
237 1 3 6 7 0 236 237
238 1 3 6 7 0 237 238
239 1 3 6 7 0 238 239
240 1 3 6 7 0 239 240
241 1 3 6 7 0 240 241
242 1 3 6 7 0 241 242
243 1 3 6 7 0 242 243
244 1 3 6 7 0 243 244
245 1 3 6 7 0 244 245
246 1 3 6 7 0 245 246
247 1 3 6 7 0 246 247
248 1 3 6 7 0 247 248
249 1 3 6 7 0 248 249
250 1 3 6 7 0 249 250
251 1 3 6 7 0 250 251
252 1 3 6 7 0 251 252
253 1 3 6 7 0 252 253
254 1 3 6 7 0 253 254
255 1 3 6 7 0 254 255
256 1 3 6 7 0 255 256
257 1 3 6 7 0 256 257
258 1 3 6 7 0 257 258
259 1 3 6 7 0 258 259
260 1 3 6 7 0 259 260
261 1 3 6 7 0 260 261
262 1 3 6 7 0 261 262
263 1 3 6 7 0 262 263
264 1 3 6 7 0 263 264
265 1 3 6 7 0 264 265
266 1 3 6 7 0 265 266
267 1 3 6 7 0 266 267
268 1 3 6 7 0 267 268
269 1 3 6 7 0 268 269
270 1 3 6 7 0 269 270
271 1 3 6 7 0 270 271
272 1 3 6 7 0 271 272
273 1 3 6 7 0 272 273
274 1 3 6 7 0 273 274
275 1 3 6 7 0 274 275
276 1 3 6 7 0 275 276
277 1 3 6 7 0 276 277
278 1 3 6 7 0 277 278
279 1 3 6 7 0 278 279
280 1 3 6 7 0 279 280
281 1 3 6 7 0 280 281
282 1 3 6 7 0 281 282
283 1 3 6 7 0 282 283
284 1 3 6 7 0 283 284
285 1 3 6 7 0 284 285
286 1 3 6 7 0 285 286
287 1 3 6 7 0 286 287
288 1 3 6 7 0 287 288
289 1 3 6 7 0 288 289
290 1 3 6 7 0 289 290
291 1 3 6 7 0 290 291
292 1 3 6 7 0 291 292
293 1 3 6 7 0 292 293
294 1 3 6 7 0 293 294
295 1 3 6 7 0 294 295
296 1 3 6 7 0 295 296
297 1 3 6 7 0 296 297
298 1 3 6 7 0 297 298
299 1 3 6 7 0 298 299
300 1 3 6 7 0 299 300
301 1 3 6 7 0 300 301
302 1 3 6 7 0 301 302
303 1 3 6 7 0 302 8
$EndElements
