$MeshFormat
2.1 0 8
$EndMeshFormat
$PhysicalNames
6
0 4 "source"
0 5 "left"
0 6 "right"
1 1 "pml"
1 2 "device1"
1 3 "device2"
$EndPhysicalNames
$Nodes
321
1 0 0 0
2 4 0 0
3 6 0 0
4 8 0 0
5 12 0 0
6 0.05 0 0
7 0.1 0 0
8 0.15 0 0
9 0.2 0 0
10 0.25 0 0
11 0.3 0 0
12 0.35 0 0
13 0.4 0 0
14 0.45 0 0
15 0.5 0 0
16 0.55 0 0
17 0.6 0 0
18 0.65 0 0
19 0.7 0 0
20 0.75 0 0
21 0.8 0 0
22 0.85 0 0
23 0.9 0 0
24 0.95 0 0
25 1 0 0
26 1.05 0 0
27 1.1 0 0
28 1.15 0 0
29 1.2 0 0
30 1.25 0 0
31 1.3 0 0
32 1.35 0 0
33 1.4 0 0
34 1.45 0 0
35 1.5 0 0
36 1.55 0 0
37 1.6 0 0
38 1.65 0 0
39 1.7 0 0
40 1.75 0 0
41 1.8 0 0
42 1.85 0 0
43 1.9 0 0
44 1.95 0 0
45 2 0 0
46 2.05 0 0
47 2.1 0 0
48 2.15 0 0
49 2.2 0 0
50 2.25 0 0
51 2.3 0 0
52 2.35 0 0
53 2.4 0 0
54 2.45 0 0
55 2.5 0 0
56 2.55 0 0
57 2.6 0 0
58 2.65 0 0
59 2.7 0 0
60 2.75 0 0
61 2.8 0 0
62 2.85 0 0
63 2.9 0 0
64 2.95 0 0
65 3 0 0
66 3.05 0 0
67 3.1 0 0
68 3.15 0 0
69 3.2 0 0
70 3.25 0 0
71 3.3 0 0
72 3.35 0 0
73 3.4 0 0
74 3.45 0 0
75 3.5 0 0
76 3.55 0 0
77 3.6 0 0
78 3.65 0 0
79 3.7 0 0
80 3.75 0 0
81 3.8 0 0
82 3.85 0 0
83 3.9 0 0
84 3.95 0 0
85 4.025 0 0
86 4.05 0 0
87 4.075 0 0
88 4.1 0 0
89 4.125 0 0
90 4.15 0 0
91 4.175 0 0
92 4.2 0 0
93 4.225 0 0
94 4.25 0 0
95 4.275 0 0
96 4.3 0 0
97 4.325 0 0
98 4.35 0 0
99 4.375 0 0
100 4.4 0 0
101 4.425 0 0
102 4.45 0 0
103 4.475 0 0
104 4.5 0 0
105 4.525 0 0
106 4.55 0 0
107 4.575 0 0
108 4.6 0 0
109 4.625 0 0
110 4.65 0 0
111 4.675 0 0
112 4.7 0 0
113 4.725 0 0
114 4.75 0 0
115 4.775 0 0
116 4.8 0 0
117 4.825 0 0
118 4.85 0 0
119 4.875 0 0
120 4.9 0 0
121 4.925 0 0
122 4.95 0 0
123 4.975 0 0
124 5 0 0
125 5.025 0 0
126 5.05 0 0
127 5.075 0 0
128 5.1 0 0
129 5.125 0 0
130 5.15 0 0
131 5.175 0 0
132 5.2 0 0
133 5.225 0 0
134 5.25 0 0
135 5.275 0 0
136 5.3 0 0
137 5.325 0 0
138 5.35 0 0
139 5.375 0 0
140 5.4 0 0
141 5.425 0 0
142 5.45 0 0
143 5.475 0 0
144 5.5 0 0
145 5.525 0 0
146 5.55 0 0
147 5.575 0 0
148 5.6 0 0
149 5.625 0 0
150 5.65 0 0
151 5.675 0 0
152 5.7 0 0
153 5.725 0 0
154 5.75 0 0
155 5.775 0 0
156 5.8 0 0
157 5.825 0 0
158 5.85 0 0
159 5.875 0 0
160 5.9 0 0
161 5.925 0 0
162 5.95 0 0
163 5.975 0 0
164 6.025 0 0
165 6.05 0 0
166 6.075 0 0
167 6.1 0 0
168 6.125 0 0
169 6.15 0 0
170 6.175 0 0
171 6.2 0 0
172 6.225 0 0
173 6.25 0 0
174 6.275 0 0
175 6.3 0 0
176 6.325 0 0
177 6.35 0 0
178 6.375 0 0
179 6.4 0 0
180 6.425 0 0
181 6.45 0 0
182 6.475 0 0
183 6.5 0 0
184 6.525 0 0
185 6.55 0 0
186 6.575 0 0
187 6.6 0 0
188 6.625 0 0
189 6.65 0 0
190 6.675 0 0
191 6.7 0 0
192 6.725 0 0
193 6.75 0 0
194 6.775 0 0
195 6.8 0 0
196 6.825 0 0
197 6.85 0 0
198 6.875 0 0
199 6.9 0 0
200 6.925 0 0
201 6.95 0 0
202 6.975 0 0
203 7 0 0
204 7.025 0 0
205 7.05 0 0
206 7.075 0 0
207 7.1 0 0
208 7.125 0 0
209 7.15 0 0
210 7.175 0 0
211 7.2 0 0
212 7.225 0 0
213 7.25 0 0
214 7.275 0 0
215 7.3 0 0
216 7.325 0 0
217 7.35 0 0
218 7.375 0 0
219 7.4 0 0
220 7.425 0 0
221 7.45 0 0
222 7.475 0 0
223 7.5 0 0
224 7.525 0 0
225 7.55 0 0
226 7.575 0 0
227 7.6 0 0
228 7.625 0 0
229 7.65 0 0
230 7.675 0 0
231 7.7 0 0
232 7.725 0 0
233 7.75 0 0
234 7.775 0 0
235 7.8 0 0
236 7.825 0 0
237 7.85 0 0
238 7.875 0 0
239 7.9 0 0
240 7.925 0 0
241 7.95 0 0
242 7.975 0 0
243 8.050000000000001 0 0
244 8.1 0 0
245 8.15 0 0
246 8.199999999999999 0 0
247 8.25 0 0
248 8.300000000000001 0 0
249 8.35 0 0
250 8.4 0 0
251 8.449999999999999 0 0
252 8.5 0 0
253 8.550000000000001 0 0
254 8.6 0 0
255 8.65 0 0
256 8.699999999999999 0 0
257 8.75 0 0
258 8.800000000000001 0 0
259 8.85 0 0
260 8.9 0 0
261 8.949999999999999 0 0
262 9 0 0
263 9.050000000000001 0 0
264 9.1 0 0
265 9.15 0 0
266 9.199999999999999 0 0
267 9.25 0 0
268 9.300000000000001 0 0
269 9.35 0 0
270 9.4 0 0
271 9.449999999999999 0 0
272 9.5 0 0
273 9.550000000000001 0 0
274 9.6 0 0
275 9.65 0 0
276 9.699999999999999 0 0
277 9.75 0 0
278 9.800000000000001 0 0
279 9.85 0 0
280 9.9 0 0
281 9.949999999999999 0 0
282 10 0 0
283 10.05 0 0
284 10.1 0 0
285 10.15 0 0
286 10.2 0 0
287 10.25 0 0
288 10.3 0 0
289 10.35 0 0
290 10.4 0 0
291 10.45 0 0
292 10.5 0 0
293 10.55 0 0
294 10.6 0 0
295 10.65 0 0
296 10.7 0 0
297 10.75 0 0
298 10.8 0 0
299 10.85 0 0
300 10.9 0 0
301 10.95 0 0
302 11 0 0
303 11.05 0 0
304 11.1 0 0
305 11.15 0 0
306 11.2 0 0
307 11.25 0 0
308 11.3 0 0
309 11.35 0 0
310 11.4 0 0
311 11.45 0 0
312 11.5 0 0
313 11.55 0 0
314 11.6 0 0
315 11.65 0 0
316 11.7 0 0
317 11.75 0 0
318 11.8 0 0
319 11.85 0 0
320 11.9 0 0
321 11.95 0 0
$EndNodes
$Elements
323
1 15 3 5 1 0 1
2 15 3 4 2 0 2
3 15 3 6 4 0 4
4 1 3 1 1 0 1 6
5 1 3 1 1 0 6 7
6 1 3 1 1 0 7 8
7 1 3 1 1 0 8 9
8 1 3 1 1 0 9 10
9 1 3 1 1 0 10 11
10 1 3 1 1 0 11 12
11 1 3 1 1 0 12 13
12 1 3 1 1 0 13 14
13 1 3 1 1 0 14 15
14 1 3 1 1 0 15 16
15 1 3 1 1 0 16 17
16 1 3 1 1 0 17 18
17 1 3 1 1 0 18 19
18 1 3 1 1 0 19 20
19 1 3 1 1 0 20 21
20 1 3 1 1 0 21 22
21 1 3 1 1 0 22 23
22 1 3 1 1 0 23 24
23 1 3 1 1 0 24 25
24 1 3 1 1 0 25 26
25 1 3 1 1 0 26 27
26 1 3 1 1 0 27 28
27 1 3 1 1 0 28 29
28 1 3 1 1 0 29 30
29 1 3 1 1 0 30 31
30 1 3 1 1 0 31 32
31 1 3 1 1 0 32 33
32 1 3 1 1 0 33 34
33 1 3 1 1 0 34 35
34 1 3 1 1 0 35 36
35 1 3 1 1 0 36 37
36 1 3 1 1 0 37 38
37 1 3 1 1 0 38 39
38 1 3 1 1 0 39 40
39 1 3 1 1 0 40 41
40 1 3 1 1 0 41 42
41 1 3 1 1 0 42 43
42 1 3 1 1 0 43 44
43 1 3 1 1 0 44 45
44 1 3 1 1 0 45 46
45 1 3 1 1 0 46 47
46 1 3 1 1 0 47 48
47 1 3 1 1 0 48 49
48 1 3 1 1 0 49 50
49 1 3 1 1 0 50 51
50 1 3 1 1 0 51 52
51 1 3 1 1 0 52 53
52 1 3 1 1 0 53 54
53 1 3 1 1 0 54 55
54 1 3 1 1 0 55 56
55 1 3 1 1 0 56 57
56 1 3 1 1 0 57 58
57 1 3 1 1 0 58 59
58 1 3 1 1 0 59 60
59 1 3 1 1 0 60 61
60 1 3 1 1 0 61 62
61 1 3 1 1 0 62 63
62 1 3 1 1 0 63 64
63 1 3 1 1 0 64 65
64 1 3 1 1 0 65 66
65 1 3 1 1 0 66 67
66 1 3 1 1 0 67 68
67 1 3 1 1 0 68 69
68 1 3 1 1 0 69 70
69 1 3 1 1 0 70 71
70 1 3 1 1 0 71 72
71 1 3 1 1 0 72 73
72 1 3 1 1 0 73 74
73 1 3 1 1 0 74 75
74 1 3 1 1 0 75 76
75 1 3 1 1 0 76 77
76 1 3 1 1 0 77 78
77 1 3 1 1 0 78 79
78 1 3 1 1 0 79 80
79 1 3 1 1 0 80 81
80 1 3 1 1 0 81 82
81 1 3 1 1 0 82 83
82 1 3 1 1 0 83 84
83 1 3 1 1 0 84 2
84 1 3 2 2 0 2 85
85 1 3 2 2 0 85 86
86 1 3 2 2 0 86 87
87 1 3 2 2 0 87 88
88 1 3 2 2 0 88 89
89 1 3 2 2 0 89 90
90 1 3 2 2 0 90 91
91 1 3 2 2 0 91 92
92 1 3 2 2 0 92 93
93 1 3 2 2 0 93 94
94 1 3 2 2 0 94 95
95 1 3 2 2 0 95 96
96 1 3 2 2 0 96 97
97 1 3 2 2 0 97 98
98 1 3 2 2 0 98 99
99 1 3 2 2 0 99 100
100 1 3 2 2 0 100 101
101 1 3 2 2 0 101 102
102 1 3 2 2 0 102 103
103 1 3 2 2 0 103 104
104 1 3 2 2 0 104 105
105 1 3 2 2 0 105 106
106 1 3 2 2 0 106 107
107 1 3 2 2 0 107 108
108 1 3 2 2 0 108 109
109 1 3 2 2 0 109 110
110 1 3 2 2 0 110 111
111 1 3 2 2 0 111 112
112 1 3 2 2 0 112 113
113 1 3 2 2 0 113 114
114 1 3 2 2 0 114 115
115 1 3 2 2 0 115 116
116 1 3 2 2 0 116 117
117 1 3 2 2 0 117 118
118 1 3 2 2 0 118 119
119 1 3 2 2 0 119 120
120 1 3 2 2 0 120 121
121 1 3 2 2 0 121 122
122 1 3 2 2 0 122 123
123 1 3 2 2 0 123 124
124 1 3 2 2 0 124 125
125 1 3 2 2 0 125 126
126 1 3 2 2 0 126 127
127 1 3 2 2 0 127 128
128 1 3 2 2 0 128 129
129 1 3 2 2 0 129 130
130 1 3 2 2 0 130 131
131 1 3 2 2 0 131 132
132 1 3 2 2 0 132 133
133 1 3 2 2 0 133 134
134 1 3 2 2 0 134 135
135 1 3 2 2 0 135 136
136 1 3 2 2 0 136 137
137 1 3 2 2 0 137 138
138 1 3 2 2 0 138 139
139 1 3 2 2 0 139 140
140 1 3 2 2 0 140 141
141 1 3 2 2 0 141 142
142 1 3 2 2 0 142 143
143 1 3 2 2 0 143 144
144 1 3 2 2 0 144 145
145 1 3 2 2 0 145 146
146 1 3 2 2 0 146 147
147 1 3 2 2 0 147 148
148 1 3 2 2 0 148 149
149 1 3 2 2 0 149 150
150 1 3 2 2 0 150 151
151 1 3 2 2 0 151 152
152 1 3 2 2 0 152 153
153 1 3 2 2 0 153 154
154 1 3 2 2 0 154 155
155 1 3 2 2 0 155 156
156 1 3 2 2 0 156 157
157 1 3 2 2 0 157 158
158 1 3 2 2 0 158 159
159 1 3 2 2 0 159 160
160 1 3 2 2 0 160 161
161 1 3 2 2 0 161 162
162 1 3 2 2 0 162 163
163 1 3 2 2 0 163 3
164 1 3 3 3 0 3 164
165 1 3 3 3 0 164 165
166 1 3 3 3 0 165 166
167 1 3 3 3 0 166 167
168 1 3 3 3 0 167 168
169 1 3 3 3 0 168 169
170 1 3 3 3 0 169 170
171 1 3 3 3 0 170 171
172 1 3 3 3 0 171 172
173 1 3 3 3 0 172 173
174 1 3 3 3 0 173 174
175 1 3 3 3 0 174 175
176 1 3 3 3 0 175 176
177 1 3 3 3 0 176 177
178 1 3 3 3 0 177 178
179 1 3 3 3 0 178 179
180 1 3 3 3 0 179 180
181 1 3 3 3 0 180 181
182 1 3 3 3 0 181 182
183 1 3 3 3 0 182 183
184 1 3 3 3 0 183 184
185 1 3 3 3 0 184 185
186 1 3 3 3 0 185 186
187 1 3 3 3 0 186 187
188 1 3 3 3 0 187 188
189 1 3 3 3 0 188 189
190 1 3 3 3 0 189 190
191 1 3 3 3 0 190 191
192 1 3 3 3 0 191 192
193 1 3 3 3 0 192 193
194 1 3 3 3 0 193 194
195 1 3 3 3 0 194 195
196 1 3 3 3 0 195 196
197 1 3 3 3 0 196 197
198 1 3 3 3 0 197 198
199 1 3 3 3 0 198 199
200 1 3 3 3 0 199 200
201 1 3 3 3 0 200 201
202 1 3 3 3 0 201 202
203 1 3 3 3 0 202 203
204 1 3 3 3 0 203 204
205 1 3 3 3 0 204 205
206 1 3 3 3 0 205 206
207 1 3 3 3 0 206 207
208 1 3 3 3 0 207 208
209 1 3 3 3 0 208 209
210 1 3 3 3 0 209 210
211 1 3 3 3 0 210 211
212 1 3 3 3 0 211 212
213 1 3 3 3 0 212 213
214 1 3 3 3 0 213 214
215 1 3 3 3 0 214 215
216 1 3 3 3 0 215 216
217 1 3 3 3 0 216 217
218 1 3 3 3 0 217 218
219 1 3 3 3 0 218 219
220 1 3 3 3 0 219 220
221 1 3 3 3 0 220 221
222 1 3 3 3 0 221 222
223 1 3 3 3 0 222 223
224 1 3 3 3 0 223 224
225 1 3 3 3 0 224 225
226 1 3 3 3 0 225 226
227 1 3 3 3 0 226 227
228 1 3 3 3 0 227 228
229 1 3 3 3 0 228 229
230 1 3 3 3 0 229 230
231 1 3 3 3 0 230 231
232 1 3 3 3 0 231 232
233 1 3 3 3 0 232 233
234 1 3 3 3 0 233 234
235 1 3 3 3 0 234 235
236 1 3 3 3 0 235 236
237 1 3 3 3 0 236 237
238 1 3 3 3 0 237 238
239 1 3 3 3 0 238 239
240 1 3 3 3 0 239 240
241 1 3 3 3 0 240 241
242 1 3 3 3 0 241 242
243 1 3 3 3 0 242 4
244 1 3 1 4 0 4 243
245 1 3 1 4 0 243 244
246 1 3 1 4 0 244 245
247 1 3 1 4 0 245 246
248 1 3 1 4 0 246 247
249 1 3 1 4 0 247 248
250 1 3 1 4 0 248 249
251 1 3 1 4 0 249 250
252 1 3 1 4 0 250 251
253 1 3 1 4 0 251 252
254 1 3 1 4 0 252 253
255 1 3 1 4 0 253 254
256 1 3 1 4 0 254 255
257 1 3 1 4 0 255 256
258 1 3 1 4 0 256 257
259 1 3 1 4 0 257 258
260 1 3 1 4 0 258 259
261 1 3 1 4 0 259 260
262 1 3 1 4 0 260 261
263 1 3 1 4 0 261 262
264 1 3 1 4 0 262 263
265 1 3 1 4 0 263 264
266 1 3 1 4 0 264 265
267 1 3 1 4 0 265 266
268 1 3 1 4 0 266 267
269 1 3 1 4 0 267 268
270 1 3 1 4 0 268 269
271 1 3 1 4 0 269 270
272 1 3 1 4 0 270 271
273 1 3 1 4 0 271 272
274 1 3 1 4 0 272 273
275 1 3 1 4 0 273 274
276 1 3 1 4 0 274 275
277 1 3 1 4 0 275 276
278 1 3 1 4 0 276 277
279 1 3 1 4 0 277 278
280 1 3 1 4 0 278 279
281 1 3 1 4 0 279 280
282 1 3 1 4 0 280 281
283 1 3 1 4 0 281 282
284 1 3 1 4 0 282 283
285 1 3 1 4 0 283 284
286 1 3 1 4 0 284 285
287 1 3 1 4 0 285 286
288 1 3 1 4 0 286 287
289 1 3 1 4 0 287 288
290 1 3 1 4 0 288 289
291 1 3 1 4 0 289 290
292 1 3 1 4 0 290 291
293 1 3 1 4 0 291 292
294 1 3 1 4 0 292 293
295 1 3 1 4 0 293 294
296 1 3 1 4 0 294 295
297 1 3 1 4 0 295 296
298 1 3 1 4 0 296 297
299 1 3 1 4 0 297 298
300 1 3 1 4 0 298 299
301 1 3 1 4 0 299 300
302 1 3 1 4 0 300 301
303 1 3 1 4 0 301 302
304 1 3 1 4 0 302 303
305 1 3 1 4 0 303 304
306 1 3 1 4 0 304 305
307 1 3 1 4 0 305 306
308 1 3 1 4 0 306 307
309 1 3 1 4 0 307 308
310 1 3 1 4 0 308 309
311 1 3 1 4 0 309 310
312 1 3 1 4 0 310 311
313 1 3 1 4 0 311 312
314 1 3 1 4 0 312 313
315 1 3 1 4 0 313 314
316 1 3 1 4 0 314 315
317 1 3 1 4 0 315 316
318 1 3 1 4 0 316 317
319 1 3 1 4 0 317 318
320 1 3 1 4 0 318 319
321 1 3 1 4 0 319 320
322 1 3 1 4 0 320 321
323 1 3 1 4 0 321 5
$EndElements
