$MeshFormat
4.1 0 8
$EndMeshFormat
$PhysicalNames
4
0 1 "left"
0 3 "right"
1 2 "GaSb"
1 4 "InAs"
$EndPhysicalNames
$Entities
3 2 0 0
1 0 0 0 1 1 
2 1.2 0 0 0 
3 4.8 0 0 1 3 
2 0 0 0 1.2 0 0 1 2 2 1 -2 
4 1.2 0 0 4.8 0 0 1 4 2 2 -3 
$EndEntities
$Nodes
5 49 1 49
0 1 0 1
1
0 0 0
0 2 0 1
2
1.2 0 0
0 3 0 1
3
4.8 0 0
1 2 0 11
4
5
6
7
8
9
10
11
12
13
14
0.09999999999981005 0 0
0.1999999999995874 0 0
0.2999999999993069 0 0
0.3999999999990156 0 0
0.4999999999987456 0 0
0.5999999999984756 0 0
0.6999999999987266 0 0
0.7999999999989921 0 0
0.8999999999992493 0 0
0.9999999999994922 0 0
1.099999999999742 0 0
1 4 0 35
15
16
17
18
19
20
21
22
23
24
25
26
27
28
29
30
31
32
33
34
35
36
37
38
39
40
41
42
43
44
45
46
47
48
49
1.299999999999737 0 0
1.399999999999518 0 0
1.499999999999313 0 0
1.599999999999176 0 0
1.699999999998947 0 0
1.799999999998685 0 0
1.899999999998422 0 0
1.999999999998135 0 0
2.099999999997767 0 0
2.199999999997413 0 0
2.299999999997242 0 0
2.399999999996907 0 0
2.49999999999663 0 0
2.599999999996671 0 0
2.699999999996394 0 0
2.799999999996059 0 0
2.899999999995889 0 0
2.999999999995708 0 0
3.099999999995894 0 0
3.199999999996069 0 0
3.299999999996496 0 0
3.399999999996883 0 0
3.499999999997156 0 0
3.599999999997544 0 0
3.699999999998047 0 0
3.799999999998319 0 0
3.899999999998591 0 0
3.999999999998844 0 0
4.099999999999116 0 0
4.199999999999061 0 0
4.299999999999121 0 0
4.39999999999947 0 0
4.49999999999953 0 0
4.599999999999474 0 0
4.699999999999746 0 0
$EndNodes
$Elements
4 50 1 50
0 1 15 1
1 1 
0 3 15 1
2 3 
1 2 1 12
3 1 4 
4 4 5 
5 5 6 
6 6 7 
7 7 8 
8 8 9 
9 9 10 
10 10 11 
11 11 12 
12 12 13 
13 13 14 
14 14 2 
1 4 1 36
15 2 15 
16 15 16 
17 16 17 
18 17 18 
19 18 19 
20 19 20 
21 20 21 
22 21 22 
23 22 23 
24 23 24 
25 24 25 
26 25 26 
27 26 27 
28 27 28 
29 28 29 
30 29 30 
31 30 31 
32 31 32 
33 32 33 
34 33 34 
35 34 35 
36 35 36 
37 36 37 
38 37 38 
39 38 39 
40 39 40 
41 40 41 
42 41 42 
43 42 43 
44 43 44 
45 44 45 
46 45 46 
47 46 47 
48 47 48 
49 48 49 
50 49 3 
$EndElements
